<?xml version="1.0" standalone="no"?>
<!DOCTYPE svg PUBLIC "-//W3C//DTD SVG 20010904//EN"
 "http://www.w3.org/TR/2001/REC-SVG-20010904/DTD/svg10.dtd">
<svg version="1.0" xmlns="http://www.w3.org/2000/svg"
 width="256.000000pt" height="256.000000pt" viewBox="0 0 256.000000 256.000000"
 preserveAspectRatio="xMidYMid meet">
<metadata>
Created by potrace 1.11, written by Peter Selinger 2001-2013
</metadata>
<g transform="translate(0.000000,256.000000) scale(0.100000,-0.100000)"
fill="#000000" stroke="none">
<path d="M1275 2167 c-16 -8 -40 -25 -51 -38 -28 -31 -76 -109 -68 -109 4 0 2
-6 -4 -12 -10 -13 -37 -102 -46 -151 -2 -15 -7 -35 -10 -45 -5 -17 -8 -35 -22
-137 -8 -60 -12 -92 -13 -123 -1 -19 -4 -21 -20 -13 -34 19 -83 22 -100 8 -9
-8 -32 -20 -51 -27 -19 -7 -53 -28 -76 -46 -27 -22 -44 -30 -51 -23 -6 6 -32
16 -60 23 -44 12 -55 11 -100 -6 -199 -74 -288 -431 -181 -718 7 -19 16 -37
19 -40 3 -3 12 -16 18 -28 17 -33 81 -102 94 -102 6 0 18 -6 26 -14 22 -20
101 -26 144 -11 33 11 38 11 58 -12 58 -60 183 -92 253 -64 27 11 32 9 53 -13
75 -81 202 -107 298 -61 28 13 68 42 90 64 42 42 76 46 102 13 7 -8 27 -15 44
-14 39 1 128 43 158 75 20 23 24 23 59 11 118 -40 251 58 306 226 32 96 42
159 41 240 -5 203 -84 377 -198 437 -41 21 -111 27 -153 13 -32 -11 -38 -10
-55 9 -10 11 -40 32 -65 47 -57 33 -149 39 -201 12 -29 -15 -33 -15 -47 1 -24
26 -54 117 -45 134 5 9 -2 46 -20 99 -27 79 -44 152 -46 188 -1 27 17 28 76 7
72 -26 106 -17 131 32 15 30 15 38 3 68 -18 43 -31 55 -86 83 -55 29 -160 37
-204 17z"/>
</g>
</svg>
