<?xml version="1.0" standalone="no"?>
<!DOCTYPE svg PUBLIC "-//W3C//DTD SVG 1.1//EN" "http://www.w3.org/Graphics/SVG/1.1/DTD/svg11.dtd" >
<svg xmlns="http://www.w3.org/2000/svg" xmlns:xlink="http://www.w3.org/1999/xlink" version="1.1">
<metadata>
Created by FontForge 20170924 at Thu Oct  6 21:35:59 2005
 By www-data
(c) 2005 Jess Latham www.bvfonts.com
</metadata>
<defs>
<font id="MyScars" horiz-adv-x="553" >
  <font-face 
    font-family="My Scars"
    font-weight="400"
    font-stretch="normal"
    units-per-em="1000"
    panose-1="0 0 4 0 0 0 0 0 0 0"
    ascent="800"
    descent="-200"
    x-height="589"
    cap-height="556"
    bbox="-87 -199 2457 800"
    underline-thickness="20"
    underline-position="-143"
    unicode-range="U+0020-2122"
  />
<missing-glyph horiz-adv-x="500" 
d="M63 0v800h375v-800h-375zM125 63h250v675h-250v-675z" />
    <glyph glyph-name=".notdef" horiz-adv-x="500" 
d="M63 0v800h375v-800h-375zM125 63h250v675h-250v-675z" />
    <glyph glyph-name=".null" horiz-adv-x="0" 
 />
    <glyph glyph-name="nonmarkingreturn" horiz-adv-x="325" 
 />
    <glyph glyph-name="space" unicode=" " horiz-adv-x="325" 
 />
    <glyph glyph-name="Eth" unicode="&#xd0;" horiz-adv-x="518" 
d="M126 610q4 5 4 8q0 4 -7.5 8.5t-8.5 9.5q1 -3 1 -12.5t11 -13.5zM121 572q8 1 8 10q0 21 -2 17q-10 -5 -10 -17q0 -6 4 -10zM369 384q1 5 -1 8q0 -4 1 -8zM69 448q-1 -5 -5.5 -18.5t-4.5 -21.5q0 -5 1 -9q14 -8 17 -17q1 -2 5 -23q28 20 82 62l-30 2v3q-1 12 11.5 28.5
t11.5 29.5q2 -18 27 -18q8 0 15 2l5 -18q2 -1 54 -17q17 -4 38 -15q10 -5 25 -36t29 -40q6 8 11 8t14.5 -12.5t17.5 -12.5q3 0 6 1l-12 14q4 6 13 6.5t13 3.5q-11 16 -46.5 16.5t-46.5 22.5l11 12q4 -4 21 -3q14 1 16 -6q1 9 14.5 19.5t13.5 15.5q0 4 -3 8q-3 -1 -5 -1
q-5 0 -13 3.5t-13 3.5q-6 0 -11 -5q-15 7 -18 16.5t-7 19.5q-16 30 -70 30q-9 0 -28 -1.5t-29 -1.5q-44 0 -67 25l11 8q-4 7 -16 10t-16 11l4 4q-8 3 -9.5 16.5t-11.5 15.5q-11 -5 -15 -22t-12 -21q8 -6 8 -15q0 -7 -6 -19t-7 -19l-8 15q-18 -5 -29 -21q13 -1 25 -15
q9 -12 19 -24zM400 383q10 -1 11 8q-2 2 -4 3q5 3 5 7q0 -1 -10 12v-3q0 -4 -2.5 -10.5t-2.5 -9.5q0 -7 3 -7zM137 374q5 -3 10 -3q6 0 9 4q-4 6 -9 6q-7 0 -10 -7zM435 302q4 5 7 4q-17 12 -24 12q-13 0 -23 -18t-23 -21v-2q0 -8 13.5 -13t11.5 -17l10 12q5 -5 5 -12
q0 -22 -21 -23l8 -10q-19 -3 -37 -5q-22 -2 -29 -19q-1 -6 0.5 -10t7.5 -4q2 11 13 11q-7 0 24 -5l-13 -23l-12 10q-55 -10 -68 -60l-94 -30q-62 -17 -94 -16h-8q9 18 9 48q0 19 -4 50q14 8 15 32t15 34v3q0 7 -7 38q4 4 8 29q4 21 19 29q-5 11 -14 11q-7 0 -23.5 -8
t-25.5 -7q-7 -15 -14 -65q-5 -39 -24 -61q3 -6 6 -6q1 0 4 1.5t4 1.5q2 0 5 -4q0 2 0 -28q0 -9 7 -20q-6 -5 -9 -5q-5 0 -8.5 8t-6.5 8q-4 0 -10 -9q1 -8 11 -10t13 -8l-15 -16q15 -24 15 -57q0 -4 -1 -12.5t-1 -12.5q0 -11 9.5 -17t18.5 -11q7 9 21 20q11 0 33 4.5t46 9.5
q28 6 48 5q16 16 45 22q35 7 47 14q18 24 70 63q49 38 68 65q-4 7 -10 7t-8 -8q-5 3 -5 6q0 2 4 6t4 7q0 2 -1 4q0 -9 -8 -9q-10 0 -18 7l-1 4q0 12 13 14q19 3 24 7l-15 7q2 4 18 9q13 4 13 19q-3 -2 -6 -2q-5 0 -14 12t-18 10zM46 -30q10 -30 23 -30q9 0 19 13q7 10 14 21
q-7 13 -17 13q-8 0 -20.5 -8t-18.5 -9zM120 -18q1 -6 8 -6q8 0 8 7q0 2 -1 4q-4 2 -6 2q-5 0 -9 -7zM81 301q-5 -8 -12 -8q-4 0 -17 5q-10 4 -16 0q-6 -9 -20.5 -13t-20.5 -14q-2 -17 6 -21q5 3 12 3q8 0 24.5 -8t24.5 -8q9 0 16 7l-2 -4q4 -4 9 -4t18.5 11.5t21.5 9.5
q7 -20 18 -20q6 0 19.5 7t22.5 7q11 0 20 -8q5 -4 12 -4q22 0 41 32q-27 23 -71 23q-9 0 -28 -1t-29 -1q-29 0 -49 9z" />
    <glyph glyph-name="eth" unicode="&#xf0;" horiz-adv-x="518" 
d="M126 610q4 5 4 8q0 4 -7.5 8.5t-8.5 9.5q1 -3 1 -12.5t11 -13.5zM121 572q8 1 8 10q0 21 -2 17q-10 -5 -10 -17q0 -6 4 -10zM369 384q1 5 -1 8q0 -4 1 -8zM69 448q-1 -5 -5.5 -18.5t-4.5 -21.5q0 -5 1 -9q14 -8 17 -17q1 -2 5 -23q28 20 82 62l-30 2v3q-1 12 11.5 28.5
t11.5 29.5q2 -18 27 -18q8 0 15 2l5 -18q2 -1 54 -17q17 -4 38 -15q10 -5 25 -36t29 -40q6 8 11 8t14.5 -12.5t17.5 -12.5q3 0 6 1l-12 14q4 6 13 6.5t13 3.5q-11 16 -46.5 16.5t-46.5 22.5l11 12q4 -4 21 -3q14 1 16 -6q1 9 14.5 19.5t13.5 15.5q0 4 -3 8q-3 -1 -5 -1
q-5 0 -13 3.5t-13 3.5q-6 0 -11 -5q-15 7 -18 16.5t-7 19.5q-16 30 -70 30q-9 0 -28 -1.5t-29 -1.5q-44 0 -67 25l11 8q-4 7 -16 10t-16 11l4 4q-8 3 -9.5 16.5t-11.5 15.5q-11 -5 -15 -22t-12 -21q8 -6 8 -15q0 -7 -6 -19t-7 -19l-8 15q-18 -5 -29 -21q13 -1 25 -15
q9 -12 19 -24zM400 383q10 -1 11 8q-2 2 -4 3q5 3 5 7q0 -1 -10 12v-3q0 -4 -2.5 -10.5t-2.5 -9.5q0 -7 3 -7zM137 374q5 -3 10 -3q6 0 9 4q-4 6 -9 6q-7 0 -10 -7zM435 302q4 5 7 4q-17 12 -24 12q-13 0 -23 -18t-23 -21v-2q0 -8 13.5 -13t11.5 -17l10 12q5 -5 5 -12
q0 -22 -21 -23l8 -10q-19 -3 -37 -5q-22 -2 -29 -19q-1 -6 0.5 -10t7.5 -4q2 11 13 11q-7 0 24 -5l-13 -23l-12 10q-55 -10 -68 -60l-94 -30q-62 -17 -94 -16h-8q9 18 9 48q0 19 -4 50q14 8 15 32t15 34v3q0 7 -7 38q4 4 8 29q4 21 19 29q-5 11 -14 11q-7 0 -23.5 -8
t-25.5 -7q-7 -15 -14 -65q-5 -39 -24 -61q3 -6 6 -6q1 0 4 1.5t4 1.5q2 0 5 -4q0 2 0 -28q0 -9 7 -20q-6 -5 -9 -5q-5 0 -8.5 8t-6.5 8q-4 0 -10 -9q1 -8 11 -10t13 -8l-15 -16q15 -24 15 -57q0 -4 -1 -12.5t-1 -12.5q0 -11 9.5 -17t18.5 -11q7 9 21 20q11 0 33 4.5t46 9.5
q28 6 48 5q16 16 45 22q35 7 47 14q18 24 70 63q49 38 68 65q-4 7 -10 7t-8 -8q-5 3 -5 6q0 2 4 6t4 7q0 2 -1 4q0 -9 -8 -9q-10 0 -18 7l-1 4q0 12 13 14q19 3 24 7l-15 7q2 4 18 9q13 4 13 19q-3 -2 -6 -2q-5 0 -14 12t-18 10zM46 -30q10 -30 23 -30q9 0 19 13q7 10 14 21
q-7 13 -17 13q-8 0 -20.5 -8t-18.5 -9zM120 -18q1 -6 8 -6q8 0 8 7q0 2 -1 4q-4 2 -6 2q-5 0 -9 -7zM81 301q-5 -8 -12 -8q-4 0 -17 5q-10 4 -16 0q-6 -9 -20.5 -13t-20.5 -14q-2 -17 6 -21q5 3 12 3q8 0 24.5 -8t24.5 -8q9 0 16 7l-2 -4q4 -4 9 -4t18.5 11.5t21.5 9.5
q7 -20 18 -20q6 0 19.5 7t22.5 7q11 0 20 -8q5 -4 12 -4q22 0 41 32q-27 23 -71 23q-9 0 -28 -1t-29 -1q-29 0 -49 9z" />
    <glyph glyph-name="Scaron" unicode="&#x160;" horiz-adv-x="517" 
d="M280 566q0 1 1.5 3t1.5 3t-1 1l-7 -5q0 -2 3 -2h2zM30 363l-5 -5q5 2 5 5zM445 500q-3 10 -15 10q-11 0 -18 -6q-1 13 -1 15q-2 8 -8 12q-16 10 -83 25q-6 4 -11 4q-6 0 -16 -7t-16 -7t-13 6q-10 4 -22 4q-19 0 -56 -12.5t-57 -12.5q-37 -28 -37 -45q0 -7 6 -14
q-13 -11 -33.5 -39.5t-35.5 -39.5q5 -2 5 -17v-4q-2 -1 -3.5 2l-1.5 3q-2 -1 -2 -3t1.5 -5.5t1.5 -5.5q30 18 68 49q0 7 -6.5 8.5t-12.5 3.5q6 16 24 19q-5 6 -5 14q0 5 2 9h25q15 1 25 6q-1 3 -1 4q0 3 4.5 6t4.5 6q0 1 -1 4q3 -2 5 -2q5 0 10.5 8.5t8.5 8.5q4 0 9 -5
l-2 -2q14 -7 23 -7q7 0 19 4q-2 11 -12 11q-3 0 -8.5 -1t-8.5 -1q-8 0 -11 6q12 12 13.5 13t5.5 1q7 0 18.5 -7t15.5 -9l-1 -1q17 -14 44 -14q8 0 16 2l1 1q0 2 -2.5 3t-3.5 3l42 -10q22 -8 33 -27q3 0 3 6t4 6q6 -5 20.5 -5t19.5 -2q-4 -4 -4 -5q16 10 52 22q-5 1 -12 5
t-12 4zM472 490q-1 0 -5 -1q3 0 5 1zM408 540l-3 4l3 -9v5zM178 457l10 3q-1 4 -4 4q-7 0 -6 -7zM167 452h-2q-8 3 -6 8q-6 -1 -6 -6q0 -4 4 -9zM120 419q6 -9 11.5 -18t14.5 -9q6 0 10.5 18t19.5 17q1 2 1 3q0 10 -10 10q-4 0 -5 -6q-6 6 -5 6q-6 0 -6 -6q0 -2 1 -5t1 -5
q0 -3 -3 -5l-12 12v-5q0 -6 -6 -6q-10 0 -12 -1zM379 419l1 -7l2 1q0 6 -3 6zM34 329q2 -2 6 -2q3 0 7.5 1t7.5 1h3q-4 -9 -4 -14q0 -9 19 -15t20 -18q2 -1 4 -1q5 0 18 9q2 -1 2 -3t-5 -6.5t-5 -5.5q5 2 12 2q10 0 28.5 -8.5t26.5 -8.5q7 0 12 4q20 1 38.5 -17.5
t32.5 -20.5l-1 1q-2 0 -6 -8l18 -13q2 0 4.5 2t2.5 4q0 3 -6 7t-7 7q41 -3 94 -46l2 -1q6 0 21 14q5 -10 14 -10q17 0 17 24q0 11 -7 19q-29 17 -120 52q-7 -3 -15 -3q-11 0 -31.5 9.5t-32.5 9.5q-5 3 -5 6q0 2 2.5 5t2.5 6q0 2 -4 5h-2q-3 0 -8.5 3t-9.5 3h-2
q0 -4 5.5 -7.5t5.5 -6.5q0 -2 -1 -4q-12 0 -28 18q11 5 11 16q0 4 -1.5 11t-1.5 10q0 9 6 15v3q0 -7 -3 14q-6 -2 -6 -4q0 -1 3 -4t3 -5t-4 -4l-8 10q-6 3 -12 3q-9 0 -23 -9t-14 -16q0 -6 5 -9q-9 1 -21 11.5t-19 12.5q-12 -11 -25 -21q-13 -14 -16 -27zM136 56l16 -1l7 3
q-3 6 -8 6t-15 -8zM432 140q6 6 6 13v4q-5 3 -9 3t-17 -15q-3 1 -2 7q-7 13 -21 13t-14 -9q0 -3 2 -9t2.5 -8t2.5 -2t5 3.5t4 3.5l3 -1q-4 -5 -14 -10h6q6 0 6 -4q0 -2 -1 -5.5t-1 -4.5l2 -2q-6 -4 -9.5 -16t-8.5 -17q-4 5 -10 5q-8 0 -15 -7q-1 -1 -1 -3q0 -4 6 -6.5
t7 -4.5q-8 -1 -16.5 -14t-19.5 -13q-3 -4 -3 -9q0 -13 10 -10q-10 -8 -19 -15q-12 -9 -21 -9q-4 0 -9 1q-2 18 -17 35q-11 -5 -33.5 -3.5t-34.5 -5.5q-1 2 -1 5q0 1 1 4v5q0 5 -7 7q-3 -1 -6 -1q-6 0 -17 4.5t-16 5.5q-15 -9 -28 -9q-11 0 -17 7q-15 3 -23 17q-20 -1 -28 -3
q-17 -5 -19 -18q9 -9 75 -55q6 9 14 9q3 0 8.5 -1.5t8.5 -1.5q6 0 12 4q-1 -1 -3 -1q-13 0 -13 12q0 3 2 5q6 -3 10 -3q1 0 3 1.5t2 2.5t-2 4t-2 4l1 3q5 -9 14 -9q3 0 8.5 1t8.5 1q-10 -2 -18 -14q-10 -16 -14 -19q18 -2 27 0v-2q0 -8 21.5 -17t25.5 -21h4q8 0 15 6t4 13
q2 2 5 2q5 0 12 -6t12 -6q4 0 9 4q3 -2 6 -2q4 0 9 9.5t11 9.5q13 -16 17 -16q2 0 5 2q0 7 4 20t4 20t-3 14q9 -4 17 -4q11 0 30 11.5t31 11.5q5 0 11 -2q3 6 20 15q14 7 16 18q-1 4 -7 3.5t-7.5 1.5t-1.5 4q0 6 10 11.5t10 10.5q0 3 -4 7h-1q-10 -1 -18.5 13t-13.5 17z
M178 -42q4 0 4 4q0 6 -4 6q-6 0 -6 -6q0 -4 6 -4zM336 678q-12 -1 -18 8q-1 -3 -1 -7q0 -1 11 -28q-16 -4 -37.5 -28.5t-42.5 -25.5q-10 14 -36 22q-31 11 -39 17q-5 11 -28 26q-20 12 -20 25q0 7 4 16q28 4 57.5 -32t49.5 -36q8 0 16 3q2 23 29 40q24 16 50 16q8 0 15 -2
q0 -3 -10 -14z" />
    <glyph glyph-name="scaron" unicode="&#x161;" horiz-adv-x="475" 
d="M47 409l-18 -12q-1 -4 -1 -7q0 -13 22 -20q26 -7 31 -17q3 -1 5 -1q4 0 6.5 7t4.5 8q1 -22 28 -32q35 -13 43 -23q13 10 13 22q0 11 -14 28l-22 24q-6 4 -14 4q-5 0 -15.5 -2.5t-15.5 -2.5q-4 0 -7 1l7 15q-11 3 -30 15l45 38q1 3 1 5q0 5 -4.5 11.5t-4.5 10.5l1 3
q6 4 50 8q34 4 43 29q-1 1 18 1q9 0 12 -8l-11 -8q13 -4 28 -4q13 0 33 3q24 4 33 5q6 -22 30 -23q29 -2 37 -11q17 9 23 19v4q1 14 -17.5 29.5t-18.5 22.5q0 4 2 8q-7 3 -15 3q-12 0 -29 -9q-26 -13 -27 -13q-7 24 -32 26q-40 3 -43 4q-13 6 -20 6q-10 0 -29.5 -7.5
t-29.5 -7.5q-12 0 -22 9q-6 -2 -49 -38q-4 -10 -4 -22q0 -27 19 -30q-5 -5 -10 -5t-15 12t-17 12q-5 0 -11 -4q-8 -12 -8 -47q0 -13 -3 -24q4 -6 22 -15zM63 521q-3 4 -6 4q-10 0 -10 -13v-2zM351 315q-5 22 -28 30q-21 4 -43 8q-6 4 -14 4q-6 0 -17 -3.5t-17 -3.5
q-9 0 -16 6q-18 -27 -18 -32t3 -9q24 -6 72 -19q2 1 6 1q7 0 21.5 -2.5t22.5 -2.5q25 0 28 23zM66 349v-15h3q5 1 8 7q-11 8 -10 8h-1zM205 296v-11h2q6 0 6 6l-1 1q-4 5 -5 5zM314 248q-1 -8 7 -8q11 0 15 8q-6 6 -12 6t-10 -6zM372 292q-7 0 -16.5 -8.5t-14.5 -8.5
q-4 0 -8 3q-3 -4 -3 -8q0 -3 2 -8.5t1 -10.5l33 4q19 19 19 25q0 4 -4.5 8t-8.5 4zM295 274l-8 7v-15zM389 248q-3 1 -2 9q-1 2 -6 2q-5 -18 -32.5 -21.5t-34.5 -23.5q7 -10 21 -39q11 -24 24 -36q2 1 5 1q2 0 7 -2.5t7 -2.5q7 0 7 11q0 1 -4 15q15 7 27 32q14 29 22 36
q-1 8 -7.5 18.5t-13.5 10.5q-4 0 -10.5 -5t-9.5 -5zM77 83q2 -12 12 -12q12 0 19 12v3q-21 4 -19 4q-8 0 -12 -7zM138 124q-5 -5 -5 -8q0 -4 10 -9.5t10 -12.5l11 7q-1 8 -7.5 16t-14.5 8q-2 0 -4 -1zM321 131q2 4 12 4q-1 16 -16 42q-8 2 -14 2q-18 0 -26 -27
q-9 -33 -19 -39h-2q-4 -1 -6.5 5.5t-6.5 6.5q-2 0 -4 -1q0 -12 -15.5 -19t-18.5 -15q-7 -4 -15 -4q-7 0 -19.5 3.5t-17.5 4.5q-7 5 -12 5t-12 -9t-14 -9q-4 0 -7 2q-1 -18 33 -53q20 -3 40 -3q68 0 106 26q21 14 21 42q0 6 -2 10h5q15 -1 25 8q2 3 2 5q0 4 -17 13zM119 113
q-24 25 -48 25q-10 0 -28 -7t-18 -15q0 -19 31 -19q9 0 27 8.5t36 7.5zM74 64q-3 1 -4 1q-4 0 -4 -5q0 -10 0 -7q1 -1 2 -1q6 0 6 10v2zM71 4q14 0 14 12v3q-3 4 -9 4q-14 0 -14 -13l2 -3t7 -3zM306 688q-12 -1 -18 8q-1 -3 -1 -7q0 -1 11 -28q-16 -4 -37.5 -28.5
t-42.5 -25.5q-10 14 -36 22q-31 11 -39 17q-5 11 -28 26q-20 12 -20 25q0 7 4 16q28 4 57.5 -32t49.5 -36q8 0 16 3q2 23 29 40q24 16 50 16q8 0 15 -2q0 -3 -10 -14z" />
    <glyph glyph-name="Yacute" unicode="&#xdd;" horiz-adv-x="436" 
d="M308 335q-12 -8 -11 -12v-1q5 -11 12 -11q10 0 10 10l-2 9h-2q3 0 -7 5zM76 627q0 7 5 14q-11 0 -12 28v3q-2 5 -7 5q-2 0 -6 -1t-6 -1q-4 0 -6 2v-3q1 -6 -8.5 -9t-10.5 -9q1 2 3 2q-3 0 6 -5q-1 -2 -1 -4q0 -4 6.5 -12.5t6.5 -14.5l-1 -1h-3q-4 0 -7 -2q2 -10 6 -10
q3 0 9.5 6t10.5 6q2 0 5 -2q8 -2 8 -13q0 -3 -1 -6q-10 6 -13 6l-3 -1q-2 -5 -6 -5q-2 0 -4.5 1t-4.5 1q-3 0 -5 -5q2 -10 24 -37q-1 1 -1 3q0 3 3 10.5t4 11.5t9 7.5t8 8.5q0 3 -4 12t-4 14zM378 658l-5 -5q0 -5 15 -10q3 2 3 5q0 7 -6 8t-7 2zM378 638q-2 -6 -5 -6t-7 4
t-7 4h-3q-1 -9 -11.5 -16.5t-12.5 -12.5q2 -2 8.5 -3t6.5 -7q0 -16 -1 -13q-3 -4 -8 -4q-1 0 -4 1q3 2 3 5q0 2 -1.5 5.5t-2.5 4.5t-5 1q-7 0 -11 -4q5 -7 15 -17q0 -9 -10 -10q-3 6 -7 18q-1 -13 -14.5 -41t-12.5 -45q-7 -8 -13 -7q-1 -6 -10.5 -16t-9.5 -22.5t-6 -29.5
q-9 -26 -10 -29q-3 2 -5 2q-4 0 -8.5 -8t-8.5 -9q-3 3 -3 14v1q-1 1 -3 1t-8 -6q-6 1 -8 10q-2 13 -2 14l9 7q-7 18 -16 22l12 3q-13 5 -22 22q-7 14 -13 29l6 9q-5 -4 -11 -4q-5 0 -13.5 2t-12.5 2q-6 0 -21.5 -9.5t-19.5 -16.5q3 -9 17 -20q4 -6 4 -11t-2 -10h5q8 0 24 5
q2 -2 2 -6q0 -11 -2 -13.5t-10.5 -2.5t-10.5 -5q3 -1 3 -9.5t8 -8.5q3 0 15 5q7 -3 7 -7q0 -3 -3 -11.5t-3 -13.5q0 -13 11 -26q14 -19 17 -24q2 -1 5 -1q5 0 8 6q3 -2 5.5 -5t6.5 -1q2 -3 2 -5q0 -4 -10.5 -8t-13.5 -8q-1 -25 -1 -19q0 -15 11 -18q-1 -2 -3 -2t-5.5 1.5
t-4.5 2.5q-3 -3 -7 -9q7 -16 17 -29v-3q0 -7 -8 -16t-9 -13q2 -4 1.5 -13.5t4.5 -12.5q-14 -9 -18 -22q6 -13 6 -15t-7.5 -2t-8.5 -2q-4 0 -4 -4q0 -2 3 -12q2 -7 -1 -9l-16 -9q0 -2 6.5 -6t6.5 -6q0 -10 -5 -13q0 -8 10 -13t10 -13q1 -2 1 -12q0 -4 -4.5 -8.5t-4.5 -8.5
t6 -4q2 0 5 1.5t5 1.5t6 -7q-6 -5 -6 -14q0 -7 6 -9q-3 -5 -6 -5q-6 0 -11 10q0 -3 -5 -9t-5 -11q0 -3 3 -6q2 2 4 2q3 0 6.5 -2.5t5.5 -2.5l4 2q2 6 15 7q10 0 7 11q4 4 4 7q0 5 -6 13t-6 12q4 7 12 16q0 7 8 20q0 7 14 7q6 0 7 1l7 11q0 2 -3.5 2.5t-4.5 1.5l-6 1
q-4 1 -8.5 -4t-6.5 -6q-2 1 -7.5 1.5t-6.5 3.5t-2 7l11 6q3 8 16 21q0 15 7.5 38.5t7.5 38.5q0 2 -3 12l7 3q0 5 -1.5 15.5t-1.5 16.5q0 7 2.5 11t10.5 23q6 13 19 15q-1 2 -1 5q0 5 6.5 12t6.5 12q-3 4 -15 8q-5 4 -5 7t5 7t5 7q0 2 -4 5q26 25 26 35q0 4 -2 9
q-16 14 -16 19l2.5 4t27.5 14q19 8 20 22q2 3 2 5q0 1 -12 9h1q7 -1 7 22q0 5 36 56l2 -2q1 3 1 7q0 9 -8 14q-2 -3 -6 -3q-3 0 -4 3q2 1 3.5 9t7.5 8q4 0 9 -4q6 6 5 16q2 4 14 5h3q8 13 17 42q-9 9 -12 9zM93 566q5 6 5 8q0 1 -10 11q0 1 0 -11q0 -5 5 -8zM88 585
q0 2 -2 3q1 -1 2 -3zM115 527q6 4 8 15.5t9 13.5q-6 3 -24 3q-3 0 -9.5 -1t-9.5 -1q-8 0 -11 4l-5 -10q6 -4 15 -17h4q16 1 23 -7zM154 252l-2 2q-1 -2 -3 -5h1h1q3 0 3 3v0zM168 232q-3 0 -5 -7q1 -2 3 -2q5 0 5 6q0 3 -3 3zM146 38q-13 9 -16 9q-5 0 -7 -4l-4 -8q0 -1 3 0
q2 0 2 -1q0 -5 3 -6q11 3 6 3q5 0 7 -1l6 1v7zM324 755q2 8 -6.5 9.5t-7.5 7.5q3 5 7 5q3 0 9.5 -7.5t10.5 -7.5q7 2 7 12t3 13q-7 4 -15 4t-32 -8q-20 -8 -32 -5q-18 -19 -72 -46l-3 7q-6 3 -11 3q-10 0 -11.5 -21.5t-7.5 -21.5q-4 0 -11 5q0 1 10 14q-5 -1 -13.5 1
t-10.5 2q-7 0 -14 -7q-19 -22 -19 -36q0 -8 7 -13q1 1 3 2l10 -12q6 -1 12 -1q16 0 40.5 17t40.5 17q61 33 106 67z" />
    <glyph glyph-name="yacute" unicode="&#xfd;" horiz-adv-x="403" 
d="M115 497q-8 -3 -8 -11q0 -7 8 -12q10 10 10 23q0 10 -8.5 32t-5.5 35q-11 13 -18 39q-9 30 -15 40l10 11l-22 11l12 12l-12 11q-3 1 -6 1q-11 0 -20 -13.5t-15 -13.5q4 -12 18 -76q10 -48 31 -70l-15 -8q3 2 7 2q7 0 20 -8t20 -8q4 0 9 3zM332 632q2 -3 2 -7
q0 -7 -3 -20.5t-3 -21.5q-19 -21 -52 -87q-29 -58 -60 -82q4 -5 4 -9q0 -7 -11 -16.5t-11 -15.5q0 -5 7 -11q5 5 10 5q6 0 12 -9q21 27 53 30q22 27 41 68l30 74q-4 9 -4 20q0 12 5.5 33.5t5.5 29.5q-2 2 -7.5 12.5t-9.5 10.5t-9 -4zM186 260l8 -7q5 16 5 33l-5 53
q-7 -12 -21 -12q-9 0 -17 5q3 -1 5 -1q6 0 13.5 10.5t13.5 10.5q3 0 6 -1q-15 16 -34.5 54t-33.5 54q-5 -2 -9 -2q-6 0 -15 4.5t-13 4.5q-8 0 -15 -11l11 -18l3 7q19 -2 32 -22q16 -25 25 -30q-15 -3 -16 -19q-2 -24 -3 -26q4 -8 17 -8q5 0 9 -4q-16 -18 -16 -47
q0 -15 5 -43t5 -43q0 -33 -20 -54q6 -10 6 -22q0 -13 -8.5 -37t-8.5 -37q0 -18 15 -32q5 -1 10 -1q17 0 19 25q3 31 8 37q12 -2 12 -6q0 -3 -4 -8.5t-4 -8.5q0 -5 8 -7q14 4 18 18q-8 2 -13 20q-5 14 -20 10q19 5 30 19q1 6 2 54q0 33 13 51h-5q-22 0 -22 25q0 7 4 12z
M212 317l23 3q3 7 3 12q0 7 -8 7q-6 0 -14 -5t-8 -11q0 -4 4 -6zM115 13v-30q25 7 30 23q-3 8 -13 8q-19 0 -17 -1zM314 755q2 8 -6.5 9.5t-7.5 7.5q3 5 7 5q3 0 9.5 -7.5t10.5 -7.5q7 2 7 12t3 13q-7 4 -15 4t-32 -8q-20 -8 -32 -5q-18 -19 -72 -46l-3 7q-6 3 -11 3
q-10 0 -11.5 -21.5t-7.5 -21.5q-4 0 -11 5q0 1 10 14q-5 -1 -13.5 1t-10.5 2q-7 0 -14 -7q-19 -22 -19 -36q0 -8 7 -13q1 1 3 2l10 -12q6 -1 12 -1q16 0 40.5 17t40.5 17q61 33 106 67z" />
    <glyph glyph-name="Thorn" unicode="&#xde;" horiz-adv-x="7938" 
d="M2340 243q-9 3 -17 -7t-16 -9q-4 -9 -11 -30q-2 1 -8.5 4t-10.5 3t-7 -4q-4 -17 -26 -23q-25 -6 -30 -15l-4 11q-1 -16 -21 -16h-8q-5 1 -8 1q-28 0 -27 -28q-3 -1 -5 -1q-5 0 -9 7t-8 9l18 4q-2 4 -20 11q-13 6 -11 18q16 6 16 13q0 4 -6.5 12t-6.5 13q0 6 12 12
q-10 7 -14 34q-3 24 -17 29q4 16 21.5 35t22.5 30q-22 7 -22 17q0 5 10 18t10 20q0 9 -11 17q11 -1 20.5 14t18.5 15q4 0 10 -2q11 2 11 8q0 4 -7 13t-5 13l-4 -4q-5 14 -27 34q1 6 -2 20.5t-3 19.5q0 16 16 24q-6 -3 -14.5 6.5t-16.5 7.5q4 13 23 23q14 7 10 31q-5 3 -12 3
q-6 0 -17 -3.5t-16 -4.5q8 -6 8 -14q0 -4 -2 -11.5t-2 -11.5l-15 14q4 -20 -11 -38q7 3 11.5 -5t7.5 -9q2 -7 -2.5 -13.5t-10.5 -6.5q-5 0 -9 4q1 -11 1.5 -22t10.5 -19q-27 -28 -36 -72q2 2 5 2q5 0 8.5 -9.5t1.5 -15.5l-7 4q7 -8 7 -15q0 -8 -7.5 -17t-14.5 -17
q16 -6 16 -20q0 -6 -3.5 -18.5t-3.5 -17.5q0 -14 16 -19q-17 -11 -23 -46l23 -7l-29 -27q0 -4 8 -30q6 -18 4 -30l-8 11q1 -20 -22 -42q-1 -4 -1 -8q0 -13 21 -40l7 15q0 -1 2 -23q1 -15 -1 -24q-2 -12 -11 -17q3 1 5 1q5 0 13.5 -10.5t16.5 -9.5q19 21 19 30q0 4 -1 8
q-10 4 -11 11t-1.5 14.5t-7.5 12.5q3 11 18 19q19 9 23 15q6 -15 17 -15q5 0 22 7.5t25 5.5q4 13 22 19q7 -8 22 -8q25 1 24 1q8 7 18 23q18 -3 44.5 17t39.5 20q5 0 10 -1q6 8 6 14q0 7 -17.5 12.5t-17.5 16.5q0 4 1 9zM2238 482q-7 12 -17 12q-5 0 -6 -8q-1 3 -5 5t-7 1
t-3 -6q29 -10 38 -4zM2415 286q9 11 19 38q-8 1 -25 3q-8 1 -10 11l45 5q-6 20 -1 45q-2 -2 -5 -2q-5 0 -14 9.5t-11 10.5l11 8q-10 3 -10 11q0 2 1 7t1 7q0 8 -8 12q1 -3 0 -6q0 -5 -4 -5q-2 0 -9.5 4.5t-8.5 3.5l7 15q-35 -2 -79 28q-6 -11 -17 -11q-7 0 -22.5 7t-21.5 7
q-2 -3 -2 -5q0 -5 10.5 -10.5t10.5 -6.5l-67 -17q18 -5 53 -17q2 2 4 11t8 9q12 0 42 -24q21 -16 41 -33q-4 -7 -4 -14q0 -11 16.5 -29t16.5 -30q0 -5 -1 -9q-19 -3 -19.5 -25.5t-17.5 -27.5q13 -10 13 -33q0 -4 -1 -5q11 -7 21 -7q15 0 36 20q25 24 35 28q-5 0 -14 10
t-19 7zM2457 271q-4 0 -9 -2q5 0 9 2zM2204 86q-1 -4 3 -7q4 -2 8 0v3q-2 4 -11 4zM2054 19q-4 -3 -4 -7t7.5 -11t8.5 -8l4 4q-3 6 -6 13.5t-10 8.5zM2051 -11v-11q4 2 8 7q-6 5 -8 4z" />
    <glyph glyph-name="thorn" unicode="&#xfe;" horiz-adv-x="7938" 
d="M2340 243q-9 3 -17 -7t-16 -9q-4 -9 -11 -30q-2 1 -8.5 4t-10.5 3t-7 -4q-4 -17 -26 -23q-25 -6 -30 -15l-4 11q-1 -16 -21 -16h-8q-5 1 -8 1q-28 0 -27 -28q-3 -1 -5 -1q-5 0 -9 7t-8 9l18 4q-2 4 -20 11q-13 6 -11 18q16 6 16 13q0 4 -6.5 12t-6.5 13q0 6 12 12
q-10 7 -14 34q-3 24 -17 29q4 16 21.5 35t22.5 30q-22 7 -22 17q0 5 10 18t10 20q0 9 -11 17q11 -1 20.5 14t18.5 15q4 0 10 -2q11 2 11 8q0 4 -7 13t-5 13l-4 -4q-5 14 -27 34q1 6 -2 20.5t-3 19.5q0 16 16 24q-6 -3 -14.5 6.5t-16.5 7.5q4 13 23 23q14 7 10 31q-5 3 -12 3
q-6 0 -17 -3.5t-16 -4.5q8 -6 8 -14q0 -4 -2 -11.5t-2 -11.5l-15 14q4 -20 -11 -38q7 3 11.5 -5t7.5 -9q2 -7 -2.5 -13.5t-10.5 -6.5q-5 0 -9 4q1 -11 1.5 -22t10.5 -19q-27 -28 -36 -72q2 2 5 2q5 0 8.5 -9.5t1.5 -15.5l-7 4q7 -8 7 -15q0 -8 -7.5 -17t-14.5 -17
q16 -6 16 -20q0 -6 -3.5 -18.5t-3.5 -17.5q0 -14 16 -19q-17 -11 -23 -46l23 -7l-29 -27q0 -4 8 -30q6 -18 4 -30l-8 11q1 -20 -22 -42q-1 -4 -1 -8q0 -13 21 -40l7 15q0 -1 2 -23q1 -15 -1 -24q-2 -12 -11 -17q3 1 5 1q5 0 13.5 -10.5t16.5 -9.5q19 21 19 30q0 4 -1 8
q-10 4 -11 11t-1.5 14.5t-7.5 12.5q3 11 18 19q19 9 23 15q6 -15 17 -15q5 0 22 7.5t25 5.5q4 13 22 19q7 -8 22 -8q25 1 24 1q8 7 18 23q18 -3 44.5 17t39.5 20q5 0 10 -1q6 8 6 14q0 7 -17.5 12.5t-17.5 16.5q0 4 1 9zM2238 482q-7 12 -17 12q-5 0 -6 -8q-1 3 -5 5t-7 1
t-3 -6q29 -10 38 -4zM2415 286q9 11 19 38q-8 1 -25 3q-8 1 -10 11l45 5q-6 20 -1 45q-2 -2 -5 -2q-5 0 -14 9.5t-11 10.5l11 8q-10 3 -10 11q0 2 1 7t1 7q0 8 -8 12q1 -3 0 -6q0 -5 -4 -5q-2 0 -9.5 4.5t-8.5 3.5l7 15q-35 -2 -79 28q-6 -11 -17 -11q-7 0 -22.5 7t-21.5 7
q-2 -3 -2 -5q0 -5 10.5 -10.5t10.5 -6.5l-67 -17q18 -5 53 -17q2 2 4 11t8 9q12 0 42 -24q21 -16 41 -33q-4 -7 -4 -14q0 -11 16.5 -29t16.5 -30q0 -5 -1 -9q-19 -3 -19.5 -25.5t-17.5 -27.5q13 -10 13 -33q0 -4 -1 -5q11 -7 21 -7q15 0 36 20q25 24 35 28q-5 0 -14 10
t-19 7zM2457 271q-4 0 -9 -2q5 0 9 2zM2204 86q-1 -4 3 -7q4 -2 8 0v3q-2 4 -11 4zM2054 19q-4 -3 -4 -7t7.5 -11t8.5 -8l4 4q-3 6 -6 13.5t-10 8.5zM2051 -11v-11q4 2 8 7q-6 5 -8 4z" />
    <glyph glyph-name="Zcaron" unicode="&#x17d;" horiz-adv-x="586" 
d="M295 540q4 -6 14.5 -5.5t14.5 -1.5q6 8 26 11q25 4 30 6l-4 3q4 5 12 5q3 0 10.5 -1.5t11.5 -1.5q2 3 11 7.5t9 8.5q0 3 -4 8h-6q-13 1 -18 -7v2q0 4 -6.5 7t-7.5 6q3 2 16.5 2t13.5 11q0 2 -5.5 3t-7.5 5q1 2 6 3h-1q-4 3 -7 3q-6 0 -16 -7t-19 -6q-1 -3 -1 -5
q0 -5 10.5 -6.5t12.5 -5.5q-4 -7 -16 -5.5t-16 -4.5q-3 4 -10 5l-12 1q21 8 23 26q-8 -5 -27 -8.5t-27 -6.5q4 -1 4 -7.5t1 -8.5q-4 -4 -15 -8q3 -5 14 -12q-3 -7 -14 -15zM169 541q5 0 60 6q2 5 12 7t10 7q0 2 -2 6q1 11 36 17v2q0 4 -7.5 5.5t-8.5 7.5h-1q-2 0 -5 1t-5 1
q-3 0 -4 -4l4 -3q-19 -1 -51 -9q-37 -9 -51 -11q-3 -1 -7.5 -9.5t-11.5 -7.5q-2 -3 -2 -7q0 -9 34 -9zM504 560q3 0 9 -2.5t10 -2.5t8 3q0 2 1.5 4t1.5 4q0 1 -1 3q-3 -2 -5 -2t-7 4t-10 3q-6 4 -6 9l1 1q2 -3 10 -7q1 2 11.5 7t10.5 8l-9 -6q-11 0 -12 11q-2 2 -4 2
q-4 0 -4 -7t-5 -7l-2 1q-3 6 -8 6q3 0 -16 -8q1 -5 -5.5 -6.5t-7.5 -3.5q1 0 4.5 -1.5t5.5 -1.5q3 0 5 4q-1 -1 -1 -4t1.5 -8.5t1.5 -8.5q0 -5 -4 -9l9 -4q5 2 9 8q6 10 8 11zM108 547q-3 -1 -3 -4v-5q23 4 30 2q-7 7 -15 12v2q0 2 4 5.5t4 5.5t-1 4q-3 -2 -7 -2q-5 0 -14 4
t-13 4t-7 -3q0 1 0 -7q0 -3 -5 -3q0 -9 6 -11l11 1q8 0 10 -5zM478 555q0 1 -2 2q-1 -2 -3 -5l1 -1h1q3 0 3 4v0zM281 541h9v7q-1 1 -3 1q-6 0 -6 -7v-1zM305 514q8 4 17 14q-1 -1 -23 -1q-15 0 -15 -6q0 -9 1 -9h3q3 0 8 2q5 1 9 0zM372 514q3 0 3 3v4h-2q-5 0 -5 -4
q0 -3 4 -3zM407 479h-1q-3 0 -4 -2q-7 8 -7 18q0 5 2 9l-9 2q-19 -20 -20 -41q12 0 32 -5l8 15zM356 465q-2 2 -2 3h-5v0q0 -4 5 -4zM387 428q1 1 1 3t-3 7q-2 4 0 8q-3 3 -5 3q-4 0 -9.5 -4t-9.5 -4h-2v2q0 -2 7 8h-6q4 0 -38 4q-4 -3 -3 -8v-1h1q4 -3 4 -6t-6.5 -8.5
t-7.5 -8.5q-4 -1 -25 -19q1 -1 3 -1q-5 0 9 4l1 -6q7 0 18 9q15 12 16 13q9 0 27 -4q0 -1 -8 -12q2 -3 5 -3l10 5q1 5 2 15q3 0 8.5 2.5t10.5 1.5zM480 131q-49 0 -73 13q-66 -6 -59 -6q-8 0 -21 3t-16 3q-10 0 -23.5 -9t-21.5 -10v2q0 1 3 5q-1 2 -5 2q-10 0 -6 0v-2
q0 -6 -7.5 -7t-9.5 -3h-2q-4 0 -9.5 4.5t-7.5 4.5h-2q-2 -7 -2 -6q0 -2 2 -3q-24 0 -37 -7q-18 9 -36 14q1 1 1 3q0 5 -5.5 10l-5.5 5q-17 11 -23 11q-4 0 -7 -2q-2 2 -2 5t2.5 8.5t2.5 8.5q4 -4 3 -7q15 1 36 21q0 5 -7.5 5.5t-7.5 4.5q22 4 39 15q-4 3 -5 12t-4 12l12 12
q44 6 75 24q-4 6 -4 12q0 24 0 20q14 14 22 14q3 0 6 -1q0 4 13 34q2 4 5 4q2 0 5.5 -2t5.5 -2q2 2 2 5q0 6 -6 7q10 10 32 24q9 23 9 19v1q-7 -8 -36 -17q0 -3 -10 -17q-2 1 -10 19h-3q-10 1 -10 -8q0 -1 6 -9q-14 -8 -18 -8t-7 3q-5 -2 -5 -4q0 -1 1.5 -3.5t1.5 -3.5
q0 -3 -2 -4q-2 1 -5 1q-2 0 -8 -2t-11 -1q2 -2 2 -3l-8 -5q0 1 0 -11q0 -4 -2 -8q-1 0 -5 3q2 -2 2 -5q0 -5 -5.5 -12t-10.5 -7q-2 0 -5.5 3.5t-6.5 3.5q-2 0 -5 -3q1 -3 1 -5q0 -7 -10 -11t-13 -8q3 -3 3 -5q0 3 -5 -12q-1 -1 -4 -1q-2 0 -11 3q-4 -9 -20.5 -24t-18.5 -29
q-2 1 -5 1q-5 0 -14 -3.5t-12 -4.5q-1 1 -1.5 4.5t-3.5 2.5q-1 -2 -1 -3q0 -3 6 -6.5t7 -5.5l16 3q0 -1 3.5 -6.5t3.5 -8.5q0 -1 -1 -2.5t-3 -1.5q-3 0 -8.5 4t-6.5 5l-12 -12h1q-2 0 9 -6q-3 -5 -3 -12q0 -12 10 -11l-7 -3q-1 -3 -1 -5q0 -3 15 -17h1q2 0 6 2.5t7 2.5
q2 0 3.5 -1.5t1.5 -3.5t-5 -3t-6 -2v-3q0 -2 2 -6t2 -6v0q-6 -5 -12 -5q-10 0 -26 11q0 -9 -27 -44q4 -9 20 -15q-1 -1 -1 -3v-4h10q-1 4 3 10q5 -5 10 -5q4 0 12 4t12 4q5 0 9 -3l-2 2q2 9 11.5 7.5t12.5 1.5t6 3t16 -9q1 6 12 9q5 -5 12 -5q5 0 13 2.5t12 2.5q8 0 14 -9
q18 4 46 5h47q16 1 131 21q5 1 15.5 13.5t20.5 11.5zM264 277q2 1 2 2v1v0h-1h-1q-1 0 -1 -1zM220 231q1 -2 5 -2q3 0 3 2q0 3 -3 3q-2 0 -5 -3zM529 146q-4 -5 -21.5 -8t-17.5 -13q0 -4 6.5 -6t9 -4.5t6.5 -2.5q8 0 15 12.5t14 14.5q-8 7 -9 7h-3zM478 103h4q2 1 2 2v2
l-4 2q-2 0 -2 -4v-2zM25 74l1 1q2 0 4.5 -3t4.5 -3q1 1 2 4q-1 3 -6 3q-3 0 -6 -2zM396 728q-12 -1 -18 8q-1 -3 -1 -7q0 -1 11 -28q-16 -4 -37.5 -28.5t-42.5 -25.5q-10 14 -36 22q-31 11 -39 17q-5 11 -28 26q-20 12 -20 25q0 7 4 16q28 4 57.5 -32t49.5 -36q8 0 16 3
q2 23 29 40q24 16 50 16q8 0 15 -2q0 -3 -10 -14z" />
    <glyph glyph-name="zcaron" unicode="&#x17e;" horiz-adv-x="531" 
d="M153 540v5q14 -10 47 -13q25 -1 50 -3q13 6 31 6q8 0 25 -2t26 -2q26 0 42 17q17 -3 50 -15q2 2 13 11q8 7 8 14q0 2 -1 6q-27 4 -63 4h-36q-25 -1 -37 -1q-34 0 -58 4q2 1 8.5 4t10.5 3q6 0 8 -7l12 16q-5 0 -15 1t-15 1q-26 0 -25 -18q-18 5 -46 5q-69 0 -58 -1
q-1 0 -37 -9q-20 -5 -29 -22q34 -12 56 -12q18 0 33 8zM471 575l-16 -19q4 -8 14 -8q11 0 17 8q0 1 -6 12q-3 7 -9 7zM405 475q4 5 22 14q15 7 17 17q-8 12 -15 12q-6 0 -17 -12t-18 -12q-6 0 -12 8v-2q0 -4 -6.5 -7t-6.5 -4q0 -3 5 -7q3 5 10 5q13 0 21 -12zM393 463l-31 4
q-3 2 -3 15q0 9 -8 8q-4 -3 -4 -7q0 -6 11 -16h-6q-14 0 -40 -8q-13 -19 -48 -52.5t-49 -55.5q0 -3 -2 -9t-2 -8q0 -8 8 -10l50 14q38 13 38 23q0 5 -4.5 13t-4.5 13q0 4 2 6q13 -6 23 -6q22 0 40 30q26 42 30 46zM188 397l12 -11q4 5 4 6q0 5 -6 5q-12 0 -10 0zM389 118
q-18 6 -77 35l4 -4q-35 -6 -39 -23h4q6 0 8 -4q-9 -6 -18.5 -12.5t-20.5 -6.5q-1 0 -3 1q-19 7 -47 7q-11 0 -32 -1.5t-31 -1.5q-24 0 -38 7q4 6 12 9q14 5 15 6q-5 4 -10 17t-13 18q12 12 55 28q37 13 45 35q1 4 4 22q1 3 3 11t2 13q0 19 -16 19q-9 0 -17 -11
q-9 -14 -14 -17l-12 12q0 6 4 6q2 0 8 -2q-2 6 -10 6t-24 -6q-20 -7 -24 -8q-17 -19 -24 -67q-9 -53 -19 -72q1 -9 14 -25t13 -25q0 -6 -4 -12q-11 2 -17 17t-10 18l-35 -23q0 2 0 -14q0 -7 4 -10q4 1 8 1q5 0 13.5 -1t13.5 -1q18 0 27 17l12 -16h9q59 0 172.5 23t170.5 24
q-19 15 -62 38zM196 138q11 -9 37 -8t36 -8v4q1 15 -17 18q-14 3 -29 5q-3 16 -7 16q-3 0 -9.5 -12.5t-10.5 -14.5zM142 138q-8 -8 -8 -11t4 -5h5q7 0 7 6q0 2 -4 5.5t-4 4.5zM356 718q-12 -1 -18 8q-1 -3 -1 -7q0 -1 11 -28q-16 -4 -37.5 -28.5t-42.5 -25.5q-10 14 -36 22
q-31 11 -39 17q-5 11 -28 26q-20 12 -20 25q0 7 4 16q28 4 57.5 -32t49.5 -36q8 0 16 3q2 23 29 40q24 16 50 16q8 0 15 -2q0 -3 -10 -14z" />
    <glyph glyph-name="brokenbar" unicode="&#xa6;" horiz-adv-x="180" 
d="M96 516q-6 2 -6 6q0 1 1 4t1 4q0 3 -4 5q-9 -16 -13 -16q-3 0 -7 4q15 11 16.5 28t1.5 34q1 22 15 33q-8 17 -8 42q0 13 6 57q4 35 1 55q-2 2 -4 2q-6 0 -18 -12.5t-16 -13.5q-11 -11 -19 -38.5t-6 -45.5q5 -9 5 -20q0 -12 -8.5 -37t-8.5 -39q0 -9 3 -18q5 -2 25 -22
q17 -19 29 -19q7 0 14 7zM86 319q-10 18 -10 45q0 15 4 46t4 45q0 28 -11 44q-9 13 -24 13q-14 0 -19 -14q7 -12 7 -31q0 -11 -2.5 -32.5t-2.5 -31.5q0 -8 1 -15q12 -13 17 -51q9 3 15 -11.5t10 -14.5t11 8zM118 154l16 12q-7 7 -9 31q-2 19 -20 24q8 4 8 9q0 4 -8 13t-5 13
q-15 -17 -27 -53l-18 -58q-2 -9 -2 -18q0 -13 6.5 -37.5t6.5 -36.5q0 -21 -15 -39q17 -3 13 -19q1 -3 1 -5q0 -17 -17 -11q-3 -6 -3 -14q0 -17 17 -41l3 4q10 -64 34 -86q5 1 13 9.5t15 7.5q-3 3 -3 8q0 4 2.5 13t2.5 12q0 13 -19 10q3 9 15 24q3 6 3 15q0 25 -20 24
q2 7 13 10.5t14 9.5q-20 24 -20 61q0 13 3 39.5t3 39.5q0 16 -3 29zM68 -159l8 9q-11 6 -15 6q-2 0 -2 -2q0 -4 9 -13z" />
    <glyph glyph-name="minus" unicode="&#xad;" horiz-adv-x="507" 
d="M168 331q-9 -7 -21 -7q-5 0 -27 4q-17 4 -27 1q-10 -9 -34.5 -12.5t-33.5 -12.5q-3 -16 10 -19q9 2 19 2q14 0 41.5 -7t40.5 -7q15 0 27 6l-4 -4q7 -4 15 -4q9 0 31 11t36 8q12 -18 30 -18q9 0 32 6.5t38 6.5q10 0 26.5 -5.5t25.5 -5.5q36 0 69 29q-45 22 -118 22
q-16 0 -47.5 -1.5t-47.5 -1.5q-48 0 -81 9z" />
    <glyph glyph-name="minus" unicode="&#x2212;" horiz-adv-x="507" 
d="M168 331q-9 -7 -21 -7q-5 0 -27 4q-17 4 -27 1q-10 -9 -34.5 -12.5t-33.5 -12.5q-3 -16 10 -19q9 2 19 2q14 0 41.5 -7t40.5 -7q15 0 27 6l-4 -4q7 -4 15 -4q9 0 31 11t36 8q12 -18 30 -18q9 0 32 6.5t38 6.5q10 0 26.5 -5.5t25.5 -5.5q36 0 69 29q-45 22 -118 22
q-16 0 -47.5 -1.5t-47.5 -1.5q-48 0 -81 9z" />
    <glyph glyph-name="multiply" unicode="&#xd7;" horiz-adv-x="433" 
d="M353 510q-23 4 -37 -21q-16 -28 -33 -30q-4 -17 -5 -20q-4 -10 -14 -13q3 -11 5.5 -22t15.5 -7q25 21 51 43q30 26 47 48q5 6 5 12q0 20 -21 20q-10 0 -14 -10zM379 158q-3 6 -10 7t-9 3q7 6 7 11t-11 13t-11 13q0 3 4 8q-4 8 -14 9q-13 1 -16 3q-7 24 -7 23q0 8 6 13
q-12 6 -37 30.5t-30 35.5q-3 6 -3 11q0 6 13.5 13t10.5 19q5 -7 8 -7q2 0 7 8.5t11 6.5q-2 7 -8 7q-16 0 -21 -18q-10 5 -36.5 1.5t-38.5 2.5q5 8 -4 13q-10 2 -16 -7l-23 23q3 5 2.5 17t6.5 18q-11 -3 -17 10t-16 9q-18 12 -18 32q-11 8 -31.5 11t-27.5 7q-2 -5 2 -7.5
t8 -5.5q-2 -6 -12.5 -6t-13.5 -4l4 -3l-13 -7q7 0 14 -6.5t13 -12.5l-13 -7q6 -4 13 -16l10 10q7 -19 38.5 -53.5t39.5 -58.5q6 1 13 1t10 -7t3 -14q0 -17 -32.5 -40t-33.5 -45v-19q2 -9 14 -10l-19 -4q-24 -32 -37 -60q-3 -5 -3 -9q0 -8 8.5 -15.5t7.5 -10.5q23 24 46 47
q25 28 39 52q5 12 16 34q3 6 29 8q28 2 49 -20q24 -26 41 -30q0 -8 9.5 -21.5t10.5 -20.5q7 -25 56 -21q13 1 13 9q0 3 -2.5 10t-2.5 10q0 5 4 7zM71 94l-3 -3q2 1 3 3z" />
    <glyph glyph-name="RS" horiz-adv-x="45" 
 />
    <glyph glyph-name="US" horiz-adv-x="45" 
 />
    <glyph glyph-name="exclam" unicode="!" horiz-adv-x="431" 
d="M351 572q3 10 8 31q2 10 0 10q-22 7 -48 -53q-31 -69 -42 -76q0 -3 6 -10l-13 -3q4 -3 4 -7t-9 -14t-9 -16t8 -12q-4 1 -8 1q-9 0 -12 -19.5t-16 -20.5q9 -3 9 -11q0 -4 -3 -13t-3 -12q-6 11 -16 -3l10 -13q3 4 7 8t9 2q6 -6 1 -22q-4 -12 6 -14q-6 -5 -20 -1.5t-20 -2.5
q10 -6 10 -10q0 -2 -5.5 -5.5t-5.5 -7.5t5 -9q2 9 9 10q7 0 13 -1q2 -3 2 -5q0 -6 -11 -9t-13 -5q0 -3 10 -13q3 -4 7 -4q5 0 8 7t1 10q17 4 23 -13l13 13q1 4 1 7q0 6 -7 6h-4q-4 -1 -5 -1q-6 0 -6 6q0 3 2.5 8t5.5 5t6.5 -6.5t7.5 -6.5q2 0 5 1l-6 10q3 6 10 7t9 3
q0 7 -6 5.5t-7 4.5q7 4 11 17q4 10 11 10q3 0 7 -1q23 49 46 123q20 62 39 125l-10 6q4 -11 -7 -13zM349 563l1 -4q0 1 -1 4zM210 236q-13 -3 -19 -6q4 -6 6 -6q3 0 6.5 5.5t6.5 6.5zM217 213q-1 -2 -7.5 -3t-5.5 -7q9 -13 16 -6q1 7 -3 16zM137 60q1 -1 9 -22q5 -14 24 -12
q13 7 32 23.5t23 28.5q1 2 -7 18l13 5q-10 2 -16.5 13t-14.5 11q-5 0 -11 -2q-18 -6 -30 -25.5t-22 -37.5z" />
    <glyph glyph-name="quotedbl" unicode="&#x22;" horiz-adv-x="353" 
d="M25 511q2 -11 4.5 -22.5t17.5 -15.5q2 5 11.5 10.5t9.5 9.5q0 2 -2 5q26 24 30 72q2 40 5 80q-8 8 -15 8q-8 0 -18 -22q-7 -15 -15 -31q-8 -12 -16 -45q-6 -24 -12 -49zM308 643q-5 -7 -9 -7t-10.5 8t-11.5 8q-3 0 -7 -2q-7 -19 -31 -54t-31 -57q-11 -10 -11.5 -34.5
t-7.5 -34.5q7 -7 9 -7q25 0 31.5 34.5t14.5 34.5q2 0 6 -1t6 -1q5 0 8 6q0 11 6 30.5t6 29.5q0 12 -6 22q3 0 9 2.5t10 2.5q6 0 10 -8q9 4 9 18v5v5z" />
    <glyph glyph-name="numbersign" unicode="#" horiz-adv-x="642" 
d="M53 353q-1 0 -1 -1q1 0 1 1zM434 431q-1 15 -3 26l12 14q-6 8 -7 34q-1 21 -16 27q6 5 6 10t-6.5 14.5t-3.5 14.5q-10 -15 -23 -69.5t-13 -73.5q-17 -1 -33 1q-3 9 -17 12q-17 5 -21 8l-1 -19q-27 -8 -42 0l-2 -14q-9 13 -32 10q-1 10 -1 21q0 15 4.5 45.5t4.5 46.5
q0 10 -2 19q-2 2 -5 2q-5 0 -16 -12.5t-17 -13.5q-12 -11 -19.5 -38.5t-5.5 -45.5q8 -15 2 -38h-25q-14 -3 -19 -15q-22 15 -45 15q-10 0 -19 -4q-4 -13 -23.5 -19t-20.5 -25q2 6 7 6q15 0 21 -17q10 16 28 16q8 0 23.5 -3t22.5 -3q19 0 29 15l10 -2q-6 -23 0 -40
q5 -2 23.5 -21t29.5 -19q8 0 15 6q-6 2 -6 6v4q1 3 1 4q0 3 -4 5q-10 -16 -12 -16q-3 0 -7 4q16 12 18 31v36q2 11 8 18q10 0 17 -8t14 -9q13 -1 21 9q-2 4 -4 4q-1 0 -6 -4t-8 -3q-3 4 7.5 12l10.5 8l12 -16t18 -6q2 -6 -3.5 -8t-4.5 -7q6 0 16 8t27 6q2 -12 11 -12
q3 0 10 1.5t11 1.5t8 -1q7 -42 -9 -69l5 -3l-13 4q-120 -31 -143 -30q-5 2 -14 4q-9 23 -29 23q-13 0 -19 -15l1 -2q-12 1 -19 -3q-10 -5 -75 -18q-44 -9 -38 -11q3 -1 27 -15q16 -10 27 -10t26.5 12.5t22.5 12.5t18 -10.5t15 -12.5q-4 -37 -1 -53q12 -13 17 -51
q9 3 15 -11.5t10 -14.5t11 8q-10 18 -10 45q0 15 4 45t4 45q14 -6 25 -13q2 0 130 10q2 -17 12 -37l3 5q4 -35 7 -51q7 -29 20 -45q4 0 10 10t11 8q-1 3 -1 8t1.5 14.5t1.5 13.5q0 15 -15 12q2 10 11 27q8 19 -2 36q14 -1 24 -2q-2 3 -2 7q0 13 13 13q4 0 8 -1q0 -1 7 -10
q5 -5 4 -10q5 -4 13 -3t9 8h-10q30 12 70 -2q-8 3 -13 32l11 1q-8 8 -38 2q-25 -5 -30 14q-5 -2 -6 -14q-20 14 -60 18q-8 30 -4 92q27 -10 45 -6q28 4 82 12q38 6 38 10q0 2 -2 3q-19 10 -20 11q-6 1 -24 -1q-16 -3 -24 12.5t-45 11.5zM384 388h1l2 -7zM395 108l6 9l-10 9
q-7 -4 4 -18z" />
    <glyph glyph-name="dollar" unicode="$" horiz-adv-x="475" 
d="M48 380l-19 -11q-1 -5 -1 -8q0 -13 22 -19q26 -8 31 -18q3 -1 5 -1q4 0 6.5 7t4.5 9q1 -22 28 -33q35 -13 43 -23q13 10 13 22q0 11 -14 27q-21 25 -22 26q-6 4 -13 4q-6 0 -16.5 -3t-14.5 -3q-5 0 -8 2l7 14q-11 3 -30 16l45 37q3 8 -2.5 16.5t-4.5 13.5q10 6 37 7.5
t39 8.5q-11 -20 -11 -45q0 -18 7 -53t7 -52q0 -18 -6 -32q-8 -8 -8 -15t13.5 -17.5t15.5 -18.5q-15 -3 -15 -19v-8q1 -6 1 -9q0 -15 -12 -20q6 -24 13 -48t37 -29q6 10 19 8q9 17 9 30t-10.5 30.5t-10.5 30.5q0 11 5 23q-3 -1 -6 -1q-7 0 -11.5 13t-14.5 11q3 10 19.5 16
t19.5 9l28 -7q7 1 24 -2q21 -3 27 -3q24 0 27 23q-5 22 -28 30l-43 8q-6 5 -14 5q-5 0 -16.5 -4t-18.5 -4q1 15 0 20q21 -1 31 13q-14 7 -14 21q0 8 9 10q-4 1 -9.5 -3.5t-7.5 -4.5q-3 0 -6 4l15 16q-6 45 -25 58q3 9 5 20q18 -3 43 0l42 6q6 -22 30 -23q29 -2 37 -11
q17 9 23 19q2 16 -17 33t-19 24q0 3 2 7q-7 3 -15 3q-11 0 -28 -8l-28 -14q-5 20 -25 25q-18 1 -37 3q-3 58 0 145q2 4 4 14q2 30 -26 49q-15 -5 -18 -32.5t-19 -23.5q-3 -17 -3 -37q0 -15 2 -43.5t2 -43.5q0 -14 -1 -26q-23 -8 -33 -8q-12 0 -22 8q-6 -2 -49 -37
q-4 -11 -4 -23q0 -27 19 -30q-5 -4 -9 -4q-6 0 -16 12t-17 12q-5 0 -10 -5q-9 -12 -9 -35q0 -27 -3 -36q5 -6 23 -15zM232 485v0v0v0zM63 493q-2 3 -6 3t-7.5 -5t-1.5 -10zM67 320v-15q4 0 7.5 1.5t3.5 5.5q-12 8 -11 8zM314 219q0 -8 7 -8q11 0 16 8q-14 15 -23 0zM372 263
q-7 0 -16.5 -8.5t-14.5 -8.5q-4 0 -8 3q-4 -6 -1 -14q2 -9 1 -12l34 3q18 19 18 25q0 5 -4 8.5t-9 3.5zM295 245l-7 8v-16zM430 200q0 8 -7 18.5t-14 10.5q-4 0 -10.5 -4.5t-9.5 -5.5q-3 1 -3 4q1 6 1 5q0 3 -6 2q-5 -18 -32.5 -21.5t-34.5 -23.5q7 -9 21 -38q12 -25 24 -37
q2 1 4 1q3 0 8.5 -2t7.5 -2q4 0 6 7q1 3 -4 19q15 7 27 31q15 29 22 36zM321 103q3 4 12 3q-1 16 -15 42q-8 2 -15 2q-18 0 -25 -27q-9 -32 -20 -39q-5 -1 -8 5.5t-7 6.5q-2 0 -4 -1q0 -12 -13 -18q-9 2 -12 -6q-7 -4 -9 -10q-6 -3 -14 -3q-7 0 -20 3.5t-18 3.5q-7 6 -12 6
t-12 -9.5t-14 -9.5q-3 0 -7 2q-1 -17 34 -53q31 -5 66 -1q4 -12 4 -23q0 -12 -8.5 -35.5t-7.5 -38.5q7 -5 16 -23q13 -9 20 5l-12 7q11 -1 18 9t13 19q-6 19 -8 46l2 -5q13 -1 19 9q-19 12 -21 0q-1 14 -2 36q34 8 47 18q21 15 21 43q0 5 -2 9q18 -1 30 8q1 3 1 5
q0 4 -17 14zM138 95q-5 -4 -5 -8t10 -9.5t10 -12.5l11 7q0 10 -9 18t-17 5zM78 54q1 -12 11 -12q13 0 19 12v4q-9 2 -17 3q-9 1 -13 -7zM119 84q-25 25 -47 25q-12 0 -29 -7q-13 -6 -14 -7q-4 -3 -4 -7q0 -11 12 -16q9 -3 17 -3q10 0 30.5 8t34.5 7zM74 35q-2 1 -4 1
q-3 0 -3 -12q4 -2 6 3t1 8zM63 -21q3 -4 9 -4q17 0 13 15q-3 4 -8 4q-7 0 -11.5 -5t-2.5 -10z" />
    <glyph glyph-name="percent" unicode="%" horiz-adv-x="618" 
d="M95 404q3 14 -9 16t-23 5q13 13 35 60q18 40 43 55q5 -2 9 -2q9 0 21.5 10.5t20.5 10.5t17 -8q2 8 16 13t14 11q0 3 -3 8q-3 -2 -5 -2q-5 0 -11.5 9.5t-12.5 9.5t-31.5 -14t-45.5 -12q-100 -97 -100 -113q0 -11 26 -30q-1 -4 -6 -3q-4 2 -7 3q3 -8 11.5 -7t12.5 -3
l-10 -10q9 -25 42 -20q-10 5 -10 8t6 5zM192 358q22 10 54 64q28 46 65 45l-25 24l14 14l-18 13q3 5 11 4l-11 6l11 8l-15 6q-10 -12 -18 -38q-9 -31 -18 -45q-21 -34 -74.5 -47t-68.5 -35q7 0 9.5 -9.5t7.5 -10.5q24 3 76 1zM477 432q13 21 13 37q0 12 -7 22
q-13 -9 -23.5 -26t-17.5 -23q5 -2 10.5 -9t10.5 -7t14 6zM29 431q-4 -3 -4 -8q0 -13 11 -13q4 0 7 4q-2 8 -14 17zM362 319q6 10 44 50q32 33 37 49q2 5 -2.5 9t-8.5 8q-16 0 -38 -15q-17 -12 -34 -25q2 -16 -17 -27q-23 -12 -27 -22q7 -7 23.5 -13t22.5 -14zM253 245
q4 -7 8 -7q3 0 10.5 5.5t12.5 5.5q6 20 29 32.5t28 27.5q-8 -3 -15 4t-12 7q-3 0 -8 -2l-13 -8q-8 -4 -7 -13q0 -2 5 -1h8q3 -2 1 -9q-7 3 -15 3q-38 0 -60 -32q1 -6 6.5 -8.5t10.5 -4.5q-5 -8 -20 -12.5t-20 -9.5l-3 -37q-11 -2 -28 -12q-24 -15 -27 -17q2 -5 2 -10
q0 -11 -11.5 -31t-11.5 -32q0 -5 2 -10h13q8 -5 13 -5q7 0 18 14t24 13q1 17 7 34q3 8 12.5 14t17.5 11q0 4 -9 11t-9 12t7 11q14 -8 20 -8q5 0 8 5q-5 6 -5 13t5.5 23t5.5 23zM146 64l-8 10l-13 -17q2 -4 6 -4q1 0 15 11zM304 256l10 11q-1 4 -4 4q-9 0 -9 -10q0 -4 3 -5z
M277 239q3 -1 5 -1q-2 2 -5 1zM282 238q5 -9 3 -9q1 1 2 3q1 3 -5 6zM260 231q-1 -1 -2 -5q3 3 2 5zM271 215l-14 9q-4 -13 7 -13q3 0 7 4zM256 224h1l1 2zM423 3q-12 -3 -20 -3q-19 0 -25 20q-18 -2 -35 -15q-1 3 -1 6q0 6 8 20t6 23q-10 8 -19 8q-11 0 -15 -12
q-4 1 -3.5 8t-4.5 9q21 9 55 45q32 33 58 40q16 -3 37 7q33 17 35 18q-5 11 -20 15.5t-29 7.5q-5 -10 -12 -10q-4 0 -15.5 6t-17.5 3q-41 -16 -81 -70q-2 -9 7 -11.5t17 -5.5q-6 -6 -23.5 -11t-24.5 -14q0 -10 2 -18q4 -13 13 -9q-1 -8 -5 -8h-4q-2 1 -3 1q-5 0 -5 -7l10 -7
q-10 1 -13 -6q-1 -4 0 -15t0 -14l31 -3q-5 1 -6 -2q-1 -2 0 -4.5t4 -7.5q0 8 12 18q-7 -23 27 -23q11 0 19 3q6 -2 6 -6q0 -2 -3 -7t-3 -7l10 13q7 4 18 4q6 0 17.5 -1t18.5 -1q21 0 36 11q-9 -1 -11 3l3 4q-7 -1 -20.5 8.5t-18.5 9.5q-8 0 -12 -13zM324 -13l2 -6q0 2 -2 6z
M481 1q10 2 7 10q-3 -6 -7 -10zM474 -2q3 0 7 3q-5 -1 -7 -3zM503 167q-22 -23 -20 -70q-8 -5 -8 -9t10.5 -11t8.5 -14q-9 -6 -19 -23t-25 -22q1 -2 17 -4q7 15 27.5 23.5t27.5 19.5l10 -10q-2 4 -5 9q-2 5 5 8q1 -11 10 -11q11 0 17 11q-4 5 -15 2t-16 8q6 9 16 9q3 0 9 -1
t9 -1q8 0 11 11q-10 11 -13 31.5t-9 30.5q-1 0 -20 9q-11 5 -20 5q-4 0 -8 -1zM98 39q-6 -3 -17 -7q3 -3 9 -1q8 3 8 8zM508 19q6 0 10 6.5t1 10.5q-14 4 -14 -11q0 -4 3 -6z" />
    <glyph glyph-name="ampersand" unicode="&#x26;" horiz-adv-x="475" 
d="M363 574q-9 -7 -9 -8q0 -3 4 -6q4 8 13 14q14 10 17 12q-11 0 -28 10l20 29q-17 19 -25 19t-16.5 -21t-14.5 -24q11 1 20.5 -11.5t18.5 -13.5zM408 605q-3 4 -9 3l-10 -2l1 -13q18 2 18 12zM303 576q0 1 8 -8q0 4 5.5 10t5.5 11q-3 2 -5 2t-5 -7.5t-9 -7.5zM336 577
q-6 -4 5 -12q5 11 5 10q-1 3 -10 2zM54 413q12 -22 7 -32q3 -2 10 -16q6 -9 16 -8q12 2 25.5 4t10.5 17q15 6 15 15q0 5 -10 21t-9 26q2 18 -16 20q-21 2 -24 12q-5 -6 -13 -2q-11 6 -12 6q-4 0 -7 -8q-2 -6 5 -32q9 -33 9 -35zM101 480q1 -3 1.5 -8t3.5 -4q1 6 -5 12z
M409 349q4 3 9 6.5t2 8.5q-1 3 -4 3q-9 0 -9 -13q0 -3 2 -5zM146 325q0 -3 8 -6l-2 6t-6 0zM371 86q-8 8 -19 8q-12 0 -17 -9q-9 1 -4 11.5t-1 13.5t-12 3t-18.5 -5.5t-20.5 -5.5t-16 4q-13 20 -13 51q0 15 4.5 46t4.5 46q0 11 -1 20q20 0 20 17q0 2 -1 7v8q0 11 8 14
q1 -5 6 -5q2 0 16 4q11 5 17 2l1 -3q7 10 44 18q31 7 35 34l-18 15q-12 9 -25 9q-11 0 -33 -8.5t-34 -8.5q-10 0 -19 4q6 33 6 88v24q0 71 13 110q15 3 20 0l-15 14l19 12q-13 4 -14.5 21t-16.5 18q-1 13 13 113l-4 3q-2 -11 -19 -20t-17 -20q0 -6 3 -13q-3 -11 -5 -60
q-2 -34 -17 -57q-13 9 -28 9q-14 0 -39 -12q-28 -14 -40 -17q-5 -13 -26.5 -29t-25.5 -26l17 -8q-3 -15 -17.5 -20.5t-27.5 -10.5q11 -12 23 -7q8 12 23 12q2 0 8 -1h8q12 0 18 8q-24 5 -26 4q1 3 -4 9t-5 9q0 5 6.5 13t10.5 9q5 -4 5 -7q0 -2 -7.5 -8t-4.5 -12t6 -6l6 6
q4 4 9 -4q21 -1 32 27q15 -1 31 6q26 10 30 11q0 -11 4 -13q5 0 9 1q8 -1 12 -8q2 -32 -4 -85q-8 -63 -9 -84q-14 8 -31 8q-10 0 -26 -3q-21 -4 -28 -5q-4 -5 -4 -10q0 -6 8.5 -18.5t8.5 -18.5t-6 -12q-1 -4 -10 -10.5t-7 -14.5q-5 0 -9 4t1 6q-20 4 -40 -20t-39 -25.5
t-19 -16.5q0 -2 1 -7v-7q0 -12 -10 -16q-1 -5 6 -13.5t7 -12.5t-5 -9q8 -13 12 -13q2 0 5 2q-1 3 3 7q2 -13 5 -25q2 -15 -3 -24q2 -9 17 -18q12 -7 11 -22q21 -11 27 -11q4 0 7 2q0 3 -8 9q7 14 16 5l-3 -3q6 -1 29 -9q15 -5 31 -4q27 3 33 -27q5 -25 9 -50q-1 -6 -1 -13
q0 -14 8.5 -39.5t9.5 -37.5q-1 6 -1 12q0 14 9 44t9 46q0 15 -6 28q23 30 73 30q12 0 29 -2q-2 4 1 8l3 4q0 2 -6 4q11 8 19 9zM157 258l-14 -16q-6 5 -6 8q0 8 20 8zM203 122q4 13 -10 22q-4 -6 -17.5 -10t-17.5 -9v0q2 6 0 11q-9 -1 -21.5 10.5t-19.5 11.5q-5 -7 -7 -1
l7 1q3 4 2 7q-6 2 -9 16q-2 11 -14 10l-9 -11l-11 12q7 1 9.5 6t5.5 5t7 -2q3 9 7 27q3 5 8 5q2 0 6.5 -1t6.5 -1q4 0 7 4q1 -1 -5 -11q1 0 22 -3q13 -2 19 -11q6 5 6 8q0 2 -6.5 5.5t-5.5 8.5q11 -1 26 3.5t15 14.5q-4 5 -7.5 11t-10.5 3q2 -10 -4 -10q-2 0 -9 2.5t-9 1.5
q5 5 5 10q0 1 -2 9q-2 6 0 11q2 -5 12.5 -4.5t10.5 -3.5q0 -2 -2 -6q2 -1 4 -1q4 0 10.5 5.5t10.5 5.5q1 -15 -1 -43q-2 -34 -2 -46q0 -37 11 -58q-8 2 -11.5 -3.5t-6.5 -11.5zM422 128l-13 -8q1 9 -9.5 10.5t-11.5 6.5q-19 -15 -44 -21q19 -11 40 -32q-1 -4 -7 -6.5
t-8 -4.5q16 -10 40 -6q6 5 4 18q-4 17 -3 21q2 9 20 6q-8 5 -8 16z" />
    <glyph glyph-name="quotesingle" unicode="'" horiz-adv-x="190" 
d="M144 643q-4 -7 -9 -7q-3 0 -10 8t-12 8q-3 0 -6 -2q-8 -19 -32 -54t-31 -57q-11 -10 -11.5 -34.5t-7.5 -34.5q7 -7 10 -7q24 0 31 34.5t15 34.5q2 0 5.5 -1t5.5 -1q5 0 8 6q0 11 6 30.5t6 29.5q0 12 -5 22q3 0 9 2.5t9 2.5q6 0 10 -8q10 4 10 18q0 2 -1 5v5z" />
    <glyph glyph-name="parenleft" unicode="(" horiz-adv-x="282" 
d="M192 620q-1 -15 -13.5 -33.5t-26.5 -22.5l-8 19q-16 -14 -37 -52.5t-40 -51.5q-14 -42 -24 -105l-18 -106q5 -3 7 -18.5t15 -19.5q-1 -2 -15 -7q-2 -3 -2 -6q0 -6 7 -13q11 -10 11 -11l-16 -16q16 -1 16 -6q0 -3 -6 -11t-6 -12q0 -7 9 -12q-2 -24 -15 -24q1 0 13 4
q6 2 11 -5q2 -2 2 -4q0 -3 -4.5 -5.5t-4.5 -5.5l22 -8q2 -2 2 -4q0 -7 -9 -7q-2 0 -4 2l2 4q-11 5 -15 -7q9 1 19 -11.5t12 -21.5q21 4 63 18q-3 16 -4.5 19.5t-10.5 16.5q-1 -4 -12 -6q2 9 2 19q0 42 -29 85q3 6 7 11.5t9 5.5q3 10 1.5 30.5t1.5 30.5q-7 -2 -11 -2
q-11 0 -11 12q0 3 1 11t1 12q0 16 -18 15q2 35 33 89q33 58 38 88q17 14 34 40q13 24 26 47q9 7 18.5 14t20.5 5l1 13q-7 13 -13 13q-5 0 -12 -8.5t-11 -8.5t-9 7zM111 565q-1 -1 -7 -1.5t-6 -2.5t2 -5q1 1 6.5 4t4.5 5zM195 -71q5 -2 5 -5q6 -1 9 6t0 13l-23 -2
q-4 7 -25 13q-17 5 -17 14q0 3 1 7q-3 4 -2 16t-2 16q2 3 11 2q6 -1 7 6q1 11 -10 11q-4 0 -5 -5q-4 6 -12 6q-6 0 -19 -6t-17 -7q13 -2 17.5 -15.5t9.5 -15.5q-2 -7 -12 -8t-11 -7q7 -1 11.5 -5.5t7.5 -4.5t9 3q4 -5 4 -9t-10 -7.5t-11 -10.5q16 -6 16 -40q19 -6 40 -14
t19 -29q7 3 12 14.5t9 13.5q-1 1 -9 17q-6 12 -11 11q-4 3 -4 6q0 2 6 7.5t6 8.5z" />
    <glyph glyph-name="parenright" unicode=")" horiz-adv-x="330" 
d="M255 172q0 18 18 24q-3 5 0 29q3 18 -17 21q-4 14 -4 33q0 10 1.5 29.5t1.5 29.5q0 11 -1 20l-20 -1l10 19q5 10 5 21q0 13 -13.5 38.5t-15.5 42.5q-1 11 -23.5 24.5t-22.5 31.5q0 6 2 15q-5 -1 -15 -7q0 20 -29 43q-33 26 -38 40q4 18 -15 18q-6 0 -11 -3
q0 -13 -0.5 -25t-9.5 -27q-2 -4 -2 -7q0 -7 8 -15q10 -11 12 -14q4 1 7 1q9 0 21 -12.5t23 -11.5l-11 -16q3 0 8 2.5t8 2.5q4 0 8 -3q-6 -6 -6 -10q0 -6 14 -10t11 -10q-7 1 -15 2q-7 0 -11 -7q35 -10 52 -59q7 -8 14 -8q9 0 15 10q7 -1 6 -6t-3 -10q-8 -2 -17 -3
q-10 -3 -16 3l-3 -17q8 1 15 -9q9 -15 10 -16q1 -14 -13 -17.5t-17 -14.5q10 0 12.5 -12t15.5 -9l-11 -13q3 -5 8 -3q6 1 9 0q-4 -20 -8 -41q-5 -26 -17 -37q0 -8 5 -9l11 1q7 1 10 -3q-2 -6 -8 -54q-3 -30 -29 -43q2 -7 2 -14q0 -14 -10.5 -39t-10.5 -37q0 -9 4 -17
q-9 -8 -19.5 -27t-16.5 -26l-25 -9q-11 -17 -37 -47l15 -10q-2 -6 -10 -2t-9 -5q5 -4 9 -4t11.5 5t12.5 6q19 21 31 42q8 1 25 -11q1 13 16.5 19t20.5 15q-1 19 23.5 48t24.5 46q0 9 -4 17l-11 5q16 11 24 39q4 24 9 47q3 3 7 0q3 -2 7 -4q2 2 2 5q0 2 -4 7t-2 7q-2 0 14 -2
q8 -2 12 4q-4 10 -8 10q-2 0 -11 -6q-7 -5 -11 0zM268 268l-7 5l2 -10q1 0 5 5zM253 79v-4q1 2 0 4zM245 54q7 5 8 21q-1 -1 -6 -7t-5 -9t3 -5zM54 -137q-5 4 -5 6q0 -3 -2.5 -8.5t-2.5 -8.5q0 -5 10 -6q12 7 6 18zM25 -159l13 2l-12 8z" />
    <glyph glyph-name="asterisk" unicode="*" horiz-adv-x="584" 
d="M140 528q2 0 28 -5q17 -3 27 -1v11q-17 -1 -29.5 15.5t-23.5 31.5q-16 -3 -30 -21q26 -9 28 -31zM414 267q-29 36 -78 113q41 17 100 26q51 6 103 12l-1 17q-3 -8 -20 -8q-20 0 -25 14q-42 10 -84 10q-47 0 -78 -13q-8 6 -7 17q20 4 36 26q21 29 29 34q-5 3 -5 7t4.5 13
t4.5 14q0 4 -2 8q10 -2 14 -7q9 6 7 17q-32 -4 -68 -38q-57 -53 -58 -54q-17 12 -38 12q-11 0 -31 -4t-29 -4q-21 0 -37 15q-3 -10 6.5 -23.5t9.5 -19.5t-5 -12q-18 -4 -38 -9t-30 -20q-19 0 -55 6q6 -16 -14 -18q0 -11 15.5 -15.5t16.5 -17.5q12 -2 34 3q-2 3 -2 5q0 3 9 8
t10 12q10 -1 87 -9q7 -6 7 -13q0 -6 -8.5 -18.5t-8.5 -20.5q-10 -17 -39 -45.5t-38 -46.5q-2 -7 -7 -20q-3 -5 -8 -16q-4 -14 -8 -29t-14 -24q3 -4 5 -4q3 0 6 4t5 4t5 -4q29 13 44 48q13 32 26 63q5 9 20 25q20 22 56 31t50 23q16 -9 42 -37.5t46 -36.5q4 0 13 -3.5
t13 -3.5q7 0 12 7zM411 253q-3 -5 1.5 -8t8.5 -5v7q-11 6 -10 6z" />
    <glyph glyph-name="plus" unicode="+" horiz-adv-x="579" 
d="M298 160q-5 17 -5 37q0 17 5.5 52t5.5 53q0 13 -2 24q64 4 208 8q-8 1 -24 6q1 6 5 6q1 0 3.5 -1t3.5 -1q3 0 5 3q-10 1 -31 15.5t-35 14.5l3 4q-8 -1 -17 -1q-14 0 -36 5t-33 5q-17 0 -36 -9q-1 11 -1 24q0 17 4 51.5t4 51.5q0 36 -13 60q-2 -2 -17 -11q-3 4 -10.5 3.5
t-9.5 2.5l6 -37q-1 -2 -7 -1.5t-6 -5.5q8 -11 17 -10q-1 -13 -18.5 -29.5t-17.5 -26.5t10 -21l6 18q4 -3 4 -11v-2q0 -8 4 -11q-9 -13 -21 -11q-2 -4 -2 -8t8 -9t8 -10q0 -3 -3 -8q-30 2 -69.5 -11t-52.5 -13q-10 0 -37 7t-36 4q-9 -2 -24 -11q-19 -10 -19 -18q0 -4 8 -7
q21 -6 65 -5q41 2 66 8q8 -4 39.5 -7t47.5 -12q3 -10 -9 -17.5t-11 -14.5q13 -1 15.5 -19t15.5 -18q1 -8 -7 -13q-11 -8 -13 -11q4 -6 4 -12q0 -5 -5.5 -14t-5.5 -14q0 -8 8 -16q14 -3 24 11q9 -35 31 -35q8 0 14 9q-4 4 -14 9zM275 563l-1 4q0 -2 1 -4zM490 384l-7 7l7 -14
v7zM524 327q13 3 7.5 12.5t2.5 15.5q-3 4 -10 3h-11q0 -12 11 -31z" />
    <glyph glyph-name="comma" unicode="," horiz-adv-x="230" 
d="M100 139q-4 -4 -4 -8q0 -6 6.5 -15.5t7.5 -14.5q-6 -1 -10 -10.5t-12 -8.5q0 3 0 -27q0 -12 3 -20q-2 -7 -4 -7q-1 0 -5 5.5t-8 5.5q-11 0 -15 -14q-3 -10 -6 -21l-28 -16v-3q0 -7 7.5 -12t14.5 -10l22 6q2 4 15 14t13 18q0 4 -3 9q39 32 60 31q6 15 31 45q-4 4 -16 37
q-7 21 -39 21q-16 0 -30 -5zM91 95q6 3 6 11v8q-15 16 -21 16t-10 -10q8 -11 25 -25zM104 1q3 -4 7 -4q12 0 12 13q0 9 -5 9q-3 0 -7.5 -8.5t-6.5 -9.5z" />
    <glyph glyph-name="hyphen" unicode="-" horiz-adv-x="508" 
d="M160 385q6 1 12 1.5t9 6.5q-3 10 -13 12q-10 3 -18 -3q-3 -5 1.5 -9t8.5 -8zM229 387q4 -7 8 -7q3 0 8 4.5t8 4.5q2 0 4 -2q-5 6 -18 13q1 -2 1 -3q0 -3 -5 -6.5t-6 -3.5zM370 403q4 -13 -11 -13q-4 0 -6 2l7 11q-4 -2 -9 -2t-15.5 2.5t-14.5 2.5q-12 0 -13 -18
q-4 17 -27 17q-12 0 -25 -4q3 -28 -16 -28q-5 0 -18.5 3t-19.5 3q7 8 6 11q-5 2 -10 5q-7 3 -10 -2q7 -14 0 -18q-22 -12 -59 3l14 7q-12 -7 -29 -7q-7 0 -22.5 1.5t-24.5 1.5q-23 0 -42 -9q0 -7 6 -14t12 -13q54 -4 102 -4q46 0 126 5q87 6 144 7q1 3 -4 7q4 9 12.5 3
t11.5 4q5 0 5 -3q0 -2 -4 -11q-3 -7 0 -10q1 10 14.5 19.5t12.5 22.5q-22 13 -47 14q-36 2 -46 4zM119 385v3q-11 11 -14 3q9 -8 14 -6z" />
    <glyph glyph-name="hyphen" unicode="&#x2010;" horiz-adv-x="508" 
d="M160 385q6 1 12 1.5t9 6.5q-3 10 -13 12q-10 3 -18 -3q-3 -5 1.5 -9t8.5 -8zM229 387q4 -7 8 -7q3 0 8 4.5t8 4.5q2 0 4 -2q-5 6 -18 13q1 -2 1 -3q0 -3 -5 -6.5t-6 -3.5zM370 403q4 -13 -11 -13q-4 0 -6 2l7 11q-4 -2 -9 -2t-15.5 2.5t-14.5 2.5q-12 0 -13 -18
q-4 17 -27 17q-12 0 -25 -4q3 -28 -16 -28q-5 0 -18.5 3t-19.5 3q7 8 6 11q-5 2 -10 5q-7 3 -10 -2q7 -14 0 -18q-22 -12 -59 3l14 7q-12 -7 -29 -7q-7 0 -22.5 1.5t-24.5 1.5q-23 0 -42 -9q0 -7 6 -14t12 -13q54 -4 102 -4q46 0 126 5q87 6 144 7q1 3 -4 7q4 9 12.5 3
t11.5 4q5 0 5 -3q0 -2 -4 -11q-3 -7 0 -10q1 10 14.5 19.5t12.5 22.5q-22 13 -47 14q-36 2 -46 4zM119 385v3q-11 11 -14 3q9 -8 14 -6z" />
    <glyph glyph-name="period" unicode="." horiz-adv-x="199" 
d="M63 80q6 10 6 9q0 4 -6 4h-3q-3 -1 -3 -4q0 -2 6 -9zM55 -10q14 -9 25 -9q5 0 12 3.5t15.5 9.5t9.5 14q-6 7 -6 15q0 4 2 12.5t2 12.5q0 5 -2 10q-2 2 -11 19q-7 13 -15 13q-4 0 -8 -3q-5 -17 -21.5 -32t-32.5 -28q9 -2 9 -5q0 -1 -4.5 -4.5t-4.5 -6.5q0 -4 6 -7.5
t24 -13.5zM149 73q2 -2 5 -2q-2 2 -5 2zM135 87q-6 -5 -6 -8t20 -6q-2 7 -14 14zM123 24v-13l6 7z" />
    <glyph glyph-name="slash" unicode="/" horiz-adv-x="517" 
d="M61 48v-2q1 1 0 2zM439 626l7 10q-12 -2 -23.5 -23.5t-22.5 -21.5q-4 0 -10 2q-1 -6 7 -13q-24 -8 -53 -36q-34 -33 -48 -42q-31 -66 -46 -94q-29 -52 -62 -85q-3 1 -6 1q-6 0 -16.5 -8.5t-16.5 -8.5l13 -13q-10 -26 -26 -33l10 -10q-15 1 -26 -16q-16 -23 -19 -26
q3 -15 -11.5 -33t-14.5 -27q0 -6 3 -12q-42 -12 -49 -42q4 -7 4 -13t-4 -16t-4 -15q0 -10 10 -18q-2 3 -2 5q0 7 11 9.5t17 0.5q-2 6 -2 12q0 15 25 35.5t25 37.5q0 5 -2 11q9 4 15 15t18 14l6 -10q10 6 10 15q0 5 -6 17t-7 17q5 8 16.5 8.5t15.5 4.5q9 9 7 23q-6 1 -6.5 -7
t-3.5 -9q-4 0 -4 11l1 15q-1 -1 20 -1q10 0 16 11q5 -2 5 -5q0 -1 -1 -3.5t-1 -3.5q0 -3 3 -5q4 5 4 20q1 11 12 23q5 -3 9 -3q6 0 13 12.5t14 15.5l-19 7q33 29 80.5 101t78.5 101q-12 3 -12 14q0 9 9 12q9 1 23 -3q12 3 12 14q0 3 -2 6l-7 -7q10 30 46 52q-4 -2 -8 -2
q-3 0 -25 12zM65 170q-6 8 -17 6q5 -11 9 -11t8 5zM123 140v-13l3 3q0 9 -3 10z" />
    <glyph glyph-name="zero" unicode="0" horiz-adv-x="452" 
d="M69 314q10 -1 15.5 11.5t10.5 12.5q4 0 9 -3q13 30 29 92q-4 1 -9 -3.5t-7 -4.5t-4 2q10 8 10 22q0 4 -1 13t-1 13q0 17 32.5 44t36.5 60q5 5 13 5q5 0 15.5 -3t14.5 -3q0 8 -5.5 14.5t-13.5 6.5q5 7 13 6q19 -1 16 -1l-2 -4q2 -3 6 -3q-4 0 17 8q0 7 -8 10q-11 4 -13 7
q-12 -15 -23 -15q-4 0 -8 3q0 1 7 14q-1 0 -24 -2q-3 -3 -1 -11t-3.5 -12t-13.5 -3q-16 2 -14 2q-17 -20 -54 -51q0 -7 6 -15l-24 -19q-1 -7 12 -16q-3 -5 -22 -17q-13 -9 -13 -22l-10 7q1 -2 1 -4t-2 -6.5t-2 -5.5q0 -3 6 -5q4 -10 -16 -24q-8 -11 -8 -26q0 -12 6.5 -35.5
t6.5 -33.5q4 -3 9.5 -1.5t9.5 -3.5zM303 567l-7 20q3 12 -3 12q-1 0 -20 -14q1 -2 7.5 -9.5t6.5 -11.5t-6 -7q-5 -3 -13 3q-1 -4 -1 -8q0 -13 11 -26t24 -17q0 7 6 7t18 -8l-32 -9q10 -4 27 -16l-9 -14q13 -5 16 -19t12 -21q-6 -4 -15 -15q2 -7 8 -7q10 0 9 10q6 -4 6 -9
t-5 -13t-5 -12q0 -3 2 -5q-5 -3 -8 -15t-9 -15q4 1 13 -10q0 1 -1 13q-1 7 5 12q8 1 9 -5q-1 -7 -1 -13q1 -8 9 -9q-7 -3 -17 -18t-22 -16l12 -1q0 -3 2.5 -8.5t2.5 -7.5q0 -5 -6 -9q-5 0 -11.5 5.5t-9.5 5.5q-4 0 -7 -4q5 -3 4 -11q8 0 22 1q0 -1 4 -5.5t4 -7.5q0 -2 -2 -4
q-3 1 -6 1q-8 0 -11 -11q-3 -10 1 -17q-15 1 -23 26q-11 -8 -18 -34q5 1 15 -3q1 -6 -6.5 -6.5t-8.5 -5.5l7 -7q-3 -7 -12.5 -9t-11.5 -11l7 -4q-13 3 -24 -14t-21 -19q7 -6 7 -10t-12 -8t-14 -9q-4 4 -10 4q-2 0 -7.5 -1.5t-7.5 -1.5q-8 0 -11 10q-9 23 -28 55q12 -5 15 0
q-21 15 -26 32q-6 6 -6 14q0 7 6 18q8 15 9 17q-6 10 -15 10q-4 0 -10.5 -1.5t-10.5 -1.5q-7 0 -11 6q-1 -10 -12 -9q-16 1 -17 1q2 -9 -8.5 -19.5t-10.5 -14.5q0 -6 9 -13q0 -9 -8 -13q-15 -6 -15 -7q7 -2 8.5 -11.5t10.5 -11.5q-2 6 2.5 10.5t10.5 3.5q15 -52 43 -76
q-3 -5 -6 -5q-2 0 -10 3q-6 3 -10 0q-2 -3 -2 -6q0 -4 8.5 -8.5t9.5 -9.5q7 0 23 7q2 -1 5 -7.5t6 -6.5t6 2q1 17 28 11q-9 -5 -31 -27q10 4 21 -6q8 -8 16 -17q5 -1 9 -1q17 0 36 23t31 25l-3 2q2 2 2 5q0 1 -2.5 4.5t-2.5 4.5q0 3 2 4q7 2 14 -5t12 -5q8 3 8 9q0 2 -1.5 7
t-1.5 8q0 7 7 11q4 0 6.5 -1.5t0.5 -5.5q15 9 31 19t18 29q-5 5 -5 10q0 7 14 21t14 24l-4 -10l-4.5 4.5t-3.5 5.5q0 3 3.5 3.5t7.5 4t4 8.5q-7 -2 -9 1q3 8 15 7t16 4q-2 15 -15 49q1 11 12 -1q7 5 7.5 18t4.5 18q-7 -2 -9 1q17 28 19 40q1 5 -3.5 5t-6.5 2q2 22 12 22
q3 0 6 -4q-14 115 -50 172q-2 3 -8 3q-8 0 -25 -8q-11 -6 -21 -11zM323 348q-2 0 -4 -1q2 0 4 1zM298 265q5 0 7 7q-6 -2 -7 -7zM245 93q-1 0 -3 -1q2 0 3 1zM283 130q-2 -1 -5 -4q3 1 5 4zM257 92q-3 5 -12 1q6 0 12 -1zM218 142h3v0h-3zM257 573q1 -2 2 -5q5 0 7 4
q-2 3 -9 1zM119 341q-15 -9 -9 -17q1 -2 3 -2q9 0 9 12q0 5 -3 7zM76 294q6 -12 14 2l8 -10q3 0 13 14q-4 7 -8 7q-2 0 -10.5 -8t-16.5 -5zM40 278q-1 5 -10 4q-5 -3 -5 -6q0 -2 4 -7t4 -7q8 0 4.5 7t2.5 9zM180 183l3 3q-1 4 -5 9zM164 171l3 4q-1 3 -5 8zM202 181
q-1 5 -3 5t-5 -3l-4 -4q6 -8 12 2zM186 154q1 -5 7 -8q-2 9 -7 8zM137 58l1 -9q3 2 5 7q-5 2 -6 2z" />
    <glyph glyph-name="one" unicode="1" horiz-adv-x="237" 
d="M146 413l-3 2q1 -1 3 -2zM192 645q-7 8 -24 8q-16 1 -26 -5q-25 -13 -31 -38q-18 -13 -66 -31q12 -9 12 -14q0 -3 -17.5 -8t-13.5 -17q7 0 7 -3q0 -1 -1 -3t-1 -3q0 -4 7 -6q3 3 25 13q16 7 13 22q5 2 9 2q8 0 13 -13.5t13 -15.5q-16 -38 -16 -81q0 -31 8 -59
q-23 -2 -23 -21q0 -7 4 -23t4 -23q0 -9 -4 -14q-5 4 -4 11q-2 -6 -10 -28q-6 -18 -6 -28q0 -13 8 -24l-23 -4q12 -20 11 -57q-2 -45 1 -59q18 -21 31 -21q4 0 7 2l4 46q2 1 11 -1q6 -1 9 5q2 6 -4.5 12t-11.5 11q10 12 2 36q-7 19 14 30q4 5 4 10q0 6 -6 15q-9 11 -10 13
q7 11 23 27l-27 24q2 3 20 17q15 11 15 19q0 5 -4 10l-4 -4q-8 27 0 47l9 -6q-2 2 -2 5q0 2 1.5 8t1.5 8q0 9 -10 12q1 16 14.5 47.5t12.5 44.5q-5 -2 -9 2.5t-2 9.5q0 1 11 18q29 48 31 75zM80 336v-13q1 7 0 13zM68 92l12 4l-8 8zM65 69q-4 -6 2 -7q5 -1 9 3q-2 4 -11 4z
M92 50l11 -16l12 12q-3 0 -8.5 4t-8.5 4t-6 -4z" />
    <glyph glyph-name="two" unicode="2" horiz-adv-x="484" 
d="M128 511l-25 4q80 54 166 68q2 -13 18 -18.5t16 -16.5q0 -4 -2 -9q7 13 23 13h9h9q17 0 24 11l-32 4q1 3 9.5 12.5t6.5 12.5q0 14 -9.5 24t-19.5 20q-21 1 -62 -6.5t-60 -7.5q-12 0 -23 2q-18 -22 -37 -45t-48 -20q-5 -5 -1.5 -16t-2.5 -16q-1 -14 -16 -13q-25 1 -24 1
q-7 -2 -14.5 -11t-7.5 -16q0 -3 1 -5q13 -3 27 -3q53 0 75 31zM269 551q0 10 -4 12q0 -1 -2 -6t-1 -6q1 -2 7 0zM293 511q-1 -2 -1 -5q0 -4 6 -8.5t7.5 -7t1.5 -4.5q0 -5 -8 -7.5t-10 -4.5q-5 -35 21 -60q0 -7 -6 -7q-2 0 -8.5 2t-9.5 2t-5 -1v-25q62 34 73 77q10 11 3 35
q-7 20 13 30q-3 7 -11.5 9t-16.5 3q-13 -13 -23 -18zM281 296q16 6 16 24q0 17 -12 33l-8 -8q-3 4 0 22q2 13 -16 14q-2 5 -2 9q0 6 7 11t7 13q-5 5 -8 4q-1 -5 -8.5 -17t-7.5 -17q0 -7 12 -11q-6 -13 -28.5 -21.5t-28.5 -18.5q6 -8 13 -17.5t7 -16.5q0 -6 -3 -11
q23 -10 44 4q-1 5 -9 11t-8 9q0 4 5 9q10 -1 16.5 -9t11.5 -16zM192 268q-1 0 -10 3q-6 3 -10 -3l16 -16q-1 6 4 16zM253 260q-2 4 -8 4t-8 -4q1 -4 5.5 -6t7.5 -1q3 2 3 7zM221 256h-17v-24q-1 14 11 16h22q-3 6 -9.5 2.5t-6.5 5.5zM293 70l4 16q-19 9 -43 9q-11 0 -34 -3
t-35 -3q-18 0 -33 5q-9 -20 -40.5 -26.5t-36.5 -17.5q-3 -7 8 -16q19 0 51 -5.5t46 -5.5q25 0 48 11q-4 3 -4 7t4 11t5 10q2 -3 4 -15.5t12 -12.5q6 -7 24 -2q15 4 20 -11q4 1 5 3q0 -1 -9 10q32 5 48 5q30 0 45 -14q3 21 33 21q12 0 20 -4q4 5 4 11q0 11 -12 25
q-15 -2 -43 1q-34 4 -45 4q-29 0 -46 -13zM75 97q2 1 55 22q31 12 46 36q0 -3 1 24q0 14 -9 20q22 11 20 24q-1 8 -7 11q-12 6 -13 6q-10 -21 -41 -38q-34 -19 -44 -31q-23 -28 -14 -68q-1 0 -9 -4q-5 -3 -9 0q-21 -24 -16 -49h16q9 1 12 9l-12 16q2 5 15 10q10 3 9 12z
M314 13q4 -5 8 -5t10.5 8.5t9.5 8.5q-9 1 -17 1q-9 -1 -11 -13zM136 25v-16h24q-6 0 -11 9.5t-13 6.5z" />
    <glyph glyph-name="three" unicode="3" horiz-adv-x="393" 
d="M304 519q0 9 11 10t13 8q11 12 0 24q-7 7 -36.5 16t-39.5 32q-25 0 -27 14q-25 -11 -41 -11q-10 0 -18 4l-4 -24q-10 -1 -23.5 8t-20.5 9q-8 0 -17 -7q-30 -5 -30 -24q0 -3 2 -7q4 1 6 1q4 0 4 -6v-10q2 -9 14 -6q2 1 17 8q12 5 18 3q1 -3 -4 -7q37 -2 110 7
q24 -4 28 -35l34 -10q1 -11 -19 -28q-14 -12 -29 -24q-1 -5 6 -6t8 -4q3 -7 -9 -19q-14 -15 -15 -19q9 -6 17 -6q13 0 28 24.5t28 24.5q7 0 16 -5q-4 5 -10 17q3 4 14 3.5t13 7.5q-1 1 -18 26q-11 15 -26 11zM53 550q4 -7 9 -7q4 0 15 7q-11 1 -12 11.5t-2 19.5q-9 1 -9 -4
q0 -7 9 -10q-3 -3 -7 -3q-1 0 -9 3q-7 2 -12 0q-13 -5 -10 -17q3 -10 24 -13zM80 303q21 0 59.5 -7t57.5 -7q4 -2 8.5 -10.5t12.5 -6.5q-2 12 12 14h22q0 -8 -10 -10.5t-10 -7.5q7 2 19.5 -1.5t17.5 -1.5q-2 -13 -10 -10q6 -5 13 -5t19.5 5.5t18.5 5.5t11 -3l-10 10
q5 5 13 18q-5 5 -17 13l10 14q-12 10 -24 0q-12 12 -10 31q-30 -11 -67 -11q-29 0 -54 7q4 8 19 15q11 5 23 9q-3 11 -14 28q8 3 24 10q8 -15 13 -15q2 0 5 1q11 5 11 11q0 3 -9.5 7.5t-9.5 8.5t4 8q-13 -1 -41 4q1 -28 -27 -30q-40 -5 -46 -9q-1 -3 -1 -5q0 -7 10 -14.5
t10 -12.5q0 -2 -1 -5l-4 3l-3 -14q-26 3 -55 -13q1 -7 2.5 -14t7.5 -10zM121 358q-2 3 -7 4q-5 0 -6 -4q6 -10 13 0zM317 244q-6 4 -11 4q-7 0 -17 -8.5t-16 -9.5l-4 -27q-9 7 -10 7q-6 -10 -3 -21l-21 -4q3 -5 11 -3t10 0q-17 1 -34.5 -21t-34.5 -24q-1 -13 15.5 -15.5
t18.5 -8.5l-31 -3q9 1 9 -5q0 -9 -12 -22q20 8 86 54q-2 2 0 7q3 6 3 8q0 4 -7 6q6 1 11 8t10 7q3 0 7 -1q-2 7 1.5 18.5t1.5 15.5q4 -6 9 -6q6 0 16 10q6 7 13 13q-7 18 -21 21zM176 103q-9 3 -18 3q-26 0 -61 -20q-2 -14 -14 -14h-4h-5q-13 0 -14 -17l-18 14q-4 -5 -4 -9
q0 -5 8.5 -13t9.5 -13q5 -3 11 -3q21 0 23 20q3 -4 11 -14q10 2 27.5 11t27.5 10l-7 11q5 11 13 4t14 3q2 3 2 6q0 2 -2.5 5.5t-2.5 6.5q0 4 3 9z" />
    <glyph glyph-name="four" unicode="4" horiz-adv-x="400" 
d="M301 651q-4 4 -6 3v-10q3 2 6 7zM258 358l-8 8t-2 8q10 2 10.5 17.5t12.5 16.5q4 6 4 14q0 15 -10 36q29 65 29 88q0 10 -2 18q4 6 16 14q1 7 -6.5 17t-7.5 14q0 6 7 12q-1 1 -6 11q-3 7 -8 7q-2 0 -6 -1q-4 3 -9 3t-14 -10t-15 -10q-4 0 -8 3q-10 -3 -25.5 -30.5
t-37.5 -25.5q3 -11 -9.5 -17t-12.5 -11q0 -2 1 -6q-4 4 -9 4t-12 -7q-10 -9 -12 -10q4 -2 4 -7v-9q-22 -21 -43 -41q-26 -25 -21 -53q6 -6 12.5 -13t14.5 -4q12 5 29 29t34 28q-1 3 -1 7q0 5 6 17t5 19q13 4 26 17.5t11 26.5l6 -7q-3 5 -3 9q0 5 15 17.5t15 26.5
q4 -12 30 -16q-4 -5 -13 -13q5 -5 5 -12t-5 -21t-5 -20q0 -4 2 -8l-17 -6q4 -13 8 -25t15 -25q-4 -9 -13 3q-25 -7 -25 -36q0 -1 5 -37q-3 -2 -20 -4q-12 -2 -14 -13q-4 19 -24 15q-23 -5 -29 2q-2 -37 0 -47q9 -12 33 -19.5t40 -3.5l-9 -10q4 -38 26 -37q-1 -7 -12 -24.5
t-11 -26.5q0 -15 20 -26q-2 -4 -8.5 -5.5t-8.5 -3.5q1 -3 1 -6t-2 -10.5t-2 -11.5q0 -8 10 -13q-10 -1 -17 -11t-13 -19q4 -3 4.5 -17.5t12.5 -18.5q9 2 18.5 5t14.5 11q2 5 2 10q0 7 -8.5 20.5t-7.5 19.5q4 11 9 33q6 41 11 82q9 48 30 75q4 3 8 3q6 0 13.5 -13t15.5 -13
q2 7 13.5 6.5t13.5 7.5q-7 14 -14.5 28t-22.5 22l-20 9q-6 0 -10 -6zM238 561q2 -9 7 -6q-3 4 -7 6zM112 333q2 -1 3 -2q0 3 -3 2zM61 371q7 9 7 10q-6 -1 -6.5 7t-3.5 10q-2 -4 -14.5 -8.5t-8.5 -15.5q5 -1 13 -6q-8 1 -13.5 -8.5t-9.5 -11.5q16 -4 20 -24q2 -9 12 -9
q4 0 13 2t12 2q4 0 6 -1q4 -2 13.5 6t10.5 9q-6 5 -11 19t-9 18.5t-8 4.5q-3 0 -9 -3t-9 -3q-2 0 -5 2zM335 291q9 -2 16 8t4 19q-15 0 -17 -9t-3 -18z" />
    <glyph glyph-name="five" unicode="5" horiz-adv-x="437" 
d="M375 263q-2 3 -2 6t2.5 9t2.5 10t-3 8l-20 -10q-3 5 -10 13v-16q-2 5 -15 48q-8 30 -22 45l-13 -13l-7 10q-10 1 -12 -8q-4 -15 -4 -16q-31 -3 -37 17q-3 -1 -3 -3q0 -1 3 -4.5t3 -5.5q-1 -2 -3 -4q-15 -2 -22 9.5t-15 14.5q-4 -5 -10 -5q-4 0 -13 3.5t-13 3.5t-7 -2v-12
q-2 -6 -7 -8q-9 7 -15 7q-3 0 -7 -2t-7 -2q-6 0 -17 10q2 8 13 17l7 -10q12 5 12 15q0 6 -6.5 19.5t-5.5 18.5q1 8 11 14q7 5 15 9q-1 4 -1 8q0 7 9.5 27.5t8.5 31.5q13 0 40 33q17 -16 48 -9.5t49 -3.5q5 16 23 43q-5 7 -27 14q-15 -5 -35 -5q-7 0 -22 1t-22 1
q-30 0 -51 -11q7 -3 7 -10q-2 -6 -3 -13q-6 0 -7 4v9q0 5 -4 7.5t-9 2.5q-10 0 -20.5 -10.5l-19.5 -19.5q3 -14 -15 -24.5t-19 -21.5q-2 -35 7 -50q-3 -3 -14 -25q-7 -15 -23 -12q-2 -16 15 -26t15 -24q0 -9 -11 -11.5t-12 -5.5q9 -3 27 -22q15 -17 33 -21l7 17q8 -1 23 -7
q16 37 60 44q-7 -3 -7 -7q0 -3 8 -9t9 -8q-11 -9 -30 4q-1 -3 -1 -5q0 -4 15 -6t19 -10q2 6 -7 14q5 4 9 4q3 0 10 -4.5t12 -4.5q3 0 6 1q25 2 35 -23.5t24 -25.5q6 0 15 3l-4 -4q7 -3 12 0q7 4 12 4q2 -2 2 -4q0 -3 -4.5 -9t-4.5 -10q-2 9 -6 9q-1 0 -5 -2t-6 -2q-4 0 -7 8
q-8 -16 -36.5 -37.5t-36.5 -45.5q-6 -20 4 -27q-19 -2 -29.5 -16t-20.5 -27q-5 -5 -9 -5q-5 0 -11.5 10t-11.5 10t-12 -6q-13 -11 -10 -19l4 3q8 -1 7 -7q0 -11 -1 -10q-11 2 -29 0q-22 -4 -29 -4q-6 0 -12 1q-1 -8 7 -14q-4 5 -11 5q-5 0 -17 -4.5t-18 -4.5q-4 0 -7 1
q1 -11 -7 -16q3 -5 15 -1t18 -3q2 -5 -1 -10q9 5 21 5q6 0 17.5 -1.5t16.5 -1.5q12 0 20 5l3 13q5 3 20.5 3.5t22.5 6.5q19 6 39 31q18 22 38 26l-7 -7q3 1 6 1t10 -2t10 -2q7 0 11 6q-3 8 -8 8h-4q-2 -1 -4 -1q-4 0 -8 4q9 0 10.5 11t6.5 12q6 1 6 -2q0 -1 -2 -7
q-2 -5 0 -8q1 21 33.5 30t36.5 17l-7 6q5 6 14.5 8.5t15.5 8.5q3 8 -6 10t-11 3q13 7 13 11q0 3 -6 6q2 6 7 5q9 -2 10 -2l-7 11l17 6q-2 0 -10 1q-5 1 -7 -4zM57 46q-5 -2 -9 -6q6 1 9 6zM355 576q-7 2 -17.5 -1t-10.5 -10q0 -3 1 -5q8 -2 14 -12t13 -12q3 10 8 10
q2 0 13 -5.5t16 -1.5q-1 13 -7 16q-2 1 -16.5 1.5t-13.5 19.5z" />
    <glyph glyph-name="six" unicode="6" horiz-adv-x="463" 
d="M389 223q-2 4 -2 6q0 5 8.5 7t8.5 6q0 3 -2 8q-33 12 -50 12q-10 0 -20 -2q0 -5 -3.5 -17t-3.5 -17q0 -10 10 -13q6 13 0 26q4 0 11 4.5t11 4.5q2 0 5 -2q-4 -13 -9 -27.5t-18 -19.5q14 -19 14 -31q0 -3 -17 -42q-13 -1 -30 -19t-30 -21l6 -6q-17 -9 -46 -11
q-9 20 -23 20q-4 0 -7 -3q-1 -20 10 -23q-15 -10 -30 0l10 6q-5 15 -33 23q-33 11 -40 18q-20 1 -27 -10q-9 9 0 16q1 15 -7 17q-3 1 -16 -2q-12 -2 -17 2q15 9 50 23q-2 13 5.5 35.5t7.5 31.5q-2 8 -7 8q-3 0 -8 -2.5t-8 -2.5q-4 0 -7 7t3 8q5 1 7 -5q15 3 13 30
q17 6 44 -10q-2 4 -2 6q0 6 13.5 9.5t14.5 11.5q9 5 20 5q8 0 25.5 -4.5t25.5 -4.5q18 0 29 14q-21 22 -76 29q-65 9 -83 17q0 7 4 7q1 0 5 -1.5t6 -1.5q4 0 5 7q-3 -1 -7 3q20 8 38.5 48.5t37.5 51.5q11 -2 22.5 10.5t24.5 9.5q37 50 107 103q1 4 -4 6t-6 4q3 1 5 12
q1 4 8 5q-4 2 -9 2q-10 0 -27 -9q-12 -7 -24 -13q-59 -27 -97 -83q-10 -6 -18 -6q-3 0 -9 1.5t-10 1.5q-7 0 -16 -4q7 -6 7 -10t-8.5 -12t-8.5 -15q-7 1 -12.5 -18.5t-18.5 -19.5q-4 0 -9 1q0 -3 7 -9q-10 1 -15 -9.5t-12 -11.5q22 -1 22 -12q0 -5 -9.5 -21t-8.5 -23
q-3 0 -9 3.5t-8 3.5q-5 0 -7 -7q6 2 9 -8t1 -15q3 -2 6 -2q4 0 7 8.5t4 9.5q7 -4 7 -12q0 -3 -2 -10t-2 -11q0 -9 13 -13q-5 -2 -16.5 4.5t-17.5 6.5q-5 0 -9 -2l10 -9q-3 -6 -16 -8.5t-14 -11.5q7 -6 17 -21q-14 -4 -14 -16q0 -4 2.5 -14t2.5 -15q0 -4 -1 -8q-5 1 -8 5
q-4 5 1 8l-17 -9q2 -5 8.5 -6.5t8.5 -3.5q-2 -5 -10 -4q-1 -5 -1 -7q0 -5 4 -5q2 0 6 1t6 1q6 0 8 -6q2 -5 0 -10q-1 -3 -5 -3q-2 0 -9 2t-10 2q-9 0 -9 -11t9.5 -15t20.5 -2q2 -5 12 -19.5t10 -22.5q0 -4 -2 -8q11 -3 32 -14t35 -13q0 10 -1 12q-1 6 -6 8q11 3 14 -7
q1 -5 0 -20q0 -12 3 -13q6 6 16 2q14 -6 16 -6q12 0 12 11q0 -1 -11 10q5 5 11 5q19 0 23 -18q39 6 103 16q13 13 26 41q16 32 24 43l10 -20q4 8 14.5 4.5t15.5 1.5q-20 21 -20 38q0 7 3 12q2 1 7 -3q10 21 10 19q0 4 -4 8q10 4 10 6t-16.5 8.5t-12.5 18.5zM355 296
q-2 -3 -5 -3t-8 3t-7 4q-6 -9 -14 -9q-5 0 -15.5 4.5t-16.5 4.5q-12 -8 3 -17q-3 -5 -11 -8.5t-9 -8.5q8 -13 23 -13h27q-5 9 -5 15q0 8 20.5 10t17.5 18zM115 143q-1 -1 -11.5 -3.5t-10.5 -7.5q0 -10 8 -10q6 0 10.5 7.5t3.5 13.5zM82 56q-4 -2 -2 -6q2 -3 6 -3t6 6
q-2 3 -10 3z" />
    <glyph glyph-name="seven" unicode="7" horiz-adv-x="433" 
d="M335 605q-4 -7 -11 -7q-8 0 -23 10q-17 -5 -35 -9q-22 -6 -31 -18q-11 12 -26 12q-9 0 -27 -5t-27 -5q-11 0 -20 5q2 -11 -4.5 -13t-18.5 -1q-13 2 -17 1v6q-6 2 -12 2q-9 0 -27 -7t-26 -7q8 -1 13.5 -16.5t17.5 -17.5q16 -3 46 -0.5t45 0.5q2 5 16.5 8t16.5 12
q8 3 14.5 -4t11.5 -13q7 10 17 10q4 0 13 -3t13 -3q11 0 18 13l3 -34q3 -3 12 -3t11 -7q10 10 20 10q3 0 8 -1t8 -1q9 0 17 9l-29 3q6 12 23 23.5t23 20.5q-2 8 -13 15.5t-20 14.5zM25 568q1 0 5 1q-3 0 -5 -1zM378 571q12 2 10 10q-4 4 -6 4q-5 0 -4 -14zM258 471l14 10
q1 10 -4 30q-9 -9 -23 -13q10 -21 10 -19q0 -4 -4 -8q-2 1 -3 8t-6 6q-1 -2 6 -10q-3 -10 -8 -10l-12 8q-8 5 -13 -5q6 -5 8 -13q2 -9 -5 -14q-17 -10 -26 -26q-11 -21 -17.5 -27.5t-6.5 -12.5q0 -5 4 -12t4 -10q0 -5 -4 -8q-13 -1 -44 -40l10 -7q0 -9 -3 -10h-10
q-6 1 -10 -3v-67q7 2 15 -1t15 -6l-7 -20q-5 -1 -13 4l10 10q-14 -7 -43 -30l-7 13q-10 -10 -10 -13q0 -4 3 -7l10 10q-1 -3 -1 -5q0 -6 11 -11q15 -6 17 -7q-2 -4 -7 -4h-9q-4 -1 -4 -6h7q1 -13 -14 -37q7 1 17 -3q-7 -2 -20 -7q-6 -2 -14.5 -29t-18.5 -34q7 -9 13 -9
t19 14t24 12q18 11 18 28q0 4 -1 11.5t-1 10.5q0 18 21 29q11 35 23 69q12 41 10 72q2 4 8.5 5.5t8.5 3.5q-3 8 -10 5t-10 2q2 16 10 16h5q4 -1 5 -1q8 0 10 15q-11 -2 -20 4q17 0 17 17q0 7 -4 12q4 4 16 4q14 -1 18 0q8 3 10 13q-3 5 -3 10q0 8 17.5 20t18.5 24l-10 6
q15 1 15 12q0 2 -1 6v7q0 10 9 15q-2 2 -5 2t-9 -3.5t-8 -3.5q-5 0 -8 8z" />
    <glyph glyph-name="eight" unicode="8" horiz-adv-x="420" 
d="M242 593l3 -13q14 1 40.5 14t35.5 12q2 5 2 8q0 9 -17 15t-21 14q-9 -2 -29.5 -1t-27.5 -2.5t-23 -10.5q-20 -4 -39 -7.5t-35 -21.5q-1 -5 2 -10q5 -9 5 -10l-13 -7q16 0 46.5 13t45.5 13q13 0 25 -6zM325 550q-1 9 -14 14t-13 13q-1 -1 -13 -8q-7 -5 -14 -2q-2 -4 -2 -8
q0 -6 9 -15.5t9 -13.5q0 -3 -2 -7q11 0 22.5 12.5t17.5 14.5zM111 560q8 0 11 3l-7 10q-4 1 -4 -5v-8zM361 540q-5 2 -11.5 13t-14.5 11q-3 0 -7 -1q13 -3 13 -8q0 -2 -4 -8t-4 -10q0 -5 5 -10q4 3 14 4q6 1 9 9zM305 523q-23 -13 -10 -37q10 2 16 -6q-2 -1 -15 0
q-10 0 -15 -7q7 -31 27 -31q6 0 18.5 4t18.5 4t10 -3q3 2 3 5t-3 7.5t-4 7.5q4 3 11 3q8 -1 9 0q4 1 4 10q-10 17 -37 47q-4 3 -9 3q-4 0 -12 -3t-12 -4zM108 103q16 58 14 77q10 3 16 16q8 17 13 21q-6 -3 -6 10q22 7 72 35q46 25 75 31q-6 15 -31 20q13 6 14 21v26
q-24 -11 -33 3q4 8 1 20.5t5 19.5q-23 -14 -73 -33q-5 29 23 50q-28 3 -27 20q-6 -2 -6 -6q0 -7 10 -14q-3 -2 -5 -2q-5 0 -12.5 5.5t-9.5 6.5q5 9 9 27t8 26q-3 1 -5 1v0q2 -6 -5 -14q-2 4 -8.5 5.5t-8.5 4.5q10 11 23 37q-12 -3 -12 13q0 9 9 10q-5 7 -17 7.5t-16 5.5
q-9 -3 -5 -12.5t-2 -13.5q-2 2 -6 2q-16 0 -20 -16q8 -3 8 -10q0 -4 -4.5 -15.5t-3.5 -17.5t10 -7.5t9 -3.5t-3 -6q3 -1 5 -1q5 0 8 8.5t4 9.5l17 -13l-34 -14q7 -8 7 -10q0 -1 -14 -3l24 -3l-14 -7q0 -4 5 -6t6 -4q-5 -3 -14 -10q-1 -21 20 -30l-10 -13q23 -4 43 -34
q-13 -4 -13 -15q0 -4 3 -6.5t6 -2.5q5 0 9.5 8.5t8.5 9.5q-1 2 -7.5 3t-6.5 7q1 0 7 4t10 2q1 -7 3 -23q2 -11 -13.5 -15.5t-12.5 -17.5q-9 2 -20.5 -7t-15.5 -9t-8 3q4 -16 -14 -20.5t-18 -11.5q0 -4 2 -9q3 5 9 2q4 -2 8 -5q-13 3 -28 -9q-21 -16 -25 -18l-1 -22
q0 -15 7 -21q-5 0 -11.5 -10.5t-14.5 -12.5q23 -28 83 -24zM88 533q-10 10 -13 3l10 -9q4 5 3 6zM265 433q6 -10 10 -10q3 0 8 7.5t8 7.5q2 0 4 -2q-4 8 -10 8q-4 0 -10 -5q-9 -5 -10 -6zM325 413v14q-2 4 -7 6q-3 -2 -3 -5q0 -6 10 -15zM345 413q-2 5 -10 14l3 -17
q2 -1 7 3zM295 423l-7 -13q-3 0 -8 4t-12 3q-10 -2 -10 -13t-3 -14q2 -7 12.5 -9t13.5 -8q5 17 14 17q5 0 15.5 -6t15.5 -6q7 0 12 8q-13 1 -23 27q-18 -4 -20 10zM292 350q0 -6 8 -7t11 4q-2 3 -9 3q-11 0 -10 0zM301 203q4 4 3.5 15.5t6.5 14.5l4 -23q12 3 12 17q0 5 -6 6
q1 6 1 10q0 15 -19.5 16.5t-17.5 17.5q-7 -9 -27 -9.5t-30 -14.5q4 -5 15 -6t15 -4q-1 -3 -6 -3h-7q-9 -3 -9 -8q0 -3 4.5 -10.5t4.5 -11.5q4 7 10 7q3 0 23 -17q-8 -5 -13 -16q-9 -16 -10 -17q-1 -10 9.5 -16t13.5 -14q0 -5 -13 -14q3 -2 3 -11.5t7 -11.5l3 3q8 -5 7 -16
q-3 -5 -7 -5q-3 0 -9.5 3t-9.5 3t-4 -1q-9 -10 -20 -34q-27 -12 -38 -12q-8 0 -19 3l-3 -14q-4 -2 -7 -2q-6 0 -11 8.5t-9 10.5q-11 -3 -10.5 -13t-6.5 -14l-9 10q3 -4 3 -6q0 -5 -12.5 -5.5t-14.5 -1.5q19 -16 70 -37q3 5 -12 14t-14 20q6 2 12 2q11 0 23.5 -15.5
t24.5 -15.5q4 0 9 2q-1 6 4 16q5 1 6 -5.5t4 -7.5q4 16 7 23q5 12 13 20q2 -6 10 -6l30 10q-6 -2 -9 9.5t-1 17.5q7 -11 18 -11q18 0 18 15q0 10 -16 12q6 11 16 13h20q1 4 11 36q6 22 6 36q0 15 -6 28q-6 2 -41 10zM108 80q-8 17 -33 17q-28 0 -24 -17q17 -17 27 -17
q3 0 13 3t20 4q-3 2 -3 10zM42 57q10 -9 11 -9q7 0 7 12q0 5 -5 5q-8 0 -13 -8zM58 40q3 -5 10 -2t4 9q-2 3 -5 3q-8 0 -9 -10zM108 40q-3 4 -6 4q-4 0 -14 -11q4 -6 6 -6q3 0 7 6t7 7zM61 27q-2 -2 -2 -3q0 -2 4.5 -6l4.5 -4q4 4 4 6q-3 -1 -6.5 2.5z" />
    <glyph glyph-name="nine" unicode="9" horiz-adv-x="463" 
d="M398 501q8 4 12 15.5t8 15.5q-10 2 -26 13l6 17q-3 1 -6 1q-5 0 -13.5 -4t-12.5 -4t-7 3q4 1 12 9.5t12 8.5t9 -8q0 2 -3.5 12t-3.5 13q0 5 3 5q-1 0 -5.5 2t-6.5 2q-5 0 -8 -7q-11 9 -26 33q-24 5 -34 4l4 3q-10 6 -20 6q-6 0 -17 -2.5t-16 -3.5q-1 2 6 10q-5 3 -10 3
q-6 0 -15 -5q-12 -7 -15 -8q-1 -4 3 -10.5t4 -9.5q0 -4 -4 -7q-6 9 -19 13l3 4q-2 14 -14 23q-20 -3 -39.5 -29.5t-40.5 -26.5l4 3q-8 -3 -19.5 -27t-33.5 -30q7 3 14 0q7 -4 7 -11q0 -2 -1 -5q-28 -8 -31 3q-2 -9 0 -28q4 -28 4 -29q-5 -3 -15 -3q-13 1 -16 0q-6 -3 -6 -13
q1 -11 17 -18t16 -19q-3 -4 -6 -4q-4 0 -9.5 6.5t-7.5 7.5q-3 -5 -3 -9q0 -8 13 -14q18 -8 20 -10q3 8 14 8q10 0 13 -8q-9 -7 -37 -14q-16 -20 -7 -33q5 -1 31 -12q16 -7 27 -7q14 0 29 9q41 23 110 37q-4 -1 -6 6q3 2 17 7q10 4 16 13q6 -15 22 -7t21 -3q-3 -16 0 -63
l-20 10q-1 -9 -10.5 -18.5t-9.5 -15.5q0 -7 7 -16q-5 -5 -20.5 -1.5t-16.5 -8.5q-1 -7 17 -10q0 -8 -7 -20q-2 14 -13 5.5t-14 4.5q-8 -7 -8 -15q0 -6 9.5 -20t9.5 -22q4 1 26 -3q33 24 30 43l7 -9q5 21 36 55q28 30 30 64q1 5 4 13t3 12q0 8 -10 12q14 6 16.5 30t13.5 30
q-2 3 -10 3.5t-10 6.5q12 2 30 7q5 7 5 13q0 7 -12.5 14.5t-12.5 15.5q2 5 13 -4zM328 432q5 -8 3 -20q-1 -10 -3 -20q-15 29 -26 29q-5 0 -10 -3l6 7q-3 7 -9 7q-2 0 -9.5 -3t-11.5 -1q2 -6 3.5 -11.5t10.5 -4.5q-4 -5 -7 -5q-4 0 -8 8.5t-8 9.5q-9 -7 -23 -7h-23
q-12 -2 -18 -13l3 -3q-28 -13 -60 -13q-23 0 -43 6q6 14 -10 27q9 16 33 46q-1 3 -1 7t3.5 11.5t3.5 11.5t-2 7q11 8 37 20q-1 -2 6 -10q9 2 24 13q-5 12 -25 12t-25 8q11 5 79 47q-3 5 -11.5 7t-11.5 10q6 -6 25 -8q16 -1 22 -12q4 11 21 13q14 1 28 1q6 11 4 12l7 7
q2 -16 -11 -19q-1 -2 1 -4l16 -7q-3 -4 -7.5 -8t-2.5 -9q16 -2 16.5 -17.5t17.5 -15.5l3 10q3 -4 5 -14.5t12 -12.5q-9 -3 -11 -16t-6 -17q18 -1 18 -17q0 -5 -1.5 -14t-1.5 -13q0 -8 7 -8q6 0 18 6q-30 -18 -47 -17zM225 205q-3 8 -13 -3q4 -10 13 3zM259 188
q-13 -7 -64 -23q-14 -14 -28 -27q-17 -17 -19 -33l17 -7q0 -4 -4 -14.5t-4 -15.5q0 -12 12 -12q6 0 17 8t16 8q9 2 9 10q0 2 -1 7t-1 7q0 5 6 6q2 0 10 -7q4 16 30 43q22 24 20 37q-3 -1 -5 -1q-3 0 -11 14zM136 58q-1 1 -2 1q1 -1 2 -1zM159 52q-3 6 -10 6q-16 0 -13 0
l3 -3q-3 -4 -13 -12.5t-10 -14.5t9 -13q10 1 20.5 8.5t19.5 14.5l-13 9q0 2 7 5zM135 68l-10 -13q4 7 9 4q-1 3 1 9zM109 29l-9 -18q0 -5 5 -9q10 1 10 5q0 2 -4.5 9.5t-1.5 12.5z" />
    <glyph glyph-name="colon" unicode=":" horiz-adv-x="232" 
d="M96 432q7 10 7 9q0 4 -7 4h-3q-3 -2 -3 -4q0 -3 6 -9zM88 341q14 -8 25 -8q5 0 12 3.5t15.5 9t9.5 14.5q-6 7 -6 15q0 4 2 12t2 13t-2 10q-2 2 -11 19q-7 12 -15 12q-4 0 -8 -2q-5 -17 -23 -34q-15 -13 -31 -26q9 -3 9 -5q0 -1 -4.5 -4.5t-4.5 -6.5q0 -4 6 -7.5t24 -14.5
zM182 425q2 -2 5 -2q-2 1 -5 2zM168 439q-6 -5 -6 -8t20 -6q-2 6 -14 14zM156 376v-13l6 6zM116 -1q-4 -2 -7 -8q-1 -5 6 -5h3q3 1 4 4q0 2 -6 9zM151 75q-14 12 -47 24q-6 0 -13 -3t-15.5 -8.5t-9.5 -13.5q5 -8 4 -15q0 -4 -2.5 -12.5t-2.5 -12.5q0 -5 1 -11q3 -2 11 -19
q7 -13 14 -13q4 0 9 2q5 17 24 32q16 13 32 25q-8 3 -8 5t4.5 5t4.5 6q0 4 -6 9zM30 11q-2 2 -5 2q2 -2 5 -2zM43 -4q3 2 7 8q0 3 -20 7q2 -7 13 -15zM59 58l1 13l-7 -6z" />
    <glyph glyph-name="semicolon" unicode=";" horiz-adv-x="247" 
d="M100 139q-4 -4 -4 -8q0 -6 6.5 -15.5t7.5 -14.5q-6 -1 -10 -10.5t-12 -8.5q0 3 0 -27q0 -12 3 -20q-2 -7 -4 -7q-1 0 -5 5.5t-8 5.5q-11 0 -15 -14q-3 -10 -6 -21l-28 -16v-3q0 -7 7.5 -12t14.5 -10l22 6q2 4 15 14t13 18q0 4 -3 9q39 32 60 31q6 15 31 45q-4 4 -16 37
q-7 21 -39 21q-16 0 -30 -5zM91 95q6 3 6 11v8q-15 16 -21 16t-10 -10q8 -11 25 -25zM111 432q6 10 6 9q0 4 -6 4h-3q-4 -2 -4 -4q0 -3 7 -9zM103 341q14 -8 24 -8q6 0 13 3.5t15.5 9t8.5 14.5q-5 7 -5 15q0 4 2 12t2 13t-2 10q-2 2 -11 19q-8 12 -15 12q-4 0 -9 -2
q-4 -17 -22 -34q-15 -13 -31 -26q9 -3 9 -5q0 -1 -4.5 -4.5t-4.5 -6.5q0 -4 6 -7.5t24 -14.5zM197 425q2 -2 5 -2q-2 1 -5 2zM183 439q-6 -5 -6 -8t20 -6q-2 6 -14 14zM104 1q3 -4 7 -4q12 0 12 13q0 9 -5 9q-3 0 -7.5 -8.5t-6.5 -9.5zM170 376v-13l7 6z" />
    <glyph glyph-name="less" unicode="&#x3c;" horiz-adv-x="460" 
d="M391 490q-41 -9 -120 -36q2 -13 -16.5 -22.5t-18.5 -19.5q0 -3 1 -7q18 -1 45 9q31 12 45 13q32 31 88 57q-2 6 -10 7q-7 0 -14 -1zM383 142q-47 1 -83 26q-2 9 -13 20l-19 17q-21 -3 -36 22.5t-28 25.5q-7 0 -15 -4q-7 10 -43 35q-30 20 -32 39q17 18 60 34q47 18 63 31
q-9 9 -11 9q-4 0 -6 -6l-4 21q-5 -5 -17 -11l-10 17q-13 -17 -13 -35q-3 -2 -30 -18q-18 -10 -21 -24q-7 -3 -9 2q-2 6 5 8q-6 1 -7 -6v-12q-1 -10 -10 -13q-21 9 -79 -2q11 -23 44 -42q47 -26 54 -32q38 1 87 -43.5t83 -46.5q6 -5 9 -14t6 -17q24 -21 59 -9q9 3 11.5 11.5
t4.5 16.5zM380 111q-14 -9 -14 -13q0 -2 2.5 -5t7.5 -3q4 0 11.5 3t11.5 3q3 0 6 -2q8 8 7 14q-3 10 -8 10q-3 0 -9.5 -4.5t-9.5 -4.5t-5 2z" />
    <glyph glyph-name="equal" unicode="=" horiz-adv-x="636" 
d="M229 385q5 1 11.5 1.5t8.5 6.5q-3 10 -13 12q-9 3 -18 -3q-2 -5 2.5 -9t8.5 -8zM297 387q4 -7 8 -7q3 0 8 4.5t8 4.5q2 0 4 -2q-5 6 -17 13q1 -2 1 -3q0 -3 -5.5 -6.5t-6.5 -3.5zM439 403q3 -13 -12 -13q-3 0 -6 2l7 11q-4 -2 -9 -2t-15 2.5t-14 2.5q-12 0 -13 -18
q-5 17 -28 17q-11 0 -24 -4q3 -28 -16 -28q-6 0 -19.5 3t-19.5 3q7 8 7 11q-6 2 -11 5q-6 3 -10 -2q8 -14 0 -18q-22 -12 -58 3l13 7q-11 -7 -34 -7q-9 0 -31 1.5t-33 1.5q-30 0 -50 -9q1 -7 7 -14t11 -13q54 -4 117 -4t173 5q123 6 172 7q1 3 -3 7q3 9 12 3t12 4q4 0 4 -3
q0 -2 -4 -11q-3 -7 0 -10q1 10 14.5 19.5t12.5 22.5q-25 15 -74 14q-62 0 -78 4zM187 385v3q-11 11 -14 3q9 -8 14 -6zM45 237q-5 4 -7 4q-8 -9 -7 -15l4 -16q1 2 3 2t8 -9q2 3 2 6q0 5 -6.5 11t-6.5 9q0 4 10 8zM539 198l3 17q-7 -1 -15 -1q-13 0 -41 5t-42 5
q-30 0 -47 -19l-3 14q-14 -2 -29 -2q-17 0 -50 4t-50 4q-12 0 -23 -2q-19 15 -70 20t-72 19q-4 -8 -11 -8q-4 0 -17 8q-10 -12 -10 -21q0 -18 18 -18q9 0 27 15q2 -17 20 -17h11q8 1 12 1q10 0 16 -3q-16 -9 -57 -11q-48 -1 -63 -5l3 -4q-8 -3 -24 -10q23 -16 62 -16
q12 0 37 2t36 2q9 -7 7 -13q44 8 100 8q31 0 86 -3q61 -4 84 -4q83 -2 113 5q19 5 17 21q-8 8 -28 7zM46 203v0v0v0zM559 208q1 4 -3 11q-7 -7 -7 -12q0 -3 2 -3q3 0 8 4z" />
    <glyph glyph-name="greater" unicode="&#x3e;" horiz-adv-x="460" 
d="M49 490q41 -9 120 -36q-2 -13 16.5 -22.5t18.5 -19.5q0 -3 -1 -7q-18 -1 -45 9q-31 12 -44 13q-33 31 -89 57q2 6 10 7q7 0 14 -1zM57 142q47 1 83 26q2 9 14 20l18 17q22 -3 36.5 22.5t27.5 25.5q7 0 16 -4q6 10 42 35q30 20 32 39q-17 18 -60 34q-47 18 -63 31
q9 9 12 9t5 -6l4 21q5 -5 17 -11l11 17q12 -17 13 -35q2 -2 29 -18q18 -10 22 -24q6 -3 8 2q2 6 -5 8q6 1 7 -6v-12q1 -10 10 -13q21 9 79 -2q-10 -23 -44 -42q-46 -26 -54 -32q-38 1 -86.5 -43.5t-83.5 -46.5q-6 -5 -9 -14t-6 -17q-24 -21 -59 -9q-9 3 -11.5 11.5
t-4.5 16.5zM60 111q14 -9 14 -13q0 -2 -1 -5q-4 -3 -9 -3q-4 0 -11.5 3t-11.5 3q-3 0 -6 -2q-8 8 -7 14q3 10 8 10q3 0 9.5 -4.5t10.5 -4.5q2 0 4 2z" />
    <glyph glyph-name="question" unicode="?" horiz-adv-x="380" 
d="M104 562q4 2 5 8.5t3 8.5q7 -7 17 -5q3 4 7 8.5t1 8.5q9 15 25 15q11 0 30 -8q25 -10 27 -11q15 7 40 28q2 5 -4.5 14.5t-6.5 14.5q0 3 1 6l10 -6q2 11 -10 11q-6 0 -7 -6q-11 21 -48 21q-36 0 -68 -25q-27 -24 -55 -47q4 1 6 1q6 0 11 -19t16 -18zM80 539q6 5 6 12
q0 6 -13 33q-5 -3 -7 -3t-3.5 8t-5.5 8q-3 0 -6 -2q-7 -23 8 -38q4 2 7 2q4 0 6.5 -9.5t7.5 -10.5zM326 543q-5 0 -14 9q-5 5 -5 9t7 11.5t7 13.5q-4 9 -17.5 7.5t-19.5 7.5l5 10q-4 8 -13 -4l4 -3q-3 -8 -8 -8q-2 0 -6 2t-6 2q-5 0 -8 -6q8 -6 8 -12q0 -5 -8 -15t-9 -16
q18 -14 19.5 -55t19.5 -56q1 8 26 22t27 27q1 6 -6 12.5t-13 11.5q-2 3 -2 6q0 5 5.5 12.5t6.5 11.5zM61 511l-5 13q-3 -1 -5 -1q-4 0 -4 3q0 4 1 7q-1 3 -6 2q1 -3 1 -6q0 -15 -18 -22q0 -5 2 -5t11.5 5t15.5 5q4 0 7 -1zM302 416q-5 5 -9 1q-3 -3 0 -9q5 1 9 8zM287 375
q11 -7 16 1q-2 8 -6 8q-5 0 -10 -9zM226 437l10 -5q-13 -7 -21 -42q4 -12 13 -7t9 -1q0 -3 -1 -9q16 5 22 25q6 24 15 31q-9 15 -23 15q-8 0 -24 -7zM216 377q-6 3 -10 3q-10 0 -22 -19.5t-30 -19.5q-2 -9 -18 -32q-13 -18 -14 -34q-2 2 -4 2q-5 0 -10.5 -11t-12.5 -10
q9 -8 9 -13t-13 -13t-14 -15q4 -3 14 -9l-16 -11q6 -2 6 -5t-4 -9.5t-4 -9.5t2 -6q8 7 23 11l24 7q-5 4 -5 10q0 4 8 17.5t8 21.5q0 6 -4 11q12 -6 13 -2q3 3 3 7q0 3 -2.5 8.5t-2.5 7.5q0 4 2 7q35 2 52 39q8 1 13.5 24t20.5 25q1 6 -12 18zM255 349q-2 -5 1 -6t7 0
q5 1 6 4q-2 3 -6 3zM160 98q-15 -1 -38 -14q-26 -15 -38.5 -17.5t-20.5 -18.5q-9 -20 -16 -25q7 -12 25 -19q15 -5 30 -11q15 8 16 8q6 -3 19 -10q-1 4 -1 7q0 9 16 18t14 20q15 6 15 14q0 6 -12.5 19t-12.5 20q0 4 4 9zM137 -9l2 -4q4 1 -2 4z" />
    <glyph glyph-name="at" unicode="@" horiz-adv-x="862" 
d="M416 659q-9 -3 -65 -18q-45 -11 -59 -22q-1 -1 -12 -15q-34 -41 -63 -45q2 -1 4 -17q-11 -14 -37.5 -37t-37.5 -37l-3 10q-7 -16 7 -24l-20 -7q17 -1 17 -18q0 -26 1 -27q2 -6 6 -6q2 0 7 3t7 5t26 39q16 26 14 43q4 -2 7 -2q11 0 24 20q17 25 20 28q58 45 85 61
q50 30 96 35q-1 7 -3 14q-1 8 6 10q-3 6 -8 6q-2 0 -6 -1t-6 -1q-4 0 -7 3zM755 409q14 2 17.5 19t19.5 13q10 11 6 28q3 1 7.5 -1t6.5 -2q-19 10 -27 46q-8 33 -29 39q1 5 1 11q0 25 -16 47q-6 2 -11.5 -4t-9.5 -6q-4 2 -10 17q-4 11 -14 10q-11 -7 -27 -7q-19 0 -29 9
l14 7q0 1 -3 14q-1 9 -8 7q0 -9 -7 -19t-15 -10q-4 0 -8 4l17 11q-7 4 -16 4q-6 0 -17 -2.5t-16 -2.5q-14 0 -17 20q-4 2 -7 4q2 3 3 7q2 4 -4 6q-19 -11 -54 -10q-43 1 -55 -2q1 -5 -4 -14q4 -1 7 -3q-1 -4 -3 -7q-2 -5 4 -7q10 9 31.5 6.5t29.5 1.5q10 -2 10 -11
q0 -2 -1 -7v-8q0 -12 13 -15q-12 1 -24 -14q3 -3 5 -4q2 0 5 7t7 8q46 -21 114 -19q7 -25 41.5 -42t42.5 -36q3 2 9 8.5t10 6.5t9 -4l-4 -4q15 -14 28 -16q-30 -14 -62 -22q12 2 12 -3q0 -2 -1 -5t-1 -4q0 -7 8 -8q-3 -3 -7 -3q-5 0 -16 8.5t-18 8.5q-4 0 -8 -2l25 -23
q-1 -3 -3 -3q-1 0 -4 3t-4 3q-2 0 -3 -3q6 -5 17.5 -3.5t14.5 -3.5l-11 -7q4 3 8 3q8 0 14.5 -10.5t5.5 -19.5l-27 -14q20 -1 20 -20q0 -12 -6.5 -22t-12.5 -7q4 -4 11 -3t9 7q11 -8 11 -14q0 -4 -3 -6l-13 4q-7 2 -11 -1l10 -17q-8 -1 -12.5 -13.5t-14.5 -11.5q0 -1 14 -17
l-10 -10q-4 -18 14 -38q12 -13 21 -13q10 0 23 24t21 28q0 4 10 28q7 16 13 31l-13 3q5 5 5.5 12.5t7.5 12.5q-4 2 -14 10l-10 -14q-7 5 -20.5 1t-17.5 1q19 0 37 16q26 24 31 27q-9 15 -27 19t-35 7zM506 616q-6 6 -16 6q-13 0 -29 -11l27 -5q11 0 18 10zM689 222
q-6 -17 -38 -27q-35 -10 -44 -22q-6 2 -13 2q-8 0 -26.5 -8t-31.5 -8q-6 0 -12 2q-17 3 -36 14.5t-30 15.5q0 -1 -13 -21q3 -1 -22 -1q-14 -1 -20 7q5 4 14 4h14l26 16q14 12 14 26q4 -2 7 -2q5 0 14.5 5.5t13.5 5.5t7 -2q-3 6 -3 10q0 10 22.5 22.5t20.5 30.5q7 -20 20 -20
q4 0 8 4q-1 6 -13 12t-12 11q0 4 7 11q10 -20 38 -13l-17 13q-4 7 -4 15q0 10 9 28.5t9 28.5q0 6 -2 11q5 -5 12 -2q8 3 9 9l-25 24q1 -8 -3 -10q-3 13 -6 27.5t-16 12.5q-12 22 -35 22q-10 0 -32.5 -5t-33.5 -5q-16 0 -27 7q-18 -24 -59 -26q-49 -2 -64 -11q0 -3 7 -10
q-1 -1 -15 -11q-10 -8 -17 -8q-3 0 -6 1q-20 -13 -36 -50q-19 -42 -31 -55q5 -4 20 -40q12 -29 28 -29q4 0 9 2q-13 -7 -14 -19q1 6 1 -23q-10 13 -20 13q-7 0 -11 -10q-4 -3 -4 -10t4 -14h4q7 6 16 6q7 0 22.5 -5.5t24.5 -5.5q6 0 12 3v31q1 17 -11 27q2 4 2 6q0 6 -9 7
q-12 2 -14 4q24 11 30 56t33 59q11 5 11 12q0 4 -5 12.5t-3 13.5q10 7 27 7q6 0 18 -1t19 -1q27 0 43 18q6 7 15 7q10 0 30 -17q24 -8 24 -24q0 -8 -12.5 -31t-10.5 -35q-12 -16 -46.5 -39.5t-48.5 -41.5q5 0 -16 -1q-11 0 -11 8l-24 -25q4 -3 8 -7.5t3 -9.5q-3 -7 -12 -7
h-16q1 -3 1 -5q0 -5 -5 -11q-9 -8 -9 -9q3 -17 12 -17q4 0 13 4t13 4q9 0 14 -11q-3 -9 -12 -5t-12 -2q1 -9 6 -9q2 0 7.5 2.5t8.5 2.5t5 -2q-3 -5 -3 -9q0 -7 11.5 -16t13.5 -13q5 5 14 2t13 2q1 4 -4 6t-6 4l24 18q2 -1 3 -14q14 -9 32 -9q11 0 39 6q25 7 40 5q38 8 76 15
q46 9 67 36l-3 28q2 3 8 2q8 -2 9 -2q3 1 3 10q-1 14 -14 14q-5 0 -10 -4zM137 426l-14 3q-7 -9 7 -9q6 0 7 6zM632 111q-3 -12 -16 -16.5t-25 -8.5q-4 5 -20 4q-16 -2 -18 -12l-43 -49l-25 3q0 1 -1 2q-3 0 -5 -2q-15 -10 -7 -34q-4 5 -15.5 6t-15.5 3q0 1 -1 2
q-3 0 -19 -2q-34 -6 -46 -4q1 -16 -3 -25q-5 -1 -11 2l-9 5q16 8 16 30q0 10 -7 15q-5 0 -9.5 -7.5t-7.5 -7.5t-7 5q-78 34 -114 32l-7 -14q-6 13 -35 15q-25 2 -24 15q-1 -3 -1 -6q0 -9 19 -15q-14 -1 -25 -13t-13 -25q1 4 4 44q2 25 12 43q-5 -5 -8 -5q-4 0 -4.5 11.5
t-2.5 15t-29 22.5t-33 27q2 2 5 2t8.5 -2.5t8.5 -2.5q5 0 9 6q-12 -1 -16.5 7.5t-1.5 20.5q-1 -3 -13 -12q-8 -7 -7 -16l-10 10q11 5 18 31t22 25l-4 3q2 17 34 46q-3 8 -3 16q0 14 12 37.5t12 34.5q0 10 -6 19q-2 4 -13.5 7.5t-10.5 9.5q-2 -15 -20 -30t-20 -33q-4 -1 -8 1
t-6 2l-9 -55l-4 3q18 -23 4 -55q-11 0 -17 -14.5t-13 -16.5q11 -11 17 -35q5 -20 25 -30q-1 -13 -18 -17q-21 -5 -26 -11q3 -14 23 -25.5t23 -22.5q-6 -5 -6 -9q0 -5 10 -15t10 -16t-6 -12q2 -11 16 -15q18 -4 22 -8q0 -3 -7 -11q2 2 7 0q6 -2 8 -2q4 0 6 6
q10 -18 46.5 -24.5t47.5 -25.5q23 -3 57 6q43 12 56 13l11 -17q2 2 16 9q9 4 9 11q0 4 -2 8l18 -13q92 16 158 54q0 3 -4 7.5t-4 5.5q0 3 4 5q1 0 14 -11q1 7 9 18t7 20q1 -6 8 -9q6 -3 10 3q-2 4 -2 6q0 8 16 11t20 8q1 7 -4 17l31 4q-8 4 -21 17zM99 236h2h-2zM50 252
l-11 9q-4 0 -6 -6q9 -11 17 -3zM240 231q-3 7 -21 7q-3 -3 -3 -6q0 -2 3.5 -7t3.5 -7q4 -4 7 -4q7 0 10 17z" />
    <glyph glyph-name="A" unicode="A" horiz-adv-x="692" 
d="M503 355q-12 39 -68 48q-9 -2 -17 -3.5t-15.5 -10t-7.5 -11.5t6 -7.5t6 -8.5q0 -3 -2 -7l-3 11q-5 -7 -14 -20q13 -6 35 -35q-48 -18 -114 -17h-6q-4 6 -4 14q0 10 7.5 29.5t7.5 30.5q0 6 -2 12q14 14 22 51q7 34 24 47q0 -9 8 -9h14h2q-2 -4 -2 -9q0 -10 10 -23
q15 -21 15 -22q9 2 14 9q-7 11 -18 11q-3 0 -7 -3q-1 2 -1 4q0 3 5.5 8t6.5 6q1 -12 13.5 -13.5t16.5 -9.5q7 7 7 15q0 5 -3 15t-2 18q-3 7 -21.5 10t-24.5 11q5 11 8 34q4 28 6 36q-4 1 -11 8t-14 6q1 0 2.5 4.5t5.5 2.5q-4 1 -10 7t-9 6q-4 0 -8 -6q2 4 2 7q0 9 -12 27
t-12 30q0 4 1 8q-6 4 -12 4q-12 0 -37 -22l26 -10q1 -5 -5.5 -5t-8.5 -4q1 -6 1 -13q0 -18 -5 -54.5t-5 -54.5q0 -27 8 -48q-3 -11 -12 -20q-13 -13 -15 -17q-8 -13 -17 -56q-6 -30 -13 -60q-59 -20 -179 -53q-4 3 -9 11q-2 1 -5 1q-6 0 -13 -6q-10 -8 -11 -9q-3 -4 -3 -7
q0 -4 6 -9t7 -9q22 17 44 17q5 0 9 -1q1 -12 2 -13q2 -5 10 -6q22 -3 24 -3q23 0 36 15q12 -1 31 -12q-7 -18 -14 -35q-8 -21 -8 -36q0 -6 1 -12q2 1 3 1q3 0 5 -4.5t5 -5.5q-6 -9 -24.5 -14t-25.5 -15q12 -3 12 -8q0 -3 -3.5 -9t-3.5 -10t2 -7q-4 2 -8 2q-5 0 -7 -4l2 1
q10 0 10 -7q0 -3 -2 -10t-2 -10q0 -9 8 -9q2 0 5.5 1t5.5 1q6 0 6 -7q18 12 56 32q-2 8 -4.5 17t-11.5 11q1 5 8.5 16t7.5 18q0 3 -2 6l-10 -10q-3 7 -3 12q0 8 6 11q4 -6 9 -6q4 0 11 4t10 4q6 0 11 -8q-3 8 -3 16q0 16 14 43q16 31 19 43q29 11 76 13q74 2 78 3
q-12 -13 -12 -22q0 5 5 -22q2 -22 14 -65q-4 -2 -4 -7q0 -4 2 -11.5t2 -11.5q0 -11 -10 -16q20 -23 25 -70.5t22 -69.5q3 -1 6 -1q6 0 16 4.5t13 5.5q8 23 18 70q-2 7 -14.5 11.5t-12.5 11.5l6 -2q0 8 2.5 23.5t2.5 23.5q0 17 -14.5 51.5t-14.5 53.5q0 16 17 62q3 -6 10 -6
q4 0 12 2.5t12 2.5q8 0 13 -6q11 8 46 12q31 4 40 20h-3q-1 1 -1 2q0 3 7.5 5t8.5 5q-55 4 -167 16q10 8 10 20q0 7 13 13zM458 468h-5v-4h5v4zM358 462q-1 2 -6 2v-2t2 -1zM472 461l-5 -6h7q0 2 -2 6zM405 406h2q15 0 26 9q-2 2 -2 3l-3 1q-10 0 -23 -13zM412 231
q-3 5 -5 5h-2q0 -2 -1.5 -5t-1.5 -4t2 -2.5t3 -1.5t1.5 3t3.5 5zM405 48v-2q0 -6 6 -6q8 0 10 8q-2 0 -5.5 1.5t-5.5 1.5q-3 0 -5 -3zM539 -80l3 -7q0 5 -3 7zM508 -45q-9 0 -22 -9h2q-3 0 14 -7q-11 -1 -12.5 -15.5t-6.5 -14.5q-3 0 -8 2q3 -6 12.5 -6t10.5 -6l2 7
q4 -1 7 -11q11 5 19 14l-5 2q10 12 18 9q-14 35 -31 35zM494 -169q6 1 13.5 7.5t11.5 8.5q-13 0 -25 -16z" />
    <glyph glyph-name="B" unicode="B" horiz-adv-x="597" 
d="M136 491q5 6 30 20q19 11 24 24q38 6 113 14q-13 -11 -23 -9q7 -8 20 -8q18 0 18 13q0 3 -1 6h6q16 1 34 -10q23 -13 32 -15q1 4 1 11q0 12 30 17q-4 7 -10 7q-2 0 -5.5 -1t-5.5 -1q-5 0 -9 4q4 2 4 9t5 9q-4 4 -8 4q-6 0 -11 -13q-16 -1 -42 12.5t-36 13.5t-22.5 -8.5
t-24.5 -8.5q-5 0 -13.5 1.5t-13.5 1.5q-14 0 -25 -12q-6 8 -35 15q-22 6 -22 25q0 5 6.5 8t6.5 6v2q-2 2 -23 14l-21 -12q-1 -11 5 -32q-3 -13 -11 -13q-3 0 -8.5 1.5t-8.5 1.5q-6 0 -11 -4q3 -14 4 -16q3 -5 14 -7q-5 -9 -33 -10h-4q-8 -4 -9 -27q-13 5 -16 4q3 8 9 5
q-14 12 -27 11h-3l2 -2l-28 -2q-3 -2 -3 -5q0 -2 1.5 -5t1.5 -5q0 -3 -7 -4q4 -4 8 -4t11 3.5t11 3.5q-2 0 -5 2q0 4 5 4q10 0 9 0q-1 -1 -1 -2t1 -3.5t1 -3.5q0 -2 -3 -4q5 -7 12 -7q3 0 26 11q9 -12 33 -21.5t41 -8.5h4zM274 530l-5 3q-1 -1 -1 -3t4 -2zM234 531
q-2 -2 -2 -4q0 -7 10 -7l3 1v3q-11 8 -10 8zM410 516q-3 -4 -3 -8q0 -6 9.5 -13.5t10.5 -10.5q-3 -3 -6 -3q-4 0 -9.5 8.5t-10.5 8.5q-18 -15 -18 -29q0 -5 2 -10l5 2q6 -3 6 -8q0 -2 -2 -7.5t-2 -8.5q-2 8 -8 8q-3 0 -8 -2t-8 -2q-5 0 -6 10q-4 -8 -18.5 -13t-16.5 -17
q18 -11 18 -13q0 -4 -6 -8q5 -5 12 -5q6 0 18 5t19 5q4 0 8 -2q19 5 31 23t25 25q-5 8 -16 8q-4 0 -10.5 -1t-10.5 -1q-7 0 -12 4q3 9 16.5 11t18.5 9q-1 7 -7 19q0 5 8.5 11.5t10.5 9.5q-6 11 -11 11q-2 0 -10.5 -9t-18.5 -7zM408 524v-3l5 3h-5zM-1 507q9 1 10 7h-2h-1
q-7 0 -7 -7v0zM452 473q2 3 10 4.5t8 8.5q0 6 -18 7q-6 -3 -6 -7q0 2 6 -13zM476 189q4 -1 7 -1q5 0 9 7q6 11 7 12q5 -7 14 -18q29 1 39 47q-5 7 -14 7q-4 0 -7 -1v-2q0 -5 7.5 -8.5l7.5 -3.5q-3 -2 -6 -2t-7 1t-6 1q-5 0 -8 -4q-14 9 -15 44q-3 9 -9 9q-3 0 -11 -6t-13 -6
q-2 0 -5 1q-7 8 -9 23q-1 11 -16 16h14q6 0 6 7q0 -10 13.5 -12t15.5 -9h3q13 0 14.5 14t2.5 26q-8 -1 -16 -1q-16 0 -45.5 8.5t-44.5 8.5v-3q0 -3 5.5 -5t5.5 -3l-4 -5h-2q-11 0 -27.5 9t-24.5 9q-11 -11 -36 -18q-20 -4 -40 -9q-3 8 -3 13q0 7 18.5 7.5t20.5 11.5
q-6 4 -20.5 6t-20.5 8q4 2 26 7q16 3 22 14q-4 -1 -7 -1q-4 0 -4 4q0 3 1 7.5t1 7.5v1q-13 -8 -53 -19q-33 -10 -49 -28q-5 -1 -9 -1q-11 0 -21 15t-21 18v3q0 6 18 14q-12 6 -12 18v8q1 6 1 9q0 12 -14 18q-4 0 -9 -11q-1 1 -1 7l-1 2q-6 5 -15 5q-4 0 -7 -1q5 -2 5 -6
q0 -2 -2 -6.5t-2 -7.5q-3 -3 -17 -3h-4q-4 -4 -4 -9q0 -12 15 -12q4 0 7 2v-4q0 -6 7 -13t7 -12q0 -3 -4 -8q-1 3 -4 3q-1 0 -3.5 -1t-3.5 -1q-2 0 -4 2q4 -6 4 -11t-9.5 -11t-9.5 -14q0 -4 2 -10q-13 -10 -26 -21q-16 -13 -16 -28v-3q4 -7 25 -18q18 -10 17 -22h-1
q2 -8 9.5 -15t14.5 -14q-7 -10 -24 -30q-1 -3 -1 -6q0 -8 5 -24t5 -25t-4 -16q6 -5 11 -16q5 -14 8 -18v-2q1 -13 -12.5 -33t-13.5 -33q3 -7 9 -7q2 0 6.5 1t6.5 1q13 0 13 -10q0 -3 -5 -11.5t-6 -13.5t-7 -4.5t-8 -1.5q8 -3 20 -3l41 5v3q0 17 39 27q2 22 14 28q18 8 70 15
q46 6 70 23q4 0 13 -4.5t14 -4.5q4 0 8 2q15 21 47 49q40 34 50 44q13 5 46 6q0 8 -6 21q-4 -6 -16.5 -6t-16.5 -3q4 2 4 7l-1 2q-10 0 -34 -7t-38 -6l9 -8q-5 -9 -13 -9q-7 0 -15 7q-1 -11 -5 -32q-49 -3 -97 -44q-15 11 -12 11q-3 0 -7 -2l5 -5q-42 -16 -45 -16
q-7 0 -13 2q-8 -3 -14.5 -19.5t-14.5 -16.5l-2 1q3 2 7 9q-8 1 -24 18q-13 14 -25 13q6 4 14 28t14 30q-14 6 -14 26v32q-2 2 -10.5 6t-8.5 11q0 2 1 6h3q2 0 8.5 2t9.5 1q2 5 2 12q0 3 -1 10v10q0 13 10 21q9 2 27.5 12t29.5 10q7 0 15 -3v-5h3q7 0 14 11t14 10h2
q10 -7 22.5 -9t23.5 -14q4 -1 7 -1q6 0 18 9t23 9q12 0 26.5 -17.5t26 -18.5t13.5 -17.5t9 -16.5q2 0 5.5 2.5t5.5 2.5q3 0 6 -4l-10 -36q0 -5 1 -10zM462 424l5 -3q1 0 2 2q1 4 -3 4q-3 -1 -4 -3zM332 391v-3q0 -4 3 -4q4 0 6 3q-3 4 -7 4h-2zM292 291q1 1 9 2q5 0 5 4v3
q-4 1 -6 1h-2q-7 0 -6 -7v-3zM520 235v7q-2 3 -6 3h-2h-1v-2q0 -9 8 -9zM457 200q-17 3 -13 3h-3v-2q0 -3 11 -3q8 0 9 -7q4 1 8 12q2 0 -7 0q-3 0 -5 -3zM478 133q1 -5 7 -5l5 -1q2 2 2 3q0 6 -9 6q-4 0 -5 -3zM473 129q-1 -1 -1 -3q0 -8 10 -8q1 0 3 1q-2 5 -12 10z
M311 22h2q5 0 5 5q-3 0 -7 -5zM173 -32q5 -5 9 -5q3 0 5 1v2q-6 5 -10 5q-3 0 -4 -3zM122 -39q3 -7 9 -7q4 0 10.5 2t10.5 1q-3 6 -9 6q-2 0 -11 -2q-6 -2 -10 0z" />
    <glyph glyph-name="C" unicode="C" horiz-adv-x="530" 
d="M453 557q-19 14 -60 40q-10 6 -31 16q-4 3 -5.5 9.5t-8.5 8.5q-7 -7 -55 -7q-26 0 -40 -11q7 -8 14 -8q6 0 15.5 6t13.5 6q6 0 10 -5q-1 -3 0 -13q0 -7 -7 -10q2 -11 15 -12q17 -2 20 -4v-4q-1 -11 12 -23t14 -20h-1q-13 0 -13 -13v-3q10 -8 43 -13q28 -5 36 -21
q5 2 10 2q4 0 12 -1.5t12 -1.5q27 0 26 34v6q-2 5 -20 18q-14 10 -12 24zM155 485q2 3 2 7q0 2 -1 6t-1 6q0 6 7 9q3 -1 5.5 -6.5t6.5 -5.5q8 0 18 10q0 6 -8.5 8t-8.5 5t3 7h3q41 -1 83 35v3q1 16 -20 24q-17 5 -35 10q-5 -21 -31 -25q-29 -4 -37 -16q2 -4 2 -9
q0 -12 -18 -25l-28 -18q-1 -2 -1 -4q0 -3 10 -14q-4 -6 -27 -19q-17 -32 -17 -47q0 -12 7 -22q21 8 45 40t41 41zM297 573v-4v-4q0 -4 5 -8h2q9 0 12 9q0 2 -2 2q-1 0 -2.5 -0.5t-2.5 -1.5q-2 1 -1 5zM483 545q-2 4 -8 4t-6 -6q9 -3 11 -3q4 0 3 4v1zM318 513q8 8 8 5
q0 1 -1 2q-4 4 -6 4q-4 0 -4 -3q0 -2 1.5 -4.5t1.5 -3.5zM341 511q0 5 -5 5q-3 0 -5 -3v-1q-1 -7 6 -7q4 0 4 6zM94 327v5q1 16 -18 25l16 30q-4 5 -12 5q-19 0 -18 0q-7 -35 -7 -34q0 -8 5 -8h-3q-7 1 -17 -7t-15 -9q1 -30 25 -51q16 26 17 27q11 14 27 17zM86 246
q14 11 14 19q0 6 -8 13.5t-7 15.5q-25 -10 -25 -34q7 -2 7 -8q0 -3 -2.5 -9.5t-2.5 -9.5q0 -11 22 -11q17 0 29 9q0 7 -6 9h-11q-7 1 -10 6zM253 83q-16 3 -49 5q-7 10 -25.5 23t-25.5 23q2 -5 2 -8q0 -7 -7 -7q-3 0 -9 20t-18 25q-5 -7 -11 -7t-14 5l-13 9q3 1 8 1
q4 0 11 -1t11 -1q14 0 17 10l-10 9q1 2 3 2q-3 0 9 -4q-13 20 -38 26v-4q1 -10 -9.5 -24t-12.5 -21q4 -2 4 -15q0 -9 7 -10q-5 0 -14 -3q-3 2 -3 4t1.5 5t1.5 5q0 3 -4 5q-10 -8 -10 -25q0 -14 10 -21l13 7q2 -2 2 -6q0 -2 -1 -6t-1 -6q0 -7 10 -13t17 -6q4 0 8 2
q-1 -1 -1 -3q0 -4 3.5 -11.5t2.5 -11.5q5 -5 19.5 -8.5t19.5 -9.5h3q5 0 8 9t8 11q5 -1 5 -4q0 -1 -2.5 -5.5t-2.5 -7.5v-1h25q3 3 3 6t-2.5 7t-2.5 7v1q7 14 25 15q22 1 29 8zM74 187q1 -1 2 -1q2 0 4.5 3t4.5 3l-11 10q-2 -4 -2 -7t2 -8zM392 173q-8 -10 -8 -26
q0 -23 13 -36h2q7 0 13 8q9 13 10 13q0 12 -5 12q-2 0 -5.5 -1.5t-5.5 -1.5q-5 0 -9 7q7 7 15 7q3 0 7.5 -1t6.5 -1q5 0 8 4q-29 16 -39 16h-3zM381 101q-4 0 -10.5 -7.5t-10.5 -7.5q-3 0 -7 2l2 -1q-35 -6 -104 -25q-3 -9 -7 -17q-6 -12 -13 -12q-3 0 -9 3t-9 3
q4 -8 10 -26h4q10 -1 12 7q5 -1 6 -13.5t10 -12.5q8 0 23.5 4t23.5 4q9 0 16 -3q7 13 46 37q33 19 33 48q0 17 -16 17z" />
    <glyph glyph-name="D" unicode="D" horiz-adv-x="574" 
d="M490 413q2 8 2 13q0 13 -22 29t-27 28q2 2 6.5 2t4.5 2v3q-23 21 -46 43q-26 25 -41 47q1 2 3 2l1.5 -1.5t2.5 -1.5t2 1q-3 4 -7 14q-1 -1 -1 -6t-4 -5q-3 3 -3 7q0 3 3.5 9.5t3.5 9.5q0 5 -6 9q1 0 1 -3q0 -11 -11 -11q-4 0 -4 9q-5 -1 -5 -5q0 -2 1 -5t1 -4q0 -3 -4 -5
v2q1 6 -6 8t-13 4v-2q0 -8 -11 -10q-12 6 -37.5 4.5t-34.5 2.5q-36 -11 -101 -14q-74 -4 -102 -9q-11 -10 -11 -24q0 -17 16 -17q4 0 10 2q4 -1 10 -1h10q7 1 11 1q16 0 20 -14q-17 -13 -17 -28q0 -14 24 -21q-4 -14 -4 -41t-3 -40q0 7 -5 7q-11 0 -11 -9l1 -1l14 -2
q0 -5 2.5 -14.5t2.5 -14.5q0 -11 -9 -18q14 -11 15 -31q3 -29 4 -33q-2 -10 -21 -28v-2q0 -7 2 -19t2 -18q0 -8 -2 -14q-2 1 -4.5 4.5t-4.5 3.5h-3v-6q1 -41 -18 -82q8 -7 25.5 -12t23.5 -9q16 1 37 10q0 4 -5.5 6.5t-6.5 4.5q11 -4 30 -18t30 -17q17 0 45 -4q36 -4 44 -5
q17 9 17 20q0 3 -1 6q-10 8 -30 13q-25 7 -31 10q4 3 12 11q-12 9 -27 9q-7 0 -22 -3t-22 -3q-17 0 -29 12q-2 11 -2 22q0 18 5 46q6 37 7 46l-15 4q5 0 13 7q-10 189 -10 191q-3 7 -13.5 15.5t-12.5 16.5q11 7 19 44q9 -2 19 -2q15 0 43.5 4t42.5 4q24 0 42 -8l-5 -3
q24 -7 37 -20q27 6 29 7q15 4 24 16q8 -4 8 -9q0 -4 -6.5 -11t-6.5 -12q0 -12 20 -12q4 0 12 1t12 1q14 0 22 -11q-12 1 -12 -13q0 -7 5 -11l5 5q2 -1 2 -3q0 -1 -2.5 -3t-2.5 -4l-2 1q-8 -8 -8 -20q0 -9 6.5 -25.5t6.5 -24.5q0 -3 -1.5 -7t-1.5 -5t14 -9.5t12 -18.5
q3 -6 8 -6q4 0 10 3.5t9 3.5q-1 3 -7.5 6t-6.5 5t1 4q8 -3 18 -15l-2 -1q6 -6 8 -6q1 0 3 1q6 15 26 38q1 14 -12.5 20t-26.5 10zM146 487q1 -1 2 -1q2 0 2 3v7q-4 -3 -4 -7v-2v0zM401 478q0 7 -8 7q-5 0 -5 -9q0 -5 5 -5q8 0 8 7zM422 336q-10 -6 -10 -22q0 -3 1 -11v-11
q2 -3 5 -3q2 0 6 2t5 2q3 0 5 -5q-29 -21 -40 -51q9 -3 9 -11v-3q-5 5 -10 5t-13 -7.5t-14 -7.5q-3 0 -6 2q0 -16 -12 -31t-26 -17q5 -3 5 -8q0 -2 -1 -5.5t-1 -5.5q0 -13 12 -13q3 0 7 1.5t6 1.5q5 0 9 -8q25 18 50 37q29 21 43 44q3 -5 16 -9q3 4 3 6q0 3 -7.5 6t-8.5 6
q4 11 21 28q1 2 1 4q0 5 -7.5 12t-7.5 12q0 9 13.5 31.5t13.5 35.5q-9 0 -26 -5t-26 -5q-8 0 -15 3zM292 151q3 -1 7 -1q6 0 9 3q-18 2 -12 2q-4 0 -4 -3v-1zM148 72q1 -5 5 -5q1 0 5 1t5.5 2t1.5 3q0 5 -7 5q-8 0 -10 -6zM241 67v-2q-1 -8 8 -8t13 7q-6 6 -13 6q-4 0 -8 -3
zM143 51h-3q-4 0 -8 5.5t-9 5.5h-1q-9 -8 -23 -27q3 -2 21 -26l21 12q-3 2 -3 5q0 2 4 8t4 10t-3 7zM229 50q9 -6 7 -6h2l3 5q0 5 -4 5q2 0 -8 -4z" />
    <glyph glyph-name="E" unicode="E" horiz-adv-x="476" 
d="M386 559q-12 -5 -26 -5q-15 0 -43 9t-36 9q-7 0 -14 -9.5t-12 -9.5q-2 0 -4 1.5t-9.5 7t-6.5 11.5q-25 -17 -81 -16.5t-81 -16.5q-3 -7 -13 -12.5t-13 -10.5q6 -7 19 -54q9 -5 18 -5q7 0 10 3q-5 1 -5 9q0 16 0 14q1 -4 5.5 -12.5t4.5 -13.5q0 -3 -3 -6q10 0 37 28.5
t51 28.5q7 0 20 -2t20 -2q19 0 33 14q19 -13 33 -13q8 0 10 6.5t3 13.5q8 -3 19 -3q10 0 30 2.5t30 2.5q20 0 35 -7l14 13q-5 8 -22.5 12t-22.5 13zM252 566v4h-1q1 0 -4 -4q0 -1 1 -1q7 0 4 1zM119 227q-7 17 -11 23q-8 10 -21 12q4 8 16 18q39 9 106 10q80 1 107 4
q0 10 20 14.5t22 17.5q-7 11 -30 13t-25 9q-19 5 -40 5q-27 0 -69 -8q-52 -11 -68 -12q-7 8 -23 24q16 2 16 23q0 10 -14 24.5t-14 24.5q0 6 3 13q-6 5 -21 12l-5 -13q0 -3 4 -3q-6 -2 -11 -13t-11 -13q0 -7 -3 -29q-3 -18 -3 -29q0 -17 6 -30q-6 -2 -14.5 -12t-8.5 -7
q1 -2 1 -4t-1.5 -8t-1.5 -9l1 -4q5 -7 11 -7q4 0 10.5 4t10.5 4q5 0 10 -5q-3 -8 -16.5 -23t-13.5 -26q0 -2 5.5 -8t5.5 -9v-2l-4 4v-3q0 -4 4 -11.5t4 -10.5q0 -5 -10 -4v-4q0 -19 16 -19q21 0 35 27q19 35 25 40zM149 155q-5 2 -10 2q-6 0 -9 -3t-7 -3q-5 0 -12 5t-12 5
q-3 0 -7 -2v-6q0 -7 4.5 -22t4.5 -23q0 -15 -14 -22t-14 -24q0 -21 5 -32q4 -7 22 -24h2q7 0 17 7t16 7q11 51 11 63q0 10 -3 18q-12 7 -17 7v4q-1 10 11 20t12 19v4zM386 141l-16 11q-1 -4 -7.5 -8t-6.5 -8v-2q4 -4 9 -4t21 11zM344 128q0 3 1 6l-5 11h-12q-20 0 -56 -9
q-45 -12 -56.5 -14t-24 -22.5t-23.5 -19.5q7 0 17.5 -10t19.5 -8q3 -1 7 -1q9 0 21 8q16 9 19 11q6 -5 14 -16q2 1 29 1q12 0 19 4q7 0 8 -7l2 -12q23 18 67 54q-3 1 -6 1t-10 -1t-10 -1q-8 0 -14.5 8.5t-6.5 16.5zM71 142q-10 0 -8 -16v-2q3 -6 7 -6q9 0 9 13q0 11 -8 11z
M159 69q0 -9 -9 -23q2 -1 4 -1t3 6t6 6v2v3q1 2 1 3q0 4 -5 4z" />
    <glyph glyph-name="F" unicode="F" horiz-adv-x="489" 
d="M434 558q-4 -4 -42 -4q-21 0 -32 -10q-18 16 -51 16h-15q-11 -1 -16 -1q-19 0 -30 6q-21 11 -33 11t-36 -7t-37 -7q-12 0 -22 5q2 1 1 4q-33 -6 -49 -10q-31 -9 -44 -22q8 1 13 1q19 0 22 -14q-1 -5 -10.5 -5.5t-8.5 -6.5v-2q18 -8 24 -34q8 -32 15 -40q-2 -2 -4 -2
t-5 1.5t-4 1.5q2 -13 7 -39v-1v0q2 -5 4 -11q-3 -3 -6 -3t-7 1.5t-6 1.5q-11 -8 -11 -17q0 -6 7.5 -18t7.5 -18q0 -4 -3 -8q3 -3 6 -3q2 0 6.5 3t7.5 3q-8 4 -8 12q0 11 9 17q5 -10 5 -18q0 -6 -3 -19l-5 3q-14 -34 -47 -78q4 -7 15 -11t14 -9q-1 -1 -4 -1q-1 0 -4.5 1
t-4.5 1t-3 -1v-3q-1 -12 5 -32q6 -23 6 -32h3q4 0 8 4.5t6 5.5v-3q1 -8 -3 -21t-4 -19q0 -7 3 -13q0 -1 8.5 -1t11.5 -7q-3 -5 -12 -5t-9 -5q0 -2 1 -5l3 -1q8 0 20.5 6t17.5 7q1 2 1 4q0 1 -9 3q0 4 3 5h6q4 0 5 3l-9 6q3 4 4 16.5t10 15.5q-1 2 -3 10q1 2 3.5 6.5t2.5 7.5
q0 8 -10 18.5t-11 17.5q12 6 17 23.5t10 23.5q-4 5 -14 11v2q-1 6 9 11t12 8v3q1 11 -14.5 20t-15.5 16q0 6 4 12l3 -1q4 3 3.5 10t1.5 11l-6 -4q-4 9 -4 19q0 7 3 21.5t3 22.5q0 15 -9 27q11 5 11 23.5t12 21.5h4q10 -1 27 8.5t27 9.5q0 -8 6 -8q2 0 6 1t6 1q6 0 7 -5
q11 8 26 8q7 0 19.5 -1.5t19.5 -1.5q19 0 30 12l2 -3q8 0 11 10.5t5 12.5q26 -8 33 -23q27 17 84 29q0 5 -10 11zM433 526q1 2 1 3q0 2 -3 2v0zM31 543v2v1q0 1 -4 3q-2 -1 -2 -2q0 -3 3 -5zM68 436q-2 3 -4 3q-4 0 -4 -5q0 -4 5 -6q3 3 3 7v1zM322 345q-18 -5 -39 -5
q8 0 -64 5q-8 6 -18 6q-5 0 -15 -2.5t-16 -2.5q-7 0 -14 4l-19 -13v-2q0 -3 4.5 -13t3.5 -16q31 -9 70 -9q22 0 64 4t62 4q0 5 5 14q3 0 3 -2l-1.5 -2.5t-1.5 -4.5l2 -2q10 2 10 9q0 1 -1 2q-13 6 -35 26zM54 337q0 3 -3 9q-2 -6 -2 -7v-4h2q2 0 3 2zM290 295v5q-2 0 -3 -2
q1 -2 3 -3z" />
    <glyph glyph-name="G" unicode="G" horiz-adv-x="552" 
d="M327 588q0 -1 -4 4q-2 -3 -2 -5q0 -3 2 -3q3 1 4 4zM162 477l-5 2q3 -2 5.5 -9t9.5 -7l-8 7q8 -3 18 -3q8 0 21.5 2t19.5 2q-4 20 -4 22q0 10 6 18q26 -1 77 6v3q0 7 -4 7q-3 0 -7 -3q3 8 12 8q3 0 8 -1t8 -1q8 0 10 10q8 -20 50 -41q47 -24 59 -38q1 -2 -2 -4t-3 -4v-2
h3l19 -12q6 5 12 5q2 0 6.5 -1t6.5 -1q7 0 13 9v2q0 4 -7 9t-7 9q0 2 8 2q2 0 3 3q-9 0 -21.5 14t-22.5 14h-4q0 -9 23 -19q-4 -3 -9 -3q-6 0 -15.5 9t-14.5 9q-6 0 -12 -7q-1 12 -21 55q-3 6 -7 18q-2 5 -14.5 5.5t-13.5 9.5l-3 -1l4 -4q-10 -9 -54 -27q-35 -15 -43 -36
q-4 9 -12 9q-3 0 -9.5 -1.5t-9.5 -1.5q-10 0 -12 15q-3 1 -6 1q-13 0 -27 -20.5t-27 -20.5q-2 -3 -2 -5q0 -1 2.5 -4t2.5 -6v-2zM408 568q-1 2 -3 2q-1 0 -3.5 -2t-3.5 -2q-1 1 -1 3l-5 -1q1 -7 3 -7t6 3.5t7 3.5zM425 512q0 -2 3 -4q4 2 18 3q-1 7 -10 7q-11 0 -11 -6z
M424 503q4 3 4 5q-3 -2 -4 -5zM109 352q6 15 30.5 15.5t31.5 11.5v12q0 6 -1 11q17 20 56 54q-1 5 -9 10q-5 0 -5 -2q0 -1 1 -3l2 -4l-2 -3q-4 8 -13 8q-2 0 -10 -1q-6 -1 -10 0q-7 -5 -14 -9.5t-6 -12.5q-3 -2 -6 -2q-5 0 -12 6t-9 6q-4 0 -6 -10h2q1 0 2 -1
q-22 -10 -37 -33q3 -3 5 -3q1 0 2 5t6 4q7 5 9 5q1 0 1 -1q0 -3 -1 -7t-1 -6q0 -9 6 -9q7 0 24 7t23 8v-3q0 -25 -17 -25q-3 1 -3 2t1 3.5t1 3.5q0 2 -3 4q-12 -2 -28 -11l7 -4q-12 -7 -39 -16q0 -6 10 -7t12 -3zM118 440v1q0 3 -3 6.5t-4 6.5q-2 -1 -2 -5q0 -10 7 -10z
M488 423q-2 -1 -3 -1q-15 0 -15 10q0 4 5 6q-4 2 -7 2q-5 0 -11.5 -8.5t-14.5 -6.5v-4q0 -5 8.5 -10t9.5 -6q3 2 5 2q3 0 7.5 -2t6.5 -2q3 0 5 5h-2q-4 0 -6 2q3 3 12 13zM213 411l8 -6v2q-9 4 -6 4h-2zM203 390q-4 5 -9 4h-1l2 -16h2q7 0 7 9q0 1 -1 3zM71 356v6
q-5 -1 -5 -5v-2zM463 391q2 -4 4 -4q6 0 6 8q0 1 -1 2t-2 1q-5 0 -7 -7zM166 361q-1 0 6 -1q3 0 3 3t-2 3q-5 0 -7 -5zM71 298l-4 2h3q5 0 12 6.5t11 7.5q0 2 -3.5 3t-3.5 3v2q1 2 3 2q-4 2 -3.5 9.5t-1.5 9.5q-2 -12 -10 -12q-3 0 -8 1.5t-8 1.5q-7 0 -11 -6q6 -5 4.5 -18
t3.5 -17q5 -1 16 5zM129 341q2 0 2.5 -2.5t1.5 -2.5t2 1l-1 1q-5 3 -4 3v0h-1zM191 342q1 -4 5 -4h1v2q-3 3 -5 3zM185 96q-13 0 -22 6q-4 19 -17 55q2 7 11.5 14t9.5 16q0 7 -2 7q2 0 -8 0q-18 7 -18 18q0 7 4.5 21.5t4.5 21.5q0 19 -21 19q-10 0 -13.5 14t-7.5 16l-17 -9
l2 -2q-3 -8 -17.5 -11.5t-14.5 -12.5l1 -3q2 4 5 4v-9q0 -36 21 -46l-6 -4q0 -3 8 -5.5t9 -6.5q-2 -3 -6 -3t-10 3q-6 -61 -6 -56q5 -8 19.5 -19.5t18.5 -20.5h-6q-1 -4 -1 -8q0 -11 16 -33q7 5 14 5q13 0 36.5 -17t28.5 -17q50 0 70 28q-16 5 -31.5 17.5t-22 15t-15.5 2.5
h-8.5h-8.5zM123 290q3 4 3 5q0 3 -8 9q-1 -2 -1 -4q0 -7 6 -10zM507 233q-7 2 -15 2q-5 0 -13.5 -1t-11.5 -1q3 0 5 4.5t5 4.5q-11 1 -28 13.5t-27 12.5q-7 0 -14 -4q0 -2 4 -6q-6 3 -39 2q-24 -1 -33 15q-3 -1 -15 -2q-8 -1 -10 -8q-7 7 -11 7q-3 0 -7.5 -11t-12.5 -9
q3 -3 3 -5q0 -1 -2 -3.5t-2 -4.5l1 -2q4 2 7 2q6 0 11.5 -5.5t10.5 -11.5q0 -1 1 -3q0 -8 -8 -9q5 1 10 1q-1 0 55 -7q-4 -3 -12 -11l11 -12q5 5 13 15q7 -5 7 -10q0 -2 -1 -5.5t-1 -5.5q0 -5 8 -10q-16 -35 -17 -104q-11 -14 -30 -14q-7 0 -21 2t-21 2q-19 0 -31 -12
q-5 -9 -11 -28q4 -1 18 -6.5t15 -5.5q4 0 7 11q19 0 44 -23t42 -23q3 5 23 22q14 13 17 26h-2q1 0 -10 -7q0 10 2 30q2 -1 3 -1q6 0 12 8.5t10 9.5v8q0 16 10.5 42.5t10.5 30.5q0 21 -14 21q-3 0 -6 -2q1 1 11 10q7 6 7 12l-1 2h-2q-5 0 -10.5 9t-11.5 10l36 4q22 3 31 16
q-3 2 -3 7q0 6 3 11zM28 268q0 -2 -1.5 -5.5t-1.5 -5.5q0 -4 5 -6q4 1 5.5 6.5t3.5 6.5q-6 4 -9 4h-2zM60 239h7q-2 3 -5 3q-2 -1 -2 -3zM258 236q1 -1 2 -1q5 0 5 3q0 1 -1 2q-6 -5 -6 -4zM261 44q-3 -2 -10 -6q1 -1 2 -1q7 0 8 7z" />
    <glyph glyph-name="H" unicode="H" horiz-adv-x="481" 
d="M372 527q5 0 10.5 6t10.5 7q-8 10 -19 10q-6 0 -15 -4q2 -3 8 -7.5t5 -11.5zM419 304q0 -2 0 16q0 5 -2 8h-2q-3 0 -4.5 -5t-2.5 -5t-4 3q4 16 18 13v3q0 6 -9 9.5t-9 10.5q6 6 6 15q0 11 -7 23q-3 -1 -7 -7t-7 -6t-6 5q3 8 12 13q14 8 16 10q3 -4 3 -5q9 -1 9 6
q0 22 -1 18q-14 4 -36 14q3 2 7 2q3 0 16 -6q1 11 10 32q-7 1 -9 10t-7 11q7 4 7 12q0 3 -1.5 9.5t-1.5 10.5q-6 1 -10 1q-6 0 -17 -3.5t-17 -3.5q-4 0 -9 1l-3 13q0 4 3 5q-11 -3 -16 -21t-21 -16q1 -6 14.5 -15t13.5 -27q0 -10 -12 -22.5t-12 -22.5q0 -6 4 -15
q8 1 11.5 -10t11.5 -9q-3 -4 -8 -4q-2 0 -5 1q1 -4 8 -16q-22 -7 -58 -48q-8 1 -17 10.5t-13 11.5q-20 10 -60 10q-31 0 -61 -10q-4 3 -4 7q0 2 4.5 7.5t4.5 8.5t-2 6h-2q-9 -1 -11 7q4 5 13 4q-3 37 -3 40q-4 22 -14 36q1 30 16 35q-9 17 -19 52q-2 3 -5 5q-10 66 -27 66
q-16 0 -16 -73q-12 -1 -13 -18t-10 -17q6 -25 13 -74q3 3 6 3q2 0 5.5 -5t5.5 -6q-1 -3 -3 -3t-5 3.5t-5 3.5q-3 0 -6 -4v-3q0 -11 8.5 -12.5t12.5 -12.5q-3 -6 -7 -6q-2 0 -6 2.5t-6 2.5t-5 -2q8 0 8 -17q0 -16 -31 -54q-2 -8 -2 -17q0 -35 25 -61q-5 -7 -5 -16
q0 -5 2.5 -14.5t2.5 -14.5q0 -9 -7 -15l1 2q1 13 -8 13q-7 0 -7 -46q0 -20 -8 -36q9 -6 10 -14q0 2 0 -18q0 -12 17 -15q2 8 7 16q-11 -23 -11 -57q0 -13 4 -13q11 0 16 51q3 -5 7 -5q12 0 13 13q-5 10 -18 10v4q4 1 7 1q9 0 17 -7q1 6 6 31q3 19 3 32q0 5 -2.5 15t-2.5 14
q0 7 10 13.5t7 13.5q3 5 3 10q0 7 -7.5 18t-7.5 17t6 11q8 1 28 6.5t31 5.5q10 0 19 -4q7 9 35 18q22 7 23 29q17 -17 48 -20q27 -3 53 -6q4 -3 8 -19q2 0 5.5 3t5.5 3q1 0 4 -1q-5 -4 -5 -11q0 -4 2 -12t2 -12q0 -5 -2 -9q-7 2 -9 6q-1 3 0 9q1 9 1 10q0 9 -9 12l-11 -8
q-2 -3 -2 -6q0 -5 7 -9.5t8 -6.5q-1 -8 -8 -8q-5 0 -6 8q-7 -2 -7 -9q0 -10 -1 -12q11 -19 29 -60q4 4 4 7t-1 6q12 13 31 13q9 0 23 -3q-8 14 -8 32q0 8 2 24t2 24q0 15 -4 27q-5 -8 -10 -8q-2 0 -6.5 1t-6.5 1q-4 0 -9 -1q4 9 23.5 17.5t24.5 17.5q-1 0 -4 -3zM325 461
q0 2 -3 2h-5v-1v-1q0 -3 4 -3q3 0 4 3zM45 423q-3 0 -3 -5l1 -2q5 1 5 5q-1 2 -3 2zM277 408q2 1 2 3v2q-5 4 -7 4t-3 -2q2 1 4 1q3 0 4 -8zM314 405q-4 4 -13 11l-1 -13q10 4 9 4q2 0 5 -2zM430 329h2q2 0 4 4q-1 3 -2 3q-3 0 -4 -7zM252 297l-4 -6q3 -1 7 1q-3 6 -3 5z
M31 269q-5 0 -4 -5q-1 -1 5 -1q2 0 2 2q0 4 -3 4zM28 254q0 -4 5 -4t5 6v1q1 0 -7 0q-3 0 -3 -3zM390 87q-3 -4 -6 -4q-4 0 -8.5 5.5t-6.5 6.5q20 7 20 34q0 3 -1 6q-9 10 -23 10h-4q0 -6 6 -17q-4 -1 -9 -1q-13 0 -9 11q-17 0 -17 -14q0 -2 2 -5q15 -2 15 -21q0 -4 -3 -21
q10 -8 29 -24q6 2 7 19v2h2q6 0 6 -8v-11q8 6 8 18q0 10 -8 14zM322 87q-2 -6 -2 -9q0 -5 5 -5q2 0 4 1t2 2q0 3 -4.5 5.5t-4.5 5.5zM353 63q-1 3 -4 3q-2 0 -8 -3q1 -13 12 -29q4 5 4 8t-4 6.5t-4 5.5q0 4 4 9z" />
    <glyph glyph-name="I" unicode="I" horiz-adv-x="178" 
d="M112 555q-1 1 -3 1t-2 -3v-2zM91 548h-1h-2q-8 0 -8 -5q0 -3 5 -3q7 0 7 7zM117 515q3 5 3 9q0 5 -10.5 6.5t-10.5 5.5q-2 -2 -2 -3q0 -2 3 -5t3 -4l-2 -4q-3 5 -17 5h-1q2 1 3 5q-5 6 -14 6q-4 0 -26 -18q12 -28 12 -37q0 -7 -4 -13q-6 7 -5 10q-2 1 -4 1
q-5 0 -7.5 -9.5t-10.5 -9.5q1 -3 3 -3q1 0 3 1t3 1q2 0 4 -2q-1 -8 -1 -17q0 -12 2 -35.5t2 -35.5q0 -16 -3 -27q7 -7 16 -31q8 -19 24 -24h-3q-7 0 -12 -14.5t-16 -12.5q9 -6 9 -17q0 -10 -9 -30h-3q-8 -1 -14 5q-3 -4 -7 -13q15 -4 22 -21q-3 -8 -3 -18q0 -21 12 -35
q-2 1 -3 1q-3 0 -4.5 -7.5t-3.5 -7.5t-7 4q0 -7 -6 -23t-6 -24q0 -26 30 -32q25 -5 49 -9q18 6 18 27q0 9 -3 20q-9 8 -21 11v2q-1 10 10.5 16.5t13.5 10.5q-2 2 -2 5q0 2 1 6t1 6q0 4 -3 7q-3 -3 -7 -3q-5 0 -8 4v3q0 17 21 26q-7 9 -7 21q0 14 9 32q-9 3 -24 13
q-2 6 -11.5 18t-9.5 19q0 5 3 10q21 -4 15 -4l3 1q8 18 11 44q3 22 5 45q2 7 8 31v1q0 4 -5 13.5t-5 14.5v2q5 5 15 13q-13 13 -15 36.5t-16 36.5q2 -1 8 -1t7 -5zM123 361q1 -2 3 -3v0q3 0 4 4q0 1 -5 1zM38 181l-3 1v-6q3 7 3 4v1zM33 128h2q5 0 8 6h-2h-1q-7 0 -7 -5v-1z
M88 31v-1q0 -5 5 -5l3 2v1q0 5 -5 5zM57 12q6 -6 10 -6q5 0 5 6q0 4 -5 4q-7 0 -10 -4z" />
    <glyph glyph-name="J" unicode="J" horiz-adv-x="443" 
d="M284 525l2 -1q-3 0 12 4q6 -7 6 -14q0 -6 -7.5 -15t-7.5 -14q0 -10 12 -10q2 0 7 1h6q5 0 10 -3v-4q0 -5 -5 -5q-3 0 -8.5 1.5t-8.5 1.5q-9 0 -9 -11q0 -9 16 -17.5t17 -21.5q-2 -5 -12.5 -10.5t-10.5 -11.5q0 -2 2 -5q2 5 5 5q2 0 6 -4t6 -4q13 12 21 25q1 1 3 1
q3 0 7.5 -2.5t6.5 -2.5q4 0 4 6q-5 7 -12 7q-5 0 -12.5 -2.5l-10.5 -3.5q4 9 22 9q7 4 7 11q0 10 -15 24q11 14 21 46q-6 1 -22 26q1 7 9 27q6 17 6 28q0 15 -14 25q-4 -2 -4 -5q0 -2 1.5 -5t1.5 -5q0 -3 -4 -5q-7 4 -7 8q0 3 5.5 9.5t5.5 10.5h-4q-3 0 -8 4.5t-8 3.5
q-2 3 -2 6q0 4 3 10.5t3 9.5t-2.5 5.5t-2.5 8.5t-3 7q-11 -4 -33 -11q-3 -5 -3 -10q0 -9 12.5 -21t12.5 -19l-1 -3q-22 -3 -25 -40h1q8 0 11 -15q-1 -6 -6 -6q-1 0 -4.5 1t-5.5 1q-4 0 -6 -4q4 -3 13 -22zM351 314q7 4 14.5 21t11.5 23q-8 0 -8 8.5t-4.5 10.5t-6.5 2
t-4.5 -4t-3.5 -5q-6 8 -14 8q-5 0 -15 -2.5t-16 -1.5v-5q-1 -21 10 -44t28 -33q-34 -21 -69 -108h-2q-2 0 -6 -1t-6 -1q-4 0 -7 4q0 -10 -11.5 -24.5t-11.5 -21.5q0 -6 4 -10q-12 14 -38 26l-42 18q-6 -5 -6 -10t9.5 -13t9.5 -14q0 -4 -2 -7q3 -1 9.5 -7t12.5 -5q1 -2 1 -4
q0 -3 -6.5 -5.5t-6.5 -6.5q-3 0 -8 2.5t-9 2.5q4 -4 7 -21q8 -5 18 -5q5 0 19 3t21 2q-1 3 -3 3q-1 0 -2 -1h-2q-2 0 -3 1q66 35 106 81q-1 1 -1 2q0 3 3.5 7t3.5 6q0 3 -6 6q-2 3 -5 3q-6 0 -9 -8q-4 4 -4 6q0 3 9 4.5t9 6.5q6 -1 8 -8q15 5 26 24q16 26 18 29t2 6
q0 5 -8.5 9.5t-8.5 12.5q6 7 19 21q1 2 1 4q0 5 -8 5t-10 5h-3q-3 0 -7 -10q-6 8 -22 26q2 9 7 9q2 0 7.5 -2.5t8.5 -2.5q4 0 7 2q-9 -9 -9 -10q0 -2 4 -9zM382 325l16 8q-3 2 -7 2q-11 0 -11 -6q0 -2 2 -4zM319 297q-3 6 -9 6q-12 0 -12 -11q0 -7 3 -7q2 0 4.5 1.5t3.5 1.5
v-2q0 -2 -1 -5q11 12 11 16zM290 253v11l-3 1q-4 0 -4 -4q0 -7 7 -8zM37 192h1q5 0 5 4v1h-2h-2q-3 0 -3 -3q0 -2 1 -2zM133 149q0 5 5 5q-1 5 3.5 15t4.5 16q0 4 -2 9q-4 -8 -15 -21q-9 1 -22 6l-2 -13h3q8 0 9 7q5 -3 5 -6q0 -1 -17 -10q8 -17 10 -32q13 7 40 19q0 9 -5 9
q-3 0 -8 -2.5t-7 -2.5q-1 0 -2 1zM25 189h7v3h-2h-1q-1 0 -4 -3zM329 191l-1 -3q1 -1 2 -1q2 0 4 1.5t2 2.5q-1 2 -2 1zM65 173v-2q0 -10 14 -10q5 0 7 2v2q0 10 -14 10q-4 0 -7 -2zM97 161l4 -1q-1 1 -2 1h-1h-1zM97 161l-6 2q0 -3 2 -3q1 0 4 1zM149 130q-1 -2 -4 -4.5
t-3 -4.5t2 -4q5 0 5 5v8zM131 107h10q-3 2 -8 5q-2 -1 -2 -4v-1zM118 97q5 3 5 8v2q-2 1 -3 1q-2 0 -2 -2v-2v-7zM129 99h2q5 0 5 3q-1 1 -2 1q-2 0 -5 -4zM239 59v-1q0 -3 4 -3l1 1v1q-1 -1 -2 -1z" />
    <glyph glyph-name="K" unicode="K" horiz-adv-x="506" 
d="M51 591q-2 -4 -2 -8t2 -11t2 -10q0 -8 -8 -13q0 -1 1 -1t2.5 1t2.5 1t2 -1q-7 -2 -7 -11q0 -3 1 -8.5t1 -8.5q3 -13 19 -36q-3 -12 -10 -19q-11 -12 -14 -17q16 -7 25 -30q11 -26 20 -34q5 13 14 26q-5 13 -12 16q1 1 8.5 5.5t7.5 8.5v2q-1 4 -3 42q-2 25 -10 40q7 3 7 8
q0 2 -2.5 6.5t-2.5 6.5q0 4 11 3q1 2 1 5q0 7 -8.5 17t-8.5 14t6 7q-3 1 -12.5 7t-14.5 6l8 3q-1 3 -4 3q-5 0 -6 -3l3 -1q-10 -6 -32 -13q5 -5 9 -5q2 0 4 2zM99 605q0 5 -6 5q-4 0 -4 -4l1 -1q1 0 3 -1.5t3 -1.5q3 0 3 3zM414 549q-10 -10 -27 -7q-3 -2 -3 -6t3 -6
q12 3 17 5q9 5 10 14zM445 539q-2 1 -3 1q-4 0 -15 -15q7 1 10.5 6.5t7.5 7.5zM342 531q-2 7 -7 7q-2 0 -14 -10q2 -1 6 -1q9 0 15 4zM438 517q1 -2 4 -2q13 0 19 18q-3 1 -5 1q-7 0 -18 -17zM355 505l-5 -4q4 -2 6 -2q6 0 9.5 10.5t5.5 11.5h-2q-9 1 -25 -10
q-11 -8 -23 -17q3 -3 7 -3t12.5 7.5t14.5 6.5zM388 518q0 4 -3 4t-6 -2q0 -4 4 -4q3 0 5 2zM377 499q-1 1 -1 2t1.5 2.5t1.5 3.5q-5 -3 -62 -54q-47 -41 -61 -41q-3 0 -5.5 10t-9.5 10q-4 0 -11 -6t-9 -6q-4 0 -5 8q-9 -12 -19 -33h-5q-15 0 -30 -22.5t-29 -19.5
q-8 -15 -8 -21q0 -7 6.5 -8.5t11.5 -7.5q7 -11 8 -11q7 15 13 14h3q2 -3 19 -3q7 0 8 -7q61 73 167 129q6 14 28.5 36.5t26.5 35.5l8 8q-5 2 -10 2q-14 0 -37 -21zM249 486q-3 4 -6 4t-10 -5q0 -5 4 -5q5 0 12 6zM184 454h3q4 0 14 -5t14 -6q-3 2 -3 6q0 8 8 11
q-17 20 -20 20t-8.5 -3.5t-9.5 -4.5t-4 -4q0 -2 3.5 -6.5t2.5 -7.5zM268 441l5 -5v1v3q-1 3 -2 3q-1 -1 -3 -2zM66 348q3 0 4.5 6.5t2.5 7.5q-4 10 -6.5 31t-7.5 31q-4 1 -13 8q2 -5 2 -12t-2 -21.5t-2 -21.5q0 -8 7 -18.5t15 -10.5zM122 370q-2 4 -7 4h-1q-1 -5 4 -5z
M83 356q1 -6 8 -13q4 4 4 6q0 10 -7 10q-2 0 -5 -3zM112 301q4 6 4 12q0 9 -10 9q-6 0 -6 -7q0 -10 6 -14l1 4h2q3 0 3 -4zM127 317q-7 -24 -16 -24q-7 0 -5 8h-3q-3 0 -8.5 3t-8.5 4q4 1 4 5q0 1 -1.5 5t-1.5 6t3 5q0 9 -9 9q-2 0 -20 -5q1 -4 1 -9q0 -13 -11 -38
q-12 -29 -15 -38l-1 2q-8 -4 -8 -13t8 -13q4 1 6.5 6.5t4.5 6.5q3 -2 3 -4t-3.5 -5t-3.5 -5q0 -1 1 -4q0 6 8.5 10.5t8.5 6.5q0 3 -4 6q9 -5 23 -5q9 0 17 2q1 3 5 9.5t4 10.5t-4 7h1q9 -1 22 15q9 12 17 24q-4 9 -14 12zM350 88q-1 2 -1 6q0 7 5 21t5 22q3 -1 10 -1h3
q0 8 -8 11t-16 5q3 21 3 16q0 3 -1 6l-3 1q-7 0 -13 -5q-11 3 -11 25q0 13 -13 10q-4 2 -4 5q0 2 5.5 6.5t6.5 7.5q-2 9 -14 11t-15 7q2 4 5 4t6 -2.5t5 -2.5q4 0 6 6q-44 65 -63 65h-7q-4 -1 -6 -1q-6 0 -10 3v-5q0 -8 -8.5 -21t-8.5 -22q0 -3 1 -6q12 -2 22 -15
q12 -17 18 -21q-4 -2 -4 -6q0 -2 1 -5t1 -4t-2 -4q6 -6 21 -13v2q0 8 5 9q2 -3 8.5 -3t7.5 -5q-4 -9 -14 -25q0 -28 25 -23q-1 -3 -1 -6q0 -10 21 -31q18 -20 14 -37q2 -5 8 -5t10 5l-2 2q4 3 7 3t5.5 -9t5.5 -11t7 -2q5 0 14 9q-2 9 -11 17t-18 8q-5 0 -8 -2zM164 309
q3 6 3 5v0l-7 -5h4zM41 290l1 2q0 3 -6 3h-1q-1 -2 -1 -3q0 -2 3 -5t3 -5l2 2q0 1 -1 2.5t-1 2.5zM337 244l-11 1v-1q0 -6 6 -6q5 0 5 5v1zM342 207q-1 4 -3 4l-10 -6q2 -3 5 -3q5 0 8 5zM71 207q-11 0 -15 -10q-6 -14 -12 -29t-17 -24q5 0 5.5 -5t0.5 -9l3 3q13 -9 18 -23
q4 3 21 6q14 3 18 10h-8l5 9q3 5 8 3q-4 12 -15 35q7 1 19 6q-12 28 -31 28zM33 110q-8 0 -8 -11q0 -8 4 -11q14 10 14 14q0 8 -10 8zM96 78q2 1 2 3q0 1 -2.5 5t-2.5 6q0 3 5 5q-3 1 -8 4.5t-7 3.5q-4 0 -5 -8q-3 0 -2 2v3l-1 2q-8 -7 -24 -20q-1 -9 5 -28l4 -1
q10 -1 16.5 12t19.5 11zM54 94h1q0 1 3 3l-4 4v-7zM30 83h6v1l-4 1zM91 57q-11 -1 -18 -13q4 4 7 4t8 -5.5t9 -5.5q7 0 7 7q0 3 -6 6.5t-7 6.5zM49 46v-7q4 7 4 4v1q-2 2 -3 2h-1z" />
    <glyph glyph-name="L" unicode="L" horiz-adv-x="411" 
d="M70 597h-5v-1v-1q0 -2 2 -2q3 1 3 4zM52 488q2 -5 2 -9q0 -8 -8.5 -19.5t-8.5 -18.5q0 -6 4 -13q15 9 13 16q4 -15 17 -15q3 0 10 1.5t11 1.5q8 0 13 -7q-13 -1 -13 -16q0 -23 10 -23l2 1q7 10 7 23q0 7 -3 20.5t-3 20.5l2 -2q0 15 10 40q-4 -1 -8 -1q-15 0 -15 14
q0 8 10 8.5t10 11.5q0 12 -11.5 25t-10.5 29q0 -1 -6 -8h-2q-14 0 -14 14q-3 4 -5 4q-3 0 -7.5 -4.5t-6.5 -5.5q0 -5 7.5 -10.5t7.5 -10.5l-1 -3q-2 0 -3 2t-2 3q-10 -10 -30 -44q6 -9 22 -25zM38 549l-4 5h-1v-2q0 -3 3 -3h2zM32 467h6l-3 5zM309 150l4 4l-5 1l-3 -1l3 -4
h-4q-3 0 -7.5 2t-6.5 2h-5l12 -4q-5 -4 -8 -4q-5 0 -10.5 7.5t-9.5 7.5q-3 0 -6 -4h1q2 0 8 -3q-8 1 -17 1q-15 0 -45 -6.5t-45 -6.5q-16 0 -31 5q-6 14 -13 30t-20 20q1 5 5 5q6 0 11 -7q-1 2 -1 4q0 6 5 15t5 14q0 14 -15 14q-2 0 -6.5 -1t-7.5 -1q-9 0 -14 10q3 4 3 12.5
t2 11.5l3 -3q4 2 4 5t-3 9t-3 9q0 6 7 9q-3 3 -12 3t-11 5q6 2 6 10q0 4 -3 6l-1 -2q-20 18 -20 42q0 7 6 7q10 0 9 0l-2 -4q10 1 10 17q0 38 -20 38q-11 0 -15 -5q-9 -1 -18 -14q4 -19 8 -39t22 -27q2 -2 2 -5q0 -9 -7 -9q-3 0 -6 4v-2q0 -5 -5 -18t-5 -20q0 -6 2 -11
q2 -10 4.5 -20.5t14.5 -8.5q-8 -8 -8 -20q0 -5 1.5 -14t1.5 -13q0 -9 -4 -16q9 -2 12 -18q4 -20 10 -25q-2 -6 -13 -21.5t-11 -23.5q0 -15 14 -15q3 0 8 1.5t8 1.5q6 0 10 -6q69 20 103 20h7l-2 -4q12 9 29 9q10 0 28 -3.5t28 -3.5q7 0 13 2l-5 -4q14 -1 65 28q-4 7 -19 14z
M28 324q-2 -3 -2 -5q0 -6 5 -6q1 0 4 1v4q0 4 -7 6zM94 260q2 -10 8 -12l5 13q-2 4 -6 4q-5 0 -7 -5zM133 207h-2q-2 0 -5 -4q1 -1 2 -1q2 0 5 5zM46 145v-7l1 -1q2 0 2 5v1q-1 0 -3 2zM361 136l1 -2l4 4l-2 1zM36 133h2v5h-2v-5z" />
    <glyph glyph-name="M" unicode="M" horiz-adv-x="626" 
d="M509 601h-7q2 -1 7 0zM509 601h9q-1 3 -3 3zM551 278q2 4 2 6q0 5 -8.5 10.5t-8.5 10.5q0 8 6 8q2 0 9 -5q5 5 5 13q0 16 -14 33q-2 -2 -2 -4t1.5 -5.5t1.5 -5.5q0 -3 -4 -4q-6 3 -6 11q0 2 1 8v7q0 5 -2 9q7 20 30 19q1 3 1 6q0 10 -20.5 27t-20.5 35q0 8 8.5 21.5
t8.5 21.5q0 7 -5 14h1q1 7 1 15q0 35 -16 66q-2 -1 -5 -1t-9 1t-9 1q-5 0 -6.5 -1.5t-1.5 -2.5q0 -2 2 -5t2 -5h-3q-13 1 -27.5 -20.5t-28.5 -22.5q0 -1 -1 -17v-2l-19 -4q-1 -1 -1 -3l4 1q1 -1 1 -2q-24 -21 -63 -79q-2 1 -5.5 2.5t-5.5 1.5l-3 -1q-16 -17 -40 -56l8 -4
q-23 -12 -33 -12q-18 0 -23 13l-6 18q-19 0 -34 25.5t-32 27.5q-3 -2 -3 -5t2.5 -7.5t2.5 -6.5l-1 -2q-3 3 -10 3q-3 0 -7 6q-3 -5 -11 -15q7 -44 27 -59q7 8 6 13q42 -64 43 -124q4 1 8 1q8 0 20 -5.5t18 -5.5t12 2q0 8 8.5 22t7.5 23q0 -6 6 -9l12 -6q3 5 3 10q0 7 -9 16
q-6 6 -13 12q16 10 22 29l3 -3q0 21 24 31l1 -14q2 -1 4 -1q3 0 6.5 7.5t8.5 6.5q2 4 -3.5 4t-5.5 3v2q16 8 22 7q1 18 2 37.5t15 28.5q3 0 8 -2.5t8 -2.5q0 1 57 64q4 -26 4.5 -77.5t3.5 -76.5q-14 -13 -14 -32q0 -9 3 -25.5t3 -25.5q0 -20 -14 -34q6 -19 16 -28v-3
q0 -6 -6 -6q-3 0 -5 2q8 -7 15 -35q8 -33 12 -41q-4 -3 -13 -6q3 4 3 11q0 12 -8 22q-11 -3 -11 -15q0 -4 2 -12.5t2 -12.5q0 -2 -1 -5v-4q0 -6 11 -14t13 -11q4 2 30 24q1 5 1 11q0 15 -9 23q-3 -8 -9 -14q6 19 17 59v1q0 5 -4 10t-4 8q0 10 10 11t12 8v5q-1 10 9 26.5
t7 26.5zM113 516l3 3h-2q-4 0 -9.5 4t-9.5 4q13 13 13 26q0 4 -2 7l-1 -2q-8 7 -13 18q-3 -1 -6 3.5t-5 5.5q-4 -15 -26.5 -18.5t-25.5 -23.5q8 -9 11.5 -35.5t16.5 -34.5q-11 -31 -17 -83q-7 -66 -11 -85q6 -15 11 -29q9 -17 24 -17q-4 -2 -4 -6q0 -2 2.5 -6.5t2.5 -7.5
t-4 -5l-5 5q-14 -24 -14 -43q0 -18 14 -40q-3 3 -5 3t-4.5 -1.5t-3.5 -1.5q-2 0 -5 4q-6 0 -7 -4t-0.5 -12t-1.5 -10q4 -5 8 -5t13.5 7.5t13.5 8.5q3 0 6 -7.5t5 -7.5t6 4q14 49 14 82q0 11 -1 21q-11 6 -11 16q0 3 1 8.5t1 7.5q0 10 -8 16q1 15 25 18q0 4 -2 11t-2 11
q0 11 13 9q3 3 3 6q0 5 -5.5 13.5t-8.5 8.5t-6.5 -2.5t-6.5 -2.5h-3q2 4 2 7q0 6 -8.5 16t-8.5 16t8 12q1 -8 3 -8q1 0 5.5 6.5t8.5 6.5h1v-2q0 -9 11 -11q6 19 13.5 39.5t21.5 30.5q4 6 4 12q0 9 -13 19q-18 13 -19 15zM460 479q2 -3 5 -3h1h1q-1 3 -5 6q-2 -1 -2 -3z
M45 473q-3 0 -3.5 4t-3.5 4h-1q0 -2 -1.5 -4.5t-1.5 -4.5q0 -4 5 -4q-2 0 6 5zM458 473l-5 -3q-2 1 -1 3q-4 -4 -4 -7q0 -5 7 -6q4 2 4 5q0 11 -1 8zM163 448l-2 1q-2 0 -2 -5v-1h1h1q3 0 3 3zM431 440q-9 -14 -9 -12q0 -2 3 -4q-1 0 4 0q3 0 4 1q-2 2 -2 4q0 1 1 3.5t1 3.5
zM570 414q3 1 7 4l-5 4q-2 -2 -3 -6zM385 367q1 -1 3 -1q2 1 3 4q0 1 -2 3q-1 -2 -4 -6zM569 242l1 3q-8 3 -6 3h-2q1 -1 1.5 -4t2.5 -3q1 0 3 1zM546 186h7v3q0 5 -4 5q-3 0 -3 -4v-4zM580 121q-16 9 -14 9q-1 0 -2.5 -2t-5 -7t-3.5 -8q0 -5 6 -9q2 3 12 6q7 2 7 7v4z
M29 103v-18q2 -4 4 -4t4.5 3.5t4.5 3.5q5 0 5 -7q0 -5 -11 -5t-10 -11q-1 -2 -1 -4q0 -3 5.5 -5.5t6.5 -5.5q9 9 25 30q2 -1 3 -8.5t6 -7.5q3 0 6.5 5.5t5.5 6.5q-4 6 -8 20q14 1 14 14q0 3 -1.5 4.5t-4.5 1.5q-8 0 -21 -10t-20 -10q-6 0 -13 7zM580 103q-6 -2 -6 -8
q0 -3 4 -4q2 3 3 8zM488 69q-2 -2 -2 -4q0 -11 9 -11q2 0 5.5 3.5t5.5 3.5l-2 2q0 5 -16 6z" />
    <glyph glyph-name="N" unicode="N" horiz-adv-x="451" 
d="M387 590q-10 -1 -10.5 -17.5t-8.5 -20.5l-3 3q-18 -19 -27 -62q-12 -58 -15 -68q3 -4 3 -10.5t4 -11.5q-4 -4 -4.5 -14.5t-7.5 -14.5q3 -6 3 -15q0 -4 -1 -12.5t-1 -12.5q0 -9 4 -16v-15q0 -32 -24 -99q-3 20 -29 49q-29 31 -35 49q-5 5 -5 12q0 5 3 15t3 15q0 6 -2 10
q-2 -1 -2 -7q-1 -2 -3 -4q-18 33 -47 103q-8 6 -13 6q0 -1 -3 -1q-3 -11 -3 -24q0 -34 9 -70q6 -21 57 -73q6 -36 11 -63q-2 0 -5 1t-5 1h-3q8 -9 17 -18t18 -9l-4 -3q10 -6 20.5 -24.5t13.5 -20.5q-1 -4 -1 -8q0 -8 5.5 -23.5t5.5 -23.5v-3l-2 1q0 -32 11 -95q1 2 11 16
q7 9 7 17q0 7 -5 12q8 19 48 28v5q0 9 -11 19q-17 14 -18 16q3 6 3 15q0 6 -1.5 17.5t-1.5 17.5q0 15 9 24q1 -5 8.5 -9.5t6.5 -11.5q4 9 5.5 27t5.5 26h2q2 0 1 -1v-3t2 -3q2 1 2 4q0 -6 -7 14l-2 -2q-5 2 -8 11.5t-7 12.5q4 83 8 118q6 66 17 118q3 14 20 19q-13 9 -13 29
q0 4 1 14t1 15q0 10 -8 29zM174 477q-12 16 -70 61l2 1q-5 10 -16 10h-8q-8 -5 -8 -19t-8 -19h-1q-6 0 -10 -9.5t-8 -9.5q-3 0 -6 3v-2q-1 -3 1 -10.5t2 -10.5q0 -11 -11 -14q7 -6 12 -21q6 -18 8 -23q3 -1 6 -1q16 0 17 15q11 -4 13.5 -17.5t5.5 -26.5q-1 -5 -9 -5h-7
q4 5 4 16q0 5 -1 10h-2q-7 -2 -20 -2q-5 -6 -6 -16q-2 -13 -4 -17l-6 11q-9 -1 -9 -9t7 -12q1 -5 -8 -10.5t-9 -11.5q18 -26 13 -55q1 9 15 12t15 18h3q7 0 25 -18q-10 -2 -14 -17q-6 -21 -8 -24q13 -1 19 -9q0 2 2.5 7t2.5 7q0 3 -7 9h4q7 0 12 9t5 16q0 17 -17 34
q-21 19 -22 24q3 3 5 3q3 0 7.5 -9.5t10.5 -11.5q-1 5 -1 8q0 6 11.5 6.5t11.5 12.5q0 7 -1.5 20.5t-1.5 20.5v15v14h2q8 0 25 -11q-3 6 -3 15t3 18h2q3 0 15.5 12t14.5 13zM205 403l-3 5l2 -7zM28 256q-1 -5 5 -11l9 9q-2 2 -5 2h-2q-8 0 -7 0zM218 245q3 -5 6 -5q2 0 3 6
q-1 3 -3 3t-6 -4zM69 208q-2 0 -6 12q-11 -2 -13 -17q-3 -19 -8 -23q9 -1 10 -6q-1 2 -1 -11q0 -7 6 -10q6 1 6 7q0 5 -5 12q2 1 4 1q4 0 9 -12t13 -12q2 0 4 1q-6 7 -6 14t10.5 20t10.5 22q0 3 0.5 6.5t-5 7t-3.5 6.5q-2 -3 -12.5 -10.5t-13.5 -7.5zM25 223v-7l1 2v3
q0 1 -1 2zM34 185h-1q-7 0 -7 -5v-3q2 -1 3 -1q6 0 6 8zM41 148q5 3 5 6q0 2 -4 9q-2 5 0 9q-2 1 -3 1q1 0 -8 -6q1 -1 0 -12q0 -7 7 -7h3zM84 115q0 6 11 13v3q0 4 -6 6.5t-5 5.5q-18 -4 -28.5 -33.5t-27.5 -34.5q1 -5 10.5 -14t11.5 -16q12 1 24.5 1.5t15.5 9.5t16 21
q-2 12 -12 21t-10 17zM98 118l-2 -9q1 -1 2 -1q-2 0 6 5q-1 3 -6 5zM26 107q1 -5 2 -5h2v1q0 -1 -4 4zM98 104l6 -3v1q-1 2 -2 2h-4zM82 -12v-6v0h1q2 0 2 4v1z" />
    <glyph glyph-name="O" unicode="O" 
d="M172 73q-6 8 -6 20q0 16 13 17q-3 7 -11 9q-14 5 -15 5q-3 27 -33 62q10 16 10 39q0 15 -5 22q2 1 4 1q12 0 21 -10q-2 2 -2 5q0 4 4.5 10t4.5 9t-2 6q-3 0 -4 -6t-4 -7q-24 18 -41 38q10 22 8 35q1 5 14 5q5 0 5 6q0 12 -15 12q-4 0 -7 -2q9 12 30 34l1 -7q8 1 8.5 11.5
t5.5 11.5q-6 4 -7 10q-1 11 -2 12l12 2q-3 3 -3.5 12t-5.5 12q28 20 79 65q16 -1 47 5t46 6q2 -18 27.5 -23t30.5 -22q6 3 6 11v13q0 -3 9 -9.5t7 -14.5h2q8 0 8 9q0 1 -2 15h-4q-3 0 -10 3t-10 3q-4 0 -5 -6q-6 0 -6 18v1q-2 -1 -4 -1q-5 0 -14.5 9t-16.5 8q0 2 2 5.5
t2 5.5q0 1 -1 2q-13 -5 -30 -5q-10 0 -31 2.5t-31 2.5q-27 0 -39 -10q-35 -28 -71 -41l3 -3h-2q-7 0 -15 -10.5t-13 -11.5q-6 -4 -6 -9q0 -10 10 -14q-16 0 -26 -23q-12 -27 -24 -32q5 -4 5 -9q0 -7 -6 -7q-1 0 -4 1.5t-5 1.5l-3 -1q9 -3 11.5 -15.5t9.5 -16.5h-3
q-1 0 -5 1.5t-6 1.5q-8 0 -8 -12q0 -6 9.5 -18t10.5 -19q4 6 16 8q9 -23 9 -25q0 -5 -3 -10q-4 5 -9 10t-10 5h-1q-1 -1 -5.5 -7t-7.5 -6t-8 3v-4q2 -20 -30 -34q14 -20 29 -40q17 -24 36 -33q-1 -6 -6 -15q-6 0 -9 8t-5 8q-3 -2 -7 -7q3 0 8 -3q-1 -6 -5 -6q-2 0 -5 1h-4
q-3 0 -5 -1q0 -1 5 -6.5t3 -8.5q6 8 11 8q3 0 6 -2q-10 -13 -12 -12q3 -5 8 -5q3 0 9 3t9 3q6 0 10 -7q-4 -1 -10.5 -6t-10.5 -5q-3 0 -6 3q-1 -11 5 -32q7 0 16 -10t15 -10q2 0 5 1q8 6 16 6q5 0 14.5 -3t14.5 -3q6 0 12 3zM383 464q5 -14 20 -14h2q-6 3 -6 14q-4 5 -12 13
q-6 0 -6 -2q0 -1 2.5 -3.5t2.5 -4.5q-1 -2 -3 -3zM433 447q1 -1 1 15q0 6 -7 8q-12 -4 -12 -18q0 -1 2.5 -5t8.5 -4q5 0 7 4zM448 426q-2 2 -3 2h-1v-7q4 6 4 4v1zM416 413q3 -1 5 -1h1q3 0 5 1q-1 4 -4 4q-1 0 -7 -4zM508 407v2q0 3 -6 4t-7 4q-7 -1 -7 -7v-5q1 -3 1 -5
q0 -7 -8 -7q-3 1 -9 6.5t-10 5.5q-8 0 -17.5 -10.5t-11.5 -18.5q4 -3 4 -7q0 -3 -2.5 -8.5t-2.5 -9.5q0 -1 1 -4q2 5 10 5q4 0 6 -2q-4 -27 -22 -81q3 -4 14 -8q-1 -5 -4 -14q-3 2 -5 8.5t-5 6.5q-1 0 -3 -1q-2 -32 -32 -68q-39 -48 -46 -63q-2 2 -4 2q-4 0 -10 -6.5
t-10 -6.5l2 -2q-30 -19 -92 -53q4 -7 14 -7q20 0 18 13q10 -4 14 -8q-30 -22 -68 -22q2 0 6.5 -1t6.5 -1q5 0 8 3q-2 -1 -2 -4q0 -2 2.5 -5.5t2.5 -5.5l-3 -2q7 -4 17 -4q14 0 33 9q14 21 60 50q43 27 54 51l-6 10q17 14 32 41q13 24 25 47q3 -4 7 -4q6 0 12 7t6 13
q-4 1 -14 5q0 21 3 63q2 2 3 2q2 0 4 -1t3 -1q2 0 3 2q0 2 -1.5 7.5t-1.5 8.5q0 4 3 7q2 -1 3 -6q5 4 5 8t-9 9q-12 7 -13 8q19 11 25 11q8 0 10 -11q7 4 7 12q0 3 -2 10t-2 11q-1 -2 -3 -2q-4 0 -4 4q0 5 8.5 10t9.5 6zM497 389q1 2 1 4q-1 -2 -1 -4zM427 407l-2 2h-8z
M41 337v-4l3 3zM59 300l-2 4v0q0 -1 -1 -3t-1 -3t1 -1q3 1 3 3zM190 84h1q8 -1 8 7q0 3 -6 5.5t-7 3.5q-3 -4 -3 -6q0 1 7 -10zM191 64q-2 3 -8 3t-8 1q2 -2 21 -19q0 -1 -11 -4q7 -6 13 -6q3 0 9 2q-1 3 -9.5 10t-6.5 13zM156 65v-1v-2q1 -3 2 -3q2 0 3 2l-3 5q-1 0 -2 -1z
M226 54v5h-1q-2 0 -8 -3q4 -2 8 -2h1zM182 45q-1 5 -7 5q-3 0 -3 -4q2 -1 7 -3zM183 34l-16 4q0 -5 7 -5h2h4q2 1 3 1z" />
    <glyph glyph-name="P" unicode="P" horiz-adv-x="487" 
d="M276 549l-7 -4t-7 -7q0 -1 1 -4q13 -13 36 -16q20 -1 40 -1q15 -1 27 -19q15 -25 21 -29l19 7q-6 0 -6.5 8t-5.5 11q0 8 11.5 10.5t11.5 10.5q0 7 -9 14q-12 8 -14 11q-6 -2 -13 -2q-15 0 -37 13q-26 15 -37 17q-8 6 -19 6q-10 0 -45 -15q3 -5 15.5 -6t17.5 -5zM165 512
q7 15 23 15q5 0 13.5 -1t13.5 -1q14 0 21 11v3q0 3 1 7.5t1 6.5q0 13 -15 13q-4 0 -11.5 -1.5t-11.5 -1.5q-9 -18 -46 -33q2 -7 11 -18zM35 443v-4q0 -7 7.5 -18t8.5 -16q4 1 8 1q6 0 15 -7t13 -9q7 6 7 13q0 6 -4 15t-4.5 12t-2.5 3q-1 0 -3.5 -1t-3.5 -1q-2 1 -3 2l16 28
q10 17 10 31q3 2 15 14q8 9 21 9q2 3 2 5q0 4 -7 10.5t-8 10.5q-1 -7 -8 -7q-4 0 -12 2.5t-12 2.5t-7 -1h-3q-6 0 -10.5 -9.5t-7.5 -11.5q-1 1 -1 8t-4 9q-12 -3 -12 -24q0 -9 4 -14q-1 -2 -12.5 -6t-11.5 -14q0 -6 10 -10.5t10 -11.5q0 -4 -10 -11zM144 528q-2 8 -11 8h-1
q9 -9 11 -9zM254 528q-3 -2 -3 -5q1 -1 3 -1h1v3v1q0 1 -1 2zM277 509l-15 6q1 -6 11 -6h4zM428 490q0 2 -3.5 3t-4.5 2q-2 -2 -2 -4q0 -5 5 -5t5 4zM442 455q-4 6 -16.5 10t-16.5 8q-3 -5 -14.5 -7.5t-12.5 -11.5q16 0 24 -37q-26 -5 -37 -38q-13 -41 -24.5 -50t-35.5 -24
q-9 -4 -9 -15v-8q1 -6 1 -9q-16 -13 -46 -12q0 -7 -5 -14t-6 -12q-3 2 -7 2q-7 0 -19 -9q-8 -7 -17 -13h-3q-7 -1 -20.5 2.5t-19.5 3.5q-12 0 -21 -8q-8 4 -18 16q4 11 4 25q0 9 -2 26t-2 26q0 5 2.5 14.5t2.5 14.5q0 7 -6.5 16.5t-7.5 15.5q-5 3 -12 3q-4 0 -12.5 -2
t-13.5 -2q-8 0 -8 8v-3q0 -5 -7 -16t-6 -18v-2h2q2 0 3 1q-2 -8 -2 -22v-17v-19q3 -1 10 -9.5t12 -8.5q4 0 8 4v-3q0 -10 7 -27.5t7 -25.5t-6 -11q-9 -1 -15.5 -15t-14.5 -15q-1 -8 -1 -19q0 -13 4 -40t4 -40q0 -6 -7.5 -7t-7.5 -5v-3h3q-3 0 16 7q18 -7 18 -26q-2 -2 -4 -2
q-3 0 -7.5 4t-6.5 5q-5 -4 -5 -15q0 -2 1 -8q37 6 41 5q15 14 31 40l-9 3q6 13 12 36q6 28 10 37h-2q1 14 18 30.5t14 34.5q6 -3 12 -3q11 0 29.5 10t29.5 10q5 0 10 -1l16 15q5 3 11 3t16 -2.5t15 -2.5q4 0 8 1q8 7 26 17q21 18 21 45q0 8 -2 17q10 -13 9 -18h3
q9 0 17.5 14.5t15.5 14.5q5 0 10 -3q4 6 4 14q0 6 -2.5 16.5t-2.5 16.5q0 12 10 21q-6 5 -12.5 17.5t-12.5 17.5q13 13 13 22q0 3 -2 6q2 5 4 5q1 0 3.5 -2t4.5 -2t4 2zM114 419v-2q0 -6 3 -6q-1 0 4 3q-3 5 -5 5h-2zM100 389q-3 -2 -3 -5q0 -8 11 -8v7q0 6 -8 6zM53 359
q-2 1 -4 1q-3 0 -3 -2v-2l2 -1q1 0 5 4zM105 -16q-5 -3 -5 -6q0 -4 8 -4v4q0 4 -3 6z" />
    <glyph glyph-name="Q" unicode="Q" horiz-adv-x="502" 
d="M53 184q4 0 7 1t3 3q0 1 -9 9h3q13 0 14 19q2 0 7 -2t7 -2q4 0 6 6q-9 7 -26 24q1 5 5 7t4 3q-1 4 -3 7h3q4 0 10 4t9 4q2 0 5 -2q0 11 -7 26q6 0 12.5 7t8.5 8q7 8 6 34q0 21 15 27q-1 7 -7 17q-1 5 -1 9q0 14 19 36.5t22 35.5q-10 0 -10 9v2q11 9 22 9q9 0 15 -6
q0 8 12.5 15t12.5 15q13 1 38 3q19 1 25 16q4 3 4 6q0 2 -2.5 6t-2.5 6t1 4q23 9 72 8q3 2 3 4l-3.5 3t-1.5 7q-3 -1 -7 -1q-3 0 -10 1.5t-10 1.5q-15 6 -33 6q-11 0 -36.5 -3.5t-39.5 -2.5q1 -2 1 -3q0 -3 -6 -6.5t-5 -7.5q-3 1 -5 1q-7 0 -19.5 -9.5t-22.5 -7.5
q-23 -21 -23 -29q0 -2 1 -3.5t5 -6t9 -3.5q-6 -10 -21 -30h-3t-2.5 4.5t-3.5 4.5l-2 -1q-6 -4 -12 -14q1 -3 4 -3q2 0 5.5 1.5t5.5 1.5q3 0 4 -5l-3 1q-6 0 -15 -8t-16 -8q6 -6 6 -5q0 -1 -1 -2q0 -6 -4 -6q-2 0 -5.5 1.5t-6.5 1.5v-1q0 -2 4 -4.5t4 -5.5t-14.5 -12.5
t-14.5 -17.5q0 -4 2 -8q-2 -5 -5 -5q-2 0 -6 1.5t-6 1.5q-5 0 -9 -12.5t-4 -19.5q0 -10 5.5 -30t5.5 -30q0 -16 -9 -29q2 -2 17 -2q11 0 13 -10l-8 -3l3 -3q-10 -6 -31 -16q2 -14 5.5 -28.5t20.5 -14.5zM427 473q3 0 6 -4t7 -4q1 1 1 4q0 9 -7 9q-3 0 -5 -4q0 8 11.5 20
t11.5 16t-4 7q-7 13 -27 14q-25 1 -32 7q-9 -4 -18.5 -7.5t-11.5 -11.5l3 3q-2 -5 -2 -9q0 -9 15.5 -17t15.5 -20q-4 6 -10 6q-4 0 -5 -5q3 -10 21 -15q-5 -3 -5 -15v0q3 -3 6 -3q6 0 10 11q9 -1 12 -11.5t5 -19.5q12 5 12 10q0 4 -9.5 12.5t-9.5 14.5q0 12 9 12zM359 519
q-1 -2 -0.5 -2.5t0.5 2.5zM316 531l-3 -8h3v8zM321 511q2 -1 5 -1t9 2t10 2q3 0 6 -2v14q-31 -1 -30 -14v-1zM444 457v-4q0 -8 6 -8q3 0 5 2q0 1 -2.5 5.5t-5.5 4.5h-3zM444 433q2 -1 4 -1q4 0 9 4q-2 4 -8 4q-5 0 -5 -4v-3zM403 386v2q4 9 7 29q0 -10 11 -25q2 4 2 8
q0 16 -20 33l5 5q-9 -5 -15 -18q-8 -18 -12 -22q7 -4 16 -25t17 -21q5 0 12 7l9 9q-4 21 -24 21q-4 0 -8 -3zM438 348q2 -5 5 -5q2 0 6 3.5t6 2.5q-5 2 -10 2t-7 -3zM405 344q-11 0 -51 -26q-1 -3 -1 -6q0 -6 11.5 -9.5t13.5 -7.5h-7q-2 -1 -3 -3q2 1 4 1q3 0 6 -4t5 -5
q-7 -11 -28.5 -33.5t-27.5 -39.5h5q1 -1 1 -5q0 -18 -15 -17v-1q0 -5 7.5 -6.5t8.5 -1.5q-7 -15 -7 -12v-2q3 -1 7.5 -2t7.5 -1q6 0 9 6q14 18 40 57q2 -1 6 -4.5t6 -3.5t5 2q0 3 -2 3q-1 0 -2.5 -1t-2.5 -1l-2 2q1 3 8 11t7 15q0 13 -7 13q-2 0 -6.5 -5.5t-7.5 -5.5
q-2 1 -4 3q10 15 21 29q11 18 14 33q-5 8 -9 16q-8 12 -10 12zM158 284q-4 -2 -13 -4l3 -1q6 0 10 5zM327 107q2 5 2 11q0 36 -79 141q0 9 -13 9q-5 0 -8 -1v-7q-1 -45 25 -67q-2 -7 -2 -14q0 -11 8.5 -30t8.5 -29q0 -8 -3 -16q-26 -12 -71 -15q-66 -4 -73 -6q-3 2 -21 19
q-12 12 -24 13q-3 -14 -8 -14q-2 0 -4 3q2 -9 17 -24q-6 0 -16 -9q8 -19 37 -23q34 -4 44 -14q6 2 30 13q19 8 31 8q8 0 15 -3q28 33 42 33q6 0 15 -3l-3 -3l19 -5q1 -2 1 -3q0 -2 -4.5 -2.5l-4.5 -0.5q10 -18 20 -35q14 -20 32 -22q0 -3 -9 -5q2 -3 19 -3q8 0 11 -7
q4 0 6.5 6t5.5 7q-12 20 -14 62q-11 3 -16 19.5t-16 16.5zM356 256v1q0 2 -2 2h-1v0v-5q1 1 3 2zM82 237l3 3l-3 5v0h-2zM84 120l-1 3q0 8 10.5 13t10.5 12q0 3 -2 7q-9 4 -19 8.5t-7 14.5q-2 1 -2 7q-4 -6 -15 -6t-13 -5q1 -2 2 -2q2 0 4.5 2t3.5 2q3 -1 4 -4q-3 -5 -6 -5
q-2 0 -4.5 1t-4.5 1h-3q7 -11 7 -12q0 -5 -8 -4q13 0 20 -17t16 -17q3 0 7 1zM87 175q-1 -3 -1 -5q0 -4 4 -4q2 0 5 1h6q3 0 5 -1v6q-3 3 -6 3h-4q-3 -1 -4 -1q-3 0 -5 1zM39 169q-2 4 -6 4l-8 -3q0 -5 3 -5q1 0 4.5 2.5t6.5 1.5zM141 158q7 -6 5 -6l1 1q-7 5 -6 5zM44 126
q-8 8 -9 8q-3 -1 -4 -3q2 -6 8 -6q3 0 5 1z" />
    <glyph glyph-name="R" unicode="R" horiz-adv-x="472" 
d="M427 388q-2 3 -2 6q0 2 1 5.5t1 4.5q0 5 -5 8q-11 -4 -26 -16t-15 -23q0 -3 2 -5h-2q-14 -1 -24 8q-8 -4 -43 -28q-30 -20 -44 -20q-10 0 -25 15t-25 17q-4 -6 -4 -15q0 -4 1 -11.5t1 -10.5q-6 -5 -13 -5q-5 0 -14.5 3.5t-14.5 3.5q-6 0 -8.5 -2.5t-2.5 -3.5
q0 -2 4.5 -3.5t4.5 -4.5q-5 -2 -9 -2q-10 0 -20.5 13t-16.5 15q6 6 6 14q0 7 -4 19t-4 18q0 5 1 10t7.5 9t7.5 8q8 33 8 49q0 11 -5 18q5 3 16 7q-12 10 -13 12q-5 6 -7 17q3 9 16 14.5t17 9.5q5 -3 12 -3q8 0 59 15q-4 4 -4 6q0 3 5.5 6.5t4.5 6.5l-2 1q-3 0 -8 -3.5
t-9 -3.5q-8 1 -8 2t6.5 4t6.5 6v2q-4 -1 -7 -1q-9 0 -20.5 12.5t-21.5 12.5l3 3q-4 -1 -39 -1q-21 0 -32 -16l3 -3q-22 -8 -68 -21q-3 -3 -3 -9t-3 -8l-6 6q-6 -2 -6 -6q0 -2 4.5 -8.5t2.5 -10.5q24 -14 33 -11q-3 -11 -3 -23q0 -7 1.5 -19.5t1.5 -18.5q0 -10 -3 -17
q-3 -2 -8 -11t-12 -8l-1 -2q0 -13 24 -37q-1 -7 -9 -27q-6 -15 -5 -27l-3 1q-6 -12 -12 -25t-6 -24q0 -8 6.5 -24.5t12.5 -19.5q10 -13 10 -31q0 -9 -3 -28.5t-3 -28t-7 -8.5l-12 -2l8 -36q6 -22 19 -31q-10 -5 -10 -14q0 -4 2 -11t2 -11q0 -5 -2 -8q2 -6 7 -6q19 0 19 42
q0 17 -7 32q2 4 5 22q2 13 12 18l-10 3q6 3 15 12q-2 8 -4 17t-9 9q8 6 14 20q-6 5 -6 13q0 5 4 15t4 16q0 4 -2 7q3 1 25 20q14 12 29 8q-3 3 -3 7q0 5 5 8q3 -7 9 -19q5 12 13 12q5 0 15 -5t16 -5q5 0 8 2q9 -7 30 -15q-10 -3 -10 -7q0 -3 7 -9.5t5 -12.5l3 3q-1 -3 -1 -7
q0 -8 6 -23.5t6 -23.5q0 -6 -3 -12q15 -30 29 -61q18 -36 22 -63q-2 0 9 0q2 0 5 2q1 -2 1 -4t-1.5 -4.5t-1.5 -3.5q2 -3 7 -7q10 0 16 11q9 17 11 19q-8 7 -14 27t-16 28q-8 45 -30 118q-1 1 -3 1t-7 -5v5q0 8 1.5 21t1.5 20q0 11 -3 19q3 1 47 8q28 5 42 22l-3 21
q4 0 7 -5t4 -6q14 3 14 19q0 3 -1 9t-1 10v3q14 6 24 14zM256 551q8 -8 18 -8q14 0 23 11q4 -2 8 -18.5t18 -17.5q5 -2 9 -2q7 0 10 5q11 -9 34 -27q3 3 24 16q16 9 16 22q-14 9 -37 13q-34 6 -39 8v-3q0 -3 -11 -3q-7 0 -8 -5q0 1 -16 24q-9 16 -6 28q-5 7 -15 7
q-11 0 -14 -9l7 -8q-2 -4 -6 -4q-1 0 -4.5 1t-5.5 1q-3 0 -5 -2v-1q0 -4 1.5 -10t1.5 -9q0 -5 -3 -9zM339 583q-7 0 -7 -7v-3q3 -5 10 -5q6 0 6 6q0 9 -9 9zM31 546l-1 1q-2 0 -5 -4q3 -8 16 -19v2q0 4 -5.5 9.5t-4.5 10.5zM243 360l-11 12v-1q2 -6 10 -11h1zM259 339
q0 5 -1 5h-2v-2l3 -3v0zM343 12h6q2 1 5 17q-12 -3 -11 -16v-1zM373 8q-2 3 -9 7q-3 -2 -3 -4q0 -7 11 -9q1 1 1 3v3zM142 1q-1 -2 -1 -3v-1q0 -2 3 -5v5v2q0 1 -2 2z" />
    <glyph glyph-name="S" unicode="S" horiz-adv-x="517" 
d="M280 566q0 1 1.5 3t1.5 3t-1 1l-7 -5q0 -2 3 -2h2zM30 363l-5 -5q5 2 5 5zM445 500q-3 10 -15 10q-11 0 -18 -6q-1 13 -1 15q-2 8 -8 12q-16 10 -83 25q-6 4 -11 4q-6 0 -16 -7t-16 -7t-13 6q-10 4 -22 4q-19 0 -56 -12.5t-57 -12.5q-37 -28 -37 -45q0 -7 6 -14
q-13 -11 -33.5 -39.5t-35.5 -39.5q5 -2 5 -17v-4q-2 -1 -3.5 2l-1.5 3q-2 -1 -2 -3t1.5 -5.5t1.5 -5.5q30 18 68 49q0 7 -6.5 8.5t-12.5 3.5q6 16 24 19q-5 6 -5 14q0 5 2 9h25q15 1 25 6q-1 3 -1 4q0 3 4.5 6t4.5 6q0 1 -1 4q3 -2 5 -2q5 0 10.5 8.5t8.5 8.5q4 0 9 -5
l-2 -2q14 -7 23 -7q7 0 19 4q-2 11 -12 11q-3 0 -8.5 -1t-8.5 -1q-8 0 -11 6q12 12 13.5 13t5.5 1q7 0 18.5 -7t15.5 -9l-1 -1q17 -14 44 -14q8 0 16 2l1 1q0 2 -2.5 3t-3.5 3l42 -10q22 -8 33 -27q3 0 3 6t4 6q6 -5 20.5 -5t19.5 -2q-4 -4 -4 -5q16 10 52 22q-5 1 -12 5
t-12 4zM472 490q-1 0 -5 -1q3 0 5 1zM408 540l-3 4l3 -9v5zM178 457l10 3q-1 4 -4 4q-7 0 -6 -7zM167 452h-2q-8 3 -6 8q-6 -1 -6 -6q0 -4 4 -9zM120 419q6 -9 11.5 -18t14.5 -9q6 0 10.5 18t19.5 17q1 2 1 3q0 10 -10 10q-4 0 -5 -6q-6 6 -5 6q-6 0 -6 -6q0 -2 1 -5t1 -5
q0 -3 -3 -5l-12 12v-5q0 -6 -6 -6q-10 0 -12 -1zM379 419l1 -7l2 1q0 6 -3 6zM34 329q2 -2 6 -2q3 0 7.5 1t7.5 1h3q-4 -9 -4 -14q0 -9 19 -15t20 -18q2 -1 4 -1q5 0 18 9q2 -1 2 -3t-5 -6.5t-5 -5.5q5 2 12 2q10 0 28.5 -8.5t26.5 -8.5q7 0 12 4q20 1 38.5 -17.5
t32.5 -20.5l-1 1q-2 0 -6 -8l18 -13q2 0 4.5 2t2.5 4q0 3 -6 7t-7 7q41 -3 94 -46l2 -1q6 0 21 14q5 -10 14 -10q17 0 17 24q0 11 -7 19q-29 17 -120 52q-7 -3 -15 -3q-11 0 -31.5 9.5t-32.5 9.5q-5 3 -5 6q0 2 2.5 5t2.5 6q0 2 -4 5h-2q-3 0 -8.5 3t-9.5 3h-2
q0 -4 5.5 -7.5t5.5 -6.5q0 -2 -1 -4q-12 0 -28 18q11 5 11 16q0 4 -1.5 11t-1.5 10q0 9 6 15v3q0 -7 -3 14q-6 -2 -6 -4q0 -1 3 -4t3 -5t-4 -4l-8 10q-6 3 -12 3q-9 0 -23 -9t-14 -16q0 -6 5 -9q-9 1 -21 11.5t-19 12.5q-12 -11 -25 -21q-13 -14 -16 -27zM136 56l16 -1l7 3
q-3 6 -8 6t-15 -8zM432 140q6 6 6 13v4q-5 3 -9 3t-17 -15q-3 1 -2 7q-7 13 -21 13t-14 -9q0 -3 2 -9t2.5 -8t2.5 -2t5 3.5t4 3.5l3 -1q-4 -5 -14 -10h6q6 0 6 -4q0 -2 -1 -5.5t-1 -4.5l2 -2q-6 -4 -9.5 -16t-8.5 -17q-4 5 -10 5q-8 0 -15 -7q-1 -1 -1 -3q0 -4 6 -6.5
t7 -4.5q-8 -1 -16.5 -14t-19.5 -13q-3 -4 -3 -9q0 -13 10 -10q-10 -8 -19 -15q-12 -9 -21 -9q-4 0 -9 1q-2 18 -17 35q-11 -5 -33.5 -3.5t-34.5 -5.5q-1 2 -1 5q0 1 1 4v5q0 5 -7 7q-3 -1 -6 -1q-6 0 -17 4.5t-16 5.5q-15 -9 -28 -9q-11 0 -17 7q-15 3 -23 17q-20 -1 -28 -3
q-17 -5 -19 -18q9 -9 75 -55q6 9 14 9q3 0 8.5 -1.5t8.5 -1.5q6 0 12 4q-1 -1 -3 -1q-13 0 -13 12q0 3 2 5q6 -3 10 -3q1 0 3 1.5t2 2.5t-2 4t-2 4l1 3q5 -9 14 -9q3 0 8.5 1t8.5 1q-10 -2 -18 -14q-10 -16 -14 -19q18 -2 27 0v-2q0 -8 21.5 -17t25.5 -21h4q8 0 15 6t4 13
q2 2 5 2q5 0 12 -6t12 -6q4 0 9 4q3 -2 6 -2q4 0 9 9.5t11 9.5q13 -16 17 -16q2 0 5 2q0 7 4 20t4 20t-3 14q9 -4 17 -4q11 0 30 11.5t31 11.5q5 0 11 -2q3 6 20 15q14 7 16 18q-1 4 -7 3.5t-7.5 1.5t-1.5 4q0 6 10 11.5t10 10.5q0 3 -4 7h-1q-10 -1 -18.5 13t-13.5 17z
M178 -42q4 0 4 4q0 6 -4 6q-6 0 -6 -6q0 -4 6 -4z" />
    <glyph glyph-name="T" unicode="T" horiz-adv-x="514" 
d="M339 589q-2 2 -5 2q-7 0 -7 -4l1 -3q5 0 11 5zM108 549l2 -10q-5 -4 -12 -4q-5 0 -15 2t-15 2h-6q-5 -3 -11.5 -14.5t-15.5 -11.5q-4 0 -8 2q8 -1 23 -6q-4 -1 -9 -7q8 1 24.5 -6t25.5 -7q6 0 12 3v-2q13 6 36 8q30 3 37 4q13 -6 13 -19q0 -5 -2.5 -15t-2.5 -16
q0 -3 1 -5q14 -1 18 -20t18 -20q-2 -4 -11.5 -4t-9.5 -25q0 -15 4 -30q2 -8 15.5 -12t13.5 -14q0 -7 -7 -20.5t-5 -22.5h-2q-2 1 -3 5q-1 -2 -1 -4q0 -3 2 -8.5t2 -8.5q0 -5 -5 -9q6 -12 11 -14q9 -3 17 -6q-3 -11 -16 -26l-3 12q-12 -35 -17 -47q-11 -25 -25 -43
q7 -12 10.5 -35t8.5 -33q1 5 5 5q3 0 7.5 -2t6.5 -3l-2 -32q-2 -19 -13 -29q2 -2 5 -2q1 0 3.5 1t4.5 1h2q5 -5 5 -10q0 -3 -1.5 -8.5t-1.5 -8.5v-4q2 -2 5 -2q2 0 5.5 2t5.5 2q3 -3 3 -9q0 -4 -1 -7q8 2 10.5 18t7.5 20q-2 4 -2 6q0 1 5 6.5t5 14.5q0 32 -1 22q1 8 10 14
q2 10 2 34q0 19 -9 65q-9 41 -6 66q-1 -5 -3 -5l-3.5 4.5t-7.5 3.5v2q0 3 9.5 8.5t9.5 13.5q-2 5 -11 15.5t-9 16.5t6 13q4 -1 4 -2t-3 -3t-3 -4l1 -3q1 4 10 7t9 8q0 9 -7 9q-10 1 -12 4q4 5 5 25q0 15 9 13q0 10 5 39q3 24 3 39q-6 6 -12 6q-4 0 -10 -2.5t-10 -2.5
q-6 0 -13 6q-1 2 -1 17q0 10 -9 11q-3 3 -3 6t7.5 6.5t8.5 6.5q3 -4 11 -7q3 3 3 5t-2.5 5.5t-2.5 6.5v2q15 2 44 14l-4 3q29 1 83.5 12.5t80.5 13.5q6 11 22 19q24 10 27 13q-19 12 -81 12q-188 0 -304 -30zM441 530q1 1 2 4q-1 -1 -2 -3v-1v0zM103 490q-1 -1 -3 -2v0h1z
M445 535h-1l-1 -1q1 0 2 1zM50 537q-2 4 -6 4q-2 0 -5 -2q2 -4 6 -4q3 1 5 2zM13 497h2q2 0 10 4l-7 2q-4 0 -5 -6zM265 466l-1 -2v-1q1 -2 2 -2q2 0 4 1q-7 4 -5 4v0zM193 324q2 -1 4.5 -5.5t4.5 -4.5q1 0 2 1v2q0 10 -6 10q-3 -1 -5 -3zM268 279l-3 -9l3 4v5zM204 277
q-1 0 -3 1h-1q-1 0 -2 -3v-2q0 -6 1 -5h1q2 0 4 9zM190 194q0 -4 3 -4l4 2q-1 2 -3 2h-4zM168 114h1q3 0 6 3q-2 2 -3 2h-1q-3 0 -3 -5zM157 88q3 -3 8 -5q2 1 2 3q-4 2 -5 2h-1h-4zM320 28q4 0 4 3q0 1 -1.5 3t-3.5 2q-6 0 -6 -5q0 -3 7 -3zM261 -25q5 -4 6 -4q1 1 1 5t3 6
q0 2 -2 3q-1 0 -4 -4.5t-4 -5.5zM218 -49q3 3 3 8v1q-2 2 -3 2q-5 0 -5 -6q0 -4 5 -5z" />
    <glyph glyph-name="U" unicode="U" horiz-adv-x="506" 
d="M128 640q-2 0 -4 1.5t-4 1.5t-3 -2q2 -3 6 -3q3 0 5 2zM437 641h-1l2 -5q2 2 2 3q-1 2 -3 2zM123 490l3 -6zM412 470l-4 -2v0h2q2 0 2 2zM424 421q6 3 6 7q0 3 -6 9.5t-6 11.5q0 7 3 7q1 0 2.5 -1t2.5 -1h2q0 10 -5 10q-3 0 -7.5 -2t-6.5 -2q-6 0 -6 5q-18 -7 -26 -16v-3
q0 -6 7 -15t7 -15t-5 -14q-1 -7 -13 -14t-15 -10q2 -1 3 -1q2 0 5 1t4 1q4 0 6 -5q-19 -6 -22 -24q-4 -21 -15 -29q4 -5 7 -23q2 -14 14 -17q8 7 22 7q13 0 20 -7q-4 1 -8 1q-8 0 -25.5 -4.5t-27.5 -3.5q-10 -12 -33 -31q1 -4 1 -7q0 -11 -7.5 -25.5t-14.5 -26.5
q-4 -4 -21 -4q-11 0 -13 -14q2 -5 9.5 -7t9.5 -7l-2 1q-3 0 -10.5 -5t-12.5 -4q-9 -2 -18 -2q-40 0 -80 33q0 2 6 2q-2 3 -10 3t-12 4q-9 18 -9 43q0 18 5.5 52.5t5.5 52.5q0 13 -2 25q4 3 7 14t9 14q-8 3 -16 14l9 1q-1 4 -25 90l3 2l3 -2q-2 6 -2 12q0 5 3 21q2 13 0 21
q9 8 9 19q0 3 -1 9t-1 9q0 11 12 14h-4q-1 1 -1 3q0 8 9 5q-12 8 -28 23l2 3q-7 2 -11 2q-5 0 -13 -5t-18 -4v-2q1 -8 -5.5 -13.5t-6.5 -10.5q0 -3 4 -10q-2 -5 -7.5 -4t-8.5 -1l5 -5q-1 -1 -4 -1q-10 0 -15 7q4 -9 19 -24q-8 -24 -8 -30q0 -13 12 -18q-18 -3 -18 -32
q0 -18 -10.5 -25t-10.5 -13q0 -5 7.5 -18t5.5 -22q6 -3 12.5 -16t13.5 -17q6 -28 5 -86t7 -87q10 -2 10 -11q0 -3 -1 -8.5t-1 -7.5q0 -10 9 -15q-1 -1 -1 -13.5t-9 -13.5q3 -4 11.5 -3.5t12.5 -3.5v-3q-1 -5 4.5 -17.5t5.5 -20.5q0 -5 -3 -11q4 -9 14.5 -9.5t20.5 -1.5
q2 13 15 14q17 1 21 5q11 0 19 -10q7 15 28 23q32 12 33.5 14.5t1.5 4.5q0 6 -5 6q-2 0 -6 -1h-5q-5 0 -7 2q9 15 32 22q33 8 39 12v6q0 12 8 27q14 24 15 24q4 -20 19 -20q10 0 10 6q0 4 -3 6l-2 -4q0 3 -1 7.5t-1 6.5q0 3 7 4l-2 -2q6 1 6 4q0 4 -9 6q1 7 6 7q3 0 7.5 -1
t6.5 -1q7 0 11 6q-2 1 -6 9q-3 5 -7 5q-3 0 -8 -2q10 11 54 21q1 3 1 4q0 3 -2 3t-5 -1h-4q-5 0 -7 6q3 3 3 6t-3.5 7.5t-3.5 7.5q0 4 4 8q9 -9 13 -9l2 1q-3 8 -3 15t5 7q3 0 7 -2q1 3 1 6q0 6 -8 15t-8 15q0 2 1 4q11 4 31 19q-5 1 -15 6q7 7 24 20q-8 3 -16 15
q-7 9 -19 6zM403 465l5 3h-2h-2l-2 -2zM461 574q-1 4 -7.5 10.5t-6.5 9.5q0 4 7 8v2q0 9 -5 9q0 -1 -2 -1q-11 -4 -23 -21q-4 1 -8.5 2.5t-3.5 6.5q-17 -13 -22 -28q7 -2 8 -9l2 -13l-21 -14q2 -4 8 -5.5t8 -5.5q-2 -17 -1 -27l-1 -1h1q1 -11 1 -26q13 7 34 7q10 0 19 -1
q-5 8 -5 14q0 9 18 17q-8 10 -9.5 32t-4.5 30q1 3 3 3h4q2 -1 3 -1q2 0 4 2zM64 596h-1v0q-2 1 -3 2l2 -5q2 1 2 3v0zM447 459q-4 2 -6 2t-5 -2l6 -5zM364 439v-4h5zM431 345h11l-8 3q-2 -1 -3 -3zM334 284v1q0 1 2 2.5t2 3.5l-2 2q-1 -5 -4 -5q-1 0 -3.5 1t-4.5 1t-4 -2
q5 -5 10 -5q2 0 4 1zM405 243q1 -7 8 -7l3 1v2q-2 4 -7 4h-4zM175 215q-2 5 -10.5 6.5t-10.5 3.5q-1 -1 -1 -3q0 -12 12 -12q5 0 10 5zM220 159h-2q-2 2 -2 3t2 2.5t2 3.5t-18 9q-1 -3 -10 -4t-9 -6q0 -15 21 -15q10 0 16 7z" />
    <glyph glyph-name="V" unicode="V" horiz-adv-x="490" 
d="M439 650l6 4h-6v-4zM431 600q-1 1 -7.5 7t-6.5 9t3 6q-11 0 -31 -8v-2q0 -7 10 -7q6 0 7 3q-14 -31 -48 -92v-1q0 -8 -3 -21.5t-3 -21.5q0 -4 2 -7t7 -3q23 0 18 22q8 -3 8 -8q0 -4 -4 -10.5t-4 -10.5q0 -5 7 -8q14 4 18.5 26t14.5 28q0 14 8.5 42t8.5 44q0 9 -2 18v-4
q-1 -1 -3 -1zM434 622h-3v-3h3v3zM148 302q-3 9 -3 20q0 7 3.5 20.5t3.5 18.5q0 19 -21.5 64.5t-22.5 70.5q-11 2 -19.5 13t-16.5 21q14 3 14 16q0 3 -1.5 10.5t-1.5 10.5q0 7 3 12q-18 5 -26 26h-4q-2 2 -3 2q-11 0 -11 -11q0 -5 4 -13.5t4 -12.5l-1 -3q-3 0 -8.5 4.5
t-8.5 4.5q-4 0 -7 -6q4 -34 6 -46q6 -25 18 -42q1 -6 18 -173l31 -37q4 -1 8 -1q10 0 23 14t19 17zM370 426q-4 9 -12 9q-17 0 -19 -19l1 -2l-4 1q-12 0 -24 -14q-15 -16 -24 -18q-33 -67 -34 -109q2 -2 9 -23q-23 -28 -32 -38q-22 -22 -41 -26q-3 11 -18 21q-20 15 -22 17
q4 6 4 11q0 6 -9 18.5t-6 20.5q-4 0 -12 -6.5t-12 -5.5q18 -11 20 -43q2 -38 11 -50q-2 -2 -3 -2t-3 3t-3 3l-3 -1q0 -8 11 -13t14 -11q-14 -4 -14 -3q-2 -4 -2 -6q0 -3 11 -3q6 0 6 -5q-9 -26 -9 -33q0 -9 4 -14q5 1 11 1t19.5 -1.5t20.5 -1.5q21 0 34 9q1 6 10 26
q7 16 7 27q0 6 -1 11q10 34 52 88.5t52 88.5h-3q6 3 9 32q3 26 23 32q3 4 3 8q0 14 -22 21zM98 267q3 0 9 3q-1 1 -3 1q-4 0 -6 -4z" />
    <glyph glyph-name="W" unicode="W" horiz-adv-x="727" 
d="M56 548q2 -2 4 -2t6 3t7 3q2 0 4 -3q1 4 1 7q0 8 -10 17q-7 6 -15 13q-6 -6 -6 -11q0 -4 5.5 -10t5.5 -11q0 -3 -2 -6zM340 570v3l-10 6q-5 -8 -20 -10t-18 -15q8 -6 26 -6q5 0 10.5 10.5t11.5 11.5zM607 216h-2h2zM205 69l5 5q-4 -3 -5 -5zM677 539l14 7v2q-5 3 -7 14
q-2 6 -9 6q-3 0 -5 -3q-13 -6 -27.5 -30t-28.5 -31q-4 -6 -4 -12t5 -17t5 -17q0 -3 -12.5 -27t-13.5 -34q5 0 12 -7.5t14 -6.5q-15 -20 -49 -56q-2 -7 -2 -32q0 -36 -64 -139q5 -7 7 -21q-12 2 -20 20q-9 22 -16 27q-5 45 -35 116q-35 84 -43 113q-3 14 -4 17
q0 14 15.5 41.5t15.5 43.5q0 6 -1 12q-5 6 -9 6q-3 0 -12 -7t-18 -6l13 -12q-14 1 -38 18l-24 17q-3 0 -8.5 -7.5t-9.5 -8.5q1 -6 10 -7t12 -5q-13 -4 -13 -18q0 -9 6.5 -24.5t6.5 -24.5q0 -21 -29 -42q-3 -8 -3 -16q0 -5 1.5 -14t1.5 -14l-3 7v-3q0 -8 -18 -15
q-21 -9 -26 -15q5 -5 5 -11q0 -7 -8 -18.5t-8 -18.5q0 -4 3 -9q-9 -6 -23.5 -25t-25.5 -25q-10 3 -17 19q-9 20 -13 24q-10 -9 -20.5 -18.5t-24.5 -12.5v-4q0 -10 3 -29t3 -29q0 -11 -2 -19q9 -2 17 -14q-1 -2 -3 -2q-3 0 -6.5 3t-5.5 3v-1q2 -4 2 -7q0 -4 -8.5 -6t-7.5 -9
v-2q4 2 12 2q2 1 2 10q5 -2 6 -11.5t7 -7.5q-2 -4 -4 -28q-1 -19 -8 -21q7 0 13.5 -9.5t14.5 -9.5h5q8 10 15 20q11 13 19 13q3 0 6 -1l-2 -6q14 12 14 17q0 6 -6.5 6t-7.5 3q7 17 50 52q37 31 37 55q0 6 -4.5 17t-4.5 17q0 5 4 14q2 5 12 40q7 25 19 39q4 0 4 -2t-3 -6.5
t-3 -7.5v-3q7 0 9.5 4.5t4.5 9.5q-1 5 -5.5 16.5t-4.5 17.5q0 16 12 16q3 0 8.5 -2t7.5 -2q4 0 5 3q-1 -6 -1 -10q0 -12 10 -25t10 -28l-4 -2q2 -5 8 -5t6 -5t-12 -5q-3 0 -5 -3q3 -5 12 -8q13 -4 14.5 -5.5t1.5 -4.5q0 -8 -9 -10q24 -28 33 -68q1 -7 3 -19q8 -26 43 -79
q46 -70 51 -79q3 -1 5 -1q5 0 9.5 10.5t4.5 16.5q0 10 -12.5 27t-12.5 27q0 3 1.5 6t3.5 3t4 -5.5t4 -6.5q2 1 24 6q13 3 19 14l-8 13q12 1 17.5 20.5t16.5 22.5v3q1 6 -5 12.5t-7 10.5q4 9 22 15q-1 0 -8 9h4q12 -1 13 12q1 10 2 21q-2 -6 -13 -6q-5 0 -32 6q24 0 44 28
q6 8 27 48q-6 5 -16 18q13 1 13 18q0 8 -6.5 13.5t-12.5 9.5q12 4 21 27.5t17 29.5q6 -2 10 -2l4 1q6 22 20 66q-8 0 -8 13q0 8 -7 11zM436 528v6l-7 -4q0 -2 2 -4q2 2 5 2zM125 244q5 10 21 18q21 10 24 13l-1 2q3 4 11 9l4 -4q-7 16 -30 47q-22 28 -29 47q7 0 7.5 4.5
t5.5 5.5q-19 14 -23 44q-5 40 -11 50t-25 22q-1 -2 -1 -5q0 -5 4 -15.5t4 -16.5q0 -11 -13 -18q-5 7 -5 14t7 7q-6 1 -13 11t-13 11q-1 -2 -7.5 -6t-6.5 -14q0 -16 26.5 -38.5t29.5 -39.5q-5 -4 -5 -9q0 -4 8.5 -17t8.5 -29q0 -20 -5 -27v-3q-1 -13 9 -33zM120 430l-1 1
l1 -7v6zM93 296v0q3 0 3 4v1q-1 1 -2 1q-1 -1 -1 -2v-4zM662 380l7 -2l2 9h-3t-6 -7zM604 263v4h-1l-4 -4q0 -1 1 -1q7 0 4 1zM405 229q2 0 3 1l-5 7q-2 -1 -2 -3q0 -5 4 -5z" />
    <glyph glyph-name="X" unicode="X" horiz-adv-x="659" 
d="M602 624h6h1q5 0 5 4q0 5 -4 5q-8 0 -8 -8v-1zM534 543v4l7 11q-3 3 -7 3t-11.5 -6t-10.5 -6q-6 0 -9 11q-9 -12 -32 -15q-28 -3 -36 -7q-14 -25 -57.5 -60.5t-54.5 -57.5q2 -4 13.5 -4.5t14.5 -6.5q-5 -2 -15 -15.5t-18 -13.5q-5 0 -11 3q-7 13 -33 22q-22 7 -27 25
q-12 16 -24.5 50.5t-22.5 50.5q-3 3 -3 6q0 4 8 15q-17 4 -19 22q-2 23 -14.5 33t-24.5 10q-20 0 -34 -14q2 -8 8 -20t6 -26q0 -7 24 -19q8 -42 40 -95q51 -88 52 -89q-11 -5 -11 -12q0 -15 16 -25l1 -6q0 -16 -10 -46.5t-10 -46.5q0 -7 2 -15q22 7 17 31q3 1 7 4.5t7 3.5
l4 -1q4 -14 29.5 -29.5t32.5 -29.5q12 -19 23 -38q14 -23 15 -42q4 -3 34 -26q17 -12 29 -34q4 -8 14 -7q12 1 15 0q-4 16 -4 13v2l6 -1q5 4 5 10q0 2 -2 12q-20 26 -59 105q-35 70 -64 96q4 5 5.5 16.5t5.5 15.5q-3 6 -4 31q-1 20 -9 27q19 23 81 58q54 32 72 66q3 -2 3 -4
q0 -4 -3 -5q9 4 23 24q13 17 29 21q0 3 1 8.5t1 8.5q0 6 -11 4zM566 612q-27 -5 -34 -29q16 0 31 1q21 3 21 15q0 4 -9 6t-9 7zM529 597q-2 1 -5 1q-13 0 -13 -18l1 -4q12 3 17 21zM543 572h6h2q2 0 4 2q-1 1 -3 1q2 0 -9 -3zM219 253q-22 -3 -39.5 -18t-21.5 -36l11 -1
q-18 -20 -56 -48q-43 -32 -57 -46q3 -3 10 -3q12 0 11 0l-4 3q2 3 4 3q1 0 3 -4.5t4 -4.5l3 1q-3 -6 -22 -6q-11 0 -13 -13q2 1 3 1q7 0 7 -8q0 -1 -1 -3q-2 3 -5 3q-4 0 -11 -9q1 -8 15 -8q-1 0 17 1q-3 1 -14 7q17 20 45 22t42 16q-1 2 -1 4q0 15 9.5 32t22.5 23
q2 -1 1 -5q13 7 17 29q4 28 9 35q-1 3 -1 6q0 5 6.5 12t6.5 12q-1 0 -1 3zM25 44h6q0 -2 -3 -3.5t-3 -3.5q0 -1 2 -3l8 -1q5 0 9 6v0q-4 0 -9 3.5t-7 3.5t-3 -2zM486 4q-7 7 -23 20q-9 -5 -9 -9q0 -7 10.5 -18.5t12.5 -17.5h4l5 11q1 0 -5 0q-2 0 -2 2zM493 14q0 -2 -1 -7
t-1 -7q0 -10 10 -10q6 0 9 3v1q0 4 -5 7l-5 3q-1 5 -7 10z" />
    <glyph glyph-name="Y" unicode="Y" horiz-adv-x="436" 
d="M308 335q-12 -8 -11 -12v-1q5 -11 12 -11q10 0 10 10l-2 9h-2q3 0 -7 5zM76 627q0 7 5 14q-11 0 -12 28v3q-2 5 -7 5q-2 0 -6 -1t-6 -1q-4 0 -6 2v-3q1 -6 -8.5 -9t-10.5 -9q1 2 3 2q-3 0 6 -5q-1 -2 -1 -4q0 -4 6.5 -12.5t6.5 -14.5l-1 -1h-3q-4 0 -7 -2q2 -10 6 -10
q3 0 9.5 6t10.5 6q2 0 5 -2q8 -2 8 -13q0 -3 -1 -6q-10 6 -13 6l-3 -1q-2 -5 -6 -5q-2 0 -4.5 1t-4.5 1q-3 0 -5 -5q2 -10 24 -37q-1 1 -1 3q0 3 3 10.5t4 11.5t9 7.5t8 8.5q0 3 -4 12t-4 14zM378 658l-5 -5q0 -5 15 -10q3 2 3 5q0 7 -6 8t-7 2zM378 638q-2 -6 -5 -6t-7 4
t-7 4h-3q-1 -9 -11.5 -16.5t-12.5 -12.5q2 -2 8.5 -3t6.5 -7q0 -16 -1 -13q-3 -4 -8 -4q-1 0 -4 1q3 2 3 5q0 2 -1.5 5.5t-2.5 4.5t-5 1q-7 0 -11 -4q5 -7 15 -17q0 -9 -10 -10q-3 6 -7 18q-1 -13 -14.5 -41t-12.5 -45q-7 -8 -13 -7q-1 -6 -10.5 -16t-9.5 -22.5t-6 -29.5
q-9 -26 -10 -29q-3 2 -5 2q-4 0 -8.5 -8t-8.5 -9q-3 3 -3 14v1q-1 1 -3 1t-8 -6q-6 1 -8 10q-2 13 -2 14l9 7q-7 18 -16 22l12 3q-13 5 -22 22q-7 14 -13 29l6 9q-5 -4 -11 -4q-5 0 -13.5 2t-12.5 2q-6 0 -21.5 -9.5t-19.5 -16.5q3 -9 17 -20q4 -6 4 -11t-2 -10h5q8 0 24 5
q2 -2 2 -6q0 -11 -2 -13.5t-10.5 -2.5t-10.5 -5q3 -1 3 -9.5t8 -8.5q3 0 15 5q7 -3 7 -7q0 -3 -3 -11.5t-3 -13.5q0 -13 11 -26q14 -19 17 -24q2 -1 5 -1q5 0 8 6q3 -2 5.5 -5t6.5 -1q2 -3 2 -5q0 -4 -10.5 -8t-13.5 -8q-1 -25 -1 -19q0 -15 11 -18q-1 -2 -3 -2t-5.5 1.5
t-4.5 2.5q-3 -3 -7 -9q7 -16 17 -29v-3q0 -7 -8 -16t-9 -13q2 -4 1.5 -13.5t4.5 -12.5q-14 -9 -18 -22q6 -13 6 -15t-7.5 -2t-8.5 -2q-4 0 -4 -4q0 -2 3 -12q2 -7 -1 -9l-16 -9q0 -2 6.5 -6t6.5 -6q0 -10 -5 -13q0 -8 10 -13t10 -13q1 -2 1 -12q0 -4 -4.5 -8.5t-4.5 -8.5
t6 -4q2 0 5 1.5t5 1.5t6 -7q-6 -5 -6 -14q0 -7 6 -9q-3 -5 -6 -5q-6 0 -11 10q0 -3 -5 -9t-5 -11q0 -3 3 -6q2 2 4 2q3 0 6.5 -2.5t5.5 -2.5l4 2q2 6 15 7q10 0 7 11q4 4 4 7q0 5 -6 13t-6 12q4 7 12 16q0 7 8 20q0 7 14 7q6 0 7 1l7 11q0 2 -3.5 2.5t-4.5 1.5l-6 1
q-4 1 -8.5 -4t-6.5 -6q-2 1 -7.5 1.5t-6.5 3.5t-2 7l11 6q3 8 16 21q0 15 7.5 38.5t7.5 38.5q0 2 -3 12l7 3q0 5 -1.5 15.5t-1.5 16.5q0 7 2.5 11t10.5 23q6 13 19 15q-1 2 -1 5q0 5 6.5 12t6.5 12q-3 4 -15 8q-5 4 -5 7t5 7t5 7q0 2 -4 5q26 25 26 35q0 4 -2 9
q-16 14 -16 19l2.5 4t27.5 14q19 8 20 22q2 3 2 5q0 1 -12 9h1q7 -1 7 22q0 5 36 56l2 -2q1 3 1 7q0 9 -8 14q-2 -3 -6 -3q-3 0 -4 3q2 1 3.5 9t7.5 8q4 0 9 -4q6 6 5 16q2 4 14 5h3q8 13 17 42q-9 9 -12 9zM93 566q5 6 5 8q0 1 -10 11q0 1 0 -11q0 -5 5 -8zM88 585
q0 2 -2 3q1 -1 2 -3zM115 527q6 4 8 15.5t9 13.5q-6 3 -24 3q-3 0 -9.5 -1t-9.5 -1q-8 0 -11 4l-5 -10q6 -4 15 -17h4q16 1 23 -7zM154 252l-2 2q-1 -2 -3 -5h1h1q3 0 3 3v0zM168 232q-3 0 -5 -7q1 -2 3 -2q5 0 5 6q0 3 -3 3zM146 38q-13 9 -16 9q-5 0 -7 -4l-4 -8q0 -1 3 0
q2 0 2 -1q0 -5 3 -6q11 3 6 3q5 0 7 -1l6 1v7z" />
    <glyph glyph-name="Z" unicode="Z" horiz-adv-x="586" 
d="M295 540q4 -6 14.5 -5.5t14.5 -1.5q6 8 26 11q25 4 30 6l-4 3q4 5 12 5q3 0 10.5 -1.5t11.5 -1.5q2 3 11 7.5t9 8.5q0 3 -4 8h-6q-13 1 -18 -7v2q0 4 -6.5 7t-7.5 6q3 2 16.5 2t13.5 11q0 2 -5.5 3t-7.5 5q1 2 6 3h-1q-4 3 -7 3q-6 0 -16 -7t-19 -6q-1 -3 -1 -5
q0 -5 10.5 -6.5t12.5 -5.5q-4 -7 -16 -5.5t-16 -4.5q-3 4 -10 5l-12 1q21 8 23 26q-8 -5 -27 -8.5t-27 -6.5q4 -1 4 -7.5t1 -8.5q-4 -4 -15 -8q3 -5 14 -12q-3 -7 -14 -15zM169 541q5 0 60 6q2 5 12 7t10 7q0 2 -2 6q1 11 36 17v2q0 4 -7.5 5.5t-8.5 7.5h-1q-2 0 -5 1t-5 1
q-3 0 -4 -4l4 -3q-19 -1 -51 -9q-37 -9 -51 -11q-3 -1 -7.5 -9.5t-11.5 -7.5q-2 -3 -2 -7q0 -9 34 -9zM504 560q3 0 9 -2.5t10 -2.5t8 3q0 2 1.5 4t1.5 4q0 1 -1 3q-3 -2 -5 -2t-7 4t-10 3q-6 4 -6 9l1 1q2 -3 10 -7q1 2 11.5 7t10.5 8l-9 -6q-11 0 -12 11q-2 2 -4 2
q-4 0 -4 -7t-5 -7l-2 1q-3 6 -8 6q3 0 -16 -8q1 -5 -5.5 -6.5t-7.5 -3.5q1 0 4.5 -1.5t5.5 -1.5q3 0 5 4q-1 -1 -1 -4t1.5 -8.5t1.5 -8.5q0 -5 -4 -9l9 -4q5 2 9 8q6 10 8 11zM108 547q-3 -1 -3 -4v-5q23 4 30 2q-7 7 -15 12v2q0 2 4 5.5t4 5.5t-1 4q-3 -2 -7 -2q-5 0 -14 4
t-13 4t-7 -3q0 1 0 -7q0 -3 -5 -3q0 -9 6 -11l11 1q8 0 10 -5zM478 555q0 1 -2 2q-1 -2 -3 -5l1 -1h1q3 0 3 4v0zM281 541h9v7q-1 1 -3 1q-6 0 -6 -7v-1zM305 514q8 4 17 14q-1 -1 -23 -1q-15 0 -15 -6q0 -9 1 -9h3q3 0 8 2q5 1 9 0zM372 514q3 0 3 3v4h-2q-5 0 -5 -4
q0 -3 4 -3zM407 479h-1q-3 0 -4 -2q-7 8 -7 18q0 5 2 9l-9 2q-19 -20 -20 -41q12 0 32 -5l8 15zM356 465q-2 2 -2 3h-5v0q0 -4 5 -4zM387 428q1 1 1 3t-3 7q-2 4 0 8q-3 3 -5 3q-4 0 -9.5 -4t-9.5 -4h-2v2q0 -2 7 8h-6q4 0 -38 4q-4 -3 -3 -8v-1h1q4 -3 4 -6t-6.5 -8.5
t-7.5 -8.5q-4 -1 -25 -19q1 -1 3 -1q-5 0 9 4l1 -6q7 0 18 9q15 12 16 13q9 0 27 -4q0 -1 -8 -12q2 -3 5 -3l10 5q1 5 2 15q3 0 8.5 2.5t10.5 1.5zM480 131q-49 0 -73 13q-66 -6 -59 -6q-8 0 -21 3t-16 3q-10 0 -23.5 -9t-21.5 -10v2q0 1 3 5q-1 2 -5 2q-10 0 -6 0v-2
q0 -6 -7.5 -7t-9.5 -3h-2q-4 0 -9.5 4.5t-7.5 4.5h-2q-2 -7 -2 -6q0 -2 2 -3q-24 0 -37 -7q-18 9 -36 14q1 1 1 3q0 5 -5.5 10l-5.5 5q-17 11 -23 11q-4 0 -7 -2q-2 2 -2 5t2.5 8.5t2.5 8.5q4 -4 3 -7q15 1 36 21q0 5 -7.5 5.5t-7.5 4.5q22 4 39 15q-4 3 -5 12t-4 12l12 12
q44 6 75 24q-4 6 -4 12q0 24 0 20q14 14 22 14q3 0 6 -1q0 4 13 34q2 4 5 4q2 0 5.5 -2t5.5 -2q2 2 2 5q0 6 -6 7q10 10 32 24q9 23 9 19v1q-7 -8 -36 -17q0 -3 -10 -17q-2 1 -10 19h-3q-10 1 -10 -8q0 -1 6 -9q-14 -8 -18 -8t-7 3q-5 -2 -5 -4q0 -1 1.5 -3.5t1.5 -3.5
q0 -3 -2 -4q-2 1 -5 1q-2 0 -8 -2t-11 -1q2 -2 2 -3l-8 -5q0 1 0 -11q0 -4 -2 -8q-1 0 -5 3q2 -2 2 -5q0 -5 -5.5 -12t-10.5 -7q-2 0 -5.5 3.5t-6.5 3.5q-2 0 -5 -3q1 -3 1 -5q0 -7 -10 -11t-13 -8q3 -3 3 -5q0 3 -5 -12q-1 -1 -4 -1q-2 0 -11 3q-4 -9 -20.5 -24t-18.5 -29
q-2 1 -5 1q-5 0 -14 -3.5t-12 -4.5q-1 1 -1.5 4.5t-3.5 2.5q-1 -2 -1 -3q0 -3 6 -6.5t7 -5.5l16 3q0 -1 3.5 -6.5t3.5 -8.5q0 -1 -1 -2.5t-3 -1.5q-3 0 -8.5 4t-6.5 5l-12 -12h1q-2 0 9 -6q-3 -5 -3 -12q0 -12 10 -11l-7 -3q-1 -3 -1 -5q0 -3 15 -17h1q2 0 6 2.5t7 2.5
q2 0 3.5 -1.5t1.5 -3.5t-5 -3t-6 -2v-3q0 -2 2 -6t2 -6v0q-6 -5 -12 -5q-10 0 -26 11q0 -9 -27 -44q4 -9 20 -15q-1 -1 -1 -3v-4h10q-1 4 3 10q5 -5 10 -5q4 0 12 4t12 4q5 0 9 -3l-2 2q2 9 11.5 7.5t12.5 1.5t6 3t16 -9q1 6 12 9q5 -5 12 -5q5 0 13 2.5t12 2.5q8 0 14 -9
q18 4 46 5h47q16 1 131 21q5 1 15.5 13.5t20.5 11.5zM264 277q2 1 2 2v1v0h-1h-1q-1 0 -1 -1zM220 231q1 -2 5 -2q3 0 3 2q0 3 -3 3q-2 0 -5 -3zM529 146q-4 -5 -21.5 -8t-17.5 -13q0 -4 6.5 -6t9 -4.5t6.5 -2.5q8 0 15 12.5t14 14.5q-8 7 -9 7h-3zM478 103h4q2 1 2 2v2
l-4 2q-2 0 -2 -4v-2zM25 74l1 1q2 0 4.5 -3t4.5 -3q1 1 2 4q-1 3 -6 3q-3 0 -6 -2z" />
    <glyph glyph-name="bracketleft" unicode="[" horiz-adv-x="365" 
d="M195 692q6 9 29 9q20 0 21 16q-12 0 -36 13t-36 13q-6 0 -12 -2q0 -1 -8.5 -5.5t-16.5 -4.5t-24.5 5t-23.5 5q-16 0 -27 -16q0 -8 -6.5 -14.5l-12.5 -12.5q98 -14 153 -6zM261 705q24 -11 39 -11q10 0 20 5q-3 26 -33 26q-21 0 -26 -20zM74 639h3l-1 3zM77 639
q5 -12 2 -19l-24 -8q-1 -3 -1 -6q0 -6 8 -15t8 -13q0 -3 -2 -5q13 6 16.5 28.5t21.5 26.5q-2 8 -11.5 9t-17.5 2zM82 663q-11 -9 -6 -21q1 1 7.5 6.5t6.5 8.5t-8 6zM103 542q-2 4 -5 4q-2 0 -6.5 -2.5t-7.5 -2.5q-2 0 -4 1l-8 23q-4 1 -7 1q-8 0 -12 -13t-8 -16l6 -30
q3 -19 18 -20q5 3 10.5 13t11.5 10q4 0 9 -3q6 5 6 11q0 4 -3.5 10.5t-3.5 8.5q0 3 4 5zM106 382q4 6 4 13q0 15 -24 37l-12 -11q-10 18 -10 24q0 7 10 6q-11 -1 -28 4l1 -20l-5 4q-3 -4 -3 -10q0 -17 24 -36q8 -7 15 -7q3 0 7 1.5t7 1.5q6 0 14 -7zM103 358q-8 12 -15 12
q-6 0 -16.5 -12t-17.5 -12q-5 0 -10 3q1 -10 11 -5.5t13 -1.5q-1 -14 -12.5 -43t-11.5 -45q0 -9 2 -18q-2 -28 6 -74q11 -58 13 -74q10 2 10 17t12 18l5 -3q12 39 12 95q0 20 -2 54q-2 39 -2 54l15 12q-14 2 -12 23zM111 116q-12 10 -13 10q-4 0 -6 -6q11 -12 12 -12
q4 0 7 8zM287 -112q-32 -7 -82 -5q-74 2 -82 2q-22 -1 -36 21l-24 37q10 2 13 12t6 19q-2 5 -2 10t3 16.5t3 17.5q0 11 -9 19q9 6 11 21t16 19q-26 2 -63 -5q-1 -9 5 -20q5 -1 6.5 6.5t4.5 9.5q-8 -18 -6 -67q1 -44 -11 -59q-4 -29 -4 -24q0 -13 12 -18l-23 -20
q3 -32 28 -47q15 13 41 17q21 3 43 6q4 0 17 5q9 3 17 3q11 0 35 -7t37 -7q19 0 37 10q-9 4 -9 11q0 13 16 17z" />
    <glyph glyph-name="backslash" unicode="\" horiz-adv-x="517" 
d="M436 48v-2q-1 1 0 2zM58 626l-7 10q12 -2 23.5 -23.5t21.5 -21.5q5 0 11 2q1 -6 -7 -13q24 -8 52 -36q34 -33 49 -42q31 -66 46 -94q29 -52 61 -85q3 1 6 1q7 0 17.5 -8.5t15.5 -8.5l-12 -13q10 -26 26 -33l-10 -10q15 1 26 -16q16 -23 19 -26q-3 -15 11.5 -33t14.5 -27
q0 -6 -3 -12q42 -12 49 -42q-4 -7 -4 -13t4 -16t4 -15q0 -10 -10 -18q2 3 2 5q0 7 -11 9.5t-17 0.5q2 6 2 12q0 15 -25 35.5t-25 37.5q0 5 2 11q-9 4 -15 15t-18 14l-6 -10q-10 6 -10 15q0 5 6 17t7 17q-6 8 -17 8.5t-15 4.5q-9 9 -7 23q6 1 6.5 -7t3.5 -9q4 0 4 11l-1 15
q1 -1 -20 -1q-10 0 -16 11q-5 -2 -5 -5q0 -1 1 -3.5t1 -3.5q0 -3 -3 -5q-4 5 -4 20q-1 11 -13 23q-5 -3 -8 -3q-6 0 -13 12.5t-15 15.5l20 7q-33 29 -80.5 101t-79.5 101q13 3 13 14q0 9 -9 12q-9 1 -23 -3q-12 3 -12 14q0 3 2 6l7 -7q-10 30 -46 52q3 -2 7 -2t26 12z
M432 170q6 8 17 6q-5 -11 -9 -11t-8 5zM374 140v-13l-3 3q0 9 3 10z" />
    <glyph glyph-name="bracketright" unicode="]" horiz-adv-x="365" 
d="M281 663q9 11 10 33q0 26 4 34q-18 0 -23 4l12 -12q-13 -7 -39 -20q-7 -4 -7 -10t7.5 -17.5t7.5 -15.5q4 4 13 4h15zM226 670l-1 31q-15 15 -23 12q-41 17 -75 10q-13 -11 -25 -23q-16 -16 -16 -29q0 -5 3 -11q14 2 69 0q43 -2 68 10zM296 667q11 -13 24 -3q-11 10 -24 3
zM250 651q-5 -35 16 -58l-15 -9q13 -4 13 -10q0 -3 -3 -8.5t-3 -8.5q0 -7 13 -11q13 10 18 31q6 31 8 36q-10 1 -21 20.5t-26 17.5zM291 515q-21 20 -31 20q-4 0 -8 -1q1 -18 -27 -36q14 -10 4 -52.5t17 -56.5q-12 -5 -18.5 -31t-18.5 -32q10 -11 11 -53q0 -37 25 -44
q10 30 18 104q7 68 22 103l12 26q0 7 -8.5 19t-8.5 18q0 8 11 16zM268 268v-12l8 8q-1 0 -8 4zM239 -53l23 12l-1 38q0 22 -8 36l15 4q0 15 -6 42t-6 42q0 11 3 22q6 5 9 17q3 9 5 18q-10 12 -35 31q-8 -7 -2 -28.5t-5 -30.5q-3 7 -7 7q-3 0 -8.5 -3.5t-7.5 -3.5
q10 -16 10 -36q0 -11 -4 -32.5t-4 -32.5q0 -21 12 -36q-2 -2 -4.5 -9.5t-6.5 -7.5q-3 0 -5 1q13 -36 13 -48q0 -13 -7 -22l15 -12q0 -8 -10.5 -10.5t-12.5 -9.5q-11 9 -23 9q-2 0 -39 -10l4 -3q-18 -2 -55 2q-41 -14 -43 -39q8 -6 16.5 -12.5t8.5 -14.5q11 7 63 8
q40 1 53 32q6 0 19 -3.5t20 -3.5q9 0 16 5q-2 15 15.5 21t17.5 14q0 6 -6 16q-14 23 -32 31zM29 -163q15 6 15 24q0 7 -4 12q-15 0 -15 -21q0 -9 4 -15z" />
    <glyph glyph-name="asciicircum" unicode="^" horiz-adv-x="471" 
d="M25 119q9 41 37 120q12 -2 21.5 16.5t19.5 18.5q4 0 8 -1q0 -18 -10 -45q-11 -31 -13 -44q-31 -33 -56 -89q-7 3 -7 11v13zM373 127q0 47 -25 83q-10 2 -21 14l-17 18q3 22 -22 36.5t-25 27.5q0 7 4 16q-10 6 -35 42q-21 30 -40 32q-17 -17 -33 -60q-18 -47 -31 -63
q-9 10 -9 12q0 3 6 5l-21 4q5 5 11 17l-17 11q16 12 34 13q2 2 18 29q11 18 25 22q3 6 -3 8q-5 2 -8 -5q0 6 7 7h11q10 1 14 10q-9 21 1 79q24 -10 42 -44q26 -46 32 -54q-1 -38 44 -86.5t46 -83.5q5 -6 14 -9t17 -6q21 -24 9 -59q-3 -9 -11 -11.5t-17 -4.5zM405 130
q8 14 12 14q2 0 5 -1q4 -4 4 -9q0 -4 -3 -11.5t-3 -11.5q0 -3 2 -6q-8 -8 -14 -6q-11 2 -11 7q0 3 4.5 9.5t4.5 10.5q0 2 -1 4z" />
    <glyph glyph-name="underscore" unicode="_" horiz-adv-x="748" 
d="M768 -82l-5 1q4 -2 5 -1zM755 -80l8 -1q-6 3 -8 1zM492 -48q-3 -4 -6 -4t-8.5 5.5t-8.5 6.5v-10q-11 0 -12 8q-3 -1 -10.5 1.5t-9.5 2.5q-5 0 -7 -5q5 0 12 -5q-2 -7 -12 -18q-8 5 -44 8q-28 3 -36 17q-5 -2 -3 -4l6 -4q-20 -4 -51 -1q-44 4 -52 4q-20 0 -37 -6
q3 -4 3 -8q0 -6 -11 -15.5t-11 -14.5t5 -10q14 -4 70 -12q44 -7 70 -18q8 11 29 13q31 3 33 3l-1 2q2 2 7 2q3 0 11 -2t11 -2q8 0 10 8q1 3 -12 10q4 4 12 3t11 5q-3 7 -18 15q15 5 32 5q30 0 91 -22t94 -22q15 0 30 3q7 17 31 17h13q9 -1 13 -1q16 0 25 6l-8 4l2 3
q-14 3 -269 37zM794 -83q6 -6 0 -15q2 -4 6 -4q2 0 7 3t8 3q5 -6 3 -13q6 -3 11.5 5t9.5 8q-5 8 -21 10q-12 1 -24 3zM57 -44l-1 7q-5 -2 1 -7zM161 -79q-29 6 -70 21q-11 8 -19 8q-6 0 -15 -8.5t-16 -8.5q-6 0 -13 4l6 -9q-4 1 -7 1q-7 0 -17 -10.5t-20 -10.5q-10 -9 -53 1
q-11 -5 -10 -18q3 -4 7 -4q16 0 14 19q15 -10 41 -19q41 -15 42 -15q5 7 13 7q3 0 10 -2t11 -2q7 0 13 7l-2 2q14 8 38 10q30 3 39 5q3 6 7 12t1 10zM526 -111q0 -10 6 -6v2q-1 1 -1 2q-4 0 -5 2zM591 -144l1 5l-1 2v-7zM639 -150l1 6h-2zM162 -97q3 -1 6 3v8q0 -1 -3.5 -5
t-2.5 -6zM7 -67l-3 -6l2 2zM-54 -85q4 -1 8 3q-1 3 -8 -3zM-54 -85q-1 0 -2 -1q1 1 2 1z" />
    <glyph glyph-name="grave" unicode="`" horiz-adv-x="312" 
d="M47 501q-3 8 5.5 9.5t8.5 7.5q-4 5 -7 5q-4 0 -10.5 -7.5t-10.5 -7.5q-7 1 -7 11.5t-3 13.5q7 4 15 4t32 -9q21 -7 32 -4q18 -19 72 -46q4 5 4 7q6 3 10 3q10 0 11.5 -21.5t8.5 -21.5q4 0 10 5q0 1 -10 14q6 -1 14 1t10 2q8 0 14 -7q19 -22 19 -36q0 -8 -6 -13q-2 1 -4 1
l-10 -11q-6 -1 -11 -1q-16 0 -41 16.5t-40 17.5q-62 32 -106 67z" />
    <glyph glyph-name="a" unicode="a" horiz-adv-x="571" 
d="M438 271l-6 -19v2q0 11 -12.5 23t-12.5 22q0 5 2 11q-14 7 -24 33q-8 21 -32 20q6 10 15 10q6 0 17 -5t17 -5q-10 8 -21 36q-4 1 -9 1q-3 0 -9.5 -1t-9.5 -1q-5 0 -9 2l10 12q-3 2 -11.5 10.5t-12.5 8.5t-7 -6v29q0 12 3 35.5t3 34.5q0 5 -13 17q2 15 5 31t10 26
q-22 2 -28 31q-8 36 -22 45q-3 3 -6 3l-19 -8q15 -44 15 -85q0 -15 -4 -40q-5 -31 -12 -31q-1 0 -3.5 1t-3.5 1q-3 0 -5 -5l12 -6q-31 -35 -63 -111q-7 -17 -22 -48q0 -1 -17 -19q-46 -48 -88 -48q-1 21 -5 21q-2 0 -7 -3l8 -7l-26 -9q6 -4 6 -8q0 -3 -4 -8.5t-4 -8.5
q0 -5 8 -9q9 6 20 6t30.5 -5.5t28.5 -6.5q-27 -19 -29.5 -66.5t-33.5 -69.5q-5 -4 -5 -8q0 -5 9.5 -15t9.5 -17q0 -4 -3 -8q-4 8 -8 8q-3 0 -9.5 -7.5t-12.5 -5.5q-1 -6 -7 -18.5t-6 -20.5q0 -18 14 -18q10 0 13 8.5t16 19.5t13 15t-5 8q12 1 19 18t21 15l-1 5q0 19 19 55
t19 59q0 16 12.5 27.5t28.5 11.5q7 0 13 -2v-4q14 3 27 5q17 4 17 17q8 -2 33 -14q21 -9 34 -9q5 0 10 1q10 -19 22 -74q10 -49 28 -73q4 -44 16 -131q14 2 14 17t14 19q5 -6 6 -22q1 -12 14 -14q-5 15 -5 81q0 22 -11.5 32t-11.5 16q0 2 2 4l2 1q-2 -1 9 -8q-10 9 -10 24
q0 7 3 22t3 22q0 16 -9 26l14 8q0 7 -10 17t-10 16q0 4 2.5 6t3.5 2q4 0 12 -7l3 15q8 -4 19 -4q8 0 23.5 3.5t23.5 3.5q7 0 13 -2q1 1 11 5q7 4 7 8v3q-22 12 -88 25zM290 292l-60 -4q-6 0 -12 8.5t-15 8.5q5 27 33 70.5t33 68.5q25 -1 25 -25q0 -5 -1 -15t-1 -15
q0 -20 13 -29q3 -7 3 -15q0 -9 -9 -26t-9 -27zM428 7l1 -15h-4l-1 15h4z" />
    <glyph glyph-name="b" unicode="b" horiz-adv-x="510" 
d="M156 635q-2 4 -5 4t-10 -9q3 -3 7 -3q8 0 8 8zM440 528q-9 2 -22 -4q0 -1 12 -15q-13 -14 -57 -48q-38 -28 -53 -52q-59 -26 -175 -79q-11 22 -11 38q0 11 5 30q6 23 7 30q0 -1 4 -6.5t7 -5.5q2 0 5 2q0 18 -7 44q-2 3 -13.5 4t-11.5 7q0 3 2 7h3q17 -1 22 17q6 22 17 27
q11 -2 23 -2q15 0 43.5 2.5t42.5 2.5q31 0 56 -8q2 -10 13 -11q-5 1 19 1q10 0 11 -7q11 7 11 18q0 9 -5 24.5t-12 15.5q-2 0 -7 -1t-7 -1q-8 0 -10 10h-36q-75 -1 -138 8q-6 11 -13.5 23t-4.5 21h-3q-4 0 -13 -7.5t-13 -5.5q-4 -14 -42 -40q-32 -22 -28 -50q-12 6 -16 6
q-7 0 -10 -8q10 -14 42 -14.5t42 -10.5q-14 -4 -14 -14q0 -3 1 -8t1 -8q0 -11 -11 -16q-8 -31 -8 -71q0 -30 6 -89.5t6 -89.5t-4 -55q17 -15 19 -48q1 -28 2 -55q17 22 17 54q0 9 -1.5 26.5t-1.5 26.5q0 32 18 52q-24 10 -24 18q0 4 5 12.5t5 13.5l-19 7l13 31q7 16 21 27
q28 24 60 23h6q12 -11 39.5 -18.5t37.5 -14.5q2 12 9 12q5 0 12.5 -3.5t11.5 -3.5q1 0 4 1q-7 -6 -7 -11q0 -4 5 -8q14 0 14 22t-35 29q-39 8 -44 28q66 15 81 20q48 15 73 38q-1 6 -1 11q0 41 42 56q7 6 7 11q0 7 -13 17t-12 15zM25 503l1 -11v0q7 0 7 7l-1 1q-4 4 -5 4
q-1 -1 -2 -1zM363 253q3 -18 20 -31.5t22 -32.5q-7 -6 -7 -15q0 -15 11 -25q15 -13 18 -19q16 17 16 42t-23 74q-17 17 -36 17q-13 0 -21 -10zM357 110l8 -7q-30 -34 -93 -41q-88 -10 -103 -16q-56 -21 -61 -23q-36 -16 -55 -33q2 -9 10 -10q-3 0 17 0q9 0 15 -6
q30 12 122 17q82 4 112 24q5 3 5 8q0 4 -14 17q2 6 6 6q3 0 17 -12q4 13 26 31t26 33q10 -8 9 -8l3 1q-1 4 -1 7q0 11 10 20q-1 24 -20 24q-12 0 -24 -10t-15 -22z" />
    <glyph glyph-name="c" unicode="c" horiz-adv-x="483" 
d="M255 57q2 -4 9 -12q-7 -9 -25 -24v-4q0 -6 9 -22q80 3 147 55l-8 7q2 -1 5 -1q8 0 19 11l16 18q-2 -2 -18.5 -6.5t-22.5 -10.5q-56 -16 -91 -16q-22 0 -40 5zM251 58l4 -1q-2 2 -3 2zM215 106q-22 -1 -36.5 27t-30.5 29l-7 -15q-1 4 -4.5 15t-3.5 16q0 4 2 6q-5 6 -23 14
q5 5 5 9q0 5 -8 13t-8 13q0 6 8 13q-6 5 -13 5q-3 0 -10 -2t-11 -2l-4 1q-5 7 -5 12q0 6 16 13t16 17q-4 4 -5 17q-1 10 -5 10q-2 0 -6 -1q1 11 6 11q3 0 9.5 -3.5t9.5 -3.5q8 0 15 9.5t7 17.5q0 5 -2 14.5t-2 14.5q0 15 19 23q7 -6 13 -6q4 0 14.5 9.5t21.5 6.5
q12 27 17 37q14 23 27 30q29 13 40 13q7 0 12 -3q3 1 5 1q9 0 19 -12t19 -12q19 0 19 30v35q-2 -7 -12.5 -17.5t-10.5 -16.5q0 -4 3 -9q-12 10 -24 10q-5 0 -13.5 -1.5t-12.5 -1.5q-15 0 -27 15q8 7 16 7q7 0 18.5 -6.5t17.5 -6.5q9 0 16 10q-3 3 -20 12q-13 6 -12 16h-5
q-7 0 -16 -4q-13 -5 -16 -6q0 1 -4.5 4.5t-3.5 6.5q-15 -16 -45 -16h-6q-33 0 -49 -20q1 -4 7.5 -9t6.5 -10l-1 -3q-9 -12 -18 -12q-4 0 -7 3l14 12l-12 11l-18 -16l16 -15q-5 -18 -35.5 -28.5t-28.5 -35.5q-16 -6 -16 -15q0 -7 13.5 -25.5t13.5 -31.5q0 -5 -2 -10
q-15 -2 -29 -5q-17 -3 -18 -20q5 -15 20 -18q-26 -14 -26 -25q0 -9 10 -18t19 -17l1 -3q0 -6 -7 -13q-10 -9 -11 -11l32 -20q-2 -2 -9 -5t-7 -7q0 -2 1 -5q16 -4 38 -31q20 -22 38 -22q8 0 18 3q0 -6 -6 -8t-6 -5q0 -2 1 -6q-3 -5 -7 -5q-3 0 -9 5.5t-10 5.5q-6 0 -14.5 -6
t-8.5 -12q0 -3 3 -5.5t15 -10t21 -7.5h2l6 27q9 -4 9 -13q0 -5 -3.5 -14.5t-3.5 -13.5h5q34 2 37 -20q-7 -5 -7 -10q0 -2 1 -6q3 5 7 5q3 0 8.5 -4.5t8.5 -4.5t6 2v5q-1 16 19 31q25 17 29 26q-9 3 -25 12q-19 10 -19 15q0 3 4.5 9.5t3.5 11.5zM321 398q4 -1 19 -8
q11 -6 18 -6q5 0 9 2l-7 -12l19 -6l-29 -10q0 -9 14 -17t10 -18q4 8 17 14l20 10l-28 21h4q8 0 15.5 12t14.5 12q4 0 10 -2l2 30q-29 37 -69 37q-45 0 -45 -31q0 -2 6 -28zM438 387q-5 -2 -14 -9q1 -3 4 -3q11 0 10 11v1zM167 336l-6 4q-1 0 -2 -1v-1v-3q0 -1 1 -1q4 2 7 2z
M357 310l15 -6q1 2 1 5q0 6 -7 6q-5 0 -9 -5zM151 195l3 -3l3 1q-2 2 -6 2zM134 199q2 -5 6 -5h6q3 1 5 1q-5 4 -11 4h-2h-4z" />
    <glyph glyph-name="d" unicode="d" horiz-adv-x="518" 
d="M126 610q4 5 4 8q0 4 -7.5 8.5t-8.5 9.5q1 -3 1 -12.5t11 -13.5zM121 572q8 1 8 10q0 21 -2 17q-10 -5 -10 -17q0 -6 4 -10zM369 384q1 5 -1 8q0 -4 1 -8zM69 448q-1 -5 -5.5 -18.5t-4.5 -21.5q0 -5 1 -9q14 -8 17 -17q1 -2 5 -23q28 20 82 62l-30 2v3q-1 12 11.5 28.5
t11.5 29.5q2 -18 27 -18q8 0 15 2l5 -18q2 -1 54 -17q17 -4 38 -15q10 -5 25 -36t29 -40q6 8 11 8t14.5 -12.5t17.5 -12.5q3 0 6 1l-12 14q4 6 13 6.5t13 3.5q-11 16 -46.5 16.5t-46.5 22.5l11 12q4 -4 21 -3q14 1 16 -6q1 9 14.5 19.5t13.5 15.5q0 4 -3 8q-3 -1 -5 -1
q-5 0 -13 3.5t-13 3.5q-6 0 -11 -5q-15 7 -18 16.5t-7 19.5q-16 30 -70 30q-9 0 -28 -1.5t-29 -1.5q-44 0 -67 25l11 8q-4 7 -16 10t-16 11l4 4q-8 3 -9.5 16.5t-11.5 15.5q-11 -5 -15 -22t-12 -21q8 -6 8 -15q0 -7 -6 -19t-7 -19l-8 15q-18 -5 -29 -21q13 -1 25 -15
q9 -12 19 -24zM400 383q10 -1 11 8q-2 2 -4 3q5 3 5 7q0 -1 -10 12v-3q0 -4 -2.5 -10.5t-2.5 -9.5q0 -7 3 -7zM137 374q5 -3 10 -3q6 0 9 4q-4 6 -9 6q-7 0 -10 -7zM435 302q4 5 7 4q-17 12 -24 12q-13 0 -23 -18t-23 -21v-2q0 -8 13.5 -13t11.5 -17l10 12q5 -5 5 -12
q0 -22 -21 -23l8 -10q-19 -3 -37 -5q-22 -2 -29 -19q-1 -6 0.5 -10t7.5 -4q2 11 13 11q-7 0 24 -5l-13 -23l-12 10q-55 -10 -68 -60l-94 -30q-62 -17 -94 -16h-8q9 18 9 48q0 19 -4 50q14 8 15 32t15 34v3q0 7 -7 38q4 4 8 29q4 21 19 29q-5 11 -14 11q-7 0 -23.5 -8
t-25.5 -7q-7 -15 -14 -65q-5 -39 -24 -61q3 -6 6 -6q1 0 4 1.5t4 1.5q2 0 5 -4q0 2 0 -28q0 -9 7 -20q-6 -5 -9 -5q-5 0 -8.5 8t-6.5 8q-4 0 -10 -9q1 -8 11 -10t13 -8l-15 -16q15 -24 15 -57q0 -4 -1 -12.5t-1 -12.5q0 -11 9.5 -17t18.5 -11q7 9 21 20q11 0 33 4.5t46 9.5
q28 6 48 5q16 16 45 22q35 7 47 14q18 24 70 63q49 38 68 65q-4 7 -10 7t-8 -8q-5 3 -5 6q0 2 4 6t4 7q0 2 -1 4q0 -9 -8 -9q-10 0 -18 7l-1 4q0 12 13 14q19 3 24 7l-15 7q2 4 18 9q13 4 13 19q-3 -2 -6 -2q-5 0 -14 12t-18 10zM46 -30q10 -30 23 -30q9 0 19 13q7 10 14 21
q-7 13 -17 13q-8 0 -20.5 -8t-18.5 -9zM120 -18q1 -6 8 -6q8 0 8 7q0 2 -1 4q-4 2 -6 2q-5 0 -9 -7z" />
    <glyph glyph-name="e" unicode="e" horiz-adv-x="556" 
d="M489 538q-54 7 -138 8h-69q-38 0 -64 1l-13 18v5q1 14 -14 16t-29 3q-8 -19 -18 -37.5t-30 -22.5q-5 7 -12 7q-4 0 -10.5 -2t-9.5 -2q-8 0 -11 10q0 -7 -21 -16.5t-25 -24.5q10 0 28.5 -5.5t29.5 -5.5q13 0 21 9q25 -3 26 -31l1 -46q-3 -5 -3 -10q0 -3 2.5 -10t2.5 -11
q0 -6 -7 -11q-1 -4 -1 -8q0 -23 30 -39q-20 -18 -64 -45q10 -5 20.5 -23.5t23.5 -22.5q4 -6 4 -12q0 -5 -2.5 -13.5t-2.5 -12.5l6 8q-1 -4 -1 -9q0 -9 5 -26t5 -26q0 -11 -4 -21l4 4q2 -7 13.5 -15t10.5 -18q4 8 12 8q5 0 11 -3v7q1 12 -4.5 35.5t-5.5 35.5q0 26 17 47l6 -1
q20 -1 33.5 23t32.5 24h8q9 -8 23 -8q11 0 30.5 6t28.5 7q18 2 21 9q2 11 4 23q-22 8 -50 8q-16 0 -48.5 -4t-49.5 -4q-25 0 -44 6q-15 12 -15 29q0 8 5.5 24.5t5.5 24.5q0 5 -2 9q-19 9 -17 32v4q4 -2 8 -2q7 0 11 7q-5 4 -5 10q0 8 9.5 27.5t9.5 30.5q11 -2 11 -10
q0 -2 -1 -6t-1 -6q0 -9 15 -10q2 6 14 10.5t15 10.5q30 -20 64 -20q17 0 27 6q1 4 -4.5 4t-6.5 3q7 5 17 24q2 -9 16.5 -13.5t18.5 -10.5q31 7 63 7q15 0 31 -2q6 5 6 9q0 3 -4.5 8.5t-4.5 8.5q0 4 5 9zM501 527l10 8q-4 4 -7 4q-4 0 -4 -7q0 -2 1 -5zM195 65
q-11 0 -17.5 7.5t-3.5 17.5q-2 -1 -4 -1q-3 0 -9 1.5t-9 1.5q-7 0 -11 -4l19 -18q-7 -6 -28.5 -13t-29.5 -17v-3q-1 -13 13 -22q10 10 23 10q23 0 49 -28q9 1 22 13.5t16 13.5l2 -2q1 2 0 5t-1 4q0 4 4 6q8 -6 18 -6q7 0 21 5t22 5q12 0 22 -10q3 7 14.5 9.5t14.5 10.5
q12 5 27 5q10 0 28 -2t27 -2q36 0 55 26q-26 0 -58 1h-58q-67 0 -114 -5q-6 -1 -27.5 -5t-26.5 -4zM365 45q0 -9 6 -9t13 7q-2 3 -7 3q-2 0 -6 -1h-6zM197 -36q-1 11 -14 11q-12 0 -12 -9q14 -10 24 -10q7 0 13 4q0 8 -7 8q-3 0 -4 -4z" />
    <glyph glyph-name="f" unicode="f" horiz-adv-x="575" 
d="M470 530q-5 3 -9 3t-8 -12.5t-13 -11.5h-2q-1 1 -7 9t-6 12q0 5 3 9q-3 0 -8 -1t-7 -1q-5 0 -7 4l7 8q-12 8 -19 8t-12 -6l16 -18q-10 -9 -29.5 -10t-36.5 -2q-4 17 -31.5 31t-28.5 30q-5 -3 -11 -3t-18 4.5t-19 4.5t-13 -2q1 -3 1 -6q0 -12 -16 -25.5t-19 -23.5
q-3 13 -12 13q-5 0 -15.5 -4.5t-13.5 -3.5q-3 -10 -25 -84q-19 -66 -19 -74q0 -11 20.5 -18.5t23.5 -22.5q7 1 13 20q4 13 7 26l-23 10q29 26 68 49q1 9 -10.5 15t-13.5 10q20 25 49 25q11 0 33 -4.5t34 -4.5q22 0 40 12q18 -11 53 -17q39 -7 54 -14q19 11 55 11h6
q18 0 29 2q-14 0 -28.5 25.5t-31.5 27.5zM368 546q-3 1 -4 1q-4 0 -4 -4q0 -2 1 -4v-4q1 -1 2 -1q5 0 5 9v3zM470 553q-8 0 -8 -7v-1h2q2 0 7 -1.5t7 -1.5q3 0 3 3q0 2 -2 5t-9 3zM498 555q-7 0 -10 -5q0 -11 12 -11q7 0 7 7q0 9 -9 9zM523 533h-2q-2 0 -5 -3.5t-4 -4.5
q1 -4 4 -4q8 0 8 9zM464 443l1 -11v0q7 0 7 7v1l-6 4zM361 283q-8 10 -25 10q-5 0 -14.5 -1t-14.5 -1q-16 0 -26 9q-15 -5 -45 -8.5t-44 -7.5q-3 16 -28.5 21t-26.5 20q-6 0 -15.5 5.5t-14.5 5.5q-4 0 -6.5 -2t-2.5 -3q0 -4 6.5 -7.5l6.5 -3.5v-5q1 -19 -26 -25
q-32 -7 -38 -19q-6 4 -5 7q-1 -1 -9 -9.5t-8 -14.5v-3q18 -7 54 -19q1 -3 1 -6t-11 -18q17 -5 18.5 -35.5t19.5 -30.5q-26 -7 -36 -35q11 -31 38 -58q-4 -11 -8 -11q-2 0 -6.5 7t-8.5 7q-3 0 -7 -4q20 -7 20 -20q0 -3 -1 -9t-1 -9q0 -16 24 -28q-14 -13 -14 -35q0 -6 2.5 -9
t5.5 -3t9 4t10 3q-1 5 -1 10q0 12 7 34.5t7 34.5q0 10 -4 19q-6 -4 -11 -4t-12 7l-11 10l26 6q-16 6 -16 15q0 5 5.5 14.5t5.5 15.5q0 7 -7 14q20 20 31 51q-8 5 -8 13q0 5 7 17t6 19q9 1 14.5 8.5t10.5 15.5q1 19 15 19q6 0 19 -4t19 -4q8 0 13 4q3 -7 4 -22q3 2 7 2
q9 0 26 -5.5t26 -5.5q6 0 10 2q7 13 31.5 13.5t31.5 8.5q-2 3 -6 21q-3 13 -12 13q-3 0 -7 -1zM248 231q4 2 6 4q-4 -1 -6 -4zM218 236h-12l9 -15q3 2 3 6q0 11 0 9z" />
    <glyph glyph-name="g" unicode="g" horiz-adv-x="508" 
d="M184 57l8 -10v5v4q0 2 -2 4q-4 -1 -6 -3zM428 242l10 11q-49 0 -98 -1q-56 -2 -96 -14q5 -14 20 -18q-4 -9 -29 -24q-4 -2 -4 -3q0 -10 36 -10q7 0 20.5 1t20.5 1q24 0 38 -12q-13 -11 -29 -46q-14 -30 -34 -41q6 -7 6 -14q0 -6 -8 -19.5t-5 -23.5q-5 2 -9 2
q-8 0 -20 -6.5t-17 -6.5q-6 0 -10 4l6 8q-4 5 -24.5 6.5t-20.5 10.5q0 4 3 10q-6 -3 -9 -3q-7 0 -10 10l-2 -34q-1 3 -9 13.5t-8 16.5q0 7 11 11h-2t-6 -4q-3 25 -18.5 69.5t-19.5 66.5q8 4 9 16t7 15q-15 4 -15 15q0 4 2.5 12.5t2.5 12.5q0 9 -8 15q7 18 17 18q2 0 5 -1
q3 -11 12 -11q3 0 7 1q-13 9 -13 25q0 8 3 16q6 -7 11 -7t8 4l-11 7l14 8q-27 19 -27 47q0 18 13 33t13 18q0 2 -2 4q9 11 18 21t25 15q-2 6 -22 6q-9 0 -13 7q11 5 11.5 18t13.5 17l-16 14q9 8 18 8q2 0 7.5 -1t7.5 -1q8 0 16 6.5t14 6.5q22 0 20 -21q0 8 8 9q13 2 14 4
q1 -12 11.5 -36t10.5 -37q0 -14 -9 -25q7 3 13 3q9 0 21.5 -8.5t18.5 -9.5q12 -8 12 -17q0 -5 -3.5 -14t-3.5 -14q0 -8 7 -15h2q4 0 12 9v-3q0 -7 9.5 -17.5t9.5 -17.5q0 -3 -1 -6q10 22 11 46q4 2 4 6q0 11 -13 11q-8 0 -13 -7l-20 17q4 9 10 9q4 0 10.5 -4t10.5 -4
q6 0 10 6q-2 3 -2 6q0 4 7 8.5t7 8.5q0 16 -25 26.5t-29 18.5l29 17l-5 22q-9 2 -23.5 10t-22.5 10q6 4 6 13v5v5q-13 2 -33 11q-25 12 -33 15l-2 -15q-6 1 -17.5 12t-17.5 11t-11 -7q-4 1 -4 4q0 2 1.5 5t1.5 4v1q-4 0 -37.5 -17t-50.5 -18q-14 -9 -14 -16q0 -4 7 -10
t7 -11q0 -8 -12 -20q-7 1 -16.5 -7t-15.5 -8q-2 0 -5 2q9 -15 9 -30q0 -16 -13.5 -44.5t-13.5 -44.5q0 -10 6 -22.5t6 -16.5q0 -9 -17 -23q-21 -16 -24 -21q4 -7 5 -33q0 -20 13 -23l-22 -8q0 -9 0.5 -19t8.5 -11q-5 1 -9 -14.5t-15 -16.5q12 -4 31 -21q0 -2 -5 -22
q-2 -11 -11 -20q4 -9 9 -9q2 0 5 1t5 1q4 0 8 -3q1 -3 1 -5q0 -6 -6 -7h-11q-11 -1 -11 -16q0 -18 27 -37t27 -37q0 -4 -1 -9q10 7 19 7q8 0 20.5 -5t16.5 -6q-3 -8 -9 -8q-4 0 -11 3t-11 3q-6 0 -9 -8q5 -22 17 -22q5 0 15.5 4.5t15.5 4.5q14 0 21 -21q3 13 25 13
q10 0 12 5q3 -11 27 -14q-5 -11 -15 -11q-4 0 -10.5 1t-9.5 1q-8 0 -13 -5q7 -10 19 -10q7 0 22 5t23 5v4q0 12 -12 14q40 10 49 45q22 17 28 17q7 0 13 -7q6 10 21 28q-8 9 -9 20.5t-1 23.5q3 2 11 15q7 10 17 9q2 5 2 9q0 9 -13.5 17.5t-13.5 17.5q0 10 7 18.5t17 8.5
q7 0 20 -4.5t19 -4.5q4 0 7 1q-1 2 -1 4q0 6 8.5 16t9.5 15l8 -15q18 5 18 29q0 5 -2 10zM184 58v-1v0v1zM269 506q10 2 10 10v2h-4q-7 0 -7 -6q0 -3 1 -6zM161 424q2 -3 5 -3q5 0 10 8q-2 3 -5 3q-2 0 -10 -8zM357 369l7 -11q4 2 4 6q0 -2 -1 5q-5 4 -6 4q-4 0 -4 -4z
M297 -22v-4q0 -7 5 -7q3 0 7 4q-11 7 -10 7h-2zM272 -42l1 -15l15 1l-1 15z" />
    <glyph glyph-name="h" unicode="h" horiz-adv-x="530" 
d="M139 626h-2q-1 0 -6 4l1 -11h1q6 0 6 6v1zM406 617q-8 7 -12 7l-3 -1l5 -22q5 0 7 5.5t3 10.5zM109 557l15 8v4q0 6 -13 18v-2q0 -4 -3 -10.5t-3 -9.5q0 -4 4 -8zM351 407q-3 -5 -3 -10q0 -9 10 -20.5t19 -20.5q3 2 9 2q5 0 14 -2t14 -2q15 0 14 20q13 13 13 29
q0 12 -10.5 36.5t-10.5 37.5q0 17 12 32l-16 7q-5 8 -5 19q0 6 2.5 17.5t2.5 17.5q0 11 -8 20q-10 0 -10 -5q0 -6 11 -13l-56 -11q4 -24 25 -40l-28 -24q12 -8 12 -17q0 -5 -5.5 -13t-5.5 -13q0 -6 9 -13t9 -15q0 -19 -18 -19zM114 538l-2 -26q2 -1 4 -1q14 0 14 15v2h-12
q-3 1 -4 10zM253 299q-11 0 -32 -8q-24 -10 -27 -16.5t-7 -6.5q-3 0 -9.5 5.5t-9.5 5.5l14 16q-2 2 -15.5 2t-13.5 21q0 18 10 36q-1 3 -1 44q0 28 -19 37q2 14 2 27q0 22 -6 41q-27 -46 -31 -53q-15 -32 -15 -59h4q8 0 8 -7q-21 -1 -21 -9q0 -4 6.5 -13.5t6.5 -14.5
q0 -9 -15 -13q12 -23 23 -18q0 -9 -9 -14q-12 -6 -15 -14q0 -2 4 -7t4 -8q0 -4 -3 -7h-2q-11 1 -25.5 -9.5t-27.5 -19.5q0 -2 1 -5v-6q0 -8 -7 -12q7 -6 16 -6t25.5 5.5t24.5 5.5q15 0 25 -11q-5 -6 -5 -11q0 -3 5 -11.5t6 -14.5q-3 -8 -8 -8t-9 5t-2 9q-4 -11 -4 -24
q0 -21 12 -54q16 -43 18 -52l-14 -4q8 -8 8 -21q0 -6 -2.5 -18t-2.5 -19v-2q11 -23 32 -39q13 6 13 17q0 6 -3 16t-3 15t1 8q-5 5 -5 13q0 3 1 9t1 9q0 12 -18 10q26 5 26 33v15q-1 10 -1 15q0 23 14 33q0 5 -7 14.5t-7 16.5q0 3 1 6q10 4 10 11q0 4 -3.5 12t-3.5 12
q0 14 30.5 24.5t32.5 19.5q4 -5 12 -14q8 -3 15 -3q16 0 41.5 18.5t44.5 17.5l7 -1q25 -43 62 -48q-1 3 -1 6q0 11 18 26t14 29q8 3 22 13t21 13h-14q-31 1 -91.5 -6t-89.5 -7q-6 0 -18.5 1t-18.5 1zM367 340q-4 7 -12 7q-7 0 -11 -5q4 -7 12 -7q6 0 11 5zM401 323l12 -10
l4 6v2q-8 7 -11 7t-5 -5zM387 161h1h1h-1h-1zM459 57q-6 6 -6 16q0 7 3.5 20t3.5 20q0 17 -14.5 36t-31.5 25q3 4 10 4.5t13 0.5q1 5 1 9q0 19 -15 28q-1 -1 -5.5 -5t-7.5 -4t-5 4q-2 -4 -2 -9q0 -4 2 -12.5t2 -12.5q0 -12 -14 -19l-5 3q-17 -10 -17 -22q0 -9 13.5 -29
t13.5 -31q5 -2 12 -20q6 -21 17 -27q25 7 36 13q19 11 22 28q-2 1 -4 1q-4 0 -11 -7q-10 -10 -11 -10zM387 187q-7 4 -11 4t-11 -5q7 -25 22 -25q-5 5 -5 13q0 7 5 13zM409 20q9 -8 10 -8q3 0 5 5q-1 9 -9 9q-4 0 -6 -6zM462 15l15 1q-2 4 -7 4q-6 0 -8 -5zM429 -2h2
q10 0 9 8v0q-4 4 -7 4q-5 0 -5 -7q0 -2 1 -5zM403 -15h3q4 0 12 9q-4 3 -9 3q-7 0 -7 -6q0 -2 1 -6z" />
    <glyph glyph-name="i" unicode="i" horiz-adv-x="223" 
d="M128 445q1 -1 3 -1q3 0 9 6.5t10 6.5q-11 28 -18 40q-14 22 -32 29q-1 2 -1 4q0 4 6 6.5t6 4.5v5q0 15 -15 15q-5 0 -9 -2q0 -39 -17 -114.5t-18 -113.5q7 -15 18 -15q9 0 19 25q3 1 6 1q9 0 13 -13t9 -16q-3 -12 -12 -12q-2 0 -7.5 1.5t-8.5 1.5q-9 0 -12 -13v0
q0 -6 -13.5 -31t-13.5 -38q0 -10 6.5 -30.5t6.5 -31.5q0 -16 -14 -28l16 -7q0 -53 1 -78q2 -44 9 -79q6 4 22 24q11 15 28 13q6 8 6 18q0 5 -2 15.5t-2 15.5q0 15 16 24q-5 -1 -9 -1q-11 0 -11 8q0 4 4.5 15t4.5 16q0 11 -15 13l14 15q-6 10 -6 22q0 9 4.5 27t4.5 28
q0 26 -25 46q0 11 7 11q2 0 6.5 -1t6.5 -1q7 0 12.5 7.5t5.5 13.5q0 7 -6.5 21t-6.5 22v4q5 4 24 5q16 0 20 13q-51 16 -51 66q0 8 1 17zM168 391l-11 10v-2v-4q0 -8 4 -8q3 0 7 4zM59 290q-9 4 -17 4q-13 0 -17 -10l16 -17q1 4 9.5 9t8.5 11v3zM86 -39q-4 -1 -4 -4
q0 -4 9 -10l3 4v1q0 -1 -8 9z" />
    <glyph glyph-name="j" unicode="j" horiz-adv-x="504" 
d="M382 548q6 2 19.5 12.5t21.5 10.5q3 0 7 -1q-4 7 -9 7q-4 0 -11.5 -5.5t-11.5 -5.5q-14 0 -14 16q0 15 20 35v2q0 6 -6 12t-6 8q-15 -11 -15 -28q0 -8 4 -24t4 -24t-3 -15zM455 406q4 5 4 10q0 7 -10 16t-10 16q0 6 9 14q-6 8 -11.5 15.5t-15 12t-9.5 9.5q0 4 5 11.5
t4 11.5v2q-5 -5 -9 -5t-10 8q-4 5 -8 11q-21 0 -22 -27q-2 -30 -19 -36q28 -31 28 -58q0 -17 -9.5 -49t-9.5 -49q0 -9 2 -16q13 -7 13 -18q0 -5 -3 -14.5t-3 -15.5q0 -12 15 -19q-3 -1 -11 -8.5t-14 -7.5q-4 0 -8 3q6 21 6 15q0 5 -7 8q-10 -2 -10 -11q0 -12 12 -23
q-6 -10 -18 -8q-3 -6 -3 -12q0 -16 16 -25q-11 -37 -17 -52q-12 -31 -29 -45q3 1 5 1q8 0 16.5 -11.5t12.5 -11.5q3 1 4 2q3 13 26 13q12 0 19 -7l43 44q-8 8 -8 14q0 7 11 16.5t11 16.5q0 11 -13 17.5t-25 6.5q-4 0 -7 -1q9 33 20 102q4 -3 4.5 -16t8.5 -13l14 16l-12 14v2
q-1 9 9 15q15 10 15 11q0 10 -7.5 11.5t-15.5 2.5q7 3 9 13.5t8 13.5q-3 4 -3 10q0 4 2 12.5t2 12.5q0 12 -12 21q9 9 15 8zM200 -30q-13 6 -13 19q0 4 1.5 12t1.5 12q0 10 -5 16q-3 -1 -5 -1q-9 0 -14.5 13t-15.5 15q8 9 8 21q0 10 -6.5 27.5t-6.5 27.5q11 21 11 58
q0 14 -2 40q-3 4 -3 9q0 3 1 8v7q0 8 -8 13q-18 -23 -41 -66q-27 -51 -37 -67q-6 6 -12 6q-4 0 -13.5 -7.5t-15.5 -8.5q9 -4 27 -4q10 0 19 -8v-3q0 -4 1 -10v-9q0 -7 -3 -12h6q5 1 6 1q5 0 7 -3q1 -23 12 -50q14 -34 17 -47q6 -1 31 -8q20 -5 32 -5q11 0 20 4zM337 252
q11 2 11 15q0 2 -1 5h-11h-4q-11 0 -15 -10q2 -1 7 -6t8 -5q2 0 5 1zM430 202q4 0 11 4q-4 5 -6 5q-4 0 -5 -9zM315 59q-17 -27 -56 -57q-55 -45 -62 -51q7 -7 17 -7q6 0 17 3.5t17 3.5q7 0 13 -4q20 22 70 87q-6 3 -9.5 10.5t-6.5 14.5zM346 -22q3 0 9 1t9 1l2 30l14 23
q-2 -3 -26 -19q-16 -11 -16 -25q0 -11 8 -11zM167 -44l-6 -11q0 -2 3 -4l19 1q-1 2 -4 8.5t-7 6.5q-2 0 -5 -1z" />
    <glyph glyph-name="k" unicode="k" horiz-adv-x="471" 
d="M45 -6q-4 1 -7 1h-2q4 -2 6 -2q1 0 3 1zM232 285q13 23 26 45q16 26 33 41q3 -3 8 -3h7q5 1 7 1q7 8 14.5 16t6.5 19q4 0 14 -2.5t15 -2.5q9 0 16 8q-2 5 -9 14q8 2 19.5 14.5t20.5 14.5q13 13 13 35q0 6 -1 11q-2 2 -3.5 8.5t-5.5 6.5q-2 0 -7 -1q-1 -3 -11.5 -13.5
t-10.5 -16.5q0 -3 2 -6q-44 -18 -62 -28q-32 -18 -54 -42v-3q-1 -10 8 -16q-4 -4 -11 -4q-3 0 -10 1.5t-10 1.5t-6 -1l8 -7q-8 -10 -35.5 -19.5t-37.5 -22.5q-3 -13 -18 -29q-11 -13 -23 -26q-3 1 -6 1q-4 0 -11 -3t-11 -3q-5 0 -10 6q5 6 6 35q1 21 21 23v4q0 3 -5 7t-4 8
l-7 -8q-1 6 -1 13q0 17 11.5 50.5t11.5 51.5q0 13 -4 25l7 -8q0 18 -3.5 53t-3.5 53q0 27 6 49q-5 3 -5 13q0 5 -8 8q-15 -11 -22.5 -60t-33.5 -64v-4q-1 -19 13 -25q1 -5 1 -10q0 -16 -12 -35t-12 -33q0 -8 2 -17q14 -12 14 -25q0 -6 -5 -17.5t-5 -17.5q0 -15 28 -28
q1 -6 1 -12q0 -30 -19 -63l-38 -56v-7q0 -8 2.5 -23t2.5 -23q0 -18 -11 -30q10 -11 10 -27q0 -4 -1 -13t-1 -13q0 -20 19 -28q1 -14 -7 -32q12 -3 12 -23.5t8 -26.5q15 2 15.5 25t11.5 25v10q0 14 4 42t4 42q0 15 -4 27q8 90 86 182q8 -11 19 -11q3 0 9 1t9 1q7 0 13 -3z
M408 -76q-1 4 -1 9q0 10 7 13q-7 24 -28 49q-18 21 -37 42q5 10 5 20q0 13 -12.5 33.5t-12.5 31.5q0 5 3 11q-12 58 -53 65q8 8 8 18t-12 29.5t-12 29.5q-1 15 -14 15q-7 0 -9 -8q1 -2 1 -5q0 -20 -37 -35q3 -17 29.5 -27t30.5 -22q-2 -1 -3 -1q-4 0 -10 5.5t-10 5.5t-8 -4
q4 -6 4.5 -26.5t6.5 -29.5q38 -54 85 -93l6 -37l36 -28q0 -7 15 -32q18 -32 19.5 -33t3.5 -1q5 0 9.5 4.5t7.5 8.5q-1 3 -3 3t-6.5 -5.5t-8.5 -5.5zM200 268l-7 -12q11 1 11 6q0 1 -4 6z" />
    <glyph glyph-name="l" unicode="l" horiz-adv-x="416" 
d="M67 649q-2 4 -6 4h-2q3 0 -4 0l9 -15q3 2 3 7v4zM91 614q0 8 -8 8q-11 0 -14 -10q5 -3 11 -3q7 0 11 5zM333 99q-145 -14 -151 -14q-32 0 -58 5l3 4l-20 10q14 22 14 30q0 5 -5 20t-6 22.5t-3 62.5q-2 39 -12 63q10 11 10 26q0 10 -5 28t-5 28q0 16 13 28q-4 2 -5.5 11
t-7.5 10q5 6 8 20t8 19q-3 10 -3 24q0 6 1 18t1 18q0 17 -8 26q-4 15 -20 20.5t-31 10.5l-6 -20l27 -5q-3 -4 -19 -11q-11 -4 -11 -23q0 -12 4 -35t4 -34q0 -19 -10 -29q-13 -14 -15 -22l31 -20q-4 -15 -4 -35q0 -39 15 -70q-3 1 8 1q5 0 7 -3q-29 -4 -29 -24q0 -6 2 -18
t2 -18q0 -13 -8 -21q-1 -9 -1 -18q0 -28 11 -63q11 -30 21 -60q-19 0 -24.5 -18t-11.5 -18q-4 0 -11 3q7 -12 25 -13q-22 1 30 1q28 0 30 -28q12 5 20.5 24.5t16.5 19.5q5 0 18 -11q11 1 32 25q7 1 53 7q33 4 54 4q31 0 58 -9v4q0 6 8.5 11.5t8.5 12.5q-7 5 -31 8
q-19 2 -23 15zM416 92l11 9l-12 3zM117 -46q3 -8 6.5 -17t11.5 -9q3 0 6 1q0 5 3 14t3 14q0 8 -5 13q-3 1 -6 1q-5 0 -11 -8t-8 -9z" />
    <glyph glyph-name="m" unicode="m" horiz-adv-x="668" 
d="M538 410q6 -3 12 -3q12 0 21 23q10 28 16 32l-18 3q-17 16 -17 36q0 13 9 37.5t9 37.5q0 15 -10 27q0 6 7 10t7 10h-2q-4 0 -9.5 -2.5t-9.5 -2.5q-3 0 -9 3q3 -7 3 -15q0 -14 -14.5 -41t-16.5 -39q-3 -1 -5 -1q-4 0 -6 8t-5 10q-8 -5 -8 -9t10.5 -9t10.5 -9t-7 -10
q-9 9 -20 9q-19 0 -50 -32q2 -4 2 -8q0 -8 -13 -19q-18 -13 -20 -16q2 1 5 1q11 0 15 -19q-21 -30 -55 -33q7 -2 7 -6q0 -2 -2.5 -7t-2.5 -7q0 -6 8 -9q-36 -21 -36 -33q0 -6 4 -16t4 -15q0 -13 -20 -18q6 -1 15 -7q-18 -21 -20 -21q-4 0 -13 5.5t-14 5.5q-2 0 -4 -1
q-4 -4 -4 -7q0 -4 12.5 -7.5t12.5 -10.5l-1 -4q-6 -12 -10 -12q-3 0 -9.5 11.5t-14.5 10.5q3 4 3 8q0 6 -15.5 13.5t-15.5 16.5q0 4 3 9q2 1 4 1q4 0 8 -7t7 -8v2q0 2 -6.5 18.5t-4.5 27.5l-3 -11q-23 5 -23 28q0 6 2 19t2 19q0 11 -5 19q-4 -14 -33 -14l-3 1q-15 6 -15 22
q0 12 13 11q6 -5 16 -18q7 5 7 15q0 3 -1 11t-1 12q-13 6 -21 25.5t-16 25.5q11 5 11 12q0 6 -7 16t-7 16q0 4 4 8q-7 6 -23 39q-13 25 -34 29q-18 -15 -37 -70q1 -11 1 -23q0 -56 -24 -147q-28 -107 -33 -145q10 -13 10 -30q0 -9 -3.5 -26.5t-3.5 -26.5q0 -11 4 -22
q-17 -5 -17 -20q0 -5 2 -15t2 -15q0 -6 -2 -11q2 1 4 1q5 0 13.5 -5t13.5 -5q7 0 14 8l-12 -1q-8 7 -8 10q0 4 15 5t15 11q0 6 -5.5 10.5t-11.5 9.5q7 4 7 12q0 5 -2.5 13t-2.5 12q0 10 18 9q4 5 4 8q0 4 -9 8t-8 10q-6 16 -6 34q0 28 21 80.5t21 80.5q0 17 -5 32q6 5 14 23
q6 15 17 20l39 -20q-9 -8 -9 -22q0 -7 3 -20.5t3 -19.5q0 -3 -2 -8.5t-2 -7.5q0 -6 10 -11t10 -9q0 -3 -3 -7q5 5 11 5q10 0 24 -14q-4 -2 -4 -5q0 -2 4.5 -6t4.5 -7l-19 -5q1 -1 21 -35q13 -21 28 -30q9 17 17 17q4 0 9 -4q-1 -4 -1 -8q0 -16 10.5 -49.5t8.5 -54.5h5
q6 0 15.5 4.5t12.5 5.5q3 5 3 11q0 9 -21 29q3 5 6 5q2 0 6 -4t7 -4t4 1q19 16 23.5 66.5t32.5 68.5q19 26 50 80.5t49 79.5q15 -12 29 -23q18 -15 19 -31zM607 137v-2q1 -9 -5.5 -17.5t-15.5 -8.5h-3q-5 2 -5 5q0 2 4.5 6.5t4.5 7.5q0 6 -14 9q-17 3 -18 4v2q-1 6 10.5 6
t10.5 9l20 -14q7 7 7 18q0 8 -5 16l18 12l-9 11q-4 -5 -8 -18t-12 -18q-12 11 -12 23q0 9 8 25.5t8 25.5t-6 17l-7 -8q-5 9 -5 24q0 10 3 17q1 -3 2 -3q2 0 7.5 8.5t7.5 10.5q-6 1 -14 -5q-5 5 -5 11q0 5 4 13t4 11q0 6 -10 10q6 4 9 13q4 13 5 14v7q0 15 -7 15q-3 0 -9 -3
t-10 -3q-7 0 -10 8h-2q-32 1 -32 -34q0 -13 4 -37.5t4 -37.5q0 -22 -10 -32q0 -10 24 -17q5 -9 5 -18t-7 -12l-9 14q-3 -3 -3 -7q0 -6 7 -18q9 -15 10 -19q-7 -9 -7 -19t9.5 -30t9.5 -31q0 -7 -3 -14q1 0 15 -1q9 -1 12 -8q-3 -6 -11 -6t-8 -5q0 -3 2 -9q6 4 22 5t23 5
q-4 5 -4 24q0 5 -2 10q3 8 15 13q9 4 9 16v2q-8 7 -12 7h-4zM267 364q-5 4 -6 4q-1 -1 -2 -1l1 -15h1q6 0 6 9v3zM158 237q4 -7 14 -7q9 0 9 8q0 11 -8 11q-5 0 -15 -12zM578 7q-11 -4 -22.5 -9t-11.5 -18q0 -5 9.5 -7t11.5 -8q3 6 5.5 12.5t8.5 7.5l-15 7q3 10 14 15z" />
    <glyph glyph-name="n" unicode="n" horiz-adv-x="467" 
d="M306 278q-3 3 -10 5q5 -5 8 -5h2zM403 284l-27 10q9 8 21 28q-9 50 -12 123q-1 62 -3 124q-3 7 -12 7q-2 0 -9 -2q-6 -1 -10 0q-7 -10 -7 -23q0 -8 3.5 -23t3.5 -22q0 -16 -13 -27q0 -9 6.5 -10.5t13.5 -3.5q2 -5 2 -9q0 -11 -26 -33q9 -18 9 -45v-23q-1 -16 -1 -23
q0 -19 4 -33q-2 2 -4 2t-6 -3t-6 -3q20 -18 36 -17q-4 -4 -3 -15t-3 -15q-6 4 -13 4q-8 0 -22.5 -6t-21.5 -6q-11 0 -18 11q2 2 2 21q0 8 6 12q-20 2 -60 8q4 4 4 9q0 3 -1.5 7.5t-1.5 6.5q0 7 12 8q-10 3 -21 5q-13 3 -20 0q3 4 3 8t-8 18v-4q0 -5 -4 -7q-3 4 -5 17t-12 16
l23 9l-24 17q4 5 4 9q0 5 -10 11.5t-10 12.5q0 5 6 11q-13 13 -40 32q-14 15 -15 52q0 32 -25 47q1 4 4 4q2 0 5 -1.5t4 -1.5h2q-9 7 -9 24q-1 25 -2.5 27t-4.5 2q-4 0 -12 -21t-25 -17q6 -8 6 -19q0 -9 -5 -27.5t-4 -28.5q-2 1 -4 1q-6 0 -18 -14q15 -6 19 -42
q4 -39 28 -52q5 -4 9 -4q15 0 15 10q0 3 -2 6q6 4 12 4q11 0 22.5 -11.5t13.5 -11.5q7 0 12 19q1 -25 24 -25q-2 -5 -9 -7t-9 -5q-1 -9 5 -22q-5 -21 -25 -17q6 -13 13.5 -26.5t22.5 -16.5l1 -2q0 -5 -8.5 -6t-10.5 -4q4 -7 18 -13.5t18 -14.5q-2 -4 -4 -4q-1 0 -4 3.5
t-6 3.5h-1q24 -43 49 -65q4 -18 31 -22.5t35 -22.5l18 16q2 -1 2 -5q0 -2 -4 -17l19 -7q-6 -9 -6 -26q0 -11 12 -25t12 -23q0 -4 -2 -7q3 -2 12.5 -2t14.5 -8q14 12 16 47q3 41 8 52q-17 5 -17 27q0 8 3 14q11 5 14 21t10 22l-16 6q-2 5 -2 9q0 6 7.5 16.5t7.5 16.5z
M330 295l-7 7q3 -7 6 -7h1zM294 285l-1 -1l3 -1zM407 521q-1 -2 -1 -4q0 -4 6 -4q9 0 10 5zM63 380q12 -7 9 -7h2q11 13 11 18q0 9 -8 9q-13 0 -14 -20zM142 373q11 0 11 4q0 2 -7 9t-5 10q-7 -3 -7 -8q0 4 8 -15zM45 353q1 2 4 6t3 7q0 6 -7 6q-8 0 -8 -9t8 -10zM94 356v10
h-16l1 -11zM75 114q-4 -4 -7 -4v0q1 -1 2 -1zM80 283l10 12q-6 6 -10 19q-7 20 -7 22q-15 6 -17 6q-7 0 -9 -8q-4 -3 -4 -7q0 -10 16 -15q1 -3 1 -5q0 -5 -9 -7t-9 -8t7 -9q12 -4 12 -5q-22 -15 -22 -20q0 -3 6 -8.5t6 -9.5t-6 -8.5t-11 -3.5l6 -94h2q9 0 16 -11.5t10 -12.5
q-4 16 -4 39q0 13 2 38t2 36q1 -2 11 -17q7 -10 7 -18q0 -5 -4 -10h3q17 -1 19 13q-10 9 -10 22q0 9 6 25.5t6 25.5q0 11 -7 20q-3 -7 -11 -7q-5 0 -8 6zM94 115q2 4 11 4l-5 26q-8 1 -8 -8q0 -3 1 -10.5t1 -11.5zM266 122q1 -1 3 -2q1 0 3 8q-1 -4 -6 -6zM272 129q2 6 8 5
v11q-6 -2 -8 -16zM272 128zM77 80q1 2 1 4q0 16 -22 16t-22 -15q0 -11 14 -25.5t25 -14.5q5 0 10 2q1 3 7 11.5t6 13.5t-4 9zM74 11l4 -2l1 2h-2v1zM54 26q0 -8 4 -11.5t12 -3.5h4q-4 8 -20 15z" />
    <glyph glyph-name="o" unicode="o" horiz-adv-x="479" 
d="M214 604q-2 2 -15 2q-6 0 -7 7q-9 3 -19 3q-33 0 -70 -32.5t-37 -64.5q0 -29 19 -51q13 35 57 74zM256 607l7 26q-2 1 -3 1q-3 0 -4 -5q-6 2 -13 2q-23 0 -26 -16q7 2 13 2q9 0 26 -10zM131 196q4 6 4 13q0 4 -2.5 11.5t-2.5 11.5t1 7q-2 -1 -4 -1q-12 0 -21 17
q8 10 8 25q0 10 -3 29t-3 28q0 8 2 15q-11 6 -11 18q0 4 1 11.5t1 11.5q0 12 -12 17q-2 3 -2 6q0 4 8 9.5t8 11.5q0 25 -22 24l-3 -10q-5 3 -9 3q-8 0 -17 -13.5t-18 -10.5q8 -2 8 -6q0 -3 -4 -9v-3q0 -6 17 -6q6 0 8 -3q-18 -11 -18 -25q0 -8 13 -34l-10 3q-5 -9 -5 -14
t11 -7.5t11 -12.5q0 -4 -1 -9q-15 -5 -19 -13q-1 -4 -1 -23q0 -13 -6 -23q9 0 17 -14.5t16 -14.5q4 0 9 2q13 -11 13 -28q0 -4 -9 -39q2 -16 22 -27q29 -18 31 -20q5 0 7.5 7.5t5.5 7.5q2 0 7 -4q-7 -11 -7 -22q0 -13 14 -13l-9 -22q9 4 16 4q11 0 20.5 -20.5t23.5 -20.5
q23 0 41 43q-35 38 -49 76q-23 0 -38 29t-38 27zM133 245q-1 -2 -2 -6q2 3 2 6zM34 431q-4 2 -9 7q2 -5 9 -7zM34 430v1v-1zM312 571q5 6 35 6q12 0 12 11q0 4 -1 9q-6 4 -12 4q-5 0 -13 -5t-12 -5q-5 0 -10 4q1 -1 1 -3q0 -3 -2.5 -7t-2.5 -7q0 -4 5 -7zM383 565
q-3 0 -9 -2.5t-9 -2.5q-6 0 -10 5q-12 -7 -12 -15q0 -1 1 -4l14 -1q-22 -36 -22 -57q0 -9 10 -23.5t17 -11.5q-1 -12 -1 -23q0 -27 6 -53q-11 -22 -24.5 -73t-27.5 -74q10 -3 20.5 -5.5t9.5 -16.5q-21 -17 -50 -56q-30 -42 -49 -58q3 -4 5.5 -9t7.5 -5q7 0 30.5 13.5
t36.5 12.5q12 10 23 31q8 18 16 35q4 -1 8 -1q23 0 23 28q0 20 -15 22q35 53 52 134q-11 29 -17 100q-5 66 -21 99q-6 11 -13 11zM68 133q1 0 8 17q-2 11 -13 11t-11 -11q0 -16 16 -17zM261 33l12 2l-9 8z" />
    <glyph glyph-name="p" unicode="p" horiz-adv-x="486" 
d="M381 520q-6 -1 -11 -1q-9 0 -25 6.5t-25 6.5h-3q-12 -10 -12 -31q0 -8 2 -20q2 -15 3 -20h4q17 1 36 -20q30 -33 31 -33q-7 -14 -39 -24.5t-40 -28.5q-4 -10 -21 -27.5t-20 -28.5q8 -2 15 -2q18 0 47.5 25t50.5 26q67 66 67 113q0 21 -24 34q-30 16 -36 25zM126 453l4 -3
q-1 1 -4 3zM193 303l1 -3q0 -7 -8 -10t-15 -6q-11 10 -31 14q-24 4 -33 9q-7 43 -7 46v2q9 13 10 50q1 34 16 48q-4 5 -4 11q0 7 9.5 20t9.5 22q6 10 19 15q21 10 22 11q4 -12 22.5 -11.5t22.5 -7.5h7q40 -2 68 41q2 -12 14 -12q8 0 16 5q-52 33 -67 33h-20q-14 -1 -20 -1
q-63 -1 -74 -2q-42 -2 -74 -11q-7 -6 -15 -23q0 -15 17 -20t17 -12q0 -5 -4 -13h-4q-18 1 -21 -27q-2 -32 -16 -37l23 -19q1 -4 1 -7q0 -9 -13.5 -15.5t-13.5 -14.5q0 -5 3 -11q15 -11 15 -24q0 -8 -8 -24t-8 -25q0 -5 1 -10q-9 0 -13 -12.5t-13 -13.5l15 -19q-1 -1 -1 11
q0 6 5 8q11 -16 11 -31q0 -10 -7.5 -28t-7.5 -28q0 -9 6 -22.5t6 -21.5q0 -6 -1.5 -18.5t-1.5 -19.5q0 -25 28 -26q1 -2 1 -5q0 -11 -7 -32.5t-7 -33.5q0 -19 13 -30q10 11 10 49q0 7 3 17.5t3 15.5q0 23 -19 23q21 5 21 26q0 5 -1.5 16.5t-1.5 17.5q0 17 12 26
q-11 13 -11 28q0 5 2 15.5t2 15.5q0 10 -5 20q24 13 71 22q51 10 72 19l-15 -15q17 6 25 17.5t16 23.5q-6 16 -17 16q-8 0 -22 -10t-20 -10t-9 8zM137 449q-2 3 -4 3q-2 -1 -3 -3v1q3 -4 4 -4q2 1 3 3z" />
    <glyph glyph-name="q" unicode="q" horiz-adv-x="507" 
d="M239 628q-5 0 -9 -2h1h1q3 0 7 2zM183 552l8 46q14 1 22.5 13.5t16.5 14.5q-4 1 -11.5 5.5t-12.5 4.5h-4q-17 -14 -44 -43q-30 -32 -44 -44q5 -16 16 -16q7 0 25.5 10.5t27.5 8.5zM110 523q0 1 1 4.5t1 5.5q0 5 -5 5q-3 -8 -3 -10q0 -5 6 -5zM306 589q-5 2 -12.5 11
t-16.5 9t-16 -20q4 -14 18 -14q17 0 27 14zM186 95q-5 -5 -9 -5q-7 0 -16 15t-16 16q-9 11 -9 18q0 8 15 16.5t15 16.5q0 7 -8 17q-11 5 -16 5q-6 0 -6 -7q0 -5 1.5 -13t1.5 -12q0 -13 -10 -16q-5 1 -6.5 4t-0.5 8q1 7 1 8v2l-24 -2q13 10 13 30q0 10 -4.5 29.5t-4.5 28.5
q-5 8 -10 8q-4 0 -9.5 -9.5t-10.5 -9.5q-1 0 -2 1q1 19 19 54t18 55q0 28 -8 29q-1 0 -4.5 -1t-5.5 -1q-7 0 -7 6q0 33 23 40h-17l7 12q-5 -3 -8 -3q-1 0 -4 1q4 3 4 8q0 2 -1 6v7q0 7 8 9q-20 3 -20 20l1 4l13 -11q6 5 6 10q0 3 -3 9.5t-3 10.5q0 6 6 11l-18 -8
q-12 -6 -12 -13q0 -4 2 -9q-8 -7 -8 -17q0 -5 2 -14.5t2 -13.5q0 -6 -2 -11q-7 0 -13 -14t-15 -16q-7 -7 -7 -15q0 -6 5.5 -15.5t5.5 -14.5q0 -9 -12 -17q15 -38 16 -41q12 -25 24 -36q-19 -20 -19 -62q0 -15 3 -28q15 0 16.5 -16t16.5 -18l-23 -14q4 -1 7.5 -7.5t6.5 -6.5
h1l4 9q9 -6 23.5 -29t28.5 -29q0 5 5 7.5t10 4.5h3q13 0 14.5 -20t16.5 -20q12 0 17 10q-7 9 -7 18q0 2 1 7.5t1 7.5q0 7 -5 16zM433 28l-22 42q-13 25 -13 44q0 12 4 24l5 -2q-6 3 -6 17t-9 13q1 30 22 78q24 52 26 77q-16 64 -16 121q0 33 6 60l-26 36q-16 19 -33 28
q-4 -1 -6 -9.5t-6 -8.5q-2 0 -4 1.5t-2 3.5t3.5 5.5t3.5 6.5q0 12 -14 17q-21 6 -23 7q6 -13 12.5 -27.5t20.5 -15.5q-6 -9 -6 -23q0 -39 30 -73q-13 -8 -15 -26q1 6 1 -33q0 -6 -3 -15.5t-3 -13.5q0 -18 17 -13l1 -5q0 -17 -11 -49t-11 -48q0 -7 1 -14q0 -2 -7 -24
q-5 -15 -14 -15q-3 0 -6 1q-7 62 -44 66q-7 -5 -14 -5t-14 4q8 3 8 11q0 -3 -8 23q-19 -2 -24 -16q-6 -21 -14 -27h4q18 1 22.5 -25.5t22.5 -25.5q22 -33 43 -66q24 -40 26 -72q20 -16 41 -32q25 -20 44 -27q-1 2 -1 4q0 3 5.5 9.5t5.5 11.5zM423 3q-1 -4 -1 -9
q0 -16 19 -37q1 3 11 14t10 18q0 17 -15 17q-3 0 -11 -2t-13 -1zM138 39q3 1 3 6q0 4 -2 7q-3 -3 -6 -11q1 -2 5 -2zM286 84q-10 -8 -10 -17q0 -7 9 -22t9 -23q0 -6 -3 -11q11 1 30 6q7 10 7 21q0 6 -13 46q-4 4 -9 4q-4 0 -10 -2t-10 -2zM198 34q6 -8 24 -18l6 16
q-5 4 -14 4q-6 0 -16 -2zM167 12q0 -4 12 -8l5 15q-2 2 -4 2t-5.5 -2.5t-5.5 -3.5t-2 -3zM212 -13l9 6q-1 3 -3.5 4.5t-4.5 1.5q-5 0 -5 -5q0 -4 4 -7z" />
    <glyph glyph-name="r" unicode="r" horiz-adv-x="520" 
d="M411 470q-15 -3 -17 -26q-2 -29 -5 -33q-16 -25 -65 -48q-39 -16 -78 -31q-15 7 -33 7q-13 0 -40 -5.5t-42 -5.5h-8q-7 19 -9 57t-6 55q-4 -4 -8 -4t-11 7.5t-8 8.5q8 4 16 4q10 0 14 -8q2 2 2 5q0 2 -1 7t-1 7v3q10 6 47 16q29 9 43 22q51 -40 93 -40q10 0 20 2
q5 8 13 8q6 0 18.5 -6t19.5 -6q9 0 16 8q-1 7 -12 18t-11 17t8 14q-6 11 -16 11q-6 0 -17 -4.5t-17 -4.5q-7 0 -13 5q-4 -12 -19 -11q-18 0 -22 -3q-7 6 -23 14t-23 16h-2q-12 0 -12 -9q0 -5 7 -7q-6 -3 -13 -3q-16 0 -28 11q7 4 7 12q0 9 -7 18q-13 6 -23 36q-8 25 -26 25
q-5 0 -11 -1q-4 -4 -4 -8q0 -2 1 -6.5t1 -6.5q0 -5 -6 -9h-2q-9 1 -14 -12t-18 -11v-4q0 -4 3.5 -9.5t4.5 -8.5q-19 -18 -49 -60q14 -6 28.5 -12.5t16.5 -21.5q-7 -11 -7 -28q0 -9 3.5 -28t3.5 -28q0 -16 -7 -24q2 -6 2 -12q0 -11 -8.5 -22.5t-16.5 -22.5q2 -12 10 -49
q7 -31 7 -50q0 -10 -2 -21q-19 -18 -17 -57q2 -43 -9 -59q11 -6 12 -15q-1 7 -1 -20q0 -11 8 -17q51 43 51 88q0 14 -5.5 41t-5.5 40q0 21 9 37q-1 4 -1 7q0 20 27 30q40 15 41 15q16 12 31 12q7 0 19.5 -2t16.5 -2q-1 -4 -1 -8q0 -8 9 -25.5t7 -30.5q29 -25 51 -72l36 -82
q12 -15 25 -32t31 -16h4q3 6 11 18q-9 19 -74 141q-45 85 -65 144q2 1 4 1q4 0 11 -8h5q39 -1 100 56q1 3 1 4q0 4 -7 7t-9 8q4 0 12 3.5t12 3.5q6 0 10 -3l-11 -8q2 -14 15 -14q14 0 22 14l-3 4q18 9 48 34q1 32 -64 59zM269 542l7 11q0 4 -4 4q-3 0 -3 -5v-1q0 -10 0 -9z
M370 141h-7l-4 -8zM33 28q0 -2 -1.5 -5.5t-1.5 -4.5q0 -3 3 -3q1 0 4 1v6q0 4 -4 6z" />
    <glyph glyph-name="s" unicode="s" horiz-adv-x="475" 
d="M47 409l-18 -12q-1 -4 -1 -7q0 -13 22 -20q26 -7 31 -17q3 -1 5 -1q4 0 6.5 7t4.5 8q1 -22 28 -32q35 -13 43 -23q13 10 13 22q0 11 -14 28l-22 24q-6 4 -14 4q-5 0 -15.5 -2.5t-15.5 -2.5q-4 0 -7 1l7 15q-11 3 -30 15l45 38q1 3 1 5q0 5 -4.5 11.5t-4.5 10.5l1 3
q6 4 50 8q34 4 43 29q-1 1 18 1q9 0 12 -8l-11 -8q13 -4 28 -4q13 0 33 3q24 4 33 5q6 -22 30 -23q29 -2 37 -11q17 9 23 19v4q1 14 -17.5 29.5t-18.5 22.5q0 4 2 8q-7 3 -15 3q-12 0 -29 -9q-26 -13 -27 -13q-7 24 -32 26q-40 3 -43 4q-13 6 -20 6q-10 0 -29.5 -7.5
t-29.5 -7.5q-12 0 -22 9q-6 -2 -49 -38q-4 -10 -4 -22q0 -27 19 -30q-5 -5 -10 -5t-15 12t-17 12q-5 0 -11 -4q-8 -12 -8 -47q0 -13 -3 -24q4 -6 22 -15zM63 521q-3 4 -6 4q-10 0 -10 -13v-2zM351 315q-5 22 -28 30q-21 4 -43 8q-6 4 -14 4q-6 0 -17 -3.5t-17 -3.5
q-9 0 -16 6q-18 -27 -18 -32t3 -9q24 -6 72 -19q2 1 6 1q7 0 21.5 -2.5t22.5 -2.5q25 0 28 23zM66 349v-15h3q5 1 8 7q-11 8 -10 8h-1zM205 296v-11h2q6 0 6 6l-1 1q-4 5 -5 5zM314 248q-1 -8 7 -8q11 0 15 8q-6 6 -12 6t-10 -6zM372 292q-7 0 -16.5 -8.5t-14.5 -8.5
q-4 0 -8 3q-3 -4 -3 -8q0 -3 2 -8.5t1 -10.5l33 4q19 19 19 25q0 4 -4.5 8t-8.5 4zM295 274l-8 7v-15zM389 248q-3 1 -2 9q-1 2 -6 2q-5 -18 -32.5 -21.5t-34.5 -23.5q7 -10 21 -39q11 -24 24 -36q2 1 5 1q2 0 7 -2.5t7 -2.5q7 0 7 11q0 1 -4 15q15 7 27 32q14 29 22 36
q-1 8 -7.5 18.5t-13.5 10.5q-4 0 -10.5 -5t-9.5 -5zM77 83q2 -12 12 -12q12 0 19 12v3q-21 4 -19 4q-8 0 -12 -7zM138 124q-5 -5 -5 -8q0 -4 10 -9.5t10 -12.5l11 7q-1 8 -7.5 16t-14.5 8q-2 0 -4 -1zM321 131q2 4 12 4q-1 16 -16 42q-8 2 -14 2q-18 0 -26 -27
q-9 -33 -19 -39h-2q-4 -1 -6.5 5.5t-6.5 6.5q-2 0 -4 -1q0 -12 -15.5 -19t-18.5 -15q-7 -4 -15 -4q-7 0 -19.5 3.5t-17.5 4.5q-7 5 -12 5t-12 -9t-14 -9q-4 0 -7 2q-1 -18 33 -53q20 -3 40 -3q68 0 106 26q21 14 21 42q0 6 -2 10h5q15 -1 25 8q2 3 2 5q0 4 -17 13zM119 113
q-24 25 -48 25q-10 0 -28 -7t-18 -15q0 -19 31 -19q9 0 27 8.5t36 7.5zM74 64q-3 1 -4 1q-4 0 -4 -5q0 -10 0 -7q1 -1 2 -1q6 0 6 10v2zM71 4q14 0 14 12v3q-3 4 -9 4q-14 0 -14 -13l2 -3t7 -3z" />
    <glyph glyph-name="t" unicode="t" horiz-adv-x="555" 
d="M386 463q-2 0 -21 8q-13 6 -21 6q-13 0 -22 -11q-2 8 -8 23q-6 -9 -19 -9q-12 0 -18 9l30 11q0 43 -64 68q7 8 23 18q-2 13 -15 30q-12 -9 -29 -51q-13 -32 -43 -35q10 -21 30 -26q-5 -14 -10 -27q-8 -17 -20 -18q9 1 -40 1q-81 0 -128 -24q10 -8 75 -30q17 5 38 5
q8 0 25 -1t26 -1h12q8 1 11 1q19 0 19 -30q0 -17 -2 -51t-2 -51q0 -23 1.5 -69.5t1.5 -69.5q0 -62 -7 -97q-1 -6 -1 -7q0 -13 15 -24q22 -15 24 -17v15q0 26 5.5 76.5t5.5 76.5q0 22 -3 42l15 19q0 -4 0 78q0 31 -12 68q-1 5 -1 11q0 18 26 27q21 7 43 14q5 3 33 6
q22 1 31 17q-4 1 -4 16v3zM487 459q8 8 8 12v3q-5 0 -14.5 3t-14.5 3q-10 0 -17 -10l-22 15q-3 -5 -16.5 -8.5t-13.5 -12.5v-1q13 -17 42 -16h10q2 1 7 7t9 6q1 0 3 -1q6 -19 29 -19q10 0 19 5.5t9 9.5q0 1 -1 4q-4 4 -10 4q-4 0 -11.5 -2.5t-10.5 -2.5q-2 0 -5 1zM240 -21
v-5q0 -6 -3 -16.5t-3 -15.5q0 -8 6 -12q24 3 22 30q5 5 5 10q0 11 -19 11q-5 0 -8 -2z" />
    <glyph glyph-name="u" unicode="u" horiz-adv-x="562" 
d="M449 605q-2 1 -4 1q-16 0 -16 -8q0 -3 5 -8zM349 461q0 3 -2 6v-1v-1q0 -2 2 -4zM490 137q-5 -1 -10 -1q-25 0 -56.5 32t-42.5 33q25 5 47 43q21 35 21 63q0 15 -7 42.5t-8 38.5h15q-8 7 -8 17t11 32q-19 5 -19 31q0 44 1 40q22 16 22 29q0 7 -6.5 21.5t-4.5 24.5
q-3 -1 -7 -1q-12 0 -16 8h-4q-11 0 -14 12q-19 0 -25.5 -19.5t-19.5 -19.5q-5 0 -12 1q0 -10 8 -20.5t15 -20.5q-11 -9 -11 -40q0 -15 -8 -24l-2 2q1 -4 1 -8q0 -10 -4.5 -27.5t-4.5 -27.5q0 -22 21 -36q0 -6 -8.5 -11t-9.5 -12q-4 -21 -11 -103q0 -4 -2 -16.5t-2 -18.5
q0 -21 37 -27q-11 -6 -28.5 -24t-27.5 -25q-1 -18 -41 -67q-14 0 -37 -9q-27 -11 -27 -22q0 -10 11 -18q8 2 15 2q17 0 46.5 -12t45.5 -12q14 0 21 3q13 7 48 45t34 49q8 -3 15 -3q12 0 30.5 14t29.5 16q1 3 8.5 13.5t7.5 15.5t-5 8q-2 -3 -11 -4t-11 -7zM108 546
q-10 6 -10 14q0 2 2 4q-1 1 -6 7t-9 6q-2 -1 -4 -1q-16 -21 -16 -29q0 -20 16 -20q22 0 27 19zM25 395q17 -52 45 -56q7 5 15 23q3 -2 4 -7t3 -5t4 1q2 13 13 58q8 36 8 60q0 38 -15 38q-5 0 -13.5 -4t-9.5 -4q-2 0 -2 1h-2q-15 1 -22 -17q-8 -23 -13 -28v-18q1 -11 11 -12
q2 -5 2 -9q0 -16 -28 -21zM70 189q6 -6 14 -6q11 0 16 10q-10 8 -10 22q0 8 4 23t4 23q0 16 -17 22q8 2 8 12.5t3 13.5q-11 15 -26 15t-22 -15l-1 -4q0 -6 4 -16.5t4 -15.5q0 -8 -7 -16q4 -5 4 -32q0 -30 22 -36zM460 257l11 11l-10 8h-1q-6 -17 -6 -13q0 -3 6 -6zM115 84
q14 7 14 20q0 9 -7.5 25.5t-7.5 25.5q0 4 1 8q-32 8 -33 8q-8 0 -12 -4q1 -6 1 -10q0 -8 -12 -24q2 -3 19 -20q13 -13 13 -21q0 -4 -2 -8q3 -4 6 -4t7.5 4t7.5 4t5 -4zM460 155q6 -8 16 -7h3q1 1 6.5 6t5.5 9q0 2 -1 4q-5 4 -11 4q-16 0 -19 -16zM179 92q5 -16 19 -15v4
q0 15 -8 26zM36 84q3 -1 9 -10.5t11 -9.5q19 0 19 9q-1 2 -1 4q1 9 -5.5 16.5t-16.5 7.5q-13 0 -16 -17zM122 58q-1 -3 -1 -5q0 -9 13 -17.5t13 -13.5q0 -4 -6 -9q6 -8 16 -8l3 1q3 5 15 12.5t11 17.5q-12 28 -43 28q-12 0 -21 -6zM96 43q-4 -4 -4 -9q0 -13 16 -17l6 3.5
t6 7.5q0 1 -1 4q-2 12 -18 11h-5z" />
    <glyph glyph-name="v" unicode="v" horiz-adv-x="508" 
d="M78 472l22 6q-1 12 -21 20.5t-25 16.5q-10 -1 -10 -10q0 -2 1 -6.5t1 -6.5q0 -9 -11 -9q6 -37 43 -76q41 -43 49 -73q16 1 16 27q0 39 -18 64q-7 10 -47 47zM70 580q-7 4 -13 4q-11 0 -19 -17q-7 -12 -13 -25q8 -2 14 -14.5t15 -12.5q23 0 23 20q0 6 -5 21.5t-2 23.5z
M441 658q-1 -4 -7 -6t-6 -4t3.5 -4t16.5 -12q3 -4 6 -4q7 0 9 19q-13 12 -17 12q-3 0 -5 -1zM373 570q0 -8 6.5 -18t14.5 -10q6 0 15.5 10t12 13t2.5 7q0 19 -28 19q-23 0 -23 -21zM370 528q-39 -54 -81 -164q-47 -121 -75 -167q-2 8 -20 38q-14 23 -11 41q-19 4 -45 33
q-8 1 -12.5 -8.5t-11.5 -9.5q1 -4 12 -22q8 -14 8 -23t-6 -17l33 -27q1 -19 13.5 -58.5t12.5 -60.5q0 -17 -5 -33q13 -2 39 -11q54 41 54 120q0 13 35 106q22 58 43 116q29 81 36 141q-5 6 -14 6h-5zM259 54q9 0 9 10l-2 3.5t-5 3.5q-5 0 -5 -11q0 -3 1 -4.5t2 -1.5z" />
    <glyph glyph-name="w" unicode="w" horiz-adv-x="932" 
d="M854 637q-3 -4 -3 -8q0 -2 1 -5t1 -5q0 -5 -7 -12q-2 6 -7 6q-3 0 -10.5 -5t-12.5 -5q5 -3 5 -7q0 4 -3 -9q1 -2 6 -3q-23 -6 -28 -45q-5 -47 -17 -60l-4 4l4 -26q-13 -14 -20 -19q-13 -10 -25 -11q0 6 0 -45q0 -26 -4 -38q-14 1 -17 -17.5t-17 -19.5q-1 -3 -1 -7
q0 -8 8 -18q11 -13 12 -16q-18 -27 -66.5 -59.5t-64.5 -56.5q-14 12 -14 27q0 6 3.5 18.5t3.5 19.5q0 14 -12 24q-2 1 -3 1q-4 0 -12 -8q-6 8 -10 37q-3 26 -12 30q-3 4 -6 4q-2 0 -6.5 -3.5t-6.5 -3.5q3 -3 3 -5q0 -3 -3.5 -6.5t-3.5 -5.5q0 -3 7 -6q-2 -1 -4 -1
q-6 0 -13.5 14.5t-15.5 14.5q-4 0 -8 -2q4 -27 40.5 -77t38.5 -84q4 -1 20 -10q12 -6 21 -6q4 0 8 1l-23 -19q1 -19 19.5 -40.5t18.5 -37.5q0 -8 -4 -19q5 -1 9 -1q14 0 36 20q1 3 -1 16q-1 8 9 11q2 6 3 11q4 12 3 12q-14 0 -14 10q0 13 4 22q23 15 23 42q0 5 -4 37
q4 -2 10.5 -11t12.5 -9q3 0 7 1q5 13 9 41.5t9 41.5q-4 4 -4 9q0 8 18.5 22t19 22t3.5 26q10 51 53 90q5 15 5 27q0 17 -9 25q18 24 38 85q18 56 37 76zM501 596q4 2 4 8v3h-11v-3q0 -8 7 -8v0zM513 345q0 5 -2 14.5t-2 14.5q0 11 7 19q-8 17 -16 33t-29 20q9 7 9 14
t-10 17.5t-10 16.5t8 12q4 36 4 39q0 20 -12 32q-24 -27 -59 -114q-31 -75 -72 -103q8 -16 25 -16q33 0 31 0q2 4 17 17q11 10 9 21q14 -10 29 -22t16 -27q19 -11 35 -11q22 0 22 23zM314 191l-4 26q-5 -5 -9 -5q-3 0 -6 10.5t-10 11t-12 0.5q-14 0 -29.5 -18t-27.5 -21
q3 5 3 10q0 12 -18 30t-18 32t-6 35q-8 27 -9.5 35.5t-5.5 26.5q-23 57 -84 67l8.5 8.5t10.5 2.5q-13 13 -12 43q1 36 -4 47q-2 1 -19 20q-12 13 -22 13q-5 0 -11 -3q6 -16 11 -50.5t11 -50.5q-5 8 -14 8q-8 0 -12 -8q39 -71 38 -120q15 -34 52 -98q-7 -1 -15.5 -2.5
t-10.5 -8.5l26 -26q5 5 5 12q0 11 -9 21q3 1 5 1q6 0 14.5 -11t18.5 -8q-17 -11 -20 -45t-18 -45q32 -49 48 -66q31 -33 69 -39q12 17 12.5 56t17.5 56l7 -7q15 3 15 15q0 4 -2 12.5t-2 13.5q0 7 4 12q-5 2 -5 9t5 16q5 -15 20.5 -18.5t20.5 -14.5q8 8 8 12v3h-15zM284 187
q-1 -1 -4 -3q2 -1 4 -1h1h3zM374 307q11 7 22 13q15 9 15 18q0 5 -3 10q-14 -2 -21 -15t-13 -26zM306 262q1 1 10 9q6 5 6 10q0 15 -18 15h-9q-12 -9 -12 -21q0 -10 8 -11.5t15 -1.5zM659 269l-8 8v-15q1 -1 2 -1q2 0 2.5 4t3.5 4zM340 255q-1 -2 -12 -17q-7 -10 -7 -19v-2
q7 -8 12 -8t12.5 12.5t13.5 14.5q1 4 1 7q0 6 -7 8t-13 4z" />
    <glyph glyph-name="x" unicode="x" horiz-adv-x="483" 
d="M355 25q11 1 11 25q0 61 -46 146q-51 95 -58 140q18 9 36 34q13 22 27 44q6 8 19 24q6 8 8.5 38t13.5 44q-4 11 -21 11q-11 0 -16 8q-44 -74 -98 -135q2 -1 -11 -1q-5 0 -8 4q7 10 7 18q0 7 -8.5 16.5t-8.5 16.5t7 17q-14 8 -20 38.5t-21 39.5q-4 1 -9.5 -1t-9.5 -2
q-5 0 -8 7q6 6 9 31q2 20 18 22q-4 7 -10 7q-2 0 -7 -1.5t-8 -1.5q-10 0 -10 11q0 3 4.5 7t3.5 8q-2 -1 -5 -1q-6 0 -18.5 9.5t-17.5 9.5q-7 0 -11 -11q4 -3 4 -7q0 -1 -8 -19q10 -19 34 -52q2 -4 2 -7q0 -6 -11 -8t-13 -4q5 -7 8.5 -24.5t9.5 -24.5q-3 -3 -13.5 -3
t-12.5 -8q36 -27 56 -79q-14 -7 -14 -16q0 -8 12.5 -23t12.5 -27q0 -8 3.5 -22.5t3.5 -22.5q0 -13 -14 -9q-5 -26 -44 -64.5t-39 -57.5q0 -15 11 -24q56 22 70 31q37 22 51 55q13 -5 37 -19q2 -32 53 -71q5 -19 5 -18q0 -8 -9 -8q11 -7 29 -53q16 -38 46 -41zM359 21v0v0v0z
M359 21l-15 -15q5 -11 11 -24t19 -13q21 10 21 25q0 5 -2 9v3q0 11 -13 12q-19 1 -21 3zM377 606q6 -10 6 -17q0 -6 -7 -15.5t-7 -16.5q0 -6 5 -15q14 8 15 27q4 3 8 3q7 0 11 -7q30 23 30 50v2q-8 7 -18 7q-17 0 -43 -18zM385 535l12 -15l14 15q-1 10 -8 10q-8 0 -18 -10z
M48 137q1 -3 1 -7q0 -3 -2.5 -10t-2.5 -10q0 -14 21 -14q5 0 5 24q0 12 8 17q-5 6 -11 6q6 0 -19 -6zM25 47q3 -7 9 -7q8 0 21 19q-5 7 -10 7q-4 0 -10.5 -8.5t-9.5 -10.5zM403 40h-5q-4 0 -6 -4q8 -8 10 -8q3 0 5 4q-5 5 -4 8z" />
    <glyph glyph-name="y" unicode="y" horiz-adv-x="403" 
d="M115 497q-8 -3 -8 -11q0 -7 8 -12q10 10 10 23q0 10 -8.5 32t-5.5 35q-11 13 -18 39q-9 30 -15 40l10 11l-22 11l12 12l-12 11q-3 1 -6 1q-11 0 -20 -13.5t-15 -13.5q4 -12 18 -76q10 -48 31 -70l-15 -8q3 2 7 2q7 0 20 -8t20 -8q4 0 9 3zM332 632q2 -3 2 -7
q0 -7 -3 -20.5t-3 -21.5q-19 -21 -52 -87q-29 -58 -60 -82q4 -5 4 -9q0 -7 -11 -16.5t-11 -15.5q0 -5 7 -11q5 5 10 5q6 0 12 -9q21 27 53 30q22 27 41 68l30 74q-4 9 -4 20q0 12 5.5 33.5t5.5 29.5q-2 2 -7.5 12.5t-9.5 10.5t-9 -4zM186 260l8 -7q5 16 5 33l-5 53
q-7 -12 -21 -12q-9 0 -17 5q3 -1 5 -1q6 0 13.5 10.5t13.5 10.5q3 0 6 -1q-15 16 -34.5 54t-33.5 54q-5 -2 -9 -2q-6 0 -15 4.5t-13 4.5q-8 0 -15 -11l11 -18l3 7q19 -2 32 -22q16 -25 25 -30q-15 -3 -16 -19q-2 -24 -3 -26q4 -8 17 -8q5 0 9 -4q-16 -18 -16 -47
q0 -15 5 -43t5 -43q0 -33 -20 -54q6 -10 6 -22q0 -13 -8.5 -37t-8.5 -37q0 -18 15 -32q5 -1 10 -1q17 0 19 25q3 31 8 37q12 -2 12 -6q0 -3 -4 -8.5t-4 -8.5q0 -5 8 -7q14 4 18 18q-8 2 -13 20q-5 14 -20 10q19 5 30 19q1 6 2 54q0 33 13 51h-5q-22 0 -22 25q0 7 4 12z
M212 317l23 3q3 7 3 12q0 7 -8 7q-6 0 -14 -5t-8 -11q0 -4 4 -6zM115 13v-30q25 7 30 23q-3 8 -13 8q-19 0 -17 -1z" />
    <glyph glyph-name="z" unicode="z" horiz-adv-x="531" 
d="M153 540v5q14 -10 47 -13q25 -1 50 -3q13 6 31 6q8 0 25 -2t26 -2q26 0 42 17q17 -3 50 -15q2 2 13 11q8 7 8 14q0 2 -1 6q-27 4 -63 4h-36q-25 -1 -37 -1q-34 0 -58 4q2 1 8.5 4t10.5 3q6 0 8 -7l12 16q-5 0 -15 1t-15 1q-26 0 -25 -18q-18 5 -46 5q-69 0 -58 -1
q-1 0 -37 -9q-20 -5 -29 -22q34 -12 56 -12q18 0 33 8zM471 575l-16 -19q4 -8 14 -8q11 0 17 8q0 1 -6 12q-3 7 -9 7zM405 475q4 5 22 14q15 7 17 17q-8 12 -15 12q-6 0 -17 -12t-18 -12q-6 0 -12 8v-2q0 -4 -6.5 -7t-6.5 -4q0 -3 5 -7q3 5 10 5q13 0 21 -12zM393 463l-31 4
q-3 2 -3 15q0 9 -8 8q-4 -3 -4 -7q0 -6 11 -16h-6q-14 0 -40 -8q-13 -19 -48 -52.5t-49 -55.5q0 -3 -2 -9t-2 -8q0 -8 8 -10l50 14q38 13 38 23q0 5 -4.5 13t-4.5 13q0 4 2 6q13 -6 23 -6q22 0 40 30q26 42 30 46zM188 397l12 -11q4 5 4 6q0 5 -6 5q-12 0 -10 0zM389 118
q-18 6 -77 35l4 -4q-35 -6 -39 -23h4q6 0 8 -4q-9 -6 -18.5 -12.5t-20.5 -6.5q-1 0 -3 1q-19 7 -47 7q-11 0 -32 -1.5t-31 -1.5q-24 0 -38 7q4 6 12 9q14 5 15 6q-5 4 -10 17t-13 18q12 12 55 28q37 13 45 35q1 4 4 22q1 3 3 11t2 13q0 19 -16 19q-9 0 -17 -11
q-9 -14 -14 -17l-12 12q0 6 4 6q2 0 8 -2q-2 6 -10 6t-24 -6q-20 -7 -24 -8q-17 -19 -24 -67q-9 -53 -19 -72q1 -9 14 -25t13 -25q0 -6 -4 -12q-11 2 -17 17t-10 18l-35 -23q0 2 0 -14q0 -7 4 -10q4 1 8 1q5 0 13.5 -1t13.5 -1q18 0 27 17l12 -16h9q59 0 172.5 23t170.5 24
q-19 15 -62 38zM196 138q11 -9 37 -8t36 -8v4q1 15 -17 18q-14 3 -29 5q-3 16 -7 16q-3 0 -9.5 -12.5t-10.5 -14.5zM142 138q-8 -8 -8 -11t4 -5h5q7 0 7 6q0 2 -4 5.5t-4 4.5z" />
    <glyph glyph-name="braceleft" unicode="{" horiz-adv-x="413" 
d="M167 160q2 -1 6 -4q-3 5 -6 4zM354 601q-33 2 -65 5q-40 3 -62 18q-14 -6 -23 -7h-23q0 -10 1 -31q0 -12 3 -11q-3 -1 -13 -7t-15 -6t-8 3q-23 -4 -29 -36t-20 -39h10q7 -10 7 -15q0 -4 -10.5 -9.5t-9.5 -17.5q7 2 14.5 -4.5t7.5 -13.5q0 -5 -3 -8l-10 10q-3 -3 0 -18
q3 -14 -6 -21q-10 -7 -20 0l9 -13q6 -9 11 -9q3 0 6 2q2 -4 -2 -8.5t-7 -7.5q4 -13 14 -14t18 -3q10 -5 9 -12q-1 -9 -2 -17q-7 2 -20 13q-8 0 -2 -27q9 -39 41 -51q-4 -23 -42 -36q-1 -3 6 -10q-3 -10 -14 -16.5t-22 -12.5q2 -10 -9 -32q-12 -25 -13 -33q-6 6 -10 6
t-10 -14.5t-16 -11.5q14 -6 23.5 -37t34.5 -38l-16 -3q3 -8 11.5 -5.5t11.5 -0.5q-5 -6 -15.5 -8.5t-13.5 -4.5q-6 -5 -6 -11t8.5 -21t8.5 -22q0 -5 -3 -9q10 10 14 -2l-6 -7q2 -4 18 -8q13 -4 15 -15l9 10q10 -10 10 -28q0 -19 -10 -34q5 -3 19.5 -0.5t20.5 -2.5q-2 2 -2 4
q0 6 13 9q12 2 18 0l-3 -30q8 -4 21 -1q18 3 21 3q8 0 16 -5q11 8 47 10q30 2 41 20q-8 3 -20 3t-34 -4.5t-31 -4.5q-7 0 -12.5 2.5t-6.5 7.5q0 6 6 8q-4 3 -8 -1l-8 -8q-35 -4 -43 38q-9 47 -32 53q-8 -15 -20 -3q0 7 9.5 9t11 4.5t1.5 5.5q0 9 -14.5 31t-13.5 34
q1 0 -10 2q-6 1 -9 -5v13t9 10l10 -10l8 14t12 6q-2 14 -3 17.5t-7 11.5q-4 5 -4 11q0 9 13 29.5t14 28.5q4 -1 9.5 3.5t8.5 4.5q-5 3 -2 8q24 11 58 42q38 35 56 46q-8 5 -16 29q-13 -6 -31 -6q-11 0 -31.5 3t-29.5 3q0 4 4.5 6t5.5 4q-9 11 -23 29q19 43 27 39l-6 10
q-3 6 2 10q7 -7 7 -10q6 6 6 9t-10 6t-12 10t-2 16q0 27 14.5 65t29.5 54q-4 2 -8.5 5t-1.5 8q14 -2 33 15.5t29 16.5q24 -2 23 -22q27 12 72 6q7 5 7 10q0 4 -8 11t-8 12q0 3 2 6zM227 536q9 -1 19 3q-2 7 -11 7q-12 0 -8 -10zM240 526q-8 -6 -3 -13q8 0 9 4q0 -1 -6 9z
M217 500q10 -9 13 -3q-11 7 -13 3zM90 406q2 6 -3 16q-11 -7 3 -16zM77 383q-5 1 -13 -4h13v4zM38 24q-6 -2 -5 -7q2 -5 8 -2q0 8 -3 9zM136 11v7h-7v-7h7zM119 -129q-13 10 -19 10q-5 0 -3 -10q2 -9 13 -9q8 0 9 9z" />
    <glyph glyph-name="bar" unicode="|" horiz-adv-x="169" 
d="M48 503q-16 -22 -16 -52q0 -12 12 -70q8 -43 -3 -67q-8 -8 -8 -15t13.5 -17.5t15.5 -18.5q-15 -2 -15 -19v-8.5v-7.5q0 -16 -11 -21q6 -24 13 -48t37 -29q6 10 19 9q8 16 8 29t-10 31t-10 30q0 11 5 24q-4 -2 -6 -2q-7 0 -12 13.5t-14 10.5q3 10 22.5 17t19.5 16
q0 4 -4 11q-11 2 -13 20v28q21 -2 31 12q-14 7 -14 21q0 8 9 10q-4 1 -9.5 -3.5t-7.5 -4.5q-4 0 -6 4l15 16q-6 45 -26 59q16 44 12 116q-4 81 2 112q2 12 2 20q0 27 -24 43q-15 -5 -18 -32.5t-19 -23.5q-5 -27 -1 -91q4 -59 -6 -91q8 -2 8 -15.5t9 -15.5zM103 -5
q-1 33 -5 100q-10 8 -16 8q-9 0 -10 -24.5t-8 -27.5q-24 10 -27 10q-8 0 -12 -7q0 -14 15 -18q12 -3 25 -5q7 -15 7 -29q0 -12 -8.5 -35t-7.5 -39q7 -4 16 -23q13 -9 20 5l-12 7q11 -1 18 9t13 19q-6 19 -8 46l1 -4q13 -2 20 8q-19 12 -21 0z" />
    <glyph glyph-name="braceright" unicode="}" horiz-adv-x="290" 
d="M42 272l3 4q9 -4 13.5 -18.5t6.5 -16.5l-12 -14q13 -15 34 -9q-6 -6 5 -23q8 1 14 22q10 -2 27 -1q0 -3 4 -9t4 -9q0 -5 -6 -8q-4 11 -11 11q-6 0 -19.5 -10t-20.5 -10q13 -5 19.5 -27.5t18.5 -23.5q0 8 11.5 12.5t12.5 6.5q-15 -2 -20 10q13 12 10 28q6 1 11 -9t14 -12
q-2 -7 -5 -7q-2 0 -6.5 4.5t-6.5 4.5q-3 0 -5 -4q9 -5 18.5 -11.5t7.5 -15.5q4 0 9.5 6.5t8.5 6.5t7 -4q0 -2 -4 -8t-4 -9q1 -5 9.5 -5t8.5 -6q2 15 15 20t16 19q-8 3 -12 20t-2 28l-26 4q-18 4 -18 14q0 3 2 7q-4 -3 -7 -3q-4 0 -12 8.5t-15 7.5q2 10 0 29q7 -2 13 -4
q0 10 -12 13q-16 3 -19 6q-1 11 9 21q14 12 16 17q8 -1 19 15.5t11 26.5q0 3 -1 4q19 0 33 21q19 30 23 34q-8 9 -8 22q0 3 7 35q5 20 -5 31l15 15q-3 5 -6 5q-2 0 -6.5 -5t-6.5 -6q1 4 -2.5 12t-3.5 12q0 5 6 9q-16 8 -19.5 30.5t-16.5 31.5q-7 -4 -12 -2l3 -5
q-6 -9 -19 -9q-12 0 -24 7q14 -1 14 8q0 2 -3 12q-2 7 -1 11q-20 -12 -18 -12q-4 0 -7 6q2 7 4 13q2 9 -4 13q-11 -7 -30 -7q-24 -1 -31 -3q3 -6 8.5 -3t8.5 -1q-3 -11 -8 -11q-3 0 -9 3.5t-9 3.5q-4 0 -6 -3q9 -11 19 -22.5t12 -26.5h30q-4 -16 7 -21t22 -9q-5 -9 -5 -18
q0 -11 9.5 -30.5t9.5 -29.5t-7 -19q-2 -2 -7 2q5 -5 10 -26q4 -16 21 -17q-11 -26 -24 -22q-16 -26 -12 -44l-8 12q-9 -10 -23 -34l15 -9q-3 -1 -9 -10.5t-11 -9.5q-2 0 -5 1q1 -1 4.5 -5t3.5 -6q0 -3 -3 -4q-3 0 -8.5 3t-11.5 1q-36 -11 -30 -23zM174 616q-3 3 -7 4
q3 -3 7 -4zM153 268l1 -1v0v0zM167 620q-4 4 -12 11l-1 -5q-1 -6 1 -8q1 0 5 1t7 1zM151 418q-21 7 -24 7q-10 0 -12 -11q3 0 12.5 -3.5t13.5 -3.5q9 0 10 11zM214 -28q14 19 20 52q6 28 11 56q-10 1 -27 16.5t-25 14.5q-3 -1 -15 -15q-6 4 -2.5 15.5t-3.5 12.5t-18 15
q-4 -7 -4 -14t6 -19t6 -19q0 -9 -7 -20l19 -1q-7 -4 -7 -10q0 -3 3 -9.5t3 -9.5q0 -4 -4 -7l-11 8v-18q-1 -8 -10 -15l11 -9q0 -6 -8.5 -8.5t-9.5 -6.5q8 0 9 4q5 -5 5 -12t-8 -19.5t-8 -17.5q0 -4 4 -7q-19 -24 -62 -66q12 -9 5 -12q-13 0 -29 -23t-32 -23q48 1 46 2
q56 23 146 133l-17 4q0 11 7 34z" />
    <glyph glyph-name="asciitilde" unicode="~" horiz-adv-x="447" 
d="M215 397l-24 10q-28 0 -55 1q-33 -2 -52 -16q-12 -24 7 -28q-3 1 -7 1q-12 0 -27 -13q-22 -19 -24 -20q-1 -8 2 -18q6 -15 6 -16q5 -3 12 -3q10 0 27 8q13 7 27 13t19 32q3 -3 12 1t13 4q3 0 6 -1q3 -17 20 -28l31 -14q5 -3 16.5 -9.5t30.5 -6.5q25 0 62 12q2 7 -8 14
q2 0 7.5 3t7.5 3q4 0 6 -6q27 -5 38 33.5t34 36.5q-6 1 -11 1q-20 0 -50.5 -25.5t-48.5 -25.5q-33 0 -77 57zM336 375q-6 7 -9 7q-1 0 -4.5 -6.5t-10.5 -4.5q3 -2 6 -2t8.5 3.5t9.5 2.5zM30 294q4 2 -3 14q-3 -2 -1 -8q1 -5 4 -6zM31 287q-6 -1 -6 -6q0 -3 3 -5q4 -2 6 1
q1 4 -3 10z" />
    <glyph glyph-name="DEL" horiz-adv-x="861" 
 />
    <glyph glyph-name="Adieresis" unicode="&#xc4;" horiz-adv-x="692" 
d="M503 355q-12 39 -68 48q-9 -2 -17 -3.5t-15.5 -10t-7.5 -11.5t6 -7.5t6 -8.5q0 -3 -2 -7l-3 11q-5 -7 -14 -20q13 -6 35 -35q-48 -18 -114 -17h-6q-4 6 -4 14q0 10 7.5 29.5t7.5 30.5q0 6 -2 12q14 14 22 51q7 34 24 47q0 -9 8 -9h14h2q-2 -4 -2 -9q0 -10 10 -23
q15 -21 15 -22q9 2 14 9q-7 11 -18 11q-3 0 -7 -3q-1 2 -1 4q0 3 5.5 8t6.5 6q1 -12 13.5 -13.5t16.5 -9.5q7 7 7 15q0 5 -3 15t-2 18q-3 7 -21.5 10t-24.5 11q5 11 8 34q4 28 6 36q-4 1 -11 8t-14 6q1 0 2.5 4.5t5.5 2.5q-4 1 -10 7t-9 6q-4 0 -8 -6q2 4 2 7q0 9 -12 27
t-12 30q0 4 1 8q-6 4 -12 4q-12 0 -37 -22l26 -10q1 -5 -5.5 -5t-8.5 -4q1 -6 1 -13q0 -18 -5 -54.5t-5 -54.5q0 -27 8 -48q-3 -11 -12 -20q-13 -13 -15 -17q-8 -13 -17 -56q-6 -30 -13 -60q-59 -20 -179 -53q-4 3 -9 11q-2 1 -5 1q-6 0 -13 -6q-10 -8 -11 -9q-3 -4 -3 -7
q0 -4 6 -9t7 -9q22 17 44 17q5 0 9 -1q1 -12 2 -13q2 -5 10 -6q22 -3 24 -3q23 0 36 15q12 -1 31 -12q-7 -18 -14 -35q-8 -21 -8 -36q0 -6 1 -12q2 1 3 1q3 0 5 -4.5t5 -5.5q-6 -9 -24.5 -14t-25.5 -15q12 -3 12 -8q0 -3 -3.5 -9t-3.5 -10t2 -7q-4 2 -8 2q-5 0 -7 -4l2 1
q10 0 10 -7q0 -3 -2 -10t-2 -10q0 -9 8 -9q2 0 5.5 1t5.5 1q6 0 6 -7q18 12 56 32q-2 8 -4.5 17t-11.5 11q1 5 8.5 16t7.5 18q0 3 -2 6l-10 -10q-3 7 -3 12q0 8 6 11q4 -6 9 -6q4 0 11 4t10 4q6 0 11 -8q-3 8 -3 16q0 16 14 43q16 31 19 43q29 11 76 13q74 2 78 3
q-12 -13 -12 -22q0 5 5 -22q2 -22 14 -65q-4 -2 -4 -7q0 -4 2 -11.5t2 -11.5q0 -11 -10 -16q20 -23 25 -70.5t22 -69.5q3 -1 6 -1q6 0 16 4.5t13 5.5q8 23 18 70q-2 7 -14.5 11.5t-12.5 11.5l6 -2q0 8 2.5 23.5t2.5 23.5q0 17 -14.5 51.5t-14.5 53.5q0 16 17 62q3 -6 10 -6
q4 0 12 2.5t12 2.5q8 0 13 -6q11 8 46 12q31 4 40 20h-3q-1 1 -1 2q0 3 7.5 5t8.5 5q-55 4 -167 16q10 8 10 20q0 7 13 13zM458 468h-5v-4h5v4zM358 462q-1 2 -6 2v-2t2 -1zM472 461l-5 -6h7q0 2 -2 6zM405 406h2q15 0 26 9q-2 2 -2 3l-3 1q-10 0 -23 -13zM412 231
q-3 5 -5 5h-2q0 -2 -1.5 -5t-1.5 -4t2 -2.5t3 -1.5t1.5 3t3.5 5zM405 48v-2q0 -6 6 -6q8 0 10 8q-2 0 -5.5 1.5t-5.5 1.5q-3 0 -5 -3zM539 -80l3 -7q0 5 -3 7zM508 -45q-9 0 -22 -9h2q-3 0 14 -7q-11 -1 -12.5 -15.5t-6.5 -14.5q-3 0 -8 2q3 -6 12.5 -6t10.5 -6l2 7
q4 -1 7 -11q11 5 19 14l-5 2q10 12 18 9q-14 35 -31 35zM494 -169q6 1 13.5 7.5t11.5 8.5q-13 0 -25 -16zM421 701l3 -14l-20 -4q8 -14 16 -14q4 0 8 4q0 1 -7 10q18 5 34 30.5t30 29.5q-4 2 -16 12t-20 10q-4 0 -9 -2q0 -18 -20 -18q-25 -1 -31 -11q2 -37 18 -37q5 0 14 4z
M227 735q-10 -6 -21 -12.5t-11 -16.5q0 -4 2 -9q11 -14 27 -17q5 4 25 6q17 1 16 15q-6 6 -6 11t8 14.5t8 16.5q-6 11 -14 11t-20 -10t-14 -9z" />
    <glyph glyph-name="Aring" unicode="&#xc5;" horiz-adv-x="692" 
d="M503 325q-12 39 -68 48q-9 -2 -17 -3.5t-15.5 -10t-7.5 -11.5t6 -7.5t6 -8.5q0 -3 -2 -7l-3 11q-5 -7 -14 -20q13 -6 35 -35q-48 -18 -114 -17h-6q-4 6 -4 14q0 10 7.5 29.5t7.5 30.5q0 6 -2 12q14 14 22 51q7 34 24 47q0 -9 8 -9h14h2q-2 -4 -2 -9q0 -10 10 -23
q15 -21 15 -22q9 2 14 9q-7 11 -18 11q-3 0 -7 -3q-1 2 -1 4q0 3 5.5 8t6.5 6q1 -12 13.5 -13.5t16.5 -9.5q7 7 7 15q0 5 -3 15t-2 18q-3 7 -21.5 10t-24.5 11q5 11 8 34q4 28 6 36q-4 1 -11 8t-14 6q1 0 2.5 4.5t5.5 2.5q-4 1 -10 7t-9 6q-4 0 -8 -6q2 4 2 7q0 9 -12 27
t-12 30q0 4 1 8q-6 4 -12 4q-12 0 -37 -22l26 -10q1 -5 -5.5 -5t-8.5 -4q1 -6 1 -13q0 -18 -5 -54.5t-5 -54.5q0 -27 8 -48q-3 -11 -12 -20q-13 -13 -15 -17q-8 -13 -17 -56q-6 -30 -13 -60q-59 -20 -179 -53q-4 3 -9 11q-2 1 -5 1q-6 0 -13 -6q-10 -8 -11 -9q-3 -4 -3 -7
q0 -4 6 -9t7 -9q22 17 44 17q5 0 9 -1q1 -12 2 -13q2 -5 10 -6q22 -3 24 -3q23 0 36 15q12 -1 31 -12q-7 -18 -14 -35q-8 -21 -8 -36q0 -6 1 -12q2 1 3 1q3 0 5 -4.5t5 -5.5q-6 -9 -24.5 -14t-25.5 -15q12 -3 12 -8q0 -3 -3.5 -9t-3.5 -10t2 -7q-4 2 -8 2q-5 0 -7 -4l2 1
q10 0 10 -7q0 -3 -2 -10t-2 -10q0 -9 8 -9q2 0 5.5 1t5.5 1q6 0 6 -7q18 12 56 32q-2 8 -4.5 17t-11.5 11q1 5 8.5 16t7.5 18q0 3 -2 6l-10 -10q-3 7 -3 12q0 8 6 11q4 -6 9 -6q4 0 11 4t10 4q6 0 11 -8q-3 8 -3 16q0 16 14 43q16 31 19 43q29 11 76 13q74 2 78 3
q-12 -13 -12 -22q0 5 5 -22q2 -22 14 -65q-4 -2 -4 -7q0 -4 2 -11.5t2 -11.5q0 -11 -10 -16q20 -23 25 -70.5t22 -69.5q3 -1 6 -1q6 0 16 4.5t13 5.5q8 23 18 70q-2 7 -14.5 11.5t-12.5 11.5l6 -2q0 8 2.5 23.5t2.5 23.5q0 17 -14.5 51.5t-14.5 53.5q0 16 17 62q3 -6 10 -6
q4 0 12 2.5t12 2.5q8 0 13 -6q11 8 46 12q31 4 40 20h-3q-1 1 -1 2q0 3 7.5 5t8.5 5q-55 4 -167 16q10 8 10 20q0 7 13 13zM458 438h-5v-4h5v4zM358 432q-1 2 -6 2v-2t2 -1zM472 431l-5 -6h7q0 2 -2 6zM405 376h2q15 0 26 9q-2 2 -2 3l-3 1q-10 0 -23 -13zM412 201
q-3 5 -5 5h-2q0 -2 -1.5 -5t-1.5 -4t2 -2.5t3 -1.5t1.5 3t3.5 5zM405 18v-2q0 -6 6 -6q8 0 10 8q-2 0 -5.5 1.5t-5.5 1.5q-3 0 -5 -3zM539 -110l3 -7q0 5 -3 7zM508 -75q-9 0 -22 -9h2q-3 0 14 -7q-11 -1 -12.5 -15.5t-6.5 -14.5q-3 0 -8 2q3 -6 12.5 -6t10.5 -6l2 7
q4 -1 7 -11q11 5 19 14l-5 2q10 12 18 9q-14 35 -31 35zM494 -199q6 1 13.5 7.5t11.5 8.5q-13 0 -25 -16zM216 687q4 -14 17 -14q35 0 28 1q8 12 33 38q22 23 31 39q9 3 18 3q15 0 39.5 -15.5t40.5 -15.5q8 0 16 2q2 5 2 9q0 15 -20 29q-16 10 -31 20q-20 -8 -57 -4
q-40 4 -57 -1q-19 -12 -54 -32q-13 -7 -13 -17q0 -5 4 -16.5t4 -18.5q0 -4 -1 -7zM485 699q7 7 7 12q0 4 -7 6q-10 3 -11 6q2 0 6 3.5t6 3.5q3 0 5 -4q2 4 2 7q0 4 -9.5 6.5t-6.5 10.5q-8 2 -21 -4l11 -6q-4 -1 -7.5 -9t-9.5 -5q0 -12 15.5 -21t15.5 -16q0 -5 -3 -11
q6 -4 14 -2l14 6q-2 6 -8.5 9.5t-12.5 7.5zM198 697q-1 11 -7 10q-1 -4 1 -7.5t6 -2.5zM443 687q1 2 4 7.5t3 8.5t-4 5q-5 2 -13 -3q-4 -8 -4 -19q0 -13 8 -16q1 -18 -12 -35.5t-25 -33.5q-28 -5 -38 -8q-21 -6 -34 -18q3 -14 4 -18q5 -11 13.5 -12.5t15.5 -1.5q28 0 40 23
q7 14 30 35q26 25 34 36.5t7 17.5q-2 12 -4 23q-8 4 -25 9zM324 592l-2 4l-3 3q-2 0 -4 -6.5t-4 -7.5q-15 5 -33 44q-17 36 -39 36q-5 0 -11 -2.5t-5 -5.5l4 -8q-2 2 -7 0q-6 -3 -7 -3q-4 0 -7 6q-2 6 4 12t6 9q-2 19 -28 13q-11 -2 -13 -13v-21q4 11 14 -3l-7 -7
q0 -10 11 -12.5t20 -4.5l-24 -14q3 -3 10.5 2t10.5 5q4 0 7 -3q-6 -7 -27 -18q33 -20 62 -20q16 0 28 8q9 -21 17 -21q-13 -8 -13 -16q0 -12 22 -12q14 0 19 8q-11 13 -28 17q16 -1 17 11q2 16 10 20z" />
    <glyph glyph-name="Ccedilla" unicode="&#xc7;" horiz-adv-x="530" 
d="M453 557q-19 14 -60 40q-10 6 -31 16q-4 3 -5.5 9.5t-8.5 8.5q-7 -7 -55 -7q-26 0 -40 -11q7 -8 14 -8q6 0 15.5 6t13.5 6q6 0 10 -5q-1 -3 0 -13q0 -7 -7 -10q2 -11 15 -12q17 -2 20 -4v-4q-1 -11 12 -23t14 -20h-1q-13 0 -13 -13v-3q10 -8 43 -13q28 -5 36 -21
q5 2 10 2q4 0 12 -1.5t12 -1.5q27 0 26 34v6q-2 5 -20 18q-14 10 -12 24zM155 485q2 3 2 7q0 2 -1 6t-1 6q0 6 7 9q3 -1 5.5 -6.5t6.5 -5.5q8 0 18 10q0 6 -8.5 8t-8.5 5t3 7h3q41 -1 83 35v3q1 16 -20 24q-17 5 -35 10q-5 -21 -31 -25q-29 -4 -37 -16q2 -4 2 -9
q0 -12 -18 -25l-28 -18q-1 -2 -1 -4q0 -3 10 -14q-4 -6 -27 -19q-17 -32 -17 -47q0 -12 7 -22q21 8 45 40t41 41zM297 573v-4v-4q0 -4 5 -8h2q9 0 12 9q0 2 -2 2q-1 0 -2.5 -0.5t-2.5 -1.5q-2 1 -1 5zM483 545q-2 4 -8 4t-6 -6q9 -3 11 -3q4 0 3 4v1zM318 513q8 8 8 5
q0 1 -1 2q-4 4 -6 4q-4 0 -4 -3q0 -2 1.5 -4.5t1.5 -3.5zM341 511q0 5 -5 5q-3 0 -5 -3v-1q-1 -7 6 -7q4 0 4 6zM94 327v5q1 16 -18 25l16 30q-4 5 -12 5q-19 0 -18 0q-7 -35 -7 -34q0 -8 5 -8h-3q-7 1 -17 -7t-15 -9q1 -30 25 -51q16 26 17 27q11 14 27 17zM86 246
q14 11 14 19q0 6 -8 13.5t-7 15.5q-25 -10 -25 -34q7 -2 7 -8q0 -3 -2.5 -9.5t-2.5 -9.5q0 -11 22 -11q17 0 29 9q0 7 -6 9h-11q-7 1 -10 6zM253 83q-16 3 -49 5q-7 10 -25.5 23t-25.5 23q2 -5 2 -8q0 -7 -7 -7q-3 0 -9 20t-18 25q-5 -7 -11 -7t-14 5l-13 9q3 1 8 1
q4 0 11 -1t11 -1q14 0 17 10l-10 9q1 2 3 2q-3 0 9 -4q-13 20 -38 26v-4q1 -10 -9.5 -24t-12.5 -21q4 -2 4 -15q0 -9 7 -10q-5 0 -14 -3q-3 2 -3 4t1.5 5t1.5 5q0 3 -4 5q-10 -8 -10 -25q0 -14 10 -21l13 7q2 -2 2 -6q0 -2 -1 -6t-1 -6q0 -7 10 -13t17 -6q4 0 8 2
q-1 -1 -1 -3q0 -4 3.5 -11.5t2.5 -11.5q5 -5 19.5 -8.5t19.5 -9.5h3q5 0 8 9t8 11q5 -1 5 -4q0 -1 -2.5 -5.5t-2.5 -7.5v-1h25q3 3 3 6t-2.5 7t-2.5 7v1q7 14 25 15q22 1 29 8zM74 187q1 -1 2 -1q2 0 4.5 3t4.5 3l-11 10q-2 -4 -2 -7t2 -8zM392 173q-8 -10 -8 -26
q0 -23 13 -36h2q7 0 13 8q9 13 10 13q0 12 -5 12q-2 0 -5.5 -1.5t-5.5 -1.5q-5 0 -9 7q7 7 15 7q3 0 7.5 -1t6.5 -1q5 0 8 4q-29 16 -39 16h-3zM381 101q-4 0 -10.5 -7.5t-10.5 -7.5q-3 0 -7 2l2 -1q-35 -6 -104 -25q-3 -9 -7 -17q-6 -12 -13 -12q-3 0 -9 3t-9 3
q4 -8 10 -26h4q10 -1 12 7q5 -1 6 -13.5t10 -12.5q8 0 23.5 4t23.5 4q9 0 16 -3q7 13 46 37q33 19 33 48q0 17 -16 17zM25 141zM258 -17l-5 -14q-14 3 -5 12t-4 11q9 17 22 54q-20 3 -34 -13q-21 -24 -28 -28q0 -11 -17.5 -25.5t-17.5 -24.5q0 -6 4 -13q4 1 7 1q7 0 14 -9.5
t11 -9.5q5 0 11 7q1 -7 12 -11.5t11 -10.5q0 -2 -2 -6q-3 -8 -14 -22q-14 -20 -21 -20q-3 0 -4 4q-11 -16 -11 -27q0 -8 6 -16q41 20 101 62q-13 8 -13 18q0 8 9.5 23t9.5 22q0 10 -16 23q-14 10 -26 13zM330 -35q2 6 -4 8q-4 1 -11 0q-1 -2 -1 -3q0 -9 16 -5zM325 -67
q-9 -9 -3 -11q7 -1 17 3l-6.5 6.5t-7.5 1.5zM168 -89l-14 -6l3 -3q4 1 8 2.5t3 6.5zM172 -141h9l-3 3zM289 -145l6 6l-9 -6h3zM173 -178q-11 8 -23 8q-17 0 -23 -14q4 -7 14 -6q13 2 15 1v2q3 5 8.5 6.5t8.5 2.5zM156 -189l3 -9q1 6 -3 9zM110 -190q1 -5 7 -3q5 3 -1 5l6 6
q-3 -3 -12 -8z" />
    <glyph glyph-name="Eacute" unicode="&#xc9;" horiz-adv-x="476" 
d="M386 559q-12 -5 -26 -5q-15 0 -43 9t-36 9q-7 0 -14 -9.5t-12 -9.5q-2 0 -4 1.5t-9.5 7t-6.5 11.5q-25 -17 -81 -16.5t-81 -16.5q-3 -7 -13 -12.5t-13 -10.5q6 -7 19 -54q9 -5 18 -5q7 0 10 3q-5 1 -5 9q0 16 0 14q1 -4 5.5 -12.5t4.5 -13.5q0 -3 -3 -6q10 0 37 28.5
t51 28.5q7 0 20 -2t20 -2q19 0 33 14q19 -13 33 -13q8 0 10 6.5t3 13.5q8 -3 19 -3q10 0 30 2.5t30 2.5q20 0 35 -7l14 13q-5 8 -22.5 12t-22.5 13zM252 566v4h-1q1 0 -4 -4q0 -1 1 -1q7 0 4 1zM119 227q-7 17 -11 23q-8 10 -21 12q4 8 16 18q39 9 106 10q80 1 107 4
q0 10 20 14.5t22 17.5q-7 11 -30 13t-25 9q-19 5 -40 5q-27 0 -69 -8q-52 -11 -68 -12q-7 8 -23 24q16 2 16 23q0 10 -14 24.5t-14 24.5q0 6 3 13q-6 5 -21 12l-5 -13q0 -3 4 -3q-6 -2 -11 -13t-11 -13q0 -7 -3 -29q-3 -18 -3 -29q0 -17 6 -30q-6 -2 -14.5 -12t-8.5 -7
q1 -2 1 -4t-1.5 -8t-1.5 -9l1 -4q5 -7 11 -7q4 0 10.5 4t10.5 4q5 0 10 -5q-3 -8 -16.5 -23t-13.5 -26q0 -2 5.5 -8t5.5 -9v-2l-4 4v-3q0 -4 4 -11.5t4 -10.5q0 -5 -10 -4v-4q0 -19 16 -19q21 0 35 27q19 35 25 40zM149 155q-5 2 -10 2q-6 0 -9 -3t-7 -3q-5 0 -12 5t-12 5
q-3 0 -7 -2v-6q0 -7 4.5 -22t4.5 -23q0 -15 -14 -22t-14 -24q0 -21 5 -32q4 -7 22 -24h2q7 0 17 7t16 7q11 51 11 63q0 10 -3 18q-12 7 -17 7v4q-1 10 11 20t12 19v4zM386 141l-16 11q-1 -4 -7.5 -8t-6.5 -8v-2q4 -4 9 -4t21 11zM344 128q0 3 1 6l-5 11h-12q-20 0 -56 -9
q-45 -12 -56.5 -14t-24 -22.5t-23.5 -19.5q7 0 17.5 -10t19.5 -8q3 -1 7 -1q9 0 21 8q16 9 19 11q6 -5 14 -16q2 1 29 1q12 0 19 4q7 0 8 -7l2 -12q23 18 67 54q-3 1 -6 1t-10 -1t-10 -1q-8 0 -14.5 8.5t-6.5 16.5zM71 142q-10 0 -8 -16v-2q3 -6 7 -6q9 0 9 13q0 11 -8 11z
M159 69q0 -9 -9 -23q2 -1 4 -1t3 6t6 6v2v3q1 2 1 3q0 4 -5 4zM344 695q2 8 -6.5 9.5t-7.5 7.5q3 5 7 5q3 0 9.5 -7.5t10.5 -7.5q7 2 7 12t3 13q-7 4 -15 4t-32 -8q-20 -8 -32 -5q-18 -19 -72 -46l-3 7q-6 3 -11 3q-10 0 -11.5 -21.5t-7.5 -21.5q-4 0 -11 5q0 1 10 14
q-5 -1 -13.5 1t-10.5 2q-7 0 -14 -7q-19 -22 -19 -36q0 -8 7 -13q1 1 3 2l10 -12q6 -1 12 -1q16 0 40.5 17t40.5 17q61 33 106 67z" />
    </font>
</defs>
</svg>
